<svg xmlns="http://www.w3.org/2000/svg" xmlns:xlink="http://www.w3.org/1999/xlink" viewBox="0 0 599.53 404.08"><defs><style>.cls-1{fill:url(#linear-gradient);}.cls-2{fill:url(#linear-gradient-2);}.cls-13,.cls-3{fill:#231f20;}.cls-3{opacity:0.36;}.cls-4{fill:url(#linear-gradient-3);}.cls-5{fill:#ff9100;}.cls-6{fill:url(#linear-gradient-4);}.cls-15,.cls-7{fill:#ff7300;}.cls-8{fill:url(#linear-gradient-5);}.cls-9{fill:#a54300;opacity:0.43;}.cls-10{fill:#af4c1b;}.cls-11{fill:#fbc499;}.cls-12{fill:#ffce00;}.cls-14{fill:#722604;}.cls-15{opacity:0.32;}.cls-16{fill:#a55723;}.cls-17{fill:#f22525;}.cls-18{fill:#aa2b2b;}.cls-18,.cls-19{opacity:0.61;}.cls-19,.cls-24{fill:#822222;}.cls-20{fill:#fff;}.cls-21{opacity:0.92;}.cls-22{fill:#fffbfb;}.cls-23{fill:#f0595a;}.cls-25{fill:#3a567e;}.cls-26{fill:url(#linear-gradient-6);}.cls-27{fill:url(#linear-gradient-7);}.cls-28{fill:url(#linear-gradient-8);}.cls-29{fill:url(#linear-gradient-9);}.cls-30{fill:url(#linear-gradient-10);}.cls-31{fill:url(#linear-gradient-11);}.cls-32{fill:url(#linear-gradient-12);}.cls-33{opacity:0.37;}.cls-34{opacity:0.3;}.cls-35{fill:url(#linear-gradient-13);}.cls-36{fill:url(#linear-gradient-14);}.cls-37{fill:url(#linear-gradient-15);}.cls-38{fill:url(#linear-gradient-16);}</style><linearGradient id="linear-gradient" x1="74.28" y1="477.72" x2="337.98" y2="329.7" gradientUnits="userSpaceOnUse"><stop offset="0" stop-color="#fff"/><stop offset="0.72" stop-color="#375d8a"/></linearGradient><linearGradient id="linear-gradient-2" x1="470.39" y1="447.02" x2="191.25" y2="374.38" gradientUnits="userSpaceOnUse"><stop offset="0" stop-color="#fff"/><stop offset="0.58" stop-color="#375d8a"/></linearGradient><linearGradient id="linear-gradient-3" x1="90.91" y1="195.87" x2="417.83" y2="195.87" gradientUnits="userSpaceOnUse"><stop offset="0" stop-color="#ff7300"/><stop offset="0.41" stop-color="#ffce00"/></linearGradient><linearGradient id="linear-gradient-4" x1="69.44" y1="272.98" x2="72.59" y2="272.98" gradientTransform="translate(18.52 -63.71)" gradientUnits="userSpaceOnUse"><stop offset="0" stop-color="#375d8a"/><stop offset="1" stop-color="#ffce00"/></linearGradient><linearGradient id="linear-gradient-5" x1="292.71" y1="229.48" x2="291.77" y2="379.95" gradientUnits="userSpaceOnUse"><stop offset="0.32" stop-color="#ff7300"/><stop offset="1" stop-color="#ffce00"/></linearGradient><linearGradient id="linear-gradient-6" x1="441.71" y1="180.58" x2="416" y2="204.08" gradientUnits="userSpaceOnUse"><stop offset="0" stop-color="#ff7300"/><stop offset="0.79" stop-color="#ffce00"/></linearGradient><linearGradient id="linear-gradient-7" x1="135.28" y1="217.32" x2="240.77" y2="358.21" gradientTransform="matrix(1, 0, 0, 1, 0, 0)" xlink:href="#linear-gradient-4"/><linearGradient id="linear-gradient-8" x1="17.69" y1="303.33" x2="253.12" y2="375.25" gradientUnits="userSpaceOnUse"><stop offset="0" stop-color="#375d8a"/><stop offset="0.71" stop-color="#ffce00"/></linearGradient><linearGradient id="linear-gradient-9" x1="481.58" y1="226.09" x2="337.36" y2="326.98" gradientUnits="userSpaceOnUse"><stop offset="0" stop-color="#375d8a"/><stop offset="0.83" stop-color="#ffce00"/></linearGradient><linearGradient id="linear-gradient-10" x1="586.78" y1="307.65" x2="346.38" y2="360.59" xlink:href="#linear-gradient-9"/><linearGradient id="linear-gradient-11" x1="522.16" y1="376.41" x2="475.64" y2="411.99" gradientUnits="userSpaceOnUse"><stop offset="0" stop-color="#ff7300"/><stop offset="0.68" stop-color="#ffce00"/></linearGradient><linearGradient id="linear-gradient-12" x1="302.98" y1="343.41" x2="302.98" y2="481.69" gradientUnits="userSpaceOnUse"><stop offset="0" stop-color="#ff7300"/><stop offset="0.53" stop-color="#ffce00"/></linearGradient><linearGradient id="linear-gradient-13" x1="102.89" y1="419.18" x2="181.02" y2="419.18" gradientUnits="userSpaceOnUse"><stop offset="0" stop-color="#fbb367"/><stop offset="1" stop-color="#fffcf3"/></linearGradient><linearGradient id="linear-gradient-14" x1="172.76" y1="426.8" x2="215.04" y2="448.04" xlink:href="#linear-gradient-3"/><linearGradient id="linear-gradient-15" x1="30.76" y1="188.55" x2="79.07" y2="188.55" gradientTransform="translate(-35.87 21.7) rotate(-7.85)" xlink:href="#linear-gradient-13"/><linearGradient id="linear-gradient-16" x1="462.35" y1="368.72" x2="401.95" y2="410.54" gradientUnits="userSpaceOnUse"><stop offset="0" stop-color="#ff7300"/><stop offset="0.63" stop-color="#ffce00"/></linearGradient></defs><title>Online course</title><g id="Background"><path class="cls-1" d="M290.56,448.85c-31.1,43-50.45,57.42-99.3,59.54S82,469.57,26.56,459.21c-53.92-10.09-7.95-62.44-5.45-65.23-1.68,2.22-21.89,30.94,44.27,53.83,68.86,23.82,106.39-20.57,138.53-33.47s-32.34-20-14.6-34.94a22.91,22.91,0,0,1,3-2.09c4.53-2.74,10.84-4.85,18-6.45,26-5.83,62.65-5.09,62.65-5.09l11.14,29.32S321.66,405.89,290.56,448.85Z" transform="translate(-0.47 -104.39)"/><path class="cls-2" d="M573.91,459.21c-55.4,10.36-115.85,51.31-164.7,49.18s-68.2-16.57-99.3-59.54,6.5-53.76,6.5-53.76l11.15-29.32s65.87-1.32,83.6,13.63-46.72,22-14.6,34.94c8.28,3.32,16.94,8.75,26.39,14.55,4.37,2.7,8.94,5.48,13.73,8.18A173.37,173.37,0,0,0,454.74,446h0a106.07,106.07,0,0,0,42,8.72,117.49,117.49,0,0,0,38.27-6.91c66.17-22.89,46-51.61,44.28-53.83C581.86,396.77,627.83,449.12,573.91,459.21Z" transform="translate(-0.47 -104.39)"/><path class="cls-3" d="M246.43,406.4c-10,1.83-16.14-9.06-22.12-10.6s-11.78-1.31-19.05-9c-2.72-2.87-7.74-6.3-13-9.46,4.53-2.74,10.84-4.85,18-6.45,6.65,3.35,28.62,14.37,33.22,16.12C248.92,389.06,256.43,404.59,246.43,406.4Z" transform="translate(-0.47 -104.39)"/><path class="cls-3" d="M189.64,456.1s12.77-12.59,20.54-15.1,4.31,3-3.28,8.37S184.55,460.78,189.64,456.1Z" transform="translate(-0.47 -104.39)"/><path class="cls-4" d="M337.1,283.07c-16.87,0-28.05-8.72-39.71-17.82-12.22-9.54-24.88-19.4-45-18.86s-38.57-7.33-51.54-22.15c-12.14-13.87-18.1-32.33-15.56-48.17,2.27-14.09,4.36-40-7.06-54.93-4.75-6.23-11.42-9.84-19.81-10.75-28.36-3-42.2,11-49.4,50.2-6.21,33.85-10.36,38.94-14.76,44.33-.72.89-1.48,1.81-2.24,2.87L90.91,207c.78-1.08,1.55-2,2.29-2.93,4.28-5.25,8.33-10.22,14.48-43.73,7.36-40,21.61-54.42,50.84-51.27,8.77.94,15.74,4.73,20.73,11.26,11.71,15.35,9.61,41.64,7.31,55.94-2.49,15.46,3.36,33.5,15.25,47.09,12.7,14.52,30.64,22.22,50.5,21.7,20.64-.55,33.49,9.46,45.89,19.13,15.28,11.93,29.71,23.18,57.54,14.39,50.05-15.84,60.7-63.6,60.8-64.09l1.29.28c-.1.49-10.92,49-61.7,65.07A63,63,0,0,1,337.1,283.07Z" transform="translate(-0.47 -104.39)"/><rect class="cls-5" x="85.87" y="210.61" width="1.12" height="4.39" rx="0.42" transform="translate(161.41 -108.52) rotate(41.28)"/><rect class="cls-6" x="87.96" y="204.89" width="3.15" height="8.76" rx="1.19" transform="translate(159.85 -111.45) rotate(41.28)"/></g><g id="Main_character" data-name="Main character"><path class="cls-7" d="M435.57,333.14c-2.33,4.91-2.33,9.83-2.33,20.19,0,5.76-2,9.93-6.21,12.44-3.33,2-8,3-14.25,2.83-14-.25-38.83-10.88-38.83-10.88s-5.95,18.4-29.5,26.16c-22.17,7.29-87.34-22.94-110.5-23.13a17.39,17.39,0,0,0-3.89.35c-18.6,4.14-8.46,26.66-8.46,26.66s-3.48,1-7.89-1.55a33.81,33.81,0,0,1-6.23-4.89c-1.42-1.37-2.58-2.64-3.51-3.56l-.09-.1c-2.08-2.07-23-11.64-26.66-16.83a1.71,1.71,0,0,0-.11-.14,15.3,15.3,0,0,0-4.42-3.52c-4.2-2.61-9.52-6.07-12.05-19.64-3.61-19.41,23.3-103.79,29.25-113.64a13.11,13.11,0,0,1,1.16-1.6,17.75,17.75,0,0,1,1.34-1.48c5.56-5.62,16.54-11.76,24.36-15.74,2-1,3.87-1.92,5.32-2.62,1.91-.92,3.19-1.5,3.48-1.63a.13.13,0,0,1,.07,0s-.7,4.42,5.21,10.37c4.83,4.86,14.08,10.75,31.73,16.11C291.51,236.05,324,214.79,339,203c5.36-4.19,8.52-7.18,8.52-7.18l.67.23c1,.39,3.18,1.18,5.61,2.21,3.62,1.53,7.9,3.54,10,5.38,4.14,3.56,9.57,1.36,22.26,6.47s16.57,29.58,17.6,39.68,18.89,34.94,18.89,42.19,3.89,12.69,8.3,18.64S437.9,328.22,435.57,333.14Z" transform="translate(-0.47 -104.39)"/><path class="cls-8" d="M264.89,388.19s-41.15-45.92-39.3-52.3-9.68-14.1-8.64-17.15-1.63-16,9.22-9.59-12.92-36.59,0-50,34.23-6.38,43.37-2.28,34.21,8.49,43.23-2.75,33.61-40.67,41.06-34.26,5.44,19.27,2.11,33.19-2,39.6,5.69,52.36,7.07,29.07,1.54,40.07S264.89,388.19,264.89,388.19Z" transform="translate(-0.47 -104.39)"/><path class="cls-9" d="M431.43,327.27c-3.29-6.13-14.51-39.95-16.57-42.88s-14.16-27-15.88-34.22-6.73-33.95-15.53-35.51-27.33-11.39-31.53-9.66-6.24,5.17-14.9,9.23-34.52,32.18-34.52,32.18-4.61,9-6.8,10.19,4.95.22,8-3.6,13.38-1.51,18.06-10.17,14.57-18.54,24.14-17.84,11.8,8.6,7.14,17.35-5.87,29.85-14.84,45.43-4,12,3.44,7.17-8.7,12.85-3.14,19.1,35,27.15,31.08,51.73,4.34-8,4.34-8,2.46-9.67-1.55-14.83-7.76-6.22-6.56-9.75,16.74,2.5,27,9.58,37.35,10.86,38.57,2.58S434.71,333.39,431.43,327.27ZM406,327.19c-5.19-.1-9.67-4-14.5-10.4s-9.86-2-9.86-2a8.47,8.47,0,0,1-.2-1.49,13.34,13.34,0,0,1-7.06-4.13c-4.54-4.58-7.39-23.25-10.75-43.81s14.36-28.1,10.87-22.5-3,18.73,0,25.16,3.89,11.82,3.37,19.78c-.41,6.33,2.86,18.72,4.21,23.57a23.19,23.19,0,0,1,12.36-15.42c9.83-4.77,18.74,2,17.51,4.86s-8.28,0-17.86,1.73a15.76,15.76,0,0,0-10.91,8.26,13.72,13.72,0,0,1,7.29-.48c3.91.87,6.37,5.76,10.17,10.51s11.83,5.87,11.83,5.87S411.14,327.27,406,327.19Zm4.39-7.52c-5.52-4.31-13.44-4.66-13.44-4.66l-2.26-2.67c7.76-.34,14.95,3.46,16.43,4.45s13.6,9.29,14.26,9.75C424.78,326.39,415.72,323.85,410.36,319.67Z" transform="translate(-0.47 -104.39)"/><path class="cls-9" d="M220.79,268s-3.37-15-14.07-15-10.69,23.45-6.21,31-.36,13.2,2.41,21.23,9.69,5.45,10,9.3-2.94,2.95-2.94,2.95-6.79-2.32-8.57-5.73-4.37-13.77-8.34-15.15-3.4,1.56-2,4.15,3.08,4.88-2.79,5.45-5.7,4.16-.17,7.11,22.37,3.55,23.12,8,1.38,4.26,1.38,4.26-5.69-2.73-9.92-1.95-8.54,1.2-15.79,1.95-10.7,7.13-6.9,13,20.36-4,25.28-2.68,6.3,8.21,10.78,9.76,10.13,8.8,10.13,8.8-9.16,3.11-14.79,8.29-20.19,7.07-27.26,0-15.36-22.15-14.33-32.39-2.24-30.26-.08-37.16,12.16-40.61,18.2-48.26,18.81-13.35,28-3.52S223.43,258.27,220.79,268Z" transform="translate(-0.47 -104.39)"/><path class="cls-10" d="M435.57,333.14c-2.33,4.91-2.33,9.83-2.33,20.19,0,5.76-2,9.93-6.21,12.44-14.92-1.13-40.48-25.22-47.38-28-7.76-3.17-4.31,4.71-4.31,4.71s-4.5-1-7.3-7.77,7.3-11.05,7.3-11.05,1.2,6.66,11.21,12.25,6.29.88,12.51,0,13.72,6.83,23.3,10.46,9.07-10.88,6.47-16S408,314.79,400.36,312.69s-2.67,6.64-7,.6c-4.19-5.82-11.55-1.87-12.09-1.57.46-.36,6.41-4.76,12.09-5.6,5.92-.88,10.92,1.91,16.62,3s8-2.41,4.92-8.55-8.81-8.09-16.8-5.65a20.6,20.6,0,0,0-11.51,9.29s.9-4.48,5.62-10.44,14.14-9.84,11.92-16.87-2.95-23.26-8.39-22.54-5.44,10.42-4.19,17.63.74,7.28-1.62,12.92-9.2,16.8-9.2,16.8.29-1.77.92-9.41,4.25-16.91,0-33.3,5.28-29.69,3.27-35.31-14.21,5.17-20.16,13.85-3.44,22.84-3.44,22.84.7,7.68-1.86,11.61-3.33-8-2.19-21.84,9.22-20.57,7.14-26.28,3.89-8-7.14-13.78-23.14,3.2-23.14,3.2L339,203c5.36-4.19,8.52-7.18,8.52-7.18l.67.23c1,.39,3.18,1.18,5.61,2.21,3.62,1.53,7.9,3.54,10,5.38,4.14,3.56,9.57,1.36,22.26,6.47s16.57,29.58,17.6,39.68,18.89,34.94,18.89,42.19,3.89,12.69,8.3,18.64S437.9,328.22,435.57,333.14Z" transform="translate(-0.47 -104.39)"/><path class="cls-9" d="M221.76,337.75s4-8.15,0-13.33-5.72-13.42-1-14.13,10.53,8.78,11.43,3.78-9-14-8.69-29.17,3.07-26.32,8.75-26.32-3.22-10.34,15.81-6.68,34.09,11.5,42.22,9.53-6.83-.07-17.85-9.53-29-16.63-33-23.86-11.86-10.23-18.68-7.23-8.68,9.45-4,22a68.6,68.6,0,0,1,3.35,34.09c-1.47,9.19-5.82,19.09-5.31,27.31a28.79,28.79,0,0,1-2.89,14.41s-3.28,1.18.69,6.94S222.32,333.21,221.76,337.75Z" transform="translate(-0.47 -104.39)"/><path class="cls-10" d="M223.73,251.08c-.15,6.82-4.32,2.34-8.94-6.6s-20.09-2-23.74,15.23S193.61,285,195.5,289s2.65,9.31-4.45,1.12-14.22-8.82-13.94-3.75,7.88,11.06,5.28,11.77-8.25,1.21-10.6,7.95,7.49,9.93,16,10.67,11.19,2.75,16.17,1.94,7.3,3.63,7.3,3.63a22.54,22.54,0,0,0-8.28,0c-4.14.86-11.4-.88-19,0s-16.91,7.24-9.49,21.56,17.6,19.9,25.2,16.77,13.08-11.43,19.31-9.28S212.77,366,213.11,375c.12,2.94-2.19,5-5.63,6.33-1.42-1.37-2.58-2.64-3.51-3.56l-.09-.1c-2.08-2.07-23-11.64-26.66-16.83a1.71,1.71,0,0,0-.11-.14,15.3,15.3,0,0,0-4.42-3.52c-4.2-2.61-9.52-6.07-12.05-19.64-3.61-19.41,23.3-103.79,29.25-113.64a13.11,13.11,0,0,1,1.16-1.6,17.75,17.75,0,0,1,1.34-1.48c5.56-5.62,16.54-11.76,24.36-15.74,2-1,3.87-1.92,5.32-2.62,1.91-.92,3.19-1.5,3.48-1.63a.13.13,0,0,1,.07,0l5.21,10.37,6.31,12.55s-19,2-20.39,8.11S223.87,244.26,223.73,251.08Z" transform="translate(-0.47 -104.39)"/><path class="cls-10" d="M353.83,198.26c-1.55,5.11-3.91,11.05-7.15,14.59-6.55,7.17-8.51,9.88-15.43,11s-11.48,10.51-12.53,15-2.32,6-7.8,6.86-9.28,1.13-10.31,4.45-4.66,4.21-4.66,4.21,4.71-6.17,5.55-11.55,18.53-11.62,20.29-16.44,21.61-15.25,24.14-22.75c.71-2.13,1.51-4.82,2.29-7.59C349.25,196.44,351.4,197.23,353.83,198.26Z" transform="translate(-0.47 -104.39)"/><path class="cls-10" d="M281.35,257.5s-1,.05-3.31,0-8.53-5.13-13.54-8.76-13.64-3.23-18.45-3.81-8.91-6.67-10.59-10.32-6.08-8.51-11.73-12.42c-3.71-2.56-5.91-11.36-7-17.12,2-1,3.87-1.92,5.32-2.62a45,45,0,0,1,3.8,9.46c1.53,6.51,8.16,10.57,8.76,15.48s16,12.55,22.42,13.6,11.41,6.07,13.62,9.18S281.35,257.5,281.35,257.5Z" transform="translate(-0.47 -104.39)"/><path class="cls-11" d="M219,385.3s5.76,5.57,11.45,7.38S243.61,406,250,392s-10-32-19.81-32.1S213.34,371.19,219,385.3Z" transform="translate(-0.47 -104.39)"/><path class="cls-7" d="M349.94,199c-.49,1.3-1.12,2.72-1.87,4.3-3.72,7.69-9.33,14.49-16.49,17.19a1.33,1.33,0,0,1-.21.09,18.38,18.38,0,0,0-4.18,2.16,24.45,24.45,0,0,0-9.54,13.44c-1.68,6.07-6.86,7.63-12.13,8.15s-6.25,5.3-9.87,6.6-2.59,4.14-5.35,6.67-2.93-.72-6.82-.72-9.07-1.81-14.62-6.86c-5-4.53-11.37-6.25-17-7.21-.63-.11-1.27-.2-1.89-.29a19.87,19.87,0,0,1-3.9-1,15.57,15.57,0,0,1-8.78-7.8c-2.28-4.58-5-9.56-8.5-12.18l-.18-.13c-1.74-1.24-3-4-4-7-1.06-3.13-1.77-6.44-2.3-8.17-1-3.38-1.3-7.12,2.46-11a13.17,13.17,0,0,0,2.53-3.54,12.85,12.85,0,0,0,1.08-3.14,29.44,29.44,0,0,0,.53-5.65c0-1.74,2.62-4,5.78-6.09a93.6,93.6,0,0,1,9.58-5.41c1.32-.66,2.17-1.06,2.17-1.06s8.59-2.92,14.44-1.81,52.38,1.69,64.32-3.56,19.43,4.21,21,9.48c1.49,5.09,4.2,10.76,5.08,13.66,0,.1.06.21.09.3C351.92,190.76,351.88,193.9,349.94,199Z" transform="translate(-0.47 -104.39)"/><path class="cls-10" d="M318,210.11s6.12-2.26,9.06-5.72,1.9-15.35,3.45-20.1a15.86,15.86,0,0,0,.7-8.11s-6.64,12.16-6.65,15.75S318,210.11,318,210.11Z" transform="translate(-0.47 -104.39)"/><path class="cls-12" d="M252.08,198.44c-.05,1.21-1.6-1-6.27,1.21s-9.08,4-9.06,8.26c0,0-4.09,1.88-6.12,7.7-.92,2.66-1.52,4.62-1.86,5.95l-.18-.13c-1.74-1.24-3-4-4-7,1.59-3.52,4.66-8.65,9.7-10.83,0,0-.7-5.89,1.89-7.44s12.6-5.34,12.86-5.56S252.15,197.21,252.08,198.44Z" transform="translate(-0.47 -104.39)"/><path class="cls-9" d="M264.89,227.27a40.58,40.58,0,0,1-6.91-2,39.07,39.07,0,0,1-11.05-6.41c-4.64-3.66-10.26-17.42-13.2-24.12A19.44,19.44,0,0,1,233,181.7c-.37,2.67,1.16,8.65,1.52,10-1-3.87-.54-9.84.08-14.75a93.6,93.6,0,0,1,9.58-5.41c3.77,5.53,9.75,28.56,9.55,31.34S264.89,227.27,264.89,227.27Z" transform="translate(-0.47 -104.39)"/><path class="cls-13" d="M248,191.93s3.36,19.15,6.21,23.16,4.79,8.87,6,8.81-.13-18.32-.32-18.58-6.15-7.89-7.38-9.12S248,191.93,248,191.93Z" transform="translate(-0.47 -104.39)"/><path class="cls-10" d="M230.06,197.67a58,58,0,0,1-2.81-5.88,12.85,12.85,0,0,0,1.08-3.14C228.63,192.15,229.15,195.74,230.06,197.67Z" transform="translate(-0.47 -104.39)"/><path class="cls-10" d="M269.54,232.48s-6.3-5.09-11.34-6.3-10.1-6.56-12.17-9.66a23.79,23.79,0,0,1-2.59-4.62s4.36,8,11.82,10.87,9.49,2.68,11.69,4.28S269.54,232.48,269.54,232.48Z" transform="translate(-0.47 -104.39)"/><path class="cls-10" d="M284.58,242.4s-5.94-4.46-11.67-4.14-11.26.52-13.68-.71-2.74-1.81-2.74-1.81a13.69,13.69,0,0,0,10.42,1.68c6.41-1.29,8-2.91,11.07-1.68S284.58,242.4,284.58,242.4Z" transform="translate(-0.47 -104.39)"/><path class="cls-10" d="M237.14,208.58s-3.71-6.21-4.23-7.42a8,8,0,0,1-.56-2.46s-.51,2.67,0,3.71S237.14,208.58,237.14,208.58Z" transform="translate(-0.47 -104.39)"/><path class="cls-14" d="M222.92,349.35s-2.39-7.5-2-11a6.2,6.2,0,0,0-3.1-6.39c-1.3-.52-4.84-2.93-5.44-5s-2.24-4.32-3.45-4.66,6.21-7.68,5-14.24,4.49-28,5.7-41.08-1.9-22-1.9-22,5.65,12.19,5.15,18.23-6.36,31.75-5.84,37.62-2.24,11.91-2.07,13.63-3.28,6.22-3.28,6.22a16.3,16.3,0,0,1,2.42,4.83c.51,2.24,3.1,4.83,5.69,6s2.77,4.49,3.11,6.73,0,10.5,2.45,12.25S223.5,351.34,222.92,349.35Z" transform="translate(-0.47 -104.39)"/><path class="cls-14" d="M211.21,322.35s-6.12-.43-8.28,0-6.65-.19-6.65-.19,5.37-.41,7.69-.84,6.55-.78,7.24,0S211.21,322.35,211.21,322.35Z" transform="translate(-0.47 -104.39)"/><path class="cls-14" d="M220.1,333.14s-3.88-2.33-7-2.42a21.24,21.24,0,0,1-8.71-2.41l-1.73-1s6.78,1.73,8.71,1.47,4.89,1.46,5.61,1.46S220.1,333.14,220.1,333.14Z" transform="translate(-0.47 -104.39)"/><path class="cls-14" d="M211.21,322.35s.17-3.19-3.71-5.35-6.82-5.35-7.85-8.63a18.52,18.52,0,0,1-1-4.14s2.25,7.08,7.08,9.06,6.21,5.35,6.21,5.35Z" transform="translate(-0.47 -104.39)"/><path class="cls-14" d="M221.59,266s1-10.7.67-14.24a21.37,21.37,0,0,0-1.47-6s2.93,5.52,2.93,10.14-2.93,13.41-2.93,13.41Z" transform="translate(-0.47 -104.39)"/><path class="cls-14" d="M214.79,237.14a54.92,54.92,0,0,0-23.74-14.85,17.75,17.75,0,0,1,1.34-1.48C204.21,224.37,214.09,236.28,214.79,237.14Z" transform="translate(-0.47 -104.39)"/><path class="cls-13" d="M177.11,360.69a15.3,15.3,0,0,0-4.42-3.52,28.16,28.16,0,0,0-3.24-6.26c-3.89-5.86-2.86-15-2.86-15a33.77,33.77,0,0,0,.71,5.1c.68,3.79,4.56,11.31,6.12,13.55C174.16,355.61,175.7,358.23,177.11,360.69Z" transform="translate(-0.47 -104.39)"/><path class="cls-14" d="M381.2,311.74s6.82-4.92,12.34-1.21,7.34,12.25,12.43,13.89c0,0-5.61-.26-8.29-5.09s-4.85-7.56-9.75-8.11-7.25,3.8-7.25,3.8Z" transform="translate(-0.47 -104.39)"/><path class="cls-14" d="M395.18,313.64s7.94-1,13.81,2.5l5.86,3.54s-7.33-6.39-12.85-7.25a41.33,41.33,0,0,0-8.67-.61Z" transform="translate(-0.47 -104.39)"/><path class="cls-14" d="M383,311.79s.78-7,8.37-12.56,12.71-6.91,12.71-6.91-12.19,2.42-17.88,8.63-4.49,11.74-4.49,11.74Z" transform="translate(-0.47 -104.39)"/><path class="cls-10" d="M309,223.9s-1.3,3.76-1,6.08-1.95,4.53-4.92,5.56a18.06,18.06,0,0,0-4.6,2.27,21.87,21.87,0,0,1,5.25-3.75c2.52-1.1,1.48-5.83,1.48-5.83Z" transform="translate(-0.47 -104.39)"/><path class="cls-14" d="M383,308.2s-2.58-5.18,0-10.1,8.29-15.18,9.24-18.81-2.51-13-2.51-13,3.37,8.37-.6,15.71-8.28,16-8.46,19.76,1.56,10.06,1.56,10.06Z" transform="translate(-0.47 -104.39)"/><path class="cls-14" d="M364.46,276.62s-5.35-26.58,0-36.59,16.21-22,16.21-22-18.28,17.09-20.18,29.28a89.15,89.15,0,0,0,0,24.27Z" transform="translate(-0.47 -104.39)"/><path class="cls-12" d="M268.08,230.53a16.69,16.69,0,0,0-11,2.43c-3.72,2.36-4.88,7.11-5.27,9.87-.63-.11-1.27-.2-1.89-.29a19.87,19.87,0,0,1-3.9-1c.47-3.66,2-9.32,6.49-11.94,7-4.07,12-3.11,12-3.11Z" transform="translate(-0.47 -104.39)"/><path class="cls-12" d="M331.58,220.51a1.33,1.33,0,0,1-.21.09,18.38,18.38,0,0,0-4.18,2.16,11.7,11.7,0,0,0-3.54-4.3c-3.88-3-10.88-1.12-10.88-1.12l3.28-4.15a18.2,18.2,0,0,1,7.33,0C326.93,213.77,330.2,218.34,331.58,220.51Z" transform="translate(-0.47 -104.39)"/><path class="cls-12" d="M349.94,199a36.52,36.52,0,0,0-7.4-10.51c-2.67-2.23-16-2.4-16-2.4s1-4.24,2.58-5.19,13.3.53,16,1.73c1.59.69,4.13,3.39,6,5.56,0,.1.06.21.09.3C351.92,190.76,351.88,193.9,349.94,199Z" transform="translate(-0.47 -104.39)"/><path class="cls-9" d="M326.58,166s5.53-4.52,10.7,10.69-.78,30.93-7,33.41-8.49,5.07-8.49,5.07,3.51-4.93,6-7a31.76,31.76,0,0,0-8.49,8.62c-4.07,5.92-7,4.66-7.44,8.44s-.63,9-3.64,10.54-6.8.86-8.61,2.62a38.38,38.38,0,0,0-2.93,3.14,8.67,8.67,0,0,1,4.57-5.27c3.62-1.64,4.05-2.77,4.05-2.77s-5.35,3-6.47,3.4-3.36,3.43-4.31,7.05-3.7,5.09-5.3,4.23-5-3-5.65-5.4,13.45-11,13.45-11,24.94-26,26.15-36.89S326.58,166,326.58,166Z" transform="translate(-0.47 -104.39)"/><path class="cls-13" d="M326.58,186.71s-1.73,15.1-2.76,18.72-4.23,3.57-6.21,5.62,1.55-18.3,3.45-19.6A64.39,64.39,0,0,0,326.58,186.71Z" transform="translate(-0.47 -104.39)"/><path class="cls-13" d="M242.19,154.09s-3.37-8.46,0-15.19S256,119.4,256,119.4l-4.15,12.94s6-11,8-12.94a11,11,0,0,0,2.5-3v5.09l-1.12,2.93s2.67-3.62,5.95-8.88a25,25,0,0,0,3.46-11.13l8.11,12.94s1-4.06,0-7.08-1.3-3.36-1.3-3.36l16.57,12s-.6-5.09-2.24-8.11-3.28-6.38-3.28-6.38,15.79,9.66,19.24,14.32,3.45,5.69,3.45,5.69l-1-6.47s5.17,5.78,6.38,9.32a19.83,19.83,0,0,1,1.21,5.78s.6-10.7,0-14.58a21.83,21.83,0,0,0-1.3-5.35s9.84,11.65,10.62,17.86-.52,14.93-.52,14.93S312.86,161,282.66,161,242.19,154.09,242.19,154.09Z" transform="translate(-0.47 -104.39)"/><path class="cls-11" d="M328.78,186.49c-1.23,3.11-4.76,6.06-6.6,7.45l0,0c-.24.18-.45.34-.62.45l-.07,0-.29.2v0a.42.42,0,0,0-.12.08l0,0v13.84a19.28,19.28,0,0,1-3,3.12c-3.88,3.27-9.49,13.46-9.93,16.13s-3.45,4.66-6.81,5.61-8.28,6.22-8.72,8.38-2,2.67-4.74,3-3.2-.78-4.92-2.93-7.59-4.83-10.87-5.44-3.3-2.33-3.3-2.33a18,18,0,0,0-6.19-6.89,10.92,10.92,0,0,1-3.45-4.16,3.35,3.35,0,0,1,.11-.38s-.07-1.55-.72-6.34c-.11-.79-.21-1.56-.33-2.27s-.2-1.37-.31-2-.21-1.24-.33-1.85c0,0,0-.06,0-.1s0-.07,0-.1c-.13-.61-.26-1.2-.39-1.82-.36-1.48-.78-3.06-1.33-4.91-1.56-5.19-5.43-5.31-8.41-7.52s-4.41-6.47-5.57-12.42.78-8.8,5.44-7.89,4.92-5.43,4.92-5.43a1.57,1.57,0,0,1,.34-1.08h0c4.4-5.65,49.12-3.77,64.21-3,3.09.17,4.93.29,4.93.29v11s4.14-7.23,6.22-8a3.7,3.7,0,0,1,5.17,2.59C333.57,174.45,330.46,182.22,328.78,186.49Z" transform="translate(-0.47 -104.39)"/><path class="cls-15" d="M296.73,228.38c.43-.21.81-.43,1.16-.64-2.41,2.15-6.24,4.82-10.6,5-7.37.26-9.85-.78-13.09-3.54-2.71-2.32-12.32-14.36-16.7-19.11-.13-.61-.26-1.2-.39-1.82-.36-1.48-.78-3.06-1.33-4.91-1.56-5.19-5.43-5.31-8.41-7.52s-4.41-6.47-5.57-12.42.78-8.8,5.44-7.89,4.92-5.43,4.92-5.43a1.57,1.57,0,0,1,.34-1.08s0,0,0,0c3.32.82,8.85,4.62,9.38,5-.43-.2-4.69-1.93-5.4,4.37-.77,6.64-2.05,19.16,1.48,25.8s11.47,17.91,14.93,21.08,5.3,4.72,11.67,5.31S293.65,229.85,296.73,228.38Z" transform="translate(-0.47 -104.39)"/><path class="cls-15" d="M321,194.77v13.84a19.28,19.28,0,0,1-3,3.12c-3.88,3.27-9.49,13.46-9.93,16.13s-3.45,4.66-6.81,5.61-8.28,6.22-8.72,8.38-2,2.67-4.74,3-3.2-.78-4.92-2.93-7.59-4.83-10.87-5.44-3.3-2.33-3.3-2.33a18,18,0,0,0-6.19-6.89,10.92,10.92,0,0,1-3.45-4.16,3.35,3.35,0,0,1,.11-.38s-.07-1.55-.72-6.34c-.21-1.56-.41-2.95-.64-4.29-.1-.66-.22-1.31-.34-1.95,4.07,4.44,15.66,17.1,18.06,19.83,2.94,3.33,12.37,2.58,12.37,2.58,6.85,2.35,23.35-16.34,25.88-19.25s5.67-15.91,5.94-17A3.13,3.13,0,0,1,321,194.77Z" transform="translate(-0.47 -104.39)"/><path class="cls-15" d="M249.05,170.91s10.92,4.33,31.28,4.5,36.24-3.72,39.91-5.62,4-4.14,4-4.14S249.18,167,249.05,170.91Z" transform="translate(-0.47 -104.39)"/><path class="cls-10" d="M249.05,195.32s2.61,1.47,3.43.88-1.77-8.52-3-9.61-1-3.85-3.07-5.67-3.48-2.5-3.69-.58a17.79,17.79,0,0,0,.6,5s-.56-3.8.56-3.93,3.24,2.68,3.54,3.63.56,2.51.86,2.7-1.85-.55-1.12,1.57,1.9,1.81,2.63,2.24a5.23,5.23,0,0,1,1.64,2.93C251.47,195.2,250.17,195.57,249.05,195.32Z" transform="translate(-0.47 -104.39)"/><path class="cls-15" d="M328.78,186.49c-1.23,3.11-4.76,6.06-6.6,7.45l0,0c-.24.18-.45.34-.62.45l-.07,0-.29.2v0a.42.42,0,0,0-.12.08l0,0v.45c-.63.39-1,.6-1,.6s.51,1.19-3,10.65c-3.38,9.17-13,15.86-13.64,16.26,5.05-4.62,11-15.07,13.28-23.17s1.72-14.24,1.38-22.86-8.46-8.28-8.46-8.28l7.15-2.41c3.09.17,4.93.29,4.93.29v11s4.14-7.23,6.22-8a3.7,3.7,0,0,1,5.17,2.59C333.57,174.45,330.46,182.22,328.78,186.49Z" transform="translate(-0.47 -104.39)"/><path class="cls-16" d="M321,194.94v8.42c-1,2-2.48,4.68-4.35,7.84-3.11,5.24-14.58,19-20.71,23.41s-15.36,1.71-20.28-1c-3.89-2.1-13.59-14.43-17.5-19.52-.1-.71-.2-1.37-.31-2s-.21-1.24-.33-1.85c3.15,2.49,10,12.17,13.43,16.14a21.88,21.88,0,0,0,9.71,6.09,80.29,80.29,0,0,0,10.41,0c5.51-.38,17.38-13.68,21.69-18.51S320,195.82,320,195.82Z" transform="translate(-0.47 -104.39)"/><path class="cls-13" d="M288.7,232.61s-10.87.78-11.56,0S264,219.75,262,216.56a20.75,20.75,0,0,0-4.18-4.46c-.21-1.29-.46-2.55-.75-3.87,2.76,3.2,6.6,7.75,8.47,10.4,3.1,4.4,10.87,12,12.59,12.69S288.7,232.61,288.7,232.61Z" transform="translate(-0.47 -104.39)"/><path class="cls-15" d="M262.78,175.87s-3.2,2-3.55,4.47a17.37,17.37,0,0,1,15.38,2.59c7.57,5.5-.32,16,2.66,21.36a11.66,11.66,0,0,0,8.41,5.82s-3.45-3.36-2.86-6.47,1.74-20.39.72-21.94-6-3.49-6-3.49S265.05,175.09,262.78,175.87Z" transform="translate(-0.47 -104.39)"/><path class="cls-9" d="M268.08,176.18s13.93,2.89,14,11.11-1.49,14.65,0,18.16,1.9,3.19,1.9,3.19a13.93,13.93,0,0,1-.88-7.52c.81-3.71,1.83-18.37-.24-20.09S268.08,176.18,268.08,176.18Z" transform="translate(-0.47 -104.39)"/><path class="cls-13" d="M292.09,232.94c.15-.08.82-.43,1.91-1.11A7.32,7.32,0,0,1,292.09,232.94Z" transform="translate(-0.47 -104.39)"/><path class="cls-13" d="M321,194.8a97.35,97.35,0,0,1-2.71,9.86c-1.39,3.79.17,3.53-8.45,13.54A70.83,70.83,0,0,1,294,231.82c5.41-3.89,17.74-16.36,20.14-20.6,2.22-4,4.56-12.41,5.38-15.5C320,195.49,320.48,195.17,321,194.8Z" transform="translate(-0.47 -104.39)"/><path class="cls-13" d="M321.06,164.55l-.82,24.08s2.07-8.68,4.27-10.68a23.3,23.3,0,0,0,3.56-4.14l-2.46,1.48s1.75-3.3,3.37-3.88a8,8,0,0,1,2.33-.58l-2.85-.84s3.74-1.49,4.65-1.36l.91.13L330.08,167s.9-1.95,2.07-2.4,3.3-1.16,3.3-1.16-3.43-2-5.31-1.88a16.92,16.92,0,0,1-5.11-1Z" transform="translate(-0.47 -104.39)"/><path class="cls-13" d="M242.45,175.1s2.07,1.42,2.2,2.59a6,6,0,0,0,1.16,2.46l-3-1.43s5.56,6.22,6.92,8.29,4,10,4,10-.84-12.16-.45-14.95-.22-10.79-1.14-12.29-6.43-6-6.43-6l-3.69,2.39,1.94.59s-3.95,2.39-4.46,3.69l-.52,1.29,3.11-1.1a5,5,0,0,0-1.75,2.78c-.2,1.56-.26,1.88-.26,1.88l1.75-2.46s-.72,3.43-.72,3.62S242.45,175.1,242.45,175.1Z" transform="translate(-0.47 -104.39)"/><path class="cls-17" d="M329.69,160.48c-.17,3.62-6.22,7.25-15.7,9.66s-35.9,4.23-52.3,2.59c-11.58-1.17-16.52-6-18.42-8.77A8.3,8.3,0,0,1,242.2,162c-1.3-.6-1.47-6.29-2-8.79a13.41,13.41,0,0,1,0-4,29.8,29.8,0,0,1,.51-3s0,2.42,3.09,4.58,14.33,4.39,22.62,4.22,26.58,1,40.81-2.33,20.1-13.21,20.1-13.21a2.22,2.22,0,0,1,.95.59,1.83,1.83,0,0,1,.44.71A25.43,25.43,0,0,1,329,149a24.22,24.22,0,0,0,.25,5.72A33.08,33.08,0,0,1,329.69,160.48Z" transform="translate(-0.47 -104.39)"/><path class="cls-18" d="M329.24,154.71a19.35,19.35,0,0,1-6.89,5.16c-11.3,5.26-15,5.44-13.72,4.4s8.28-3,10.7-4.92.44-2.08-1.72-1.64S311,158.49,308,160s-13.29,3.36-15.45,3.19,2.06-.52,5.31-1.38,8.68-1.47,13-3.71,6.64-2.44,8.11-3.51-2.5-1.26-6.05,0S297,159.7,290.08,160s-15.49.61-23.23-.52-13.08-2.42-13.08-2.42,1.1,1.91,5.45,2.86,8.31,3.33,13.55,3.56,10.67.66,10.67.66-9.4,0-13.76-.47-7.25-1.76-9.82-1.51a17.92,17.92,0,0,1-6.54-.25c-1.81-.53-3.37-1-3.37-1s5.53,3.88,9.58,4.66,13.12,4.75,20.28,4.31A110.06,110.06,0,0,1,293,170s-15.54,1.43-18.9.92-9.78-2.85-13.43-2.85-7.63.62-13.84-2.06a19.67,19.67,0,0,1-3.58-2A8.3,8.3,0,0,1,242.2,162c-1.3-.6-1.47-6.29-2-8.79a13.41,13.41,0,0,1,0-4,29.8,29.8,0,0,1,.51-3s0,2.42,3.09,4.58,14.33,4.39,22.62,4.22,26.58,1,40.81-2.33,20.1-13.21,20.1-13.21a2.22,2.22,0,0,1,.95.59,1.83,1.83,0,0,1,.44.71A25.43,25.43,0,0,1,329,149,24.22,24.22,0,0,0,329.24,154.71Z" transform="translate(-0.47 -104.39)"/><path class="cls-19" d="M328.3,140c-3.52,7.36-11.55,12.33-24.37,14.66-15,2.71-39.86,2.44-52.94,0-5.74-1.09-9-3.33-10.77-5.48a29.8,29.8,0,0,1,.51-3s0,2.42,3.09,4.58,14.33,4.39,22.62,4.22,26.58,1,40.81-2.33,20.1-13.21,20.1-13.21A2.22,2.22,0,0,1,328.3,140Z" transform="translate(-0.47 -104.39)"/><path class="cls-13" d="M259.86,178.72s1.94-4.27,9.38-2,13.46,2.78,14.17,6-.9,22.65-.64,24,2.91,3.36,2.91,3.36-2.33-2.46-2.14-4.72,1-20.26.72-22.4-1.43-2.84-3.43-3.68-12.24-3.76-14.76-3.89S261.48,175.81,259.86,178.72Z" transform="translate(-0.47 -104.39)"/><path class="cls-13" d="M294.39,181.7s11.14-8.11,16.57-8.8,5.7,2.16,5.7,2.16S311.65,169.88,294.39,181.7Z" transform="translate(-0.47 -104.39)"/><ellipse class="cls-13" cx="268.29" cy="90.94" rx="1.91" ry="5.47"/><ellipse class="cls-20" cx="268.39" cy="88.82" rx="0.78" ry="2.12"/><ellipse class="cls-13" cx="304.79" cy="88.37" rx="1.91" ry="5.47"/><ellipse class="cls-20" cx="304.89" cy="86.25" rx="0.78" ry="2.12"/><path class="cls-13" d="M282.12,222.28s7.5-6,16.37-3.69C298.49,218.59,289.89,214.06,282.12,222.28Z" transform="translate(-0.47 -104.39)"/><path class="cls-13" d="M293.78,218.06l19.34-22.12c.45-.52.71.84.71,1s-18.62,20.59-18.62,20.59Z" transform="translate(-0.47 -104.39)"/><g class="cls-21"><path class="cls-12" d="M357.93,291.69l-25.74,29.65a3.63,3.63,0,0,1-6-.83L304.9,275l-1.09-2.32a7.63,7.63,0,0,1,2-9.06l31.58-27a3.31,3.31,0,0,1,5.28,1.44l.7,2,15.75,45.61A6.1,6.1,0,0,1,357.93,291.69Z" transform="translate(-0.47 -104.39)"/><path class="cls-20" d="M339.49,235.83a3.3,3.3,0,0,1,3.14,2.23l.7,2,15.75,45.61a6.1,6.1,0,0,1-1.15,6l-25.74,29.65a3.59,3.59,0,0,1-2.74,1.26,3.63,3.63,0,0,1-3.3-2.09L304.9,275l-1.09-2.32a7.63,7.63,0,0,1,2-9.06l31.58-27a3.28,3.28,0,0,1,2.14-.79m0-.66h0a4,4,0,0,0-2.57,1l-31.58,27a8.32,8.32,0,0,0-2.13,9.85l1.09,2.31,21.25,45.53a4.29,4.29,0,0,0,3.9,2.47,4.25,4.25,0,0,0,3.24-1.49l25.74-29.65a6.73,6.73,0,0,0,1.27-6.64L344,239.87l-.7-2a4,4,0,0,0-3.77-2.68Z" transform="translate(-0.47 -104.39)"/></g><path class="cls-5" d="M343.33,240.09,304.9,275l-1.09-2.32a7.63,7.63,0,0,1,2-9.06l31.58-27a3.31,3.31,0,0,1,5.28,1.44Z" transform="translate(-0.47 -104.39)"/><polygon class="cls-7" points="310.45 172.54 320.59 194.71 335.17 179.57 326.11 157.05 310.45 172.54"/><polygon class="cls-22" points="328.77 154.91 330.78 159.57 343.39 147.73 341.45 142.96 328.77 154.91"/><polygon class="cls-22" points="332.54 162.97 334.55 167.63 347.16 155.79 345.22 151.02 332.54 162.97"/><circle class="cls-22" cx="306.52" cy="163.6" r="1.38"/><circle class="cls-22" cx="311.01" cy="159.57" r="1.38"/><circle class="cls-22" cx="315.46" cy="156.02" r="1.38"/><path class="cls-11" d="M375.34,305.26s-.07.19-.2.51c-1.14,2.76-6.81,16.15-12.07,19.09a5.06,5.06,0,0,1-3.9.54c-4-1-7-6.53-7.51-7.79a5.49,5.49,0,0,0-.7-1.17v0a7.49,7.49,0,0,0-2.29-1.83.14.14,0,0,1-.08,0c-1.23-.68-6.91-3.08-6.91-4.45a15,15,0,0,0-.53-3.85,9,9,0,0,0-.4-1.17,6.14,6.14,0,0,0-.37-.84.76.76,0,0,1-.06-.16,8.24,8.24,0,0,1-.45-4.18,6.66,6.66,0,0,1,.51-2.05,7,7,0,0,0,.67-2.14,8,8,0,0,0,.1-1.1h0a6.06,6.06,0,0,0-.07-1,3.58,3.58,0,0,0-.09-.45,10.79,10.79,0,0,1-.2-3.25,5.06,5.06,0,0,1,1.58-3.65,2.72,2.72,0,0,0,.53-.54,4.68,4.68,0,0,0,.62-1.33,6.48,6.48,0,0,0,.17-.63,22,22,0,0,0,.42-4c0-.41,0-.77.07-1,.16-1.66,10.55-11.55,12.78-12.39a.78.78,0,0,1,.27-.05c1.47.09,6.89,2.25,9,5.44s3.61,13.86,3.11,19.58v.09c-.22,2.26.68,4.91,1.84,7.29a40.75,40.75,0,0,0,3.9,6.33C375.26,305.17,375.34,305.26,375.34,305.26Z" transform="translate(-0.47 -104.39)"/><path class="cls-16" d="M351,316.42a7.49,7.49,0,0,0-2.29-1.83.14.14,0,0,1-.08,0c.2-2.74-2.66-4.25-2.66-4.25a5.5,5.5,0,0,1,3.17,1.81A14.13,14.13,0,0,1,351,316.42Z" transform="translate(-0.47 -104.39)"/><path class="cls-16" d="M349.08,294.94c-.14.33-1.08,2.45-5,6.94a16.91,16.91,0,0,0-2.9,4.36,10.52,10.52,0,0,0-.77-2,.76.76,0,0,1-.06-.16,10.58,10.58,0,0,1,2.5-2.44A30.08,30.08,0,0,0,349.08,294.94Z" transform="translate(-0.47 -104.39)"/><path class="cls-16" d="M349.67,286.75a49,49,0,0,1-5.09,5.14,28.06,28.06,0,0,0-3.53,3.81,7,7,0,0,0,0-2.15,8.19,8.19,0,0,1,1.94-1.66C345,290.71,349.39,287,349.67,286.75Z" transform="translate(-0.47 -104.39)"/><path class="cls-15" d="M374.64,313.89c-1.21,6.66-16.09,14.16-16.09,14.16a6.33,6.33,0,0,1,.62-2.65,13.16,13.16,0,0,1,3.31-4.43c4.14-3.8,2.33-7.94.7-12.6s-8-10.36-9.08-14.33,2.77-20.87,3.47-24.33a5,5,0,0,0-.61-3.4.78.78,0,0,1,.27-.05c1.47.09,6.89,2.25,9,5.44s3.61,13.86,3.11,19.58v.09c-.22,2.26.68,4.91,1.84,7.29a40.75,40.75,0,0,0,3.9,6.33c0,.25,0,.51,0,.78A42.6,42.6,0,0,1,374.64,313.89Z" transform="translate(-0.47 -104.39)"/><path class="cls-16" d="M351.92,276.92c-.09.16-.79,1.14-4.95,5.41a16.65,16.65,0,0,1-4.07,3.33,5.45,5.45,0,0,0,.79-2C346.67,282,351.55,277.27,351.92,276.92Z" transform="translate(-0.47 -104.39)"/><path class="cls-16" d="M371.23,298.66c-2.41,3.88-3.17,11.63-3.17,11.63s-.06-4.34,0-8.21c0-1.9.68-6.53,1.33-10.8v.09C369.17,293.63,370.07,296.28,371.23,298.66Z" transform="translate(-0.47 -104.39)"/><path class="cls-13" d="M372.14,299.74s.09,11.39-4.31,17.78-10.44,7.08-10.44,7.08a4.91,4.91,0,0,0,1.38,4.83c2.24,2.24,4.66,4.92,6.64,7s6,2,11.22-2.16,8.71-13.38,8.2-19.67-3.28-4.49-6.73-9.15S373.69,299.57,372.14,299.74Z" transform="translate(-0.47 -104.39)"/><path class="cls-13" d="M234,360.75a17.39,17.39,0,0,0-3.89.35c-18.6,4.14-8.46,26.66-8.46,26.66s-3.48,1-7.89-1.55-7.67-6.38-9.74-8.45c.54-5.44,1.95-13.16,5.48-18.22,6-8.54,8.8-8.4,10.61-10.1s8.15,2.33,9.32,4.41C230.46,355.77,233.91,358,234,360.75Z" transform="translate(-0.47 -104.39)"/><path class="cls-10" d="M323,184.59s1.42-5.35,2.93-7a19.53,19.53,0,0,0,3-3.92c.3-.65,1.86-1,2.33-.36s0,2.56,0,2.56.56-1.9-1-1.86-1.77,2.48-2.59,3.19a13.87,13.87,0,0,0-2.55,4.15c-.21.82-.56,1.12.18,1.16s1.89-.21,1.64,1-2.72,2.76-2.94,3.36-1.68,2.74-1,3,1.89-1,1.89-1a10.5,10.5,0,0,1-2.07,2.41c-.81.48-1.37.26-1.29-.39a16,16,0,0,1,1-3.32,14.93,14.93,0,0,0,1.43-2.37C324.08,184.59,323,184.59,323,184.59Z" transform="translate(-0.47 -104.39)"/><path class="cls-13" d="M282.47,258.24c-2.52,0-8.36-3.27-14.8-8.36-5.39-4.25-10.43-5.21-15.3-6.13-1.87-.36-3.65-.7-5.43-1.21-7.37-2.12-10.16-7.23-11.77-11.45-1.81-4.76-5.51-7.93-7.72-9.82l-.21-.17c-2.2-1.89-3.5-6-5.44-14-1.7-7,.1-9.35,1.17-10.73.11-.15.22-.28.31-.41a7.55,7.55,0,0,1,.93-1,11.5,11.5,0,0,0,3.7-7.72c.16-1.45.22-2.5.27-3.27.14-2.65.22-2.79,2.84-5.15l.11-.1c3.46-3.11,12-7.38,12.32-7.56l.59,1.19c-.09,0-8.7,4.36-12,7.36l-.11.1c-2.29,2.06-2.29,2.06-2.41,4.24-.05.78-.11,1.85-.27,3.33a12.74,12.74,0,0,1-4.09,8.51,7.69,7.69,0,0,0-.78.85l-.34.46c-1,1.27-2.49,3.2-.93,9.61,1.86,7.7,3.09,11.65,5,13.3l.2.18c2.16,1.84,6.17,5.27,8.1,10.35,1.59,4.17,4.12,8.7,10.9,10.65,1.72.5,3.46.83,5.31,1.18,5,1,10.23,1.94,15.87,6.4,8.1,6.4,13.22,8.4,14.18,8l.45,1.24A1.81,1.81,0,0,1,282.47,258.24Z" transform="translate(-0.47 -104.39)"/><path class="cls-22" d="M281.45,252.89s.61-1.64,2.76-.69-1.81,9.82-1.38,14.06,4.66,13.81,8.2,18.3,4.23,12.68,2.93,16.65-2.84,6.31-.43,10.58-3.28,11.86-3.28,11.86-2,.06-1.55-1,4.4-4.91,3.54-8.19-2.76-6.9-1.73-9.4,5.7-10.65,2.25-16-10.62-12.33-11.31-17.85S283.61,256.08,281.45,252.89Z" transform="translate(-0.47 -104.39)"/><path class="cls-23" d="M284.21,328.69s3.11-4.93,4.1-5,1.6.51,1,1.59a33.47,33.47,0,0,1-3.76,5C285,330.68,283.57,329.69,284.21,328.69Z" transform="translate(-0.47 -104.39)"/><path class="cls-13" d="M299.44,248.93l-1.12-.71c2.56-4.09,7.58-4.83,10.57-5.27.76-.12,1.41-.21,1.85-.33,2.39-.66,4.49-1.59,6.18-6.28,1.57-4.37,1.69-4.56,3.78-7.73.4-.59.86-1.3,1.42-2.16,2.33-3.58,5.77-5.13,9.09-6.64a32.15,32.15,0,0,0,5.63-3c4.71-3.37,10.63-12.36,13.18-20.05a15.31,15.31,0,0,0-1-12.6c-.2-.42-.37-.79-.51-1.12-.87-2.18-3.53-10.16-3.82-11-4.27-7.28-12.47-7.82-12.55-7.83l.08-1.32c.36,0,9,.6,13.65,8.54l.05.13c0,.08,2.93,8.8,3.82,11q.19.47.48,1.05a16.52,16.52,0,0,1,1,13.59c-2.62,7.91-8.75,17.2-13.66,20.7a34.27,34.27,0,0,1-5.85,3.14c-3.3,1.49-6.41,2.9-8.53,6.15-.56.87-1,1.58-1.42,2.17-2.05,3.1-2.13,3.22-3.65,7.44-1.89,5.28-4.53,6.41-7.07,7.11a16.85,16.85,0,0,1-2,.36C306.14,244.69,301.68,245.35,299.44,248.93Z" transform="translate(-0.47 -104.39)"/><path class="cls-22" d="M296.83,245.79s.53-1.43,2.41-.61-1.58,8.57-1.21,12.27,4.07,12.05,7.15,16,3.69,11.06,2.56,14.53-2.48,5.5-.37,9.22-2.86,10.35-2.86,10.35-1.73.05-1.36-.92,3.84-4.28,3.09-7.14-2.41-6-1.51-8.2,5-9.29,2-13.94-9.26-10.75-9.86-15.57S298.71,248.57,296.83,245.79Z" transform="translate(-0.47 -104.39)"/><path class="cls-23" d="M299.24,311.91s2.71-4.31,3.57-4.4,1.4.45.91,1.39a28.91,28.91,0,0,1-3.28,4.36C300,313.64,298.67,312.78,299.24,311.91Z" transform="translate(-0.47 -104.39)"/><path class="cls-13" d="M287.48,245.46c-1.76,0-3-.74-4.13-2.45s-5.31-4.86-9.57-5.74l-.35-.07c-3.94-.81-4.05-.89-6-4.66a11.94,11.94,0,0,0-4.41-4.6,13.4,13.4,0,0,1-2-1.58c-1.82-1.83-3.24-6.7-3.3-6.9l.64-.19s1.43,4.92,3.13,6.62a12.37,12.37,0,0,0,1.93,1.5,12.59,12.59,0,0,1,4.63,4.84c1.87,3.56,1.87,3.56,5.57,4.32l.35.07c4.19.86,8.45,3.8,10,6,1.38,2,2.73,2.49,5.31,2a3.46,3.46,0,0,0,3-2.66l.06-.2c.24-.73,3.43-6.65,8.49-8.43s6.53-3.05,7.19-6.16c.75-3.54,7.47-14.82,12.87-18.56h0a5.58,5.58,0,0,0,1.35-3.14h.66a6.08,6.08,0,0,1-1.58,3.64c-5.43,3.76-12,15.1-12.65,18.2-.72,3.36-2.35,4.78-7.62,6.64-4.78,1.69-7.89,7.42-8.09,8l-.05.18a4.09,4.09,0,0,1-3.51,3.12A9.28,9.28,0,0,1,287.48,245.46Z" transform="translate(-0.47 -104.39)"/><path class="cls-13" d="M258,224.63a17.12,17.12,0,0,1-5.65-2.35c-2.42-1.71-3.28-2.47-3.28-2.47s5.18,4.91,7.72,5.73a48.68,48.68,0,0,1,5.87,2C263.37,228,262.08,226.06,258,224.63Z" transform="translate(-0.47 -104.39)"/><path class="cls-14" d="M242.67,211.05c0-.55-2.42-4.17-3.07-5.6a28.8,28.8,0,0,1-1.28-4.33s3.22,6.19,3.81,7.11a35.32,35.32,0,0,1,1.73,4.62Z" transform="translate(-0.47 -104.39)"/><path class="cls-13" d="M263.44,237.81a33.57,33.57,0,0,0,7.1,0,17.76,17.76,0,0,1,7.4.6,13.6,13.6,0,0,0-5-1.73C270.47,236.56,266.1,238.17,263.44,237.81Z" transform="translate(-0.47 -104.39)"/><path class="cls-13" d="M252.33,232.94a29.61,29.61,0,0,1-5.42-4,15.53,15.53,0,0,1-3-4S246.09,231.18,252.33,232.94Z" transform="translate(-0.47 -104.39)"/><path class="cls-13" d="M307.52,230.85a4.44,4.44,0,0,1-1.74,2.71,23.78,23.78,0,0,1-3.28,2s3.2-1.68,3.59-3.06,0-1.35.4-1.76S307.74,228.66,307.52,230.85Z" transform="translate(-0.47 -104.39)"/><path class="cls-14" d="M297.89,238.85a7.69,7.69,0,0,0-3.06,4c-.95,2.77-1.3,3.59-1.3,3.59s.82-4.19,1.6-5.4A8.17,8.17,0,0,1,297.89,238.85Z" transform="translate(-0.47 -104.39)"/><path class="cls-13" d="M288,246.63a4.72,4.72,0,0,1-2.83-1.29,7.73,7.73,0,0,1-1.88-3s1,1.77,2,2.14S286.22,246,288,246.63Z" transform="translate(-0.47 -104.39)"/><path class="cls-14" d="M339.61,171.73a35.63,35.63,0,0,1,3.72,12.82c.42,6.64-4.24,18.15-6.31,21.5a40.32,40.32,0,0,1-5.77,6.8s6-5.19,8.5-10.4,4.52-14.8,4.87-16.87S341,172.9,339.61,171.73Z" transform="translate(-0.47 -104.39)"/><path class="cls-9" d="M227.87,192.29a10.32,10.32,0,0,0-1.7,9.77c2,5.61,2.93,10.63,4.68,13s4.61,5.79,4.61,5.79-5.67-4.33-6.81-6.84a18.2,18.2,0,0,1-1.4-4.26s1.91,8.4,6.48,11.85,9.7,7.15,11.65,10.92,7.68,6.78,12.6,7.81,7.34-.43,11.7-.78a34.49,34.49,0,0,1,9.44,1s-1.12-2.87-7.59-2.9c0,0-8.35,1-13.28-.88s-5.39-4-8.36-5.83-6.15-6-6.75-8.66a15.94,15.94,0,0,0-4.82-8.88,8.68,8.68,0,0,1-2.64-7.21S228.9,195.89,227.87,192.29Z" transform="translate(-0.47 -104.39)"/><path class="cls-9" d="M340.36,172.79s7.45,9,7.79,13.14-2.84,12.47-2.84,14.86-3.37,11.46-8.29,13.44-9.93,4.32-13.81,7.59A19.55,19.55,0,0,0,318,228s3.62-9,8.89-11.57a43.53,43.53,0,0,0,12.19-13.53c5.15-8.9,5-19.95,5-19.95S340.61,173.22,340.36,172.79Z" transform="translate(-0.47 -104.39)"/><path class="cls-13" d="M206.86,380.61a1.87,1.87,0,0,1-1.41-.78C204,378.09,194,372.52,188,369.2c-2.57-1.43-4.59-2.56-5.46-3.11a40.64,40.64,0,0,1-6.68-5.79l-.34-.35c-.16-.15-1.2-.87-2.2-1.57-1.75-1.21-4.15-2.87-5.58-4-2.55-2.08-7.23-10.76-7.76-16.76-.44-5-1.36-15.43,10-56.92,10.79-39.34,19.22-56.89,19.3-57.07,5.63-9.57,31.41-21.26,32.5-21.76l.54,1.21c-.26.12-26.48,12-31.88,21.18-.05.12-8.44,17.59-19.18,56.79-11.32,41.26-10.41,51.52-10,56.46.51,5.85,5.13,14.1,7.27,15.84,1.4,1.13,3.77,2.77,5.5,4,1.45,1,2.15,1.49,2.37,1.7a4.67,4.67,0,0,1,.37.38,39.82,39.82,0,0,0,6.43,5.59c.84.53,2.85,1.65,5.4,3.07,8.51,4.75,16.28,9.16,17.81,10.92.27.31.41.33.41.33.41-.09,1.09-2.08,1.32-4.42l1.31.13c-.14,1.5-.66,5.05-2.23,5.55A1.25,1.25,0,0,1,206.86,380.61Z" transform="translate(-0.47 -104.39)"/><path class="cls-13" d="M413.77,369.51a33.43,33.43,0,0,1-8-1c-11.76-2.87-39.48-27.7-39.77-34l1.33-.06c.23,5.09,26.67,29.79,38.75,32.74,12.46,3,20.22-2,22.76-3.68,3.53-2.3,4-8,3.75-17.8-.18-6.09.45-7.7,1.33-9.93a31,31,0,0,0,1.83-6.26c1.64-8.37-6.45-20-9.5-24.37-3.57-5.14-4.21-11-4.64-14.91l0-.34c-.31-2.86-8.9-18.55-12.57-25.25-1-1.9-1.79-3.25-2-3.71-1.64-3.3-4.4-9.67-4.46-15.25,0-4.7-1.09-7.84-3.89-16.23-.68-2-1.46-4.37-2.35-7.11-3.62-11.12-15.55-14.23-22.33-15.08l-.46-.07-.71-.1c-2.08-.26-7-.88-10.08-3.54-3.32-2.82-12.23-6-12.32-6l.44-1.25c.37.13,9.24,3.26,12.73,6.24,2.83,2.41,7.43,3,9.39,3.24l.78.11.4.05c7.09.9,19.57,4.17,23.42,16,.89,2.74,1.67,5.07,2.34,7.1,2.85,8.54,3.92,11.73,4,16.64.06,5.31,2.73,11.48,4.32,14.68.23.44,1,1.78,2,3.66,6.43,11.74,12.43,23,12.73,25.74l0,.34c.41,3.75,1,9.43,4.41,14.29,3.13,4.5,11.45,16.46,9.71,25.38a32.26,32.26,0,0,1-1.9,6.5c-.85,2.16-1.41,3.59-1.24,9.41.31,10.24-.3,16.3-4.34,18.94A27.89,27.89,0,0,1,413.77,369.51Z" transform="translate(-0.47 -104.39)"/><path class="cls-15" d="M353,271.52s-.3,4.78-2.57,7.18a44.37,44.37,0,0,1-6.89,5.63,6.48,6.48,0,0,0,.17-.63,22,22,0,0,0,.42-4,51.29,51.29,0,0,0,5.56-4.33C352.56,272.74,353,271.52,353,271.52Z" transform="translate(-0.47 -104.39)"/><path class="cls-15" d="M351,281.94c0,.94,0,4.52-2.52,6.19a71.08,71.08,0,0,0-7.29,6.46,6.06,6.06,0,0,0-.07-1,3.58,3.58,0,0,0-.09-.45,10.79,10.79,0,0,1-.2-3.25,15.42,15.42,0,0,1,2.54-2.08c2.49-1.49,4.85-1.94,6.34-3.65A4.57,4.57,0,0,0,351,281.94Z" transform="translate(-0.47 -104.39)"/><path class="cls-15" d="M347.87,296.57c-1.78,2-5.38,6.4-7.12,8.5a6.14,6.14,0,0,0-.37-.84.76.76,0,0,1-.06-.16,8.24,8.24,0,0,1-.45-4.18,10.09,10.09,0,0,1,1.6-1.7c3.93-3.37,6.89-4.66,7.61-5.87S350.27,293.85,347.87,296.57Z" transform="translate(-0.47 -104.39)"/><path class="cls-13" d="M359.85,325.89c-2.94,0-4.92-2.7-6.54-4.91l-.59-.8a25.19,25.19,0,0,1-1.7-2.6,6.22,6.22,0,0,0-1.82-2.28c-.4-.26-1.21-.7-2.15-1.2-3.81-2-5.64-3.15-5.7-4a25.15,25.15,0,0,0-1.27-5.77c-.46-1.19-1.39-4.15-.23-6a9.6,9.6,0,0,0,.6-7.05c-.87-2.83.81-4.5,1.92-5.61l.29-.29c.91-.92,1.08-4.43,1.16-6.11l0-.63c.12-2.14,11.15-11.5,11.27-11.59,2.83-2.35,6.55.34,9.54,2.49l.52.38c3.07,2.2,4.88,11.64,4.63,19.08-.23,7.19,2.68,11.32,2.71,11.36l-.54.39c-.13-.18-3.07-4.34-2.83-11.77.23-7.12-1.5-16.48-4.36-18.52l-.52-.38c-2.8-2-6.29-4.54-8.73-2.52-3.7,3.07-11,9.78-11,11.12l0,.62c-.13,2.63-.35,5.53-1.35,6.55l-.29.29c-1.12,1.11-2.51,2.5-1.76,4.95a10.19,10.19,0,0,1-.67,7.59c-.69,1.1-.59,3.12.28,5.39a25.14,25.14,0,0,1,1.32,6c.06.62,3.64,2.53,5.35,3.45,1,.51,1.78,1,2.21,1.23a6.82,6.82,0,0,1,2,2.49,24.51,24.51,0,0,0,1.65,2.54c.2.25.4.53.6.8,1.7,2.32,3.82,5.21,6.93,4.55l.13.65A4.81,4.81,0,0,1,359.85,325.89Z" transform="translate(-0.47 -104.39)"/><g class="cls-21"><rect class="cls-12" x="234.99" y="145.78" width="55.95" height="61.62" rx="4.62"/><path class="cls-20" d="M286.8,250.17a4.62,4.62,0,0,1,4.62,4.62v52.38a4.62,4.62,0,0,1-4.62,4.62H240.08a4.62,4.62,0,0,1-4.62-4.62V254.79a4.62,4.62,0,0,1,4.62-4.62H286.8m0-.66H240.08a5.29,5.29,0,0,0-5.28,5.28v52.38a5.29,5.29,0,0,0,5.28,5.28H286.8a5.29,5.29,0,0,0,5.28-5.28V254.79a5.29,5.29,0,0,0-5.28-5.28Z" transform="translate(-0.47 -104.39)"/><path class="cls-5" d="M291.42,254.79v3.79h-56v-3.79a4.62,4.62,0,0,1,4.62-4.62H286.8A4.62,4.62,0,0,1,291.42,254.79Z" transform="translate(-0.47 -104.39)"/><circle class="cls-22" cx="239.83" cy="149.99" r="1.38"/><circle class="cls-22" cx="245.58" cy="149.99" r="1.38"/><circle class="cls-22" cx="250.8" cy="149.99" r="1.38"/><rect class="cls-22" x="239.88" y="181.14" width="24.15" height="20.59" rx="2.14"/><path class="cls-7" d="M256,296.22l-6.6,5.16a.51.51,0,0,1-.82-.4V290.66a.51.51,0,0,1,.82-.4l6.6,5.16A.51.51,0,0,1,256,296.22Z" transform="translate(-0.47 -104.39)"/><rect class="cls-7" x="239" y="158.19" width="23.97" height="2.76"/><rect class="cls-7" x="239" y="173.7" width="38.57" height="2.76"/><rect class="cls-22" x="239" y="166.25" width="6.57" height="2.76"/><rect class="cls-7" x="267.61" y="182.01" width="6.57" height="2.76"/><rect class="cls-7" x="267.61" y="194.83" width="6.57" height="2.76"/></g><rect class="cls-12" x="160.86" y="146.85" width="55.95" height="61.62" rx="4.62"/><path class="cls-20" d="M212.67,251.24a4.6,4.6,0,0,1,4.61,4.61v52.39a4.6,4.6,0,0,1-4.61,4.61H166a4.61,4.61,0,0,1-4.62-4.61V255.85a4.61,4.61,0,0,1,4.62-4.61h46.72m0-.67H166a5.29,5.29,0,0,0-5.28,5.28v52.39a5.28,5.28,0,0,0,5.28,5.27h46.72a5.27,5.27,0,0,0,5.27-5.27V255.85a5.28,5.28,0,0,0-5.27-5.28Z" transform="translate(-0.47 -104.39)"/><path class="cls-5" d="M217.28,255.85v3.8H161.33v-3.8a4.61,4.61,0,0,1,4.62-4.61h46.72A4.6,4.6,0,0,1,217.28,255.85Z" transform="translate(-0.47 -104.39)"/><circle class="cls-22" cx="165.7" cy="151.06" r="1.38"/><circle class="cls-22" cx="171.45" cy="151.06" r="1.38"/><circle class="cls-22" cx="176.66" cy="151.06" r="1.38"/><path class="cls-22" d="M185.9,267.48v16.34a2.82,2.82,0,0,1-2.84,2.84H168.24a2.84,2.84,0,0,1-2.84-2.84V267.48a2.84,2.84,0,0,1,2.84-2.85h14.82A2.84,2.84,0,0,1,185.9,267.48Z" transform="translate(-0.47 -104.39)"/><rect class="cls-22" x="164.91" y="186.27" width="20.76" height="2.76"/><rect class="cls-22" x="192.11" y="186.27" width="20.76" height="2.76"/><rect class="cls-5" x="164.91" y="193.39" width="11.75" height="2.76"/><path class="cls-5" d="M175.68,275a4.53,4.53,0,1,0-.06,0,9.39,9.39,0,0,0-9.35,9.39,7.65,7.65,0,0,0,.15,1.59,2.8,2.8,0,0,0,1.82.66h14.82a2.85,2.85,0,0,0,1.83-.66,8.4,8.4,0,0,0,.14-1.59A9.39,9.39,0,0,0,175.68,275Z" transform="translate(-0.47 -104.39)"/><path class="cls-22" d="M213.22,267.48v16.34a2.84,2.84,0,0,1-2.85,2.84H195.55a2.84,2.84,0,0,1-2.84-2.84V267.48a2.84,2.84,0,0,1,2.84-2.85h14.82A2.85,2.85,0,0,1,213.22,267.48Z" transform="translate(-0.47 -104.39)"/><path class="cls-5" d="M203,275a4.53,4.53,0,1,0-.06,0,9.39,9.39,0,0,0-9.35,9.39,7.65,7.65,0,0,0,.15,1.59,2.82,2.82,0,0,0,1.82.66h14.82a2.85,2.85,0,0,0,1.83-.66,8.4,8.4,0,0,0,.14-1.59A9.39,9.39,0,0,0,203,275Z" transform="translate(-0.47 -104.39)"/><path class="cls-24" d="M393.08,149.81l-4.24,2.9-.27-.63A41.08,41.08,0,0,0,393.08,149.81Z" transform="translate(-0.47 -104.39)"/></g><g id="Elements"><path class="cls-13" d="M409.15,148s19.08-24.83,24-22.55-4.22-6.18-6.26-6.09-10.87,5.07-16.73,12.17a133.64,133.64,0,0,0-9.37,12.74Z" transform="translate(-0.47 -104.39)"/><path class="cls-25" d="M437.2,172.47s13.38-20.28,15.06-22.48,3.11-4.92-1.42-9.32-20.19-17.86-23-19-9.61,2.56-16.24,10.62-8.84,10.27-8.84,10.27l-1.89,1.74s-.33-.88,4.26-6.58,11.71-14.14,15.33-16.26,6.34-3.44,11.39,0,29.9,23.25,29.12,28.3-1.55,6.6-5.17,12-11.48,16.66-11.48,16.66S437.42,173.59,437.2,172.47Z" transform="translate(-0.47 -104.39)"/><path class="cls-12" d="M434.47,175.88s1.87-3.41,2.73-3.41,7.17,4.23,7.25,5.17-2.16,4.92-3.1,4.58S434.47,175.88,434.47,175.88Z" transform="translate(-0.47 -104.39)"/><path class="cls-7" d="M430.88,177.32s2-3,5.79-.55,6,4,5.71,5.71,0,3.74-1.78,3.51S430.88,177.32,430.88,177.32Z" transform="translate(-0.47 -104.39)"/><path class="cls-12" d="M400,143.52s1.62-2.72,3.14-2.07,7,5.56,7.08,6.21-1.11,3.11-1.94,2.91S400,143.52,400,143.52Z" transform="translate(-0.47 -104.39)"/><path class="cls-7" d="M397.06,144.79s1.74-2.24,3.56-1.6,8.22,6.41,8.44,7.38.1,3-1.13,3S397.06,144.79,397.06,144.79Z" transform="translate(-0.47 -104.39)"/><path class="cls-25" d="M409.06,156.27c.19,3.65-13.94,19.82-18,23.15a8.16,8.16,0,0,1-2.8,1.6c-3.23,1-6.86-.75-12.48-6.65,0,0-4.43-3-1-8.7s15.49-21.38,20-21.4a7.11,7.11,0,0,1,2.7.69C402.28,147,408.9,153.24,409.06,156.27Z" transform="translate(-0.47 -104.39)"/><path class="cls-7" d="M375.05,168.71c-1.44,4.07,3.85,7,6.41,9.24a15.19,15.19,0,0,0,6.8,3.07c-3.23,1-6.86-.75-12.48-6.65,0,0-4.43-3-1-8.7s15.49-21.38,20-21.4a7.11,7.11,0,0,1,2.7.69,10.43,10.43,0,0,0-5.35,2.37C388.63,150.61,376.47,164.64,375.05,168.71Z" transform="translate(-0.47 -104.39)"/><path class="cls-20" d="M406.55,156.79c.14,2.64-13.07,17.88-16,20.28a6,6,0,0,1-2,1.16c-2.34.74-4.95-.54-9-4.8,0,0-3.19-2.17-.73-6.28s14.2-19,17.44-19a5.1,5.1,0,0,1,1.95.5C401.66,150.11,406.44,154.61,406.55,156.79Z" transform="translate(-0.47 -104.39)"/><path class="cls-26" d="M443.07,188c.38,3.64-12.86,20.53-16.74,24.08a8.3,8.3,0,0,1-2.71,1.74c-3.18,1.21-6.89-.38-12.82-6,0,0-4.58-2.76-1.47-8.62s14.33-22.18,18.81-22.44a7.2,7.2,0,0,1,2.74.54C435.81,179.11,442.75,185,443.07,188Z" transform="translate(-0.47 -104.39)"/><rect class="cls-20" x="422.49" y="181.74" width="6.36" height="27.5" rx="1.7" transform="translate(205 -322.32) rotate(37.29)"/><path class="cls-13" d="M409.77,202.23c-1.22,4.15,4.22,6.82,6.89,8.9a15.36,15.36,0,0,0,7,2.69c-3.18,1.21-6.89-.38-12.82-6,0,0-4.58-2.76-1.47-8.62s14.33-22.18,18.81-22.44a7.2,7.2,0,0,1,2.74.54,10.37,10.37,0,0,0-5.21,2.66C422.36,183.43,411,198.09,409.77,202.23Z" transform="translate(-0.47 -104.39)"/><path class="cls-27" d="M289.88,388.67a2.12,2.12,0,0,1-.5.24c-2,.77-6.71.79-15.24-.29l-1.79-.23c-3.71-.51-8.07-1.2-13.18-2.11-.61-.11-1.22-.23-1.84-.33-.47-.1-.95-.18-1.43-.27-79.73-14.75-121.4-118.68-134-147.8s-5.31-44.27-5.31-44.27c-2,13,5.75,28.36,7.07,30.85.09.17.14.28.17.32,0-.12-.2-.64-.44-1.5a.37.37,0,0,1,0-.09c-1.21-4.18-4.16-15.8-3.1-25.68.09-.83.21-1.67.36-2.47,1.3-6.91,5-12.48,13.18-13.21,14.09-1.26,28.51,11.88,37.72,22.47l.08.08,1.68,2c.65.78,1.27,1.53,1.84,2.24.78,1,1.49,1.91,2.14,2.76,0,0,.05.05.08.08,2.36,3.13,3.78,5.3,4,5.55-28.12-29.86-30.95-1.64-31.18,6.92v0c0,1.28,0,2.13,0,2.25h0c2.32-8.13,3.58-7.74,3.58-7.74C146.5,312,252.81,367.22,252.81,367.22s32.25,12.94,37.12,19.08a3.73,3.73,0,0,1,.33.47h0A1.2,1.2,0,0,1,289.88,388.67Z" transform="translate(-0.47 -104.39)"/><path class="cls-28" d="M253.06,411.63a6.63,6.63,0,0,1-1.15.36,40.78,40.78,0,0,1-4.81.62c-15.29,1.28-106.4-22.4-109.16-23.13l23.23,3.2s-40.91-8-86.21-35S-17.2,267.38,22.15,262c19.83-2.74,42.29,5.42,59.69,14.21.57.29,1.12.56,1.68.86h0c3.61,1.86,7,3.73,10,5.51l0,0,1.84,1.08c3.55,2.13,6.62,4.09,9.08,5.73.24.16.47.32.7.46,2.18,1.46,3.82,2.64,4.84,3.36l.6.43.58.43c-16.31-1.54-19.79,4.67-19.79,4.67h3.21l-.16.24c-5.62,8.25-2.06,14.32-.47,16.36a6.17,6.17,0,0,0,.41.49,1.94,1.94,0,0,0,.22.25,8.8,8.8,0,0,1,2.08-5.18C91.1,345.8,240.6,406.82,245.19,408.69l.08,0,.09,0h0c.36.06,1.74.28,3.26.59h0c.75.15,1.52.33,2.23.52a15.43,15.43,0,0,1,1.48.47c.64.24,1.09.49,1.17.75S253.47,411.44,253.06,411.63Z" transform="translate(-0.47 -104.39)"/><path class="cls-20" d="M290.26,386.77c-6-2.09-14.68-5.38-24.68-10-17.64-8.09-43.12-22-64.4-42.41-19.54-18.73-35.27-42.17-44.31-66-6.47-17.07-8.75-32.57-6.7-44.4,0,1.28,0,2.13,0,2.25-1.41,11.46,1,26.06,7,42,9,23.82,24.73,47.22,44.23,65.91,21.24,20.35,46.7,34.27,64.31,42.35,9.75,4.48,18.24,7.71,24.22,9.8A3.73,3.73,0,0,1,290.26,386.77Z" transform="translate(-0.47 -104.39)"/><path class="cls-20" d="M153.93,197.7c-4.85.72-8.66,4.48-11,10.86-4,10.82-3.39,28.14,1.72,46.32a157.27,157.27,0,0,0,32.47,59.72c29.83,34.67,59.8,53.22,79.69,62.68a155.76,155.76,0,0,0,32.6,11.63,2.12,2.12,0,0,0,.5-.24,154,154,0,0,1-33-11.69c-19.86-9.45-49.78-28-79.57-62.59-31.68-36.78-42.38-83.52-34.13-105.73,2.32-6.24,6-9.92,10.78-10.63s12.43,1.27,23.32,13.35c-.65-.85-1.36-1.78-2.14-2.76a49.1,49.1,0,0,0-9.7-7.92,59.76,59.76,0,0,1,6,3.93c.51.48,1,.94,1.52,1.39l.37.36-1.68-2-.08-.08c-7.93-7-19.64-14.46-33-13.62-4.73.29-8.11,3.21-10,8.66-4.41,12.57-.28,36.74,10.76,63.11,12.59,30.1,31.79,57.79,54,78,30.7,27.84,58.87,41.09,77.1,47.33l1.93.64,1.79.23c-1.18-.37-2.39-.77-3.62-1.19-18.2-6.22-46.33-19.45-77-47.25-22.22-20.15-41.38-47.8-54-77.86-11-26.29-15.12-50.39-10.74-62.88,1.85-5.3,5.13-8.13,9.72-8.43,11.72-.72,22.16,5,29.86,11.1-8.05-5.27-18-9-28.06-5.55-4.21,1.43-7.09,4.68-8.59,9.67-4.15,14,3.5,37.71,8.43,50.62,7.15,18.74,17.25,37.84,25.74,48.69l.25-.2c-8.46-10.82-18.54-29.9-25.68-48.61C132,234.5,129,216.6,132.1,206.32c1.46-4.87,4.27-8.06,8.38-9.44,8-2.73,16-.86,22.93,2.69C159.49,197.67,156.34,197.34,153.93,197.7Z" transform="translate(-0.47 -104.39)"/><path class="cls-20" d="M229.27,407.41c5.79.82,11.29,1.45,16.38,2,2.95.68,5.6,1.25,7.9,1.7-.08-.26-.53-.51-1.17-.75-.92-.15-1.94-.35-3.08-.6.54.06,1.07.1,1.6.13-.71-.19-1.48-.37-2.23-.52h0l-1.65-.16c-.48-.12-1-.24-1.47-.39l-.14,0h0l-.09,0-.08,0c-11.12-3-32.27-10.86-70.23-30.89-51.18-27-78.25-47.86-80.55-62a6.17,6.17,0,0,1-.41-.49c1.73,14.27,28.89,35.38,80.81,62.78,35.09,18.53,55.85,26.64,67.62,30.16-3.82-.95-8.07-2.09-12.68-3.48a341.07,341.07,0,0,1-82.22-37.6c-45.09-28.23-64.53-46-63-57.75.54-4.2,3.83-7.65,10-10.47l.16-.24h-.44c-6.15,2.86-9.43,6.38-10,10.66-1.53,11.85,17.94,29.77,63.17,58.08a341.36,341.36,0,0,0,82.29,37.64c5,1.5,9.53,2.71,13.58,3.69-5.4-.57-11.2-1.28-17.32-2.19-21.45-5.43-52.14-16.36-88-38.39-45.41-27.93-71.44-54.49-66.3-67.67,3-7.74,16.72-10.12,39-6.92l-.6-.43c-9.72-1.37-17.81-1.66-24.09-.88-8,1-12.9,3.73-14.6,8.11-2.52,6.45,2.17,16.13,13.55,28,11.73,12.17,30,26,52.89,40.11,34.13,21,63.64,31.93,84.91,37.62-2.23-.36-4.51-.74-6.82-1.14-1.92-.34-3.91-.72-5.92-1.1a351.81,351.81,0,0,1-35.66-12.63c-25.35-10.42-58.65-29.68-84.82-49.06C60.15,320.47,45.07,302.7,48,293.42c1.63-5.05,8.5-7.69,20.42-7.8.3,0,.62,0,.94,0,9.13,0,21.12,1.42,35.79,4.22-.23-.14-.46-.3-.7-.46-14.36-2.71-26.11-4.09-35.09-4.09h-.94c-12.08.14-19,2.84-20.72,8-1.61,5,1.67,12.17,9.75,21.3,7.16,8.11,18.15,17.73,31.78,27.82,26.2,19.39,59.52,38.66,84.91,49.09,12,5,22.78,8.75,32.33,11.66-34.74-7-80.91-21.41-119.8-50.93C66.48,336.9,50.65,321.7,41,308.29c-9.19-12.7-12.2-23.07-8.47-29.18,6.14-10.05,28.85-8.17,62.93,4.52l-1.84-1.08,0,0a191.12,191.12,0,0,0-31-8.86c-16-2.85-26.45-1-30.3,5.26s-.81,16.74,8.48,29.56c9.71,13.42,25.56,28.65,45.82,44,18.78,14.27,40.83,26.23,65.52,35.54a350.2,350.2,0,0,0,57.71,16.08c18.83,5.49,32.69,7.4,42.17,7.85a6.63,6.63,0,0,0,1.15-.36c-5.31-.6-11.68-1.58-19-3.14C232.52,408.16,230.92,407.8,229.27,407.41Zm-16-2.6,2.54.47c3.41.61,6.76,1.15,10,1.62,2.89.75,5.61,1.37,8.17,1.92,5.69,1.22,10.81,2.08,15.32,2.69C240.63,410.89,228.74,409.09,213.29,404.81Z" transform="translate(-0.47 -104.39)"/><path class="cls-20" d="M68.42,345.17l-.2.26C55,335.72,43,324.51,34.59,313.85c-9-11.34-13.63-21.39-13.36-29.07a13.54,13.54,0,0,1,6.61-11.58c9.88-6.28,30.89-2.89,46.79,1.05,2.46.61,4.88,1.26,7.21,1.91.57.29,1.12.56,1.68.86-19-5.43-44.41-10.59-55.49-3.54a13.18,13.18,0,0,0-6.47,11.3C21.05,299.73,40.32,324.57,68.42,345.17Z" transform="translate(-0.47 -104.39)"/><path class="cls-29" d="M301,388.67a2.12,2.12,0,0,0,.5.24c2,.77,6.71.79,15.24-.29l1.79-.23c3.7-.51,8.07-1.2,13.18-2.11.6-.11,1.21-.23,1.83-.33l1.43-.27c79.73-14.75,121.41-118.68,134-147.8s5.3-44.27,5.3-44.27c2,13-5.74,28.36-7.06,30.85l-.17.32c0-.12.19-.64.43-1.5a.19.19,0,0,0,0-.09c1.2-4.18,4.15-15.8,3.1-25.68-.1-.83-.22-1.67-.36-2.47-1.3-6.91-4.95-12.48-13.18-13.21-14.09-1.26-28.51,11.88-37.72,22.47l-.08.08-1.68,2c-.65.78-1.27,1.53-1.84,2.24-.78,1-1.5,1.91-2.14,2.76a.2.2,0,0,0-.08.08c-2.36,3.13-3.79,5.3-4,5.55,28.12-29.86,31-1.64,31.17,6.92v0c0,1.28,0,2.13,0,2.25h0c-2.31-8.13-3.57-7.74-3.57-7.74,7.25,93.54-99.06,148.76-99.06,148.76s-32.26,12.94-37.13,19.08c-.13.18-.23.31-.33.47h0A1.2,1.2,0,0,0,301,388.67Z" transform="translate(-0.47 -104.39)"/><path class="cls-30" d="M337.81,411.63A6.1,6.1,0,0,0,339,412a40.85,40.85,0,0,0,4.8.62c15.3,1.28,106.41-22.4,109.17-23.13l-23.23,3.2s40.91-8,86.21-35,92.15-90.34,52.81-95.77c-19.84-2.74-42.29,5.42-59.69,14.21-.57.29-1.12.56-1.68.86h0c-3.61,1.86-7,3.73-10,5.51a0,0,0,0,1,0,0l-1.83,1.08c-3.55,2.13-6.62,4.09-9.08,5.73l-.7.46c-2.19,1.46-3.83,2.64-4.84,3.36l-.6.43-.58.43c16.31-1.54,19.79,4.67,19.79,4.67h-3.21l.16.24c5.62,8.25,2.06,14.32.47,16.36-.16.19-.29.37-.41.49a1.94,1.94,0,0,1-.22.25,8.8,8.8,0,0,0-2.08-5.18c5.61,34.93-143.89,95.95-148.48,97.82l-.08,0-.09,0h0c-.35.06-1.73.28-3.25.59h0c-.75.15-1.52.33-2.24.52-.55.15-1,.31-1.48.47-.63.24-1.08.49-1.16.75S337.4,411.44,337.81,411.63Z" transform="translate(-0.47 -104.39)"/><path class="cls-20" d="M300.6,386.77c6-2.09,14.69-5.38,24.69-10,17.64-8.09,43.12-22,64.4-42.41,19.54-18.73,35.27-42.17,44.31-66,6.47-17.07,8.74-32.57,6.69-44.4,0,1.28,0,2.13,0,2.25,1.41,11.46-1,26.06-7,42-9,23.82-24.73,47.22-44.23,65.91-21.23,20.35-46.69,34.27-64.3,42.35-9.75,4.48-18.25,7.71-24.23,9.8C300.8,386.48,300.7,386.61,300.6,386.77Z" transform="translate(-0.47 -104.39)"/><path class="cls-20" d="M427.46,199.57c7-3.55,14.93-5.42,22.93-2.69,4.1,1.38,6.92,4.57,8.38,9.44,3.05,10.28.06,28.18-8.42,50.41-7.14,18.71-17.23,37.79-25.68,48.61l.25.2c8.48-10.85,18.59-30,25.74-48.69,4.93-12.91,12.58-36.66,8.42-50.62-1.49-5-4.38-8.24-8.58-9.67-10.05-3.42-20,.28-28.07,5.55,7.7-6.13,18.14-11.82,29.87-11.1,4.59.3,7.87,3.13,9.72,8.43,4.38,12.49.27,36.59-10.74,62.88-12.59,30.06-31.74,57.71-54,77.86-30.64,27.8-58.77,41-77,47.25-1.23.42-2.43.82-3.61,1.19l1.79-.23,1.93-.64c18.23-6.24,46.4-19.49,77.1-47.33,22.24-20.18,41.44-47.87,54-78,11-26.37,15.16-50.54,10.76-63.11-1.91-5.45-5.28-8.37-10-8.66-13.39-.84-25.1,6.62-33,13.62l-.08.08-1.68,2,.37-.36,1.52-1.39a58.63,58.63,0,0,1,6-3.93,49.1,49.1,0,0,0-9.7,7.92c-.78,1-1.5,1.91-2.14,2.76,10.88-12.08,18.57-14.07,23.32-13.35s8.46,4.39,10.77,10.63c8.26,22.21-2.45,69-34.12,105.73C383.73,349,353.82,367.53,334,377a154,154,0,0,1-33,11.69,2.12,2.12,0,0,0,.5.24,155.76,155.76,0,0,0,32.6-11.63c19.89-9.46,49.85-28,79.69-62.68a157.27,157.27,0,0,0,32.47-59.72c5.11-18.18,5.74-35.5,1.72-46.32-2.37-6.38-6.18-10.14-11-10.86C434.53,197.34,431.38,197.67,427.46,199.57Z" transform="translate(-0.47 -104.39)"/><path class="cls-20" d="M356.81,408.49c-7.32,1.56-13.7,2.54-19,3.14A6.1,6.1,0,0,0,339,412c9.47-.45,23.34-2.36,42.17-7.85a350.2,350.2,0,0,0,57.71-16.08c24.69-9.31,46.73-21.27,65.52-35.54,20.26-15.38,36.11-30.61,45.82-44,9.29-12.82,12.29-23.31,8.48-29.56s-14.33-8.11-30.3-5.26a190.84,190.84,0,0,0-31,8.86,0,0,0,0,1,0,0l-1.83,1.08c34.08-12.69,56.78-14.57,62.92-4.52,3.73,6.11.73,16.48-8.47,29.18-9.69,13.41-25.52,28.61-45.75,44-38.9,29.52-85.06,43.91-119.8,50.93,9.55-2.91,20.29-6.71,32.33-11.66,25.39-10.43,58.71-29.7,84.9-49.09,13.63-10.09,24.63-19.71,31.79-27.82,8.08-9.13,11.36-16.3,9.75-21.3-1.67-5.2-8.64-7.9-20.72-8h-.94c-9,0-20.74,1.38-35.09,4.09l-.7.46c14.67-2.8,26.66-4.22,35.79-4.22.32,0,.63,0,.94,0,11.92.11,18.79,2.75,20.41,7.8,3,9.28-12.1,27.05-41.42,48.75-26.17,19.38-59.48,38.64-84.83,49.06a351,351,0,0,1-35.66,12.63c-2,.38-4,.76-5.91,1.1q-3.47.6-6.83,1.14c21.28-5.69,50.78-16.62,84.92-37.62C476,354.4,494.25,340.54,506,328.37c11.38-11.83,16.08-21.51,13.55-28-1.69-4.38-6.61-7.11-14.59-8.11-6.29-.78-14.37-.49-24.09.88l-.6.43c22.25-3.2,36-.82,39,6.92,5.13,13.18-20.89,39.74-66.3,67.67-35.82,22-66.51,33-88,38.39-6.13.91-11.92,1.62-17.32,2.19,4.05-1,8.6-2.19,13.57-3.69a341.22,341.22,0,0,0,82.3-37.64c45.22-28.31,64.7-46.23,63.17-58.08-.57-4.28-3.85-7.8-10-10.66h-.43l.16.24c6.12,2.82,9.4,6.27,9.94,10.47,1.53,11.71-17.91,29.52-63,57.75a341.07,341.07,0,0,1-82.22,37.6c-4.62,1.39-8.86,2.53-12.69,3.48,11.78-3.52,32.54-11.63,67.63-30.16,51.91-27.4,79.08-48.51,80.81-62.78-.16.19-.29.37-.41.49-2.3,14.14-29.37,35-80.55,62-38,20-59.12,27.86-70.23,30.89l-.08,0-.09,0h0l-.13,0c-.52.15-1,.27-1.47.39l-1.65.16h0c-.75.15-1.52.33-2.24.52.53,0,1.06-.07,1.61-.13-1.14.25-2.16.45-3.09.6-.63.24-1.08.49-1.16.75,2.3-.45,4.95-1,7.9-1.7,5.09-.51,10.58-1.14,16.38-2C359.94,407.8,358.34,408.16,356.81,408.49Zm-15.27,3c4.51-.61,9.63-1.47,15.32-2.69,2.55-.55,5.28-1.17,8.16-1.92,3.26-.47,6.61-1,10-1.62l2.54-.47C362.13,409.09,350.23,410.89,341.54,411.51Z" transform="translate(-0.47 -104.39)"/><path class="cls-20" d="M522.45,345.17l.2.26c13.24-9.71,25.19-20.92,33.63-31.58,9-11.34,13.63-21.39,13.36-29.07A13.56,13.56,0,0,0,563,273.2c-9.89-6.28-30.9-2.89-46.79,1.05-2.46.61-4.88,1.26-7.21,1.91-.57.29-1.12.56-1.68.86,19-5.43,44.4-10.59,55.49-3.54a13.22,13.22,0,0,1,6.47,11.3C569.81,299.73,550.55,324.57,522.45,345.17Z" transform="translate(-0.47 -104.39)"/><g class="cls-21"><path class="cls-12" d="M395.56,266.26c3.41-4.57,11.6-16,15.18-25a2.24,2.24,0,0,1,3.19-1.14L426,247a2.22,2.22,0,0,1,1,2.73c-2,5.28-8.42,20.85-14.91,26.83a2.22,2.22,0,0,1-2.58.28l-13.24-7.33A2.22,2.22,0,0,1,395.56,266.26Z" transform="translate(-0.47 -104.39)"/><path class="cls-20" d="M412.83,239.81a2.21,2.21,0,0,1,1.1.29L426,247a2.22,2.22,0,0,1,1,2.73c-2,5.28-8.42,20.85-14.91,26.83a2.16,2.16,0,0,1-1.48.57,2.26,2.26,0,0,1-1.1-.29l-13.24-7.33a2.22,2.22,0,0,1-.71-3.28c3.41-4.57,11.6-16,15.18-25a2.27,2.27,0,0,1,2.09-1.43m0-.66h0a2.89,2.89,0,0,0-2.7,1.85c-3.56,8.95-11.75,20.37-15.1,24.87a2.83,2.83,0,0,0-.51,2.32,2.9,2.9,0,0,0,1.43,1.93l13.24,7.33a3,3,0,0,0,1.42.37,2.87,2.87,0,0,0,1.93-.75c6.47-6,12.7-20.92,15.07-27.07a2.87,2.87,0,0,0-1.26-3.55l-12.09-6.92a2.89,2.89,0,0,0-1.43-.38Z" transform="translate(-0.47 -104.39)"/></g><path class="cls-12" d="M116.21,233.56s-.95,8.89.86,12.51a26.89,26.89,0,0,1,2.33,7.34s-6.56,1.72-10,3.62a20,20,0,0,1-4.4,2.07,15.58,15.58,0,0,1,0-7.25c1-4-.78-7.42-1.64-10.7a20.73,20.73,0,0,1-.52-6.55S111.2,236.41,116.21,233.56Z" transform="translate(-0.47 -104.39)"/><path class="cls-20" d="M116.21,233.56s-.95,8.89.86,12.51a26.89,26.89,0,0,1,2.33,7.34s-6.56,1.72-10,3.62a20,20,0,0,1-4.4,2.07,15.58,15.58,0,0,1,0-7.25c1-4-.78-7.42-1.64-10.7a20.73,20.73,0,0,1-.52-6.55,31.19,31.19,0,0,0,5.82.56,15.73,15.73,0,0,0,7.56-1.6m.79-1.21-1.12.64a14.78,14.78,0,0,1-7.23,1.51A31.12,31.12,0,0,1,103,234l-.72-.16-.08.74a21.43,21.43,0,0,0,.54,6.79c.2.74.44,1.51.67,2.24.82,2.57,1.66,5.23,1,8.14a16.22,16.22,0,0,0,0,7.59l.17.57.59-.11c.11,0,1.15-.24,4.6-2.14a55.91,55.91,0,0,1,9.86-3.56l.57-.15-.08-.58a27.58,27.58,0,0,0-2.4-7.54c-1.7-3.41-.8-12.06-.79-12.15l.13-1.28Z" transform="translate(-0.47 -104.39)"/><path class="cls-5" d="M126.13,302s9.49,9.83,12.69,11.91a6.77,6.77,0,0,0,6,.94,43.06,43.06,0,0,1-3.28,10.45c-2.59,5.69-5.52,5.52-9.23,4.14s-16-14.59-16-14.59S125.1,304.84,126.13,302Z" transform="translate(-0.47 -104.39)"/><path class="cls-7" d="M445.18,425.68s24.74-22.89,35.82-43.87c0,0,22.78-5.05,34-11.65s12.81,2.8,7.5,16.61-46.23,53.8-46.23,53.8S458.8,438.63,445.18,425.68Z" transform="translate(-0.47 -104.39)"/><path class="cls-31" d="M528.62,392c-6,8.82-29.37,32.25-38.43,40.4-7,6.28-9.84,8.42-12,8.52a3.93,3.93,0,0,1-1.86-.37s2.48-3.36.67-20.32c0,0,25.25-18,33.14-39.6s12.68-35.86,18.77-41.54A64.53,64.53,0,0,0,532,355.53c.31,1,.67,1.9,1.07,2.84C536.78,367.18,534.58,383.19,528.62,392Z" transform="translate(-0.47 -104.39)"/><path class="cls-20" d="M455.89,426.33s21.24-23.17,26-32.49Z" transform="translate(-0.47 -104.39)"/><path class="cls-20" d="M464.07,431.64s23.27-28.91,30.77-44.87Z" transform="translate(-0.47 -104.39)"/><path class="cls-9" d="M528.62,392c-6,8.82-29.37,32.25-38.43,40.4-7,6.28-9.84,8.42-12,8.52.66-4.34,3.28-10,10.2-16.59,17.08-16.39,30.21-19.16,33.83-41.07,2.21-13.37,6-22.5,9.76-27.74.31,1,.67,1.9,1.07,2.84C536.78,367.18,534.58,383.19,528.62,392Z" transform="translate(-0.47 -104.39)"/><rect class="cls-3" x="235.98" y="323.72" width="133.06" height="3.97"/><path class="cls-32" d="M372.11,338.22l-.4,6.33-1,17.18-3.59,57.78H238.9l-3.07-49.4-.59-9.61-1.39-22.28a3.72,3.72,0,0,1,3.72-4H368.39A3.72,3.72,0,0,1,372.11,338.22Z" transform="translate(-0.47 -104.39)"/><path class="cls-20" d="M367.69,420.18H238.28l-5.09-81.92a4.38,4.38,0,0,1,4.38-4.66H368.39a4.4,4.4,0,0,1,3.2,1.39,4.3,4.3,0,0,1,1.18,3.27Zm-128.17-1.33H366.45l5-80.67a3,3,0,0,0-3.06-3.25H237.57a3,3,0,0,0-3.06,3.25Z" transform="translate(-0.47 -104.39)"/><rect class="cls-7" x="235.98" y="315.13" width="133.06" height="3.97"/><g class="cls-33"><path class="cls-12" d="M371.71,344.55l-1,17.18-3.59,57.78H238.9l-3.07-49.4-.59-9.61c18.74,10.89,55.43,26.07,94,8.35C351.18,358.76,363.68,350.71,371.71,344.55Z" transform="translate(-0.47 -104.39)"/></g><g class="cls-34"><path class="cls-12" d="M242.17,373.56a35.7,35.7,0,0,0,4.93,2.29C249.86,376.63,245.27,374.54,242.17,373.56Z" transform="translate(-0.47 -104.39)"/><path class="cls-12" d="M369.81,362.26a28,28,0,0,0-2.58,2.85c-1.43,1.68-1.81.91-4.05,2.25s-9.71,9.75-10.17,10.28c.3-.25,3-2.49,4.22-3.34a12,12,0,0,0,3.65-3.37c1.81-2.33,4.66-3.11,3.66-2.42s-.82,1-2.1,1.9-.65,1.43-1.43,3.31-1.55,1.75-3.78,3.16-1.79.92-3.3,3.07-8.72,5.22-10.65,5.73-5.19,3.79-5.19,3.79l5.15-2.68a39.08,39.08,0,0,1-5.93,4.14c-2.85,1.55-6.65,3.95-7,4.15.22,0,1.45-.31,1.92,0s1.82-1.24.92,0-.92,1-2.6,1.47a10.92,10.92,0,0,0-4.27,2.3c-1.55,1.26-6.21-.23-6.82.81a2.08,2.08,0,0,1-2.32.86,4.54,4.54,0,0,0-3.36,2.25c-1.13,1.64-8,.76-8.55.68s-.86.35-2.29,1.35a2.15,2.15,0,0,1-2.67,0,5.56,5.56,0,0,0-2.9,0c-.6.4-1.81,2.45-2.67,2a5.73,5.73,0,0,0-4.48,0c-1.89.79-7.78-4.39-8.29-4.82s-1.3-.44-2.16-.86a2.54,2.54,0,0,1-1.2-1.47c-.17-.35,0-2.25-.88-2.68s-1.28,0-2.23-.34a7.23,7.23,0,0,1-2.67-1.73c-1.05-.94-1.13.09-3.21,0s-4.56-2.58-5.42-4-1.73-.69-2.69-.6-1.28-.7-1.64-1.44-1.2-.12-3.61,0-2.16-2.1-2.7-3.69-5.41-5.49-7.14-5.82a3.26,3.26,0,0,1-2.77-2.52c-.34-1.2-1.64-1.12-2.17-1.94s-3.17-1.68-1.53-1.85a7.22,7.22,0,0,1,2.22.47c-1.91-1-4.12-2.21-6.34-3.45l3.07,49.4H367.07l3.59-57.78A3.6,3.6,0,0,0,369.81,362.26Z" transform="translate(-0.47 -104.39)"/></g><circle class="cls-20" cx="302.51" cy="275.56" r="6.23"/><path class="cls-9" d="M113.18,408.08c-1.16-.39-4.47.12-6.81.08-1.83,0-3.32-.67-3.47-1.47a19.91,19.91,0,0,0,2.54-.29C111.69,405.38,115.24,406.45,113.18,408.08Z" transform="translate(-0.47 -104.39)"/><path class="cls-13" d="M150.29,435.57s-4.57-2.77,5.7-16.06,20.82-15.19,22.62-11.35-1,18.52-8.21,23.18S150.29,435.57,150.29,435.57Z" transform="translate(-0.47 -104.39)"/><path class="cls-35" d="M181,416.06a27.12,27.12,0,0,1-17.61,18.1c-1.12.37-2.13.67-3.1.94h0c-11.53,3.17-12.36-1-11.65-3.6.78-2.85-3.45-.87-16.83,2s-8.19-4-2.75-9.92S123.12,412,117.93,412c-2.69,0-4.21-.3-4.84-.81s-.43-1.19.28-2.09c.41-.55.29-.85-.19-1-1.16-.39-4.47.12-6.81.08-1.83,0-3.32-.67-3.47-1.47-.12-.62.6-1.33,2.61-1.88,4.57-1.24,12.51-2.38,11,0s5.44,2.28,14.32-.39,17.86-4.66,20.55,3.74,9.92,5.92,19.5,2.63S181,416.06,181,416.06Z" transform="translate(-0.47 -104.39)"/><path class="cls-9" d="M171.77,427.24c-3.28,2.3-7.58,5.28-11.46,7.86h0c-11.53,3.17-12.36-1-11.65-3.6.78-2.85-3.45-.87-16.83,2s-8.19-4-2.75-9.92S123.12,412,117.93,412c-2.69,0-4.21-.3-4.84-.81,5-2.48,13.49-4.17,11.31-1.68-2.41,2.76,1.56,2.93,6.07,3.07s7.23,3.32,5.32,6.61,4.49,4.65,10.36,2.32,7.94-1.64,14.28,5.09C163.8,430.16,168.3,429.07,171.77,427.24Z" transform="translate(-0.47 -104.39)"/><path class="cls-36" d="M150.29,435.57s2.62,1.5,15.53-8.46c14.74-11.37,13.12-17.86,12.26-19.68l17.35,23.81a11,11,0,0,1,1.11,11.26c-1.46,3-4.22,6.33-9.42,9.16a9.25,9.25,0,0,1-9-.14Z" transform="translate(-0.47 -104.39)"/><path class="cls-11" d="M91.53,430.09s10.61-3.5,15.66-3.5.91,1.55-1.68,2.46-7,3-9.45,5.31-11.39,3-8.16.38S85.81,431.79,91.53,430.09Z" transform="translate(-0.47 -104.39)"/><path class="cls-11" d="M98.39,413.26s4.66-1.56,3.49,0S96.61,413.75,98.39,413.26Z" transform="translate(-0.47 -104.39)"/><path class="cls-11" d="M124.41,394.75s-4.15-9.45-16.7-9.71-18.64-1.42-15.4-2.85,12,2.85,17.26.65,9.79-1,11.47,1.68,1.42,3.47,3.37,4.39.12,5.32,3.62,7.13,7.89-1,11,1-.78-.78-4.14,0S129.3,400.56,124.41,394.75Z" transform="translate(-0.47 -104.39)"/><path class="cls-11" d="M158.45,403.81s-3.37,2.34-6-1.54-4.66,1.29,0,3.49S158.45,403.81,158.45,403.81Z" transform="translate(-0.47 -104.39)"/><rect class="cls-9" x="175.56" y="426.74" width="10.92" height="10.92" transform="translate(-102.75 -45.42) rotate(-14.47)"/><path class="cls-3" d="M436.68,437.07c-8.18,1.3-18.48,2.53-24.24,1.68-10.53-1.55-20.88-19.24-20.88-19.24s5.69-.68,11.39,5.52c3.09,3.37,12.24,4,20,3.86C427.32,431.59,431.89,434.37,436.68,437.07Z" transform="translate(-0.47 -104.39)"/><path class="cls-3" d="M496.81,454.72c-4.71,3.88-13.09,10-20.5,11.22-11,1.81-51.18-8.81-51.18-8.81L454.74,446h0A106.07,106.07,0,0,0,496.81,454.72Z" transform="translate(-0.47 -104.39)"/><path class="cls-37" d="M71.62,222.35,68.44,222l-2-.2-.44-.34L21.4,186.41l0,0-3.58-2.81c-2.23-5.24,3.09-4.26,3.09-4.26l3.29,2.57.08.08,44.59,34.87L69,217l1.11,2.3Z" transform="translate(-0.47 -104.39)"/><path class="cls-17" d="M24.16,181.88a21.27,21.27,0,0,0-2.8,4.5l-3.58-2.81c-2.23-5.24,3.09-4.26,3.09-4.26Z" transform="translate(-0.47 -104.39)"/><path class="cls-10" d="M71.62,222.35,68.44,222a4.07,4.07,0,0,1,1.69-2.73Z" transform="translate(-0.47 -104.39)"/><path class="cls-5" d="M68.83,216.83A15,15,0,0,0,66,221.48L21.4,186.41A9.87,9.87,0,0,1,24.24,182Z" transform="translate(-0.47 -104.39)"/><path class="cls-13" d="M417.67,212.7s-1.88,2.3-1.62,2.72.55.68,1.2.22a11.35,11.35,0,0,0,1.78-2.42Z" transform="translate(-0.47 -104.39)"/><path class="cls-7" d="M392.28,402.9s11-2.32,19.55-23c0,0,29.39-1.76,41-11.33s14.75-12.43,17.73-11.65-19.29,29.64-19.29,29.64-21.48,24.29-30.8,26.57S406.48,416.31,392.28,402.9Z" transform="translate(-0.47 -104.39)"/><path class="cls-38" d="M479.27,364.33c-2.73,6.89-10.63,11-17.38,17.5a37.46,37.46,0,0,0-6.19,7.62c-.45.77-.89,1.57-1.28,2.4-6.57,13.55-30.51,31.24-48.1,21.41,0,0,13.31-2.35,19-11.32S427,385.66,427,385.66s16.91-2.36,26.48-13.05,10.7-28.82,10.7-28.82S483.14,354.48,479.27,364.33Z" transform="translate(-0.47 -104.39)"/><path class="cls-20" d="M400.83,405.16s10.7-13.48,15.35-23.32Z" transform="translate(-0.47 -104.39)"/><path class="cls-20" d="M421.45,380.42,404.71,408C411.44,400.91,421.45,380.42,421.45,380.42Z" transform="translate(-0.47 -104.39)"/><path class="cls-20" d="M419.72,395.13,410,409.88S418.77,396.68,419.72,395.13Z" transform="translate(-0.47 -104.39)"/><path class="cls-20" d="M423,388.74s3.72-6.62,4.49-8.32Z" transform="translate(-0.47 -104.39)"/><path class="cls-9" d="M469.41,368.86a27.94,27.94,0,0,0-7.33,12.47,37.13,37.13,0,0,0-6.19,7.62,31.4,31.4,0,0,1,4.23-10.54C464.67,371.62,469.05,369,469.41,368.86Z" transform="translate(-0.47 -104.39)"/></g></svg>