<svg width="532" height="424" viewBox="0 0 532 424" fill="none" xmlns="http://www.w3.org/2000/svg">
<g clip-path="url(#clip0_27_722)">
<path d="M371.953 175.704C377.017 174.903 380.315 177.993 375.604 181.885C370.893 185.776 363.473 189.553 366.771 192.987C370.186 196.421 406.815 192.643 432.726 184.631C458.755 176.619 461.464 171.698 468.884 179.824C476.304 187.951 471.004 196.878 449.333 204.204C427.662 211.529 383.966 216.565 367.713 212.902C351.46 209.24 346.866 206.493 350.871 201.8C354.875 197.107 357.466 192.415 351.577 192.3C345.689 192.186 325.902 191.728 320.955 187.951C316.126 184.059 317.068 183.716 326.491 182.8C336.266 181.77 362.766 177.192 371.953 175.704Z" fill="url(#paint0_linear_27_722)"/>
<path d="M401.162 169.18C410.113 167.005 420.124 162.427 422.362 168.379C424.717 174.216 408.817 180.053 399.277 178.451C389.737 176.848 388.206 172.385 401.162 169.18Z" fill="url(#paint1_linear_27_722)"/>
<path d="M303.524 162.999C308.942 163.457 307.058 177.077 296.811 177.764C266.895 179.824 229.56 166.089 205.298 154.873C201.411 153.041 199.998 159.565 206.593 165.861C213.071 172.27 224.495 176.848 216.604 180.626C208.595 184.403 170.906 165.517 160.189 151.897C149.471 138.276 160.542 137.361 167.491 137.819C174.44 138.276 177.266 131.409 166.666 124.084C156.066 116.759 128.389 96.2707 131.569 91.2346C134.749 86.0841 169.258 115.271 206.24 132.783C259.004 157.734 278.32 160.939 303.524 162.999Z" fill="url(#paint2_linear_27_722)"/>
<path d="M117.906 281.462C112.488 275.739 107.306 267.842 103.066 271.047C98.8263 274.251 107.424 285.697 115.08 288.902C122.735 292.107 125.68 289.703 117.906 281.462Z" fill="#F9E0EC"/>
<path d="M122.382 112.753C119.437 111.722 107.306 114.584 122.735 127.632C129.802 133.584 138.046 141.138 142.051 137.704C146.055 134.385 138.635 118.361 122.382 112.753Z" fill="url(#paint3_linear_27_722)"/>
<path d="M90.2285 225.607C79.2752 218.053 67.6152 226.523 85.8707 241.631C94.233 248.499 101.182 252.505 105.657 248.499C110.015 244.493 106.835 237.053 90.2285 225.607Z" fill="url(#paint4_linear_27_722)"/>
<path d="M480.78 157.963C488.906 150.638 479.837 139.078 468.531 147.319C463.584 150.752 455.811 158.421 458.755 163.571C461.7 168.608 471.357 166.204 480.78 157.963Z" fill="url(#paint5_linear_27_722)"/>
<path d="M109.78 147.776C115.315 151.439 121.086 144.686 114.609 139.307C111.9 136.903 108.72 136.102 106.011 138.391C103.302 140.794 103.538 143.541 109.78 147.776Z" fill="url(#paint6_linear_27_722)"/>
<path d="M67.3796 130.837C67.8507 125.686 74.2107 129.463 83.5151 137.819C92.8196 146.288 105.893 169.523 160.306 186.806C214.72 204.089 221.551 202.601 221.551 215.649C221.551 228.697 188.102 214.505 165.253 203.975C142.404 193.445 127.328 191.499 127.211 201.228C127.211 210.957 157.362 238.197 225.908 244.378C294.455 250.559 326.962 230.987 341.331 245.637C355.7 260.402 312.24 284.438 256.884 278.83C201.411 273.336 166.313 263.035 125.208 228.926C84.104 194.818 82.3374 177.65 87.5196 174.788C92.7018 171.698 98.944 185.662 108.013 188.294C117.082 190.927 117.435 187.035 112.253 181.312C107.071 175.589 66.5552 139.993 67.3796 130.837Z" fill="url(#paint7_linear_27_722)"/>
<path d="M409.642 242.318C406.344 244.378 403.164 253.649 414.235 252.047C433.669 249.986 473.124 230.185 471.829 217.938C471.947 211.643 427.78 231.215 409.642 242.318Z" fill="url(#paint8_linear_27_722)"/>
<path d="M425.189 265.324C431.666 263.836 438.026 277.571 427.662 284.896C398.1 304.125 361.706 301.95 358.644 306.414C355.582 310.878 356.76 312.48 367.595 314.311C378.431 316.143 403.635 310.191 397.746 319.576C391.857 328.962 327.433 338.004 296.929 326.1C277.613 318.661 302.229 317.631 309.649 313.167C317.069 308.817 315.655 299.89 299.991 299.775C284.444 299.661 243.929 293.938 243.811 286.727C243.693 279.402 297.989 294.281 346.749 285.811C395.509 277.342 397.157 274.366 425.189 265.324Z" fill="url(#paint9_linear_27_722)"/>
<path d="M270.664 138.963C274.551 141.138 273.255 147.318 268.073 145.831C262.891 144.343 247.226 139.65 242.986 135.873C238.746 132.096 242.868 128.891 248.993 130.493C255.235 132.096 264.893 135.644 270.664 138.963Z" fill="#F37D56"/>
<path d="M331.908 394.66H303.288C300.579 394.66 298.459 392.6 298.459 389.967V358.95C298.459 356.317 300.579 354.257 303.288 354.257H331.908C334.617 354.257 336.737 356.317 336.737 358.95V389.967C336.737 392.6 334.617 394.66 331.908 394.66Z" fill="url(#paint10_linear_27_722)"/>
<path d="M376.193 394.66H347.573C344.864 394.66 342.744 392.6 342.744 389.967V358.95C342.744 356.317 344.864 354.257 347.573 354.257H376.193C378.902 354.257 381.022 356.317 381.022 358.95V389.967C381.022 392.6 378.902 394.66 376.193 394.66Z" fill="#FAA65A"/>
<path d="M358.644 386.534C358.173 386.534 357.584 386.305 357.231 385.961L348.633 377.377C347.926 376.69 347.926 375.431 348.633 374.745C349.34 374.058 350.635 374.058 351.342 374.745L358.409 381.727L373.013 363.299C373.602 362.498 374.898 362.383 375.722 362.956C376.546 363.528 376.664 364.787 376.075 365.588L360.175 385.733C359.822 386.305 359.351 386.534 358.644 386.534C358.644 386.534 358.762 386.534 358.644 386.534Z" fill="white"/>
<path d="M420.478 394.66H391.858C389.149 394.66 387.029 392.6 387.029 389.967V358.95C387.029 356.317 389.149 354.257 391.858 354.257H420.478C423.187 354.257 425.307 356.317 425.307 358.95V389.967C425.307 392.6 423.069 394.66 420.478 394.66Z" fill="url(#paint11_linear_27_722)"/>
<path d="M253.586 407.823C251.819 407.823 250.17 407.479 248.875 406.907C243.339 404.389 220.726 320.721 216.486 309.161C212.246 297.601 201.292 261.547 200.35 252.047C199.997 247.697 200.35 242.89 202.117 239.228C204.237 234.764 208.241 231.902 215.19 233.734C229.324 237.396 236.155 270.818 240.984 295.655C244.635 314.54 263.479 389.395 264.775 397.979C265.717 404.732 259.121 407.823 253.586 407.823Z" fill="url(#paint12_linear_27_722)"/>
<path d="M253.586 407.823C251.819 407.823 248.757 408.624 247.461 407.937C241.926 405.419 220.726 320.721 216.603 309.161C212.363 297.601 201.41 261.547 200.468 252.047C200.115 247.697 200.468 242.89 202.235 239.228C207.77 256.854 250.523 395.004 252.408 402.214C252.761 404.389 253.232 406.22 253.586 407.823Z" fill="#F69241"/>
<path d="M264.893 404.961C264.893 404.961 264.068 407.937 261.006 409.54C258.062 411.142 252.408 409.883 252.408 409.883C252.408 409.883 253.35 412.973 249.346 413.889C245.341 414.805 240.395 412.286 240.277 407.136C240.159 401.985 244.046 400.612 246.166 400.612C248.286 400.612 250.053 401.07 250.053 401.07C250.053 401.07 250.877 398.781 254.057 397.636C257.237 396.491 259.71 397.293 259.71 397.293C259.71 397.293 260.888 393.516 265.835 392.485C270.782 391.455 273.373 397.178 272.548 401.184C271.724 405.19 267.955 405.305 264.893 404.961Z" fill="url(#paint13_linear_27_722)"/>
<path d="M127.21 235.565C119.908 236.48 112.606 244.264 105.657 268.414C98.708 292.564 92.5835 312.365 94.7035 322.667C96.8235 332.968 104.832 333.54 114.726 331.709C124.619 329.877 135.808 277.456 139.93 262.462C143.817 247.583 140.519 233.734 127.21 235.565Z" fill="url(#paint14_linear_27_722)"/>
<path d="M106.01 305.384C105.539 305.384 105.068 305.04 104.832 304.582C104.597 303.896 104.832 303.209 105.539 302.98L118.848 297.829L110.368 294.854C109.661 294.625 109.426 293.938 109.661 293.251C109.897 292.564 110.604 292.335 111.31 292.564L122.852 296.685C123.324 296.914 123.677 297.372 123.677 297.829C123.677 298.287 123.324 298.859 122.852 298.974L106.364 305.384C106.364 305.384 106.128 305.384 106.01 305.384Z" fill="#F3802A"/>
<path d="M157.48 225.378L176.56 225.836L177.149 197.222L158.187 196.764L157.48 225.378Z" fill="url(#paint15_linear_27_722)"/>
<path d="M189.751 137.017C189.751 137.017 181.86 165.861 178.327 191.27C174.794 216.565 175.029 218.282 178.091 220.228C183.509 223.547 193.52 216.336 193.52 216.336C193.52 216.336 197.76 222.059 202.942 217.366C208.125 212.674 207.889 209.125 207.889 209.125C207.889 209.125 211.776 214.162 214.956 207.294C218.018 200.427 214.131 175.818 208.242 158.993C203.885 147.09 189.751 137.017 189.751 137.017Z" fill="url(#paint16_linear_27_722)"/>
<path d="M194.109 215.878C193.873 216.107 193.52 216.107 193.285 215.878C192.813 215.535 192.696 214.734 192.931 214.161C192.931 214.161 194.345 210.384 194.698 206.951C194.933 203.403 194.698 200.198 194.698 200.198C194.698 199.511 194.933 198.824 195.405 198.824C195.876 198.71 196.347 199.282 196.347 199.969C196.347 200.083 196.582 203.403 196.347 207.294C195.993 211.3 194.462 215.306 194.462 215.42C194.345 215.535 194.227 215.764 194.109 215.878Z" fill="#600B32"/>
<path d="M208.242 209.125C208.007 209.354 207.771 209.354 207.418 209.125C206.947 208.782 206.829 208.095 207.065 207.408C207.065 207.408 207.889 205.119 207.889 202.83C208.007 200.427 207.771 198.366 207.771 198.366C207.653 197.68 208.007 196.993 208.478 196.878C208.949 196.764 209.42 197.222 209.42 197.909C209.42 198.023 209.656 200.198 209.538 202.83C209.42 205.577 208.596 208.21 208.478 208.324C208.478 208.896 208.36 209.011 208.242 209.125Z" fill="#600B32"/>
<path d="M201.294 163.343C201.647 161.626 203.532 160.596 205.298 161.282C207.654 162.198 210.48 164.373 211.069 169.409C212.129 178.336 206.712 183.602 202.825 184.975C201.765 185.433 200.705 185.547 199.88 185.547C198.114 185.547 196.818 183.83 197.172 182.114L201.294 163.343Z" fill="url(#paint17_linear_27_722)"/>
<path d="M202.943 168.379C203.178 167.349 204.238 166.776 205.298 167.12C206.712 167.692 208.36 168.951 208.714 171.927C209.303 177.077 206.123 180.168 203.885 181.083C203.296 181.312 202.707 181.427 202.118 181.427C201.058 181.427 200.352 180.397 200.469 179.366L202.943 168.379Z" fill="url(#paint18_linear_27_722)"/>
<path d="M132.393 148.807C132.393 148.807 124.738 175.132 121.205 187.379C117.671 199.511 117.553 207.981 123.207 211.758C128.86 215.535 133.925 208.21 133.925 208.21C133.925 208.21 134.985 217.023 138.518 219.427C142.051 221.83 145.702 216.909 145.702 216.909C145.702 216.909 156.067 228.125 162.073 218.854C164.547 214.963 157.48 181.77 153.947 165.174C150.413 148.692 132.393 148.807 132.393 148.807Z" fill="url(#paint19_linear_27_722)"/>
<path d="M145.938 215.878C146.173 216.107 146.527 216.107 146.762 215.878C147.233 215.535 147.351 214.734 147.115 214.161C147.115 214.161 145.702 210.384 145.349 206.951C145.113 203.403 145.349 200.198 145.349 200.198C145.349 199.511 145.113 198.824 144.642 198.824C144.171 198.71 143.7 199.282 143.7 199.969C143.7 200.083 143.464 203.403 143.7 207.294C144.053 211.3 145.584 215.306 145.702 215.42C145.702 215.535 145.82 215.764 145.938 215.878Z" fill="#600B32"/>
<path d="M133.454 207.752C133.689 207.981 133.925 207.981 134.278 207.752C134.749 207.408 134.867 206.722 134.631 206.035C134.631 206.035 133.807 203.746 133.807 201.457C133.689 199.053 133.925 196.993 133.925 196.993C134.042 196.306 133.689 195.619 133.218 195.505C132.747 195.39 132.276 195.848 132.276 196.535C132.276 196.65 132.04 198.824 132.158 201.457C132.276 204.204 133.1 206.836 133.218 206.951C133.218 207.408 133.336 207.637 133.454 207.752Z" fill="#600B32"/>
<path d="M132.864 163.343C132.511 161.626 130.627 160.596 128.86 161.282C126.504 162.198 123.678 164.373 123.089 169.409C122.029 178.336 127.447 183.601 131.333 184.975C132.393 185.433 133.453 185.547 134.278 185.547C136.045 185.547 137.34 183.83 136.987 182.114L132.864 163.343Z" fill="url(#paint20_linear_27_722)"/>
<path d="M131.098 168.379C130.862 167.349 129.802 166.776 128.742 167.12C127.329 167.692 125.68 168.951 125.327 171.927C124.738 177.077 127.918 180.168 130.156 181.083C130.745 181.312 131.333 181.427 131.922 181.427C132.982 181.427 133.689 180.397 133.571 179.366L131.098 168.379Z" fill="url(#paint21_linear_27_722)"/>
<path d="M140.167 191.041C148.647 209.125 165.018 213.589 180.093 206.836C195.169 200.083 201.411 173.644 200.94 157.963C200.469 142.282 191.518 124.313 170.436 122.939C151.238 121.68 140.167 127.06 135.338 139.65C134.867 140.795 134.513 142.054 134.16 143.313C134.16 143.313 133.453 148.692 132.982 156.132C132.393 167.12 136.28 182.8 140.167 191.041Z" fill="url(#paint22_linear_27_722)"/>
<path d="M132.747 161.74C133.218 161.855 134.513 161.969 134.984 161.855C138.871 161.397 145.702 154.873 145.82 155.331C145.82 155.788 146.88 160.71 152.887 158.535C158.893 156.361 161.838 150.638 161.838 150.638C161.838 150.638 164.075 150.638 169.611 151.897C175.147 153.156 187.749 152.584 187.749 152.584C187.749 152.584 173.615 142.855 173.498 142.282C173.262 141.71 167.02 141.596 167.02 141.596C167.02 141.596 158.658 139.307 155.36 138.391C152.062 137.475 138.164 141.481 138.164 141.481C138.164 141.481 137.222 143.084 135.809 145.144C135.338 146.288 134.984 147.548 134.631 148.807C134.749 149.15 133.218 154.3 132.747 161.74Z" fill="url(#paint23_linear_27_722)"/>
<path d="M163.015 145.945C163.015 145.945 156.773 156.017 151.473 157.62C146.173 159.222 146.291 152.24 146.291 152.24C146.291 152.24 137.34 159.909 132.158 160.71C126.975 161.511 130.627 147.204 134.395 142.168C138.164 137.132 171.26 130.264 163.015 145.945Z" fill="url(#paint24_linear_27_722)"/>
<path d="M194.58 153.27L197.407 181.541L203.296 158.192C203.296 158.192 198.702 154.644 194.58 153.27Z" fill="#600B32"/>
<path d="M139.814 151.439L136.987 182.113L128.86 154.987C128.86 155.102 135.691 152.812 139.814 151.439Z" fill="#600B32"/>
<path d="M213.778 157.963C214.131 161.626 210.244 164.144 207.064 162.312C199.173 158.078 179.033 148.349 159.247 149.493C133.924 150.981 129.92 157.963 127.093 156.704C121.558 154.3 124.973 145.487 125.915 143.77C126.858 142.054 128.035 112.066 159.011 102.68C189.987 93.2949 204.591 107.03 207.182 113.554C211.187 123.855 204.355 130.493 204.591 135.072C204.827 139.65 211.187 149.493 212.247 151.668C212.6 152.698 213.542 155.331 213.778 157.963Z" fill="url(#paint25_linear_27_722)"/>
<path d="M211.658 153.843C211.776 153.843 211.893 153.729 212.011 153.614C212.365 153.157 212.247 152.584 211.776 152.241C211.187 151.669 196.818 139.078 171.967 136.675C147.233 134.271 128.271 142.054 128.036 142.169C127.565 142.398 127.329 142.97 127.565 143.428C127.8 144 128.389 144.229 128.86 144C129.096 143.886 147.705 136.331 171.967 138.621C196.111 140.91 210.48 153.5 210.598 153.729C210.951 153.843 211.422 153.958 211.658 153.843Z" fill="#CB2527"/>
<path d="M203.531 159.451C203.767 159.337 203.884 159.222 204.002 158.879C204.002 158.764 204.827 156.361 205.298 153.042C205.769 149.722 205.651 148.692 205.651 148.463C205.533 147.891 205.062 147.548 204.591 147.548C204.12 147.548 203.767 148.12 203.884 148.692C203.884 148.692 204.002 149.608 203.531 152.469C203.06 155.674 202.236 158.078 202.236 158.078C202.118 158.535 202.353 159.222 202.824 159.451C203.06 159.566 203.296 159.566 203.531 159.451Z" fill="#CB2527"/>
<path d="M192.225 153.614C192.46 153.499 192.578 153.27 192.696 153.041L195.287 143.198C195.405 142.626 195.169 142.054 194.58 141.939C194.109 141.71 193.52 142.054 193.402 142.511L190.811 152.355C190.693 152.927 190.929 153.499 191.518 153.614C191.753 153.728 191.989 153.728 192.225 153.614Z" fill="#CB2527"/>
<path d="M179.505 150.409C179.74 150.294 179.976 150.066 179.976 149.722L181.625 139.192C181.743 138.62 181.389 138.048 180.8 137.933C180.329 137.819 179.74 138.048 179.74 138.62L178.091 149.15C177.974 149.722 178.327 150.294 178.916 150.409C179.151 150.409 179.387 150.409 179.505 150.409Z" fill="#CB2527"/>
<path d="M167.609 148.349C167.844 148.234 168.08 148.005 168.08 147.662L169.493 137.475C169.611 136.903 169.258 136.331 168.669 136.216C168.198 136.102 167.727 136.445 167.609 136.903L166.195 147.09C166.078 147.662 166.431 148.234 167.02 148.349C167.138 148.463 167.373 148.463 167.609 148.349Z" fill="#CB2527"/>
<path d="M153.24 148.12C153.476 148.005 153.711 147.776 153.711 147.547L155.714 137.819C155.831 137.246 155.478 136.674 155.007 136.56C154.536 136.331 153.947 136.674 153.829 137.246L151.827 146.975C151.709 147.547 152.063 148.12 152.534 148.234C152.887 148.234 153.123 148.234 153.24 148.12Z" fill="#CB2527"/>
<path d="M139.931 149.951C140.167 149.837 140.402 149.608 140.402 149.379L142.522 139.764C142.64 139.192 142.287 138.62 141.816 138.505C141.345 138.277 140.756 138.62 140.638 139.192L138.518 148.807C138.4 149.379 138.754 149.951 139.225 150.066C139.46 149.951 139.696 149.951 139.931 149.951Z" fill="#CB2527"/>
<path d="M130.98 153.27C131.216 153.156 131.451 152.927 131.451 152.584L132.865 141.939C132.983 141.367 132.629 140.795 132.04 140.68C131.569 140.566 131.098 140.909 130.98 141.367L129.567 152.011C129.449 152.584 129.803 153.156 130.391 153.27C130.627 153.385 130.863 153.27 130.98 153.27Z" fill="#CB2527"/>
<path d="M168.904 225.951C136.868 227.21 122.499 235.565 120.968 244.149C119.437 252.734 116.728 373.142 114.137 391.913C111.546 410.684 117.435 417.323 145.702 421.786C179.622 427.166 204.826 422.817 213.895 419.154C226.379 414.003 228.97 410.57 228.499 400.269C228.499 399.01 222.728 316.372 219.784 282.149C216.839 248.041 222.493 237.396 214.955 233.047C206.357 228.125 201.882 224.692 168.904 225.951Z" fill="url(#paint26_linear_27_722)"/>
<path d="M181.742 231.788H155.713C153.24 231.788 151.237 229.842 151.237 227.439V221.372C151.237 218.969 153.24 217.023 155.713 217.023H181.742C184.215 217.023 186.217 218.969 186.217 221.372V227.439C186.217 229.842 184.215 231.788 181.742 231.788Z" fill="url(#paint27_linear_27_722)"/>
<path d="M184.686 229.613C184.568 229.613 184.568 229.728 184.45 229.728C184.097 229.842 175.97 232.475 167.726 232.475C159.482 232.589 153.239 230.529 153.004 230.414C152.415 230.186 152.062 229.499 152.179 228.927C152.415 228.24 153.004 227.896 153.71 228.125C153.828 228.125 159.835 230.071 167.726 230.071C175.617 229.957 183.626 227.439 183.744 227.439C184.333 227.21 185.039 227.553 185.275 228.24C185.51 228.698 185.157 229.384 184.686 229.613Z" fill="#F3802A"/>
<path d="M157.951 231.216C157.715 231.33 157.597 231.445 157.362 231.33C156.655 231.216 156.184 230.529 156.302 229.728L156.773 221.487C156.773 220.686 157.362 219.999 158.068 220.113C158.775 220.228 159.246 220.914 159.128 221.716L158.657 229.957C158.539 230.529 158.304 230.987 157.951 231.216Z" fill="#F3802A"/>
<path d="M165.959 232.131C165.841 232.246 165.606 232.36 165.37 232.36C164.664 232.36 164.192 231.674 164.192 230.872V221.143C164.192 220.342 164.781 219.656 165.37 219.656C166.077 219.656 166.548 220.342 166.548 221.143V230.872C166.548 231.33 166.312 231.788 165.959 232.131Z" fill="#F3802A"/>
<path d="M173.85 231.445C173.733 231.559 173.497 231.673 173.262 231.673C172.555 231.673 172.084 231.101 172.084 230.186L171.73 220.228C171.73 219.427 172.202 218.625 172.908 218.625C173.615 218.625 174.086 219.198 174.086 220.113L174.439 230.071C174.439 230.643 174.204 231.216 173.85 231.445Z" fill="#F3802A"/>
<path d="M181.27 229.957C181.152 230.071 181.035 230.071 180.799 230.071C180.092 230.186 179.621 229.613 179.504 228.698L178.797 220.8C178.679 219.999 179.15 219.198 179.857 219.083C180.564 218.969 181.035 219.541 181.152 220.457L181.859 228.354C181.977 229.155 181.624 229.728 181.27 229.957Z" fill="#F3802A"/>
<path d="M171.259 415.034C134.041 415.034 116.257 404.504 115.55 404.046C114.961 403.702 114.726 402.901 115.197 402.329C115.55 401.757 116.375 401.528 116.964 401.985C117.199 402.1 137.104 413.889 178.326 412.516C218.724 411.142 225.084 402.672 225.201 402.558C225.555 401.985 226.379 401.871 226.968 402.214C227.557 402.558 227.675 403.359 227.321 403.931C227.086 404.275 220.726 413.546 178.444 415.034C175.852 415.034 173.615 415.034 171.259 415.034Z" fill="#F3802A"/>
<path d="M119.908 412.058C119.083 412.058 118.612 411.485 118.612 410.799L118.966 405.076C118.966 404.389 119.555 403.817 120.261 403.931C120.968 403.931 121.557 404.503 121.439 405.19L121.086 410.913C121.203 411.6 120.615 412.058 119.908 412.058Z" fill="#F3802A"/>
<path d="M128.741 415.72C128.741 415.72 128.624 415.72 128.741 415.72C127.917 415.72 127.446 415.148 127.446 414.461L127.799 408.739C127.799 408.052 128.388 407.594 129.095 407.594C129.801 407.594 130.39 408.166 130.272 408.853L129.919 414.576C129.919 415.148 129.448 415.72 128.741 415.72Z" fill="#F3802A"/>
<path d="M140.048 418.124C139.93 418.124 139.93 418.124 140.048 418.124C139.224 418.124 138.752 417.552 138.752 416.865L139.106 411.142C139.106 410.455 139.695 409.998 140.401 409.998C141.108 409.998 141.697 410.57 141.579 411.257L141.226 416.979C141.226 417.666 140.637 418.124 140.048 418.124Z" fill="#F3802A"/>
<path d="M151.119 420.184C151.119 420.184 151.001 420.184 151.119 420.184C150.295 420.184 149.824 419.612 149.824 418.925L150.177 413.202C150.177 412.515 150.766 412.058 151.473 412.058C152.179 412.058 152.768 412.63 152.65 413.317L152.297 419.04C152.297 419.612 151.826 420.184 151.119 420.184Z" fill="#F3802A"/>
<path d="M162.19 420.642C161.366 420.642 160.895 420.07 160.895 419.383L161.248 413.66C161.248 412.973 161.837 412.516 162.543 412.516C163.25 412.516 163.839 413.088 163.721 413.775L163.368 419.498C163.486 420.184 162.897 420.642 162.19 420.642Z" fill="#F3802A"/>
<path d="M173.144 420.985C173.144 420.985 173.026 420.985 173.144 420.985C172.319 420.985 171.848 420.413 171.848 419.726L172.201 414.003C172.201 413.317 172.79 412.859 173.497 412.859C174.204 412.859 174.793 413.431 174.675 414.118L174.321 419.841C174.321 420.413 173.733 420.985 173.144 420.985Z" fill="#F3802A"/>
<path d="M184.568 421.1C184.568 421.1 184.45 421.1 184.568 421.1C183.744 421.1 183.272 420.528 183.272 419.841L183.626 414.118C183.626 413.431 184.215 412.973 184.921 412.973C185.628 412.973 186.217 413.546 186.099 414.232L185.746 419.955C185.746 420.528 185.275 421.1 184.568 421.1Z" fill="#F3802A"/>
<path d="M196.11 419.383C196.11 419.383 195.992 419.383 196.11 419.383C195.286 419.383 194.814 418.811 194.814 418.124L195.168 412.401C195.168 411.714 195.757 411.257 196.463 411.257C197.17 411.257 197.759 411.829 197.641 412.516L197.288 418.238C197.288 418.925 196.817 419.383 196.11 419.383Z" fill="#F3802A"/>
<path d="M208.006 417.666C207.182 417.666 206.71 417.094 206.71 416.407L207.064 410.684C207.064 409.997 207.653 409.54 208.359 409.54C209.066 409.54 209.655 410.112 209.537 410.799L209.184 416.521C209.302 417.208 208.713 417.666 208.006 417.666Z" fill="#F3802A"/>
<path d="M218.017 415.262C218.017 415.262 217.899 415.262 218.017 415.262C217.192 415.262 216.721 414.69 216.721 414.003L217.075 408.281C217.075 407.594 217.663 407.022 218.37 407.136C219.077 407.136 219.666 407.708 219.548 408.395L219.195 414.118C219.195 414.805 218.723 415.262 218.017 415.262Z" fill="#F3802A"/>
<path d="M153.122 230.414C153.122 230.414 157.362 249.643 157.362 259.944C157.362 270.245 155.006 271.848 155.006 271.848C155.006 271.848 162.897 291.763 161.131 304.811C159.482 317.745 158.186 318.203 159.246 324.155C160.306 330.106 160.542 355.63 159.482 357.233C158.422 358.835 163.957 385.618 160.071 394.317C156.302 402.901 140.755 405.419 129.802 403.817C118.848 402.214 116.257 395.232 116.257 395.232L116.493 389.281C116.493 389.281 138.517 241.974 138.753 241.173C138.988 240.143 153.122 230.414 153.122 230.414Z" fill="#F69241"/>
<path d="M185.157 232.818C185.157 232.818 183.037 252.39 183.037 260.173C183.037 267.956 183.626 273.794 182.448 276.884C181.153 279.974 179.857 299.89 181.624 311.908C183.273 323.811 179.739 332.739 180.093 341.895C180.564 351.166 180.564 360.781 180.564 360.781C180.564 360.781 172.673 385.275 180.799 394.889C188.808 404.503 211.304 405.534 218.488 403.13C225.673 400.612 224.848 385.847 224.848 385.847C224.848 385.847 213.659 299.089 213.659 297.028C213.659 294.968 213.188 253.42 213.188 253.42L185.157 232.818Z" fill="#F69241"/>
<path d="M125.679 230.529C132.157 227.324 146.055 222.174 152.297 226.752C155.359 228.926 157.008 241.173 156.419 253.191C155.948 263.378 149.942 270.36 149.942 270.36C149.942 270.36 157.597 276.312 157.244 293.48C156.89 310.649 154.182 317.173 154.182 317.173C154.182 317.173 158.304 324.155 156.655 340.865C155.006 357.462 154.182 357.576 154.182 357.576C154.182 357.576 158.893 362.612 158.539 373.943C158.068 385.275 157.479 388.136 154.064 392.371C147.586 400.269 127.682 401.871 122.146 400.497C116.61 399.124 110.486 387.106 110.839 376.347C111.193 365.588 115.55 357.462 115.55 357.462C115.55 357.462 111.428 346.588 112.37 335.829C113.666 320.034 116.728 314.426 116.728 314.426C116.728 314.426 113.784 305.269 116.139 290.161C118.259 276.426 114.608 273.45 114.019 251.36C113.784 244.836 115.668 235.451 125.679 230.529Z" fill="url(#paint28_linear_27_722)"/>
<path d="M149.471 271.962C149.353 271.962 149.235 271.962 149.117 271.962C148.999 271.962 141.933 272.077 135.691 271.504C129.448 271.047 122.028 269.559 121.911 269.559C121.322 269.444 120.968 268.872 121.086 268.414C121.204 267.842 121.675 267.498 122.264 267.613C122.382 267.613 129.684 269.101 135.808 269.559C141.933 270.016 148.999 270.016 149.117 270.016C149.706 270.016 150.177 270.474 150.177 271.047C150.177 271.39 149.942 271.848 149.471 271.962Z" fill="#A12168"/>
<path d="M136.633 363.299C136.515 363.299 136.397 363.413 136.161 363.299C135.926 363.299 130.508 362.727 125.326 361.353C120.144 359.98 116.375 358.606 116.375 358.606C115.904 358.377 115.55 357.805 115.786 357.347C116.021 356.775 116.493 356.546 117.081 356.775C117.081 356.775 120.85 358.148 125.915 359.522C130.979 360.895 136.397 361.353 136.397 361.468C136.986 361.468 137.339 362.04 137.339 362.612C137.221 362.841 136.986 363.185 136.633 363.299Z" fill="#A12168"/>
<path d="M147.586 361.353L143.346 362.841C142.875 363.07 142.286 362.727 142.051 362.154C141.815 361.582 142.168 361.01 142.639 360.895L146.879 359.408C151.002 358.034 152.533 357.118 152.651 357.118C153.122 356.889 153.711 357.004 154.064 357.462C154.299 357.92 154.182 358.606 153.711 358.835C153.593 358.835 151.826 359.865 147.586 361.353Z" fill="#A12168"/>
<path d="M126.975 317.745C126.857 317.86 126.622 317.86 126.386 317.745L123.913 317.173C121.439 316.601 117.317 315.456 117.199 315.342C116.611 315.227 116.375 314.655 116.493 314.083C116.611 313.51 117.199 313.281 117.788 313.396C117.788 313.396 122.028 314.655 124.384 315.227L126.857 315.799C127.446 315.914 127.682 316.486 127.564 317.058C127.446 317.402 127.211 317.631 126.975 317.745Z" fill="#A12168"/>
<path d="M153.828 318.088H153.71C153.357 318.203 143.699 319.805 138.988 319.462C134.159 319.119 131.568 317.974 131.45 317.974C130.979 317.745 130.744 317.173 130.979 316.6C131.215 316.143 131.804 315.799 132.275 316.028C132.275 316.028 134.748 317.058 139.106 317.402C143.581 317.745 153.357 316.143 153.357 316.143C153.946 316.028 154.417 316.486 154.535 316.944C154.535 317.402 154.299 317.859 153.828 318.088Z" fill="#A12168"/>
<path d="M116.493 364.1C114.373 366.275 116.964 374.745 115.079 380.01C113.195 385.275 117.199 396.72 123.324 396.72C127.21 396.72 130.39 388.937 129.448 383.787C128.624 378.751 129.802 369.823 126.739 366.046C123.677 362.498 121.793 358.606 116.493 364.1Z" fill="#C34498"/>
<path d="M214.719 230.529C208.713 226.637 194.344 222.174 188.101 226.752C185.039 228.927 183.39 241.173 183.979 253.191C184.45 263.378 190.457 270.36 190.457 270.36C190.457 270.36 182.801 276.312 183.155 293.48C183.508 310.649 186.217 317.173 186.217 317.173C186.217 317.173 182.095 324.155 183.744 340.865C185.393 357.462 186.217 357.576 186.217 357.576C186.217 357.576 181.506 362.612 181.859 373.943C182.213 385.275 182.919 388.136 186.335 392.371C192.813 400.269 212.717 401.871 218.253 400.497C223.788 399.124 229.913 387.106 229.559 376.347C229.088 365.588 224.848 357.462 224.848 357.462C224.848 357.462 228.97 346.588 228.028 335.829C226.733 320.034 223.67 314.426 223.67 314.426C223.67 314.426 224.848 305.384 224.259 290.161C224.024 282.263 226.497 271.161 226.968 249.071C227.204 237.511 222.61 235.679 214.719 230.529Z" fill="url(#paint29_linear_27_722)"/>
<path d="M190.928 271.962C191.046 271.962 191.163 271.962 191.281 272.077C191.399 272.077 198.348 272.191 204.354 271.733C210.361 271.276 217.546 269.902 217.663 269.902C218.134 269.788 218.488 269.215 218.37 268.757C218.252 268.185 217.781 267.842 217.192 267.956C217.074 267.956 210.008 269.33 204.119 269.788C198.112 270.245 191.281 270.131 191.281 270.131C190.692 270.131 190.339 270.589 190.339 271.161C190.339 271.39 190.574 271.848 190.928 271.962Z" fill="#A12168"/>
<path d="M203.883 363.299C204.001 363.299 204.119 363.413 204.355 363.299C204.59 363.299 210.008 362.727 215.19 361.353C220.372 359.98 224.141 358.606 224.141 358.606C224.612 358.377 224.966 357.805 224.73 357.347C224.494 356.775 224.023 356.546 223.434 356.775C223.434 356.775 219.666 358.148 214.601 359.522C209.537 360.895 204.119 361.353 204.119 361.468C203.53 361.468 203.177 362.04 203.177 362.612C203.295 362.841 203.53 363.185 203.883 363.299Z" fill="#A12168"/>
<path d="M192.93 361.353L197.17 362.841C197.641 363.07 198.23 362.727 198.466 362.154C198.701 361.582 198.348 361.01 197.877 360.895L193.637 359.408C189.514 358.034 187.983 357.118 187.866 357.118C187.394 356.889 186.806 357.004 186.452 357.462C186.217 357.92 186.334 358.606 186.806 358.835C186.923 358.835 188.572 359.865 192.93 361.353Z" fill="#A12168"/>
<path d="M213.541 317.745C213.659 317.859 213.895 317.859 214.13 317.745L216.603 317.173C219.077 316.6 223.199 315.456 223.317 315.341C223.906 315.227 224.141 314.655 224.023 314.082C223.906 313.51 223.317 313.281 222.728 313.396C222.728 313.396 218.488 314.655 216.132 315.227L213.659 315.799C213.07 315.914 212.835 316.486 212.952 317.058C212.952 317.402 213.188 317.631 213.541 317.745Z" fill="#A12168"/>
<path d="M186.688 318.088H186.806C187.159 318.203 196.817 319.805 201.528 319.462C206.357 319.119 208.948 317.974 209.066 317.974C209.537 317.745 209.772 317.173 209.537 316.6C209.301 316.143 208.712 315.799 208.241 316.028C208.241 316.028 205.768 317.058 201.41 317.402C196.935 317.745 187.159 316.143 187.159 316.143C186.57 316.028 186.099 316.486 185.981 316.944C185.864 317.402 186.217 317.859 186.688 318.088Z" fill="#A12168"/>
<path d="M223.906 364.1C226.026 366.275 223.435 374.745 225.319 380.01C227.204 385.275 223.199 396.72 217.075 396.72C213.188 396.72 210.008 388.937 210.95 383.787C211.775 378.751 210.597 369.823 213.659 366.046C216.721 362.498 218.724 358.606 223.906 364.1Z" fill="#C34498"/>
<path d="M180.241 171.329C179.137 171.394 178.328 172.828 178.434 174.531C178.539 176.235 179.52 177.564 180.623 177.499C181.727 177.434 182.536 176.001 182.431 174.297C182.325 172.594 181.345 171.265 180.241 171.329Z" fill="#461C34"/>
<path d="M152.994 171.327C151.89 171.392 151.081 172.826 151.187 174.529C151.293 176.233 152.273 177.562 153.377 177.497C154.481 177.432 155.29 175.999 155.184 174.295C155.078 172.591 154.098 171.263 152.994 171.327Z" fill="#461C34"/>
<path d="M183.98 162.77C185.04 163.571 183.744 165.059 180.211 163.686C176.677 162.312 176.324 160.481 177.62 160.367C178.915 160.252 181.742 161.053 183.98 162.77Z" fill="#461C34"/>
<path d="M149.471 162.999C150.06 162.541 154.535 159.566 155.478 160.71C156.42 161.855 151.355 164.602 149.706 164.831C148.175 164.945 149.471 162.999 149.471 162.999Z" fill="#461C34"/>
<path d="M167.609 173.529C168.315 174.33 169.964 184.86 169.493 187.264C169.14 189.095 165.96 190.24 164.782 187.035C163.604 183.716 166.078 171.927 167.609 173.529Z" fill="url(#paint30_linear_27_722)"/>
<path d="M175.029 192.3C175.382 192.758 173.262 197.451 166.431 196.878C160.306 196.306 158.422 193.445 158.893 192.644C159.482 191.728 161.838 194.818 166.902 194.818C173.026 194.933 174.204 191.27 175.029 192.3Z" fill="url(#paint31_linear_27_722)"/>
<path d="M183.744 277.227L190.458 292.335L160.307 310.534L153.593 291.076L183.744 277.227Z" fill="url(#paint32_linear_27_722)"/>
<path d="M162.78 308.131C162.78 308.131 126.269 331.938 116.729 335.944C107.189 339.95 99.8865 337.546 96.7065 331.022C95.0576 327.703 96.3532 321.751 98.0021 316.715C99.7687 311.45 103.773 307.215 108.955 305.04L155.36 285.697L161.602 305.04L162.78 308.131Z" fill="url(#paint33_linear_27_722)"/>
<path d="M162.78 308.131C162.78 308.131 126.269 331.938 116.729 335.944C107.189 339.95 99.8865 337.546 96.7065 331.022C100.122 331.823 104.127 331.823 108.838 330.221C123.678 325.07 159.835 303.438 159.835 303.438L161.602 304.926L162.78 308.131Z" fill="#F69241"/>
<path d="M160.424 289.245C160.424 289.245 162.898 290.619 164.429 294.052C165.96 297.486 164.429 302.064 164.429 302.064C164.429 302.064 168.433 302.522 169.258 306.986C169.964 311.45 166.549 316.486 160.66 316.143C154.771 315.799 153.476 311.45 153.711 309.161C153.829 306.872 154.536 305.04 154.536 305.04C154.536 305.04 151.944 304.01 150.884 300.348C149.824 296.685 151.12 294.167 151.12 294.167C151.12 294.167 146.88 292.45 146.173 287.071C145.467 281.691 152.298 279.402 156.773 280.547C161.249 281.806 161.131 285.926 160.424 289.245Z" fill="url(#paint34_linear_27_722)"/>
<path d="M183.391 275.625C183.391 275.625 173.498 278.257 173.615 279.86C173.733 281.348 175.029 287.643 177.149 291.992C179.269 296.342 184.098 299.317 186.218 298.745C188.338 298.173 192.695 293.366 193.638 292.221C194.58 291.077 195.169 289.131 195.404 289.016C195.64 288.902 197.76 289.589 201.411 286.613C205.062 283.637 205.533 280.203 205.533 280.203C205.533 280.203 206.358 280.089 206.24 280.661C206.122 281.233 203.649 285.01 204.12 286.155C204.591 287.299 207.653 288.444 209.891 286.269C212.246 284.095 216.722 279.173 216.604 277.456C216.369 275.739 215.544 274.48 215.544 274.48C215.544 274.48 219.549 272.763 218.606 268.872C217.664 264.98 217.193 264.523 215.073 261.661C212.953 258.8 207.771 252.505 202.942 253.306C200.822 253.649 189.869 267.613 188.102 270.703C186.453 273.794 184.098 275.281 183.391 275.625Z" fill="url(#paint35_linear_27_722)"/>
<path d="M185.393 298.516C185.158 298.516 184.922 298.402 184.805 298.173C184.687 297.83 184.805 297.486 185.04 297.372C185.04 297.372 189.516 294.968 191.753 291.534C193.167 289.474 193.284 288.101 193.284 287.986C193.284 287.872 193.402 287.643 193.52 287.528C193.638 287.414 193.873 287.414 193.991 287.414C194.109 287.414 197.053 287.986 200.469 285.239C203.884 282.492 204.591 280.661 205.416 278.601L205.533 278.257C206.358 276.197 206.476 274.595 206.476 274.595C206.476 274.251 206.829 274.022 207.182 274.022C207.536 274.022 207.771 274.366 207.771 274.709C207.771 274.824 207.653 276.426 206.711 278.601L206.593 278.944C205.769 281.004 204.944 283.179 201.293 286.04C198.349 288.444 195.64 288.559 194.462 288.559C194.344 289.245 193.873 290.504 192.813 291.992C190.458 295.54 185.865 298.058 185.629 298.173C185.511 298.516 185.511 298.516 185.393 298.516Z" fill="#A12168"/>
<path d="M216.016 278.372C215.662 278.372 215.427 278.143 215.427 277.8C215.427 277.8 215.191 276.197 214.131 274.709C213.071 273.221 209.891 272.077 209.891 272.077C209.538 271.962 209.42 271.619 209.538 271.275C209.656 270.932 210.009 270.818 210.362 270.932C210.48 270.932 213.896 272.191 215.191 273.908C216.487 275.625 216.722 277.456 216.722 277.571C216.722 278.143 216.487 278.372 216.016 278.372C216.133 278.372 216.133 278.372 216.016 278.372Z" fill="#A12168"/>
<path d="M218.136 269.788C217.9 269.788 217.665 269.673 217.547 269.444C217.547 269.444 216.487 266.812 214.72 265.324C212.836 263.836 211.187 263.492 211.069 263.492C210.716 263.378 210.48 263.149 210.598 262.806C210.716 262.462 210.951 262.233 211.305 262.348C211.422 262.348 213.307 262.806 215.427 264.408C217.547 266.011 218.607 268.872 218.607 269.101C218.725 269.444 218.607 269.788 218.254 269.902C218.254 269.788 218.136 269.788 218.136 269.788Z" fill="#A12168"/>
<path d="M206.593 287.299H206.476C205.651 287.299 205.18 286.842 204.944 286.613C204.12 285.354 204.827 284.095 205.769 282.378L206.122 281.805C207.064 280.089 206.593 278.83 206.593 278.83C206.476 278.486 206.593 278.143 206.947 278.028C207.3 277.914 207.653 278.028 207.771 278.372C207.771 278.486 208.36 280.089 207.182 282.263L206.829 282.836C205.887 284.438 205.533 285.239 206.004 285.811C206.122 285.926 206.24 285.926 206.593 286.04C207.653 286.04 209.42 285.354 210.48 284.095C212.011 282.149 215.191 278.601 215.309 278.486C215.544 278.257 215.898 278.257 216.133 278.372C216.369 278.601 216.369 278.944 216.251 279.173C216.251 279.173 213.071 282.836 211.54 284.667C210.009 286.498 207.889 287.299 206.593 287.299Z" fill="#A12168"/>
<path d="M215.78 264.065C215.545 264.065 215.309 263.95 215.191 263.721C215.191 263.721 214.249 261.89 210.951 258.685C207.182 255.137 205.18 254.794 205.062 254.794C204.709 254.679 204.473 254.45 204.591 254.107C204.709 253.764 204.945 253.535 205.298 253.649C205.416 253.649 207.653 254.107 211.776 257.884C215.427 261.203 216.369 263.149 216.369 263.263C216.487 263.607 216.369 263.95 216.016 264.065C216.016 264.065 215.898 264.065 215.78 264.065Z" fill="#CE5DAE"/>
<path d="M193.873 288.787C193.755 288.787 193.638 288.787 193.638 288.673C193.52 288.673 192.107 287.872 189.987 285.697C187.749 283.408 186.571 280.318 186.571 280.203C186.453 279.86 186.571 279.516 186.924 279.402C187.278 279.287 187.631 279.402 187.749 279.745C187.749 279.745 188.927 282.721 190.929 284.781C192.931 286.842 194.227 287.528 194.227 287.528C194.58 287.643 194.698 287.986 194.462 288.33C194.344 288.673 194.109 288.787 193.873 288.787Z" fill="#A12168"/>
<path d="M176.207 279.516C175.971 279.516 175.736 279.402 175.618 279.059C175.5 278.715 175.736 278.372 175.971 278.257C176.089 278.257 180.211 276.884 182.449 276.426C184.451 275.968 184.451 275.968 185.511 274.709C185.864 274.251 187.042 272.878 188.456 271.047C191.4 267.27 195.876 261.432 197.76 259.372C200.469 256.396 202.471 254.679 202.589 254.565C202.824 254.336 203.178 254.336 203.413 254.679C203.649 254.908 203.649 255.252 203.296 255.48C203.296 255.48 201.293 257.197 198.584 260.173C196.818 262.233 192.342 267.956 189.28 271.733C187.867 273.565 186.689 275.053 186.336 275.51C185.158 276.884 184.922 277.113 182.567 277.685C180.447 278.143 176.207 279.516 176.207 279.516C176.324 279.516 176.324 279.516 176.207 279.516Z" fill="#CE5DAE"/>
<path d="M164.547 285.239C164.547 285.239 164.076 291.191 167.373 297.028C170.671 302.866 173.851 302.751 173.851 302.751L182.331 297.372C182.331 297.372 178.916 294.854 176.678 289.589C174.44 284.209 173.851 281.004 173.851 281.004L164.547 285.239Z" fill="url(#paint36_linear_27_722)"/>
<path d="M176.56 280.775C177.384 282.836 174.793 285.926 171.26 287.185C167.726 288.444 163.957 287.872 163.133 285.811C161.955 282.836 164.664 280.203 168.197 278.944C171.731 277.685 175.264 277.685 176.56 280.775Z" fill="url(#paint37_linear_27_722)"/>
<path d="M175.735 279.86C176.559 281.92 174.322 284.667 170.906 285.926C167.373 287.185 163.957 286.613 163.133 284.552C162.308 282.492 164.546 279.745 167.962 278.486C171.377 277.227 174.911 277.8 175.735 279.86Z" fill="url(#paint38_linear_27_722)"/>
<path d="M174.086 279.974C174.675 281.577 173.026 283.751 170.2 284.781C167.373 285.812 164.664 285.354 164.075 283.637C163.486 282.034 165.135 279.86 167.962 278.83C170.789 277.8 173.38 278.372 174.086 279.974Z" fill="url(#paint39_linear_27_722)"/>
<path d="M174.204 280.203C174.793 281.691 173.026 283.866 170.317 284.896C167.608 285.926 164.899 285.468 164.193 283.98C163.486 282.492 165.371 280.318 168.079 279.287C170.788 278.257 173.615 278.601 174.204 280.203Z" fill="url(#paint40_linear_27_722)"/>
<path d="M335.677 311.564C318.246 311.564 301.168 308.474 285.15 302.179C282.206 301.034 280.792 297.829 281.97 294.968C283.148 292.107 286.446 290.733 289.39 291.878C304.112 297.601 319.777 300.462 335.795 300.462C388.323 300.462 435.788 268.3 454.043 220.457C454.986 217.824 457.812 216.336 460.639 216.908C463.466 217.481 465.35 219.999 465.115 222.746L461.817 273.45C461.581 276.541 458.872 278.83 455.692 278.601C452.512 278.372 450.157 275.739 450.392 272.649L451.923 249.414C426.837 287.528 383.141 311.564 335.677 311.564Z" fill="url(#paint41_linear_27_722)"/>
<path d="M284.445 44.994C280.558 20.958 259.122 2.6449 233.329 2.6449C204.709 2.6449 181.625 25.1929 181.625 52.8915C181.625 54.8373 181.742 56.783 181.978 58.6144C185.865 82.5359 207.3 100.849 233.093 100.849C261.713 100.849 284.798 78.301 284.798 50.6024C284.68 48.7711 284.562 46.8253 284.445 44.994ZM233.329 93.0659C212.011 93.0659 194.58 77.3853 192.342 57.3553C192.225 55.8674 192.107 54.4939 192.107 53.006C192.107 30.9158 210.598 12.946 233.329 12.946C253.822 12.946 270.782 27.4821 274.08 46.3675C274.433 48.5421 274.669 50.7168 274.669 53.006C274.551 75.0962 256.06 93.0659 233.329 93.0659Z" fill="url(#paint42_linear_27_722)"/>
<path d="M284.444 44.994C281.5 19.9279 259.593 0.470215 232.975 0.470215C204.355 0.470215 181.271 23.0182 181.271 50.7168C181.271 53.4638 181.507 56.0963 181.978 58.7288C185.864 82.6503 207.3 100.963 233.093 100.963C261.713 100.963 284.798 78.4154 284.798 50.7168C284.68 48.771 284.562 46.8253 284.444 44.994ZM191.753 50.7168C191.753 28.5122 210.244 10.6569 232.975 10.6569C254.293 10.6569 271.724 26.3375 273.962 46.3675C274.08 47.8554 274.198 49.2289 274.198 50.7168C274.198 72.9215 255.707 90.7767 232.975 90.7767C212.482 90.7767 195.522 76.3552 192.224 57.3553C191.871 55.1806 191.753 53.0059 191.753 50.7168Z" fill="url(#paint43_linear_27_722)"/>
<path d="M270.664 22.9038C270.075 22.9038 269.604 22.6748 269.251 22.217C260.3 11.9159 247.227 6.0786 233.329 6.0786C226.498 6.0786 219.902 7.45208 213.778 10.199C213.071 10.5424 212.364 10.7713 211.775 11.1147C210.833 11.5725 209.655 11.2292 209.184 10.3135C208.713 9.39784 209.067 8.25328 210.009 7.79545C210.715 7.45208 211.422 7.10871 212.247 6.76534C218.842 3.78946 226.027 2.30151 233.329 2.30151C248.287 2.30151 262.42 8.71111 272.195 19.699C272.902 20.5002 272.784 21.6447 271.96 22.3315C271.489 22.6749 271.018 22.9038 270.664 22.9038Z" fill="white"/>
<path d="M335.677 284.667C396.236 284.667 445.329 236.959 445.329 178.107C445.329 119.256 396.236 71.548 335.677 71.548C275.119 71.548 226.026 119.256 226.026 178.107C226.026 236.959 275.119 284.667 335.677 284.667Z" fill="url(#paint44_linear_27_722)"/>
<path d="M333.322 279.058C392.385 279.058 440.264 232.529 440.264 175.132C440.264 117.734 392.385 71.2046 333.322 71.2046C274.26 71.2046 226.38 117.734 226.38 175.132C226.38 232.529 274.26 279.058 333.322 279.058Z" fill="url(#paint45_linear_27_722)"/>
<path d="M335.678 263.721C384.333 263.721 423.776 225.391 423.776 178.108C423.776 130.824 384.333 92.4937 335.678 92.4937C287.023 92.4937 247.58 130.824 247.58 178.108C247.58 225.391 287.023 263.721 335.678 263.721Z" fill="url(#paint46_linear_27_722)"/>
<path d="M416.944 178.107C416.944 178.909 416.944 179.71 416.944 180.511C415.649 223.089 379.727 257.083 335.678 257.083C290.804 257.083 254.411 221.716 254.411 178.107C254.411 166.776 256.884 156.017 261.242 146.288C273.844 118.475 302.464 99.1321 335.678 99.1321C380.551 99.0177 416.944 134.385 416.944 178.107Z" fill="url(#paint47_linear_27_722)"/>
<path d="M416.944 178.107C416.944 178.909 416.944 179.71 416.944 180.511C400.456 199.282 375.84 211.185 348.398 211.185C306.704 211.185 271.607 183.716 261.242 146.288C273.844 118.475 302.464 99.1321 335.678 99.1321C380.551 99.0177 416.944 134.385 416.944 178.107Z" fill="url(#paint48_linear_27_722)"/>
<path d="M341.331 180.511H330.731V114.469C330.731 111.608 333.087 109.319 336.031 109.319C338.975 109.319 341.331 111.608 341.331 114.469V180.511Z" fill="#A12168"/>
<path d="M330.731 177.192L341.213 178.336L335.207 228.011C334.853 230.872 332.262 232.818 329.318 232.589C326.373 232.246 324.371 229.728 324.607 226.866L330.731 177.192Z" fill="#A12168"/>
<path d="M295.045 210.957L281.853 221.143C280.204 222.402 277.967 222.173 276.671 220.571C275.376 218.969 275.611 216.794 277.26 215.535L290.451 205.348C292.1 204.089 294.338 204.318 295.633 205.92C296.811 207.523 296.576 209.812 295.045 210.957Z" fill="url(#paint49_linear_27_722)"/>
<path d="M389.267 138.162L376.076 148.349C374.427 149.608 372.189 149.379 370.893 147.776C369.598 146.174 369.833 143.999 371.482 142.74L384.673 132.553C386.322 131.294 388.56 131.523 389.856 133.126C391.151 134.614 390.916 136.903 389.267 138.162Z" fill="url(#paint50_linear_27_722)"/>
<path d="M298.107 139.65L287.624 126.831C286.329 125.228 286.564 123.054 288.213 121.795C289.862 120.536 292.1 120.764 293.395 122.367L303.878 135.186C305.173 136.788 304.938 138.963 303.289 140.222C301.758 141.481 299.402 141.252 298.107 139.65Z" fill="url(#paint51_linear_27_722)"/>
<path d="M373.131 231.33L362.649 218.511C361.354 216.908 361.589 214.734 363.238 213.475C364.887 212.216 367.125 212.445 368.42 214.047L378.902 226.866C380.198 228.468 379.962 230.643 378.314 231.902C376.665 233.161 374.427 232.818 373.131 231.33Z" fill="url(#paint52_linear_27_722)"/>
<path d="M284.091 87.4575L265.482 101.879L256.884 108.518C255.471 109.662 253.351 109.433 252.055 108.06L237.804 92.3791C236.509 90.8912 236.744 88.7165 238.275 87.4575L246.167 81.3913L266.424 65.7107C267.955 64.5661 270.193 64.795 271.371 66.283L284.798 82.6503C285.858 84.1382 285.622 86.3129 284.091 87.4575Z" fill="url(#paint53_linear_27_722)"/>
<path d="M265.482 101.879L256.884 108.518C255.471 109.662 253.351 109.433 252.055 108.06L237.804 92.3791C236.509 90.8912 236.744 88.7165 238.275 87.4575L246.167 81.3912L265.482 101.879Z" fill="url(#paint54_linear_27_722)"/>
<path d="M335.678 187.607C341.077 187.607 345.453 183.354 345.453 178.107C345.453 172.861 341.077 168.608 335.678 168.608C330.279 168.608 325.902 172.861 325.902 178.107C325.902 183.354 330.279 187.607 335.678 187.607Z" fill="#A12168"/>
<path d="M414.589 116.873C413.647 116.873 412.822 116.53 412.115 115.843C392.564 93.5237 363.944 80.7046 333.793 80.7046C318.953 80.7046 304.584 83.6804 291.275 89.6322C289.744 90.3189 288.331 91.0057 286.8 91.6924C285.269 92.4936 283.384 91.9213 282.56 90.3189C281.735 88.831 282.324 86.9997 283.973 86.1985C285.504 85.3973 287.153 84.7105 288.684 83.9093C302.935 77.6142 318.129 74.4094 333.911 74.4094C365.947 74.4094 396.333 88.0298 417.062 111.722C418.24 112.981 418.004 114.927 416.709 116.072C416.002 116.644 415.295 116.873 414.589 116.873Z" fill="#3F48A5"/>
<path d="M248.404 229.384C249.346 229.384 250.171 229.842 250.76 230.643C268.898 254.107 296.575 268.643 326.726 270.36C341.566 271.275 356.053 269.101 369.715 263.95C371.246 263.378 372.778 262.806 374.309 262.119C375.958 261.432 377.842 262.119 378.549 263.721C379.255 265.324 378.549 267.155 376.9 267.842C375.251 268.528 373.602 269.215 372.071 269.787C357.466 275.281 342.155 277.456 326.373 276.54C294.338 274.595 265.011 259.257 245.695 234.306C244.635 232.932 244.871 230.987 246.284 229.956C246.991 229.499 247.698 229.27 248.404 229.384Z" fill="#3F48A5"/>
</g>
<defs>
<linearGradient id="paint0_linear_27_722" x1="356.509" y1="198.735" x2="453.128" y2="184.667" gradientUnits="userSpaceOnUse">
<stop stop-color="#F0CBDD"/>
<stop offset="0.9946" stop-color="#FAEBF3"/>
</linearGradient>
<linearGradient id="paint1_linear_27_722" x1="382.355" y1="174.368" x2="413.669" y2="171.732" gradientUnits="userSpaceOnUse">
<stop stop-color="#F0CBDD"/>
<stop offset="0.9946" stop-color="#FAEBF3"/>
</linearGradient>
<linearGradient id="paint2_linear_27_722" x1="147.902" y1="109.144" x2="223.883" y2="157.151" gradientUnits="userSpaceOnUse">
<stop stop-color="#F0CBDD"/>
<stop offset="0.9946" stop-color="#FAEBF3"/>
</linearGradient>
<linearGradient id="paint3_linear_27_722" x1="126.417" y1="135.211" x2="131.828" y2="115.381" gradientUnits="userSpaceOnUse">
<stop stop-color="#F0CBDD"/>
<stop offset="0.9946" stop-color="#FAEBF3"/>
</linearGradient>
<linearGradient id="paint4_linear_27_722" x1="106.466" y1="235.012" x2="77.3515" y2="238.011" gradientUnits="userSpaceOnUse">
<stop stop-color="#ED4527"/>
<stop offset="0.9946" stop-color="#F26A41"/>
</linearGradient>
<linearGradient id="paint5_linear_27_722" x1="443.693" y1="211.488" x2="474.602" y2="145.476" gradientUnits="userSpaceOnUse">
<stop stop-color="#F0CBDD"/>
<stop offset="0.9946" stop-color="#FAEBF3"/>
</linearGradient>
<linearGradient id="paint6_linear_27_722" x1="104.377" y1="142.981" x2="117.471" y2="142.981" gradientUnits="userSpaceOnUse">
<stop stop-color="#ECEEFB"/>
<stop offset="1" stop-color="#E3E0FD"/>
</linearGradient>
<linearGradient id="paint7_linear_27_722" x1="96.8809" y1="110.423" x2="144.204" y2="157.19" gradientUnits="userSpaceOnUse">
<stop stop-color="#F0CBDD"/>
<stop offset="0.9946" stop-color="#FAEBF3"/>
</linearGradient>
<linearGradient id="paint8_linear_27_722" x1="370.521" y1="275.2" x2="436.113" y2="234.951" gradientUnits="userSpaceOnUse">
<stop stop-color="#F0CBDD"/>
<stop offset="0.9946" stop-color="#FAEBF3"/>
</linearGradient>
<linearGradient id="paint9_linear_27_722" x1="194.033" y1="345.48" x2="316.321" y2="302.979" gradientUnits="userSpaceOnUse">
<stop stop-color="#F0CBDD"/>
<stop offset="0.9946" stop-color="#FAEBF3"/>
</linearGradient>
<linearGradient id="paint10_linear_27_722" x1="328.346" y1="275.692" x2="311.135" y2="443.936" gradientUnits="userSpaceOnUse">
<stop stop-color="#ECEEFB"/>
<stop offset="1" stop-color="#E3E0FD"/>
</linearGradient>
<linearGradient id="paint11_linear_27_722" x1="415.909" y1="284.649" x2="398.699" y2="452.893" gradientUnits="userSpaceOnUse">
<stop stop-color="#ECEEFB"/>
<stop offset="1" stop-color="#E3E0FD"/>
</linearGradient>
<linearGradient id="paint12_linear_27_722" x1="232.549" y1="145.063" x2="232.549" y2="586.14" gradientUnits="userSpaceOnUse">
<stop stop-color="#FBB666"/>
<stop offset="1" stop-color="#F89E44"/>
</linearGradient>
<linearGradient id="paint13_linear_27_722" x1="252.058" y1="391.484" x2="259.235" y2="411.699" gradientUnits="userSpaceOnUse">
<stop stop-color="#FDC876"/>
<stop offset="0.9892" stop-color="#F6DD9B"/>
</linearGradient>
<linearGradient id="paint14_linear_27_722" x1="121.561" y1="185.595" x2="112.712" y2="432.854" gradientUnits="userSpaceOnUse">
<stop stop-color="#FBB666"/>
<stop offset="1" stop-color="#F89E44"/>
</linearGradient>
<linearGradient id="paint15_linear_27_722" x1="167.598" y1="199.041" x2="167.183" y2="218.324" gradientUnits="userSpaceOnUse">
<stop stop-color="#F27C7D"/>
<stop offset="1" stop-color="#F6A2A4"/>
</linearGradient>
<linearGradient id="paint16_linear_27_722" x1="195.477" y1="155.174" x2="195.713" y2="195.708" gradientUnits="userSpaceOnUse">
<stop offset="0.00537634" stop-color="#6A0F35"/>
<stop offset="1" stop-color="#772743"/>
</linearGradient>
<linearGradient id="paint17_linear_27_722" x1="224.781" y1="168.17" x2="190.316" y2="176.584" gradientUnits="userSpaceOnUse">
<stop stop-color="#F27C7D"/>
<stop offset="1" stop-color="#F7B0AC"/>
</linearGradient>
<linearGradient id="paint18_linear_27_722" x1="204.629" y1="148.85" x2="204.629" y2="137.671" gradientUnits="userSpaceOnUse">
<stop stop-color="#F27C7D"/>
<stop offset="1" stop-color="#F7B0AC"/>
</linearGradient>
<linearGradient id="paint19_linear_27_722" x1="146.036" y1="171.268" x2="140.969" y2="207.909" gradientUnits="userSpaceOnUse">
<stop offset="0.00537634" stop-color="#6A0F35"/>
<stop offset="1" stop-color="#772743"/>
</linearGradient>
<linearGradient id="paint20_linear_27_722" x1="109.33" y1="168.17" x2="143.795" y2="176.584" gradientUnits="userSpaceOnUse">
<stop stop-color="#F27C7D"/>
<stop offset="1" stop-color="#F7B0AC"/>
</linearGradient>
<linearGradient id="paint21_linear_27_722" x1="129.482" y1="148.85" x2="129.482" y2="137.671" gradientUnits="userSpaceOnUse">
<stop stop-color="#F27C7D"/>
<stop offset="1" stop-color="#F7B0AC"/>
</linearGradient>
<linearGradient id="paint22_linear_27_722" x1="119.314" y1="195.397" x2="152.587" y2="172.583" gradientUnits="userSpaceOnUse">
<stop stop-color="#F27C7D"/>
<stop offset="1" stop-color="#F7B0AC"/>
</linearGradient>
<linearGradient id="paint23_linear_27_722" x1="160.224" y1="157.435" x2="157.767" y2="136.605" gradientUnits="userSpaceOnUse">
<stop offset="0.00537634" stop-color="#F05A53"/>
<stop offset="1" stop-color="#F0635E"/>
</linearGradient>
<linearGradient id="paint24_linear_27_722" x1="148.136" y1="158.79" x2="145.574" y2="137.069" gradientUnits="userSpaceOnUse">
<stop offset="0.00537634" stop-color="#6A0F35"/>
<stop offset="1" stop-color="#772743"/>
</linearGradient>
<linearGradient id="paint25_linear_27_722" x1="182.807" y1="169.477" x2="151.25" y2="100.456" gradientUnits="userSpaceOnUse">
<stop stop-color="#EC4728"/>
<stop offset="1" stop-color="#F16843"/>
</linearGradient>
<linearGradient id="paint26_linear_27_722" x1="171.127" y1="125.366" x2="171.127" y2="627.28" gradientUnits="userSpaceOnUse">
<stop stop-color="#FBB666"/>
<stop offset="1" stop-color="#F89E44"/>
</linearGradient>
<linearGradient id="paint27_linear_27_722" x1="168.746" y1="209.713" x2="168.746" y2="246.817" gradientUnits="userSpaceOnUse">
<stop stop-color="#FBB666"/>
<stop offset="1" stop-color="#F89E44"/>
</linearGradient>
<linearGradient id="paint28_linear_27_722" x1="157.753" y1="317.754" x2="116.899" y2="307.937" gradientUnits="userSpaceOnUse">
<stop stop-color="#B22878"/>
<stop offset="1" stop-color="#C24A9A"/>
</linearGradient>
<linearGradient id="paint29_linear_27_722" x1="182.929" y1="317.68" x2="224.387" y2="307.718" gradientUnits="userSpaceOnUse">
<stop stop-color="#B22878"/>
<stop offset="1" stop-color="#C24A9A"/>
</linearGradient>
<linearGradient id="paint30_linear_27_722" x1="167.41" y1="187.853" x2="165.389" y2="172.639" gradientUnits="userSpaceOnUse">
<stop offset="0.00537634" stop-color="#F05A53"/>
<stop offset="1" stop-color="#F0635E"/>
</linearGradient>
<linearGradient id="paint31_linear_27_722" x1="166.726" y1="196.588" x2="166.968" y2="191.436" gradientUnits="userSpaceOnUse">
<stop offset="0.00537634" stop-color="#F05A53"/>
<stop offset="1" stop-color="#F0635E"/>
</linearGradient>
<linearGradient id="paint32_linear_27_722" x1="160.38" y1="318.092" x2="173.992" y2="285.409" gradientUnits="userSpaceOnUse">
<stop stop-color="#F27C7D"/>
<stop offset="1" stop-color="#F7B0AC"/>
</linearGradient>
<linearGradient id="paint33_linear_27_722" x1="129.402" y1="259.152" x2="129.402" y2="391.177" gradientUnits="userSpaceOnUse">
<stop stop-color="#FBB666"/>
<stop offset="1" stop-color="#F89E44"/>
</linearGradient>
<linearGradient id="paint34_linear_27_722" x1="143.679" y1="301.872" x2="167.379" y2="295.23" gradientUnits="userSpaceOnUse">
<stop stop-color="#FDC876"/>
<stop offset="0.9892" stop-color="#F6DD9B"/>
</linearGradient>
<linearGradient id="paint35_linear_27_722" x1="194.989" y1="295.403" x2="197.547" y2="250.345" gradientUnits="userSpaceOnUse">
<stop stop-color="#B22878"/>
<stop offset="1" stop-color="#C24A9A"/>
</linearGradient>
<linearGradient id="paint36_linear_27_722" x1="168.194" y1="284.864" x2="180.562" y2="306.874" gradientUnits="userSpaceOnUse">
<stop stop-color="#19207D"/>
<stop offset="1" stop-color="#0E125C"/>
</linearGradient>
<linearGradient id="paint37_linear_27_722" x1="165.278" y1="273.997" x2="170.037" y2="284.393" gradientUnits="userSpaceOnUse">
<stop stop-color="#19207D"/>
<stop offset="1" stop-color="#0E125C"/>
</linearGradient>
<linearGradient id="paint38_linear_27_722" x1="170.609" y1="285.658" x2="172.042" y2="289.888" gradientUnits="userSpaceOnUse">
<stop stop-color="#19207D"/>
<stop offset="1" stop-color="#0E125C"/>
</linearGradient>
<linearGradient id="paint39_linear_27_722" x1="170.028" y1="284.575" x2="171.156" y2="287.905" gradientUnits="userSpaceOnUse">
<stop stop-color="#19207D"/>
<stop offset="1" stop-color="#0E125C"/>
</linearGradient>
<linearGradient id="paint40_linear_27_722" x1="170.115" y1="284.618" x2="171.192" y2="287.78" gradientUnits="userSpaceOnUse">
<stop stop-color="#F0CBDD"/>
<stop offset="0.9946" stop-color="#FAEBF3"/>
</linearGradient>
<linearGradient id="paint41_linear_27_722" x1="451.189" y1="213.072" x2="344.86" y2="314.852" gradientUnits="userSpaceOnUse">
<stop stop-color="#ED4527"/>
<stop offset="0.9946" stop-color="#F26A41"/>
</linearGradient>
<linearGradient id="paint42_linear_27_722" x1="250.461" y1="83.7176" x2="214.512" y2="13.7066" gradientUnits="userSpaceOnUse">
<stop stop-color="#ECEEFB"/>
<stop offset="1" stop-color="#E3E0FD"/>
</linearGradient>
<linearGradient id="paint43_linear_27_722" x1="213.785" y1="-6.10076" x2="239.715" y2="75.1873" gradientUnits="userSpaceOnUse">
<stop stop-color="#ECEEFB"/>
<stop offset="1" stop-color="#E3E0FD"/>
</linearGradient>
<linearGradient id="paint44_linear_27_722" x1="354.609" y1="212.464" x2="372.828" y2="247.459" gradientUnits="userSpaceOnUse">
<stop stop-color="#19207D"/>
<stop offset="1" stop-color="#0E125C"/>
</linearGradient>
<linearGradient id="paint45_linear_27_722" x1="339.103" y1="187.216" x2="273.672" y2="43.8283" gradientUnits="userSpaceOnUse">
<stop stop-color="#19207D"/>
<stop offset="1" stop-color="#0E125C"/>
</linearGradient>
<linearGradient id="paint46_linear_27_722" x1="331.447" y1="259.664" x2="334.446" y2="197.939" gradientUnits="userSpaceOnUse">
<stop stop-color="#19207D"/>
<stop offset="1" stop-color="#0E125C"/>
</linearGradient>
<linearGradient id="paint47_linear_27_722" x1="390.057" y1="9.26817" x2="313.688" y2="260.137" gradientUnits="userSpaceOnUse">
<stop stop-color="#F0CBDD"/>
<stop offset="0.9946" stop-color="#FAEBF3"/>
</linearGradient>
<linearGradient id="paint48_linear_27_722" x1="342.105" y1="142.331" x2="325.72" y2="262.159" gradientUnits="userSpaceOnUse">
<stop stop-color="#F0CBDD"/>
<stop offset="0.9946" stop-color="#FAEBF3"/>
</linearGradient>
<linearGradient id="paint49_linear_27_722" x1="289.497" y1="81.7026" x2="286.498" y2="205.14" gradientUnits="userSpaceOnUse">
<stop stop-color="#19207D"/>
<stop offset="1" stop-color="#0E125C"/>
</linearGradient>
<linearGradient id="paint50_linear_27_722" x1="381.842" y1="83.9463" x2="378.843" y2="207.384" gradientUnits="userSpaceOnUse">
<stop stop-color="#19207D"/>
<stop offset="1" stop-color="#0E125C"/>
</linearGradient>
<linearGradient id="paint51_linear_27_722" x1="297.024" y1="81.8857" x2="294.025" y2="205.323" gradientUnits="userSpaceOnUse">
<stop stop-color="#19207D"/>
<stop offset="1" stop-color="#0E125C"/>
</linearGradient>
<linearGradient id="paint52_linear_27_722" x1="374.316" y1="83.7639" x2="371.317" y2="207.201" gradientUnits="userSpaceOnUse">
<stop stop-color="#19207D"/>
<stop offset="1" stop-color="#0E125C"/>
</linearGradient>
<linearGradient id="paint53_linear_27_722" x1="267.358" y1="73.7847" x2="252.835" y2="108.033" gradientUnits="userSpaceOnUse">
<stop stop-color="#19207D"/>
<stop offset="1" stop-color="#0E125C"/>
</linearGradient>
<linearGradient id="paint54_linear_27_722" x1="251.226" y1="66.7674" x2="251.226" y2="97.0084" gradientUnits="userSpaceOnUse">
<stop stop-color="#19207D"/>
<stop offset="1" stop-color="#0E125C"/>
</linearGradient>
<clipPath id="clip0_27_722">
<rect width="532" height="424" fill="white"/>
</clipPath>
</defs>
</svg>
