<svg width="802" height="1048" viewBox="0 0 802 1048" fill="none" xmlns="http://www.w3.org/2000/svg">
<g clip-path="url(#clip0_122_1461)">
<path d="M447.436 579.304C447.436 579.304 151.274 748.874 96.5203 782.277C41.7671 815.68 -15.4712 828.529 36.7866 766.864C89.0549 705.199 131.362 646.111 131.362 646.111C131.362 646.111 36.7866 643.545 34.3017 615.284C31.8167 587.022 96.5203 455.997 131.362 420.017C166.204 384.038 253.315 278.709 293.137 358.353C293.137 358.353 300.603 278.709 340.425 253.013C380.248 227.316 464.862 235.023 479.793 322.384C479.793 322.384 644.053 232.458 693.826 219.61C743.599 206.761 773.471 278.698 770.975 327.515C768.49 376.331 738.618 450.833 738.618 450.833C738.618 450.833 790.887 430.279 797.524 457.685C804.161 485.092 388.541 706.909 388.541 706.909L447.436 579.304Z" fill="#F3E7D9"/>
<path d="M367.802 68.029C367.802 68.029 318.029 -9.04926 258.295 29.4953C214.992 57.4322 208.522 111.715 208.522 111.715C208.522 111.715 220.968 62.8984 151.284 106.573C81.6 150.249 106.481 217.055 106.481 217.055C106.481 217.055 84.8295 248.315 128.877 273.578C173.68 299.274 270.741 214.49 355.356 160.531C439.971 106.573 559.438 -14.1907 504.685 1.22279C449.932 16.6363 367.802 68.029 367.802 68.029Z" fill="#F3E7D9"/>
<path d="M695.987 862.245C695.987 862.245 554.878 852.882 510.526 852.882C466.174 852.882 264.482 887.032 264.482 887.032L203.878 901.85L213.053 905.141L118.152 946.716C118.152 946.716 71.1051 963.872 60.4627 973.203C49.8308 982.533 26.8369 998.087 26.8369 998.087L76.2008 1019.93C76.2008 1019.93 425.093 1050.58 436.658 1046.05C448.223 1041.52 600.635 957.01 600.635 957.01C600.635 957.01 672.814 910.109 678.864 906.992C684.914 903.875 678.864 899.707 689.947 894.501C701.03 889.295 712.123 886.177 715.143 883.06C718.163 879.943 718.163 876.814 711.106 874.736C704.05 872.658 715.143 864.334 695.987 862.245Z" fill="#FFACFF"/>
<path d="M586.818 896.601L708.413 859.258C728.335 861.423 716.801 870.082 724.141 872.247C731.481 874.412 731.481 877.659 728.335 880.906C725.19 884.153 702.122 892.812 702.122 892.812L690.589 905.801C684.298 909.049 619.164 980.098 619.164 980.098L557.774 1016.92C557.774 1016.92 483.717 1050.08 432.508 1048.18L568.143 953.124L567.735 932.061L586.818 896.601Z" fill="#856792"/>
<path d="M382.733 871.337L249.583 934.279L243.365 944.562L40.1111 1004.94L26.8369 999.375L61.679 969.826L206.72 903.799L196.905 901.309L243.365 889.316L382.733 871.337Z" fill="#856792"/>
<path d="M300.603 927.428L167.317 988.378L100.254 1022.5L265.761 1037.48L435.002 940.276L300.603 927.428Z" fill="#856792"/>
<path d="M593.244 874.552L601.748 867.051L406.169 865.124L404.921 866.845L593.244 874.552Z" fill="#856792"/>
<path d="M574.372 903.885C568.29 902.749 562.754 910.737 579.352 909.59C595.939 908.453 580.453 905.022 574.372 903.885Z" fill="#856792"/>
<path d="M573.47 894.241C583.421 895.951 576.375 901.266 567.389 898.235C563.792 897.033 563.52 892.531 573.47 894.241Z" fill="#856792"/>
<path d="M504.131 970.681L484.22 961.545L457.116 971.255L449.923 977.533C449.923 977.533 467.622 976.959 469.279 976.959C470.935 976.959 490.291 972.391 490.291 972.391L504.131 970.681Z" fill="#856792"/>
<path d="M513.537 953.557C513.537 953.557 519.619 946.132 522.942 946.705C526.256 947.279 540.086 948.989 540.086 948.989L539.53 959.261L513.537 953.557Z" fill="#856792"/>
<path d="M515.749 936.422C515.749 936.422 522.386 934.712 525.154 935.286C527.922 935.859 532.347 942.711 532.347 942.711H515.203L515.749 936.422Z" fill="#856792"/>
<path d="M435.832 1013.5L392.686 998.942L369.461 1012.65L366.148 1023.77L396.838 1028.06L435.832 1013.5Z" fill="#856792"/>
<path d="M493.07 979.243L479.796 992.091L510.497 998.942L531.236 997.232L527.084 976.677L493.07 979.243Z" fill="#856792"/>
<path d="M147.363 985.055L124.17 975.562L82.2083 979.784L69.9512 996.659L108.966 1001.94L147.363 985.055Z" fill="#856792"/>
<path d="M360.338 933.002L166.206 1027.2L390.2 936.422L360.338 933.002Z" fill="#FFACFF"/>
<path d="M241.048 864.681C241.048 864.681 247.36 843.92 239.632 820.021C231.915 796.121 236.539 804.445 236.833 825.4C237.137 846.356 232.628 865.796 232.628 865.796C232.628 865.796 231.8 848.012 220.162 838.108C208.523 828.204 197.514 827.879 197.514 827.879C197.514 827.879 221.923 854.095 226.295 871.522C226.295 871.522 224.743 863.739 206.657 864.118C188.559 864.497 185.026 864.843 185.026 864.843C185.026 864.843 226.17 876.068 235.942 889.566L241.048 864.681Z" fill="#288453"/>
<path d="M246.679 844.786C246.679 844.786 232.576 807.963 235.061 782.266C237.546 756.57 237.546 756.57 237.546 756.57C237.546 756.57 251.649 811.383 253.305 828.507C254.973 845.641 246.679 844.786 246.679 844.786Z" fill="#288453"/>
<path d="M245.85 825.086C245.85 825.086 236.728 787.408 216.817 782.266C196.906 777.125 196.906 777.125 196.906 777.125L245.85 825.086Z" fill="#288453"/>
<path d="M193.802 903.139C193.802 903.139 199.716 875.667 186.903 864.465C174.09 853.272 187.889 875.657 187.889 880.744C187.889 880.744 184.932 868.534 171.133 866.499C157.335 864.465 176.061 880.744 176.061 880.744C176.061 880.744 162.263 881.761 156.349 889.901C150.425 898.052 193.802 903.139 193.802 903.139Z" fill="#288453"/>
<path d="M197.744 901.104C197.744 901.104 194.787 875.667 209.571 870.58C224.355 865.493 197.744 901.104 197.744 901.104Z" fill="#288453"/>
<path d="M649.034 569.876C649.034 569.876 672.259 485.947 687.2 492.798C702.131 499.65 683.887 520.205 683.887 520.205C683.887 520.205 720.385 494.508 718.729 513.353C717.072 532.198 703.798 527.056 703.798 527.056C703.798 527.056 736.983 515.063 735.327 530.477C734.352 539.515 731.353 559.788 707.122 568.155C689.989 574.076 649.034 569.876 649.034 569.876Z" fill="#288453"/>
<path d="M655.671 592.153C655.671 592.153 680.563 516.785 687.2 527.068C693.837 537.35 683.886 552.764 683.886 552.764C683.886 552.764 702.141 523.647 712.091 537.35C722.042 551.054 705.454 556.195 705.454 556.195C705.454 556.195 743.62 556.195 745.277 576.75C746.933 597.305 695.504 614.429 695.504 614.429L655.671 592.153Z" fill="#33A86D"/>
<path d="M728.669 626.4C728.669 626.4 745.256 595.573 755.217 604.135C765.167 612.697 751.904 622.979 751.904 622.979C751.904 622.979 773.471 605.856 788.402 612.707C803.333 619.559 773.471 629.831 773.471 629.831C773.471 629.831 805 640.103 801.676 652.096C798.363 664.089 771.815 676.071 771.815 676.071C771.815 676.071 811.637 682.923 786.746 691.485C761.854 700.047 736.973 679.492 736.973 679.492C736.973 679.492 793.383 724.022 770.158 724.022C746.923 724.033 715.394 703.478 728.669 626.4Z" fill="#288453"/>
<path d="M751.904 780.556C751.904 780.556 765.178 753.149 770.158 758.291C775.139 763.432 763.521 785.697 763.521 785.697C763.521 785.697 780.109 766.853 788.413 777.136C796.707 787.408 741.953 828.517 741.953 828.517C741.953 828.517 773.482 802.821 776.795 816.524C780.109 830.228 753.571 874.758 730.336 859.345C707.101 843.931 751.904 780.556 751.904 780.556Z" fill="#288453"/>
<path d="M334.198 707.764C334.198 707.764 383.971 656.382 396.417 653.806C408.863 651.24 442.457 643.534 454.903 660.224C467.349 676.926 484.765 850.349 484.765 854.203C484.765 858.056 344.149 872.192 344.149 872.192C344.149 872.192 310.554 728.319 334.198 707.764Z" fill="#1D2538"/>
<path d="M249.583 874.758C249.583 874.758 253.316 786.119 255.801 769.418C258.286 752.716 252.068 736.015 263.267 721.889C274.465 707.764 298.109 692.339 315.535 696.193C332.961 700.046 351.625 698.758 357.842 730.873C364.06 762.988 370.288 876.035 370.288 876.035L332.961 891.448H273.227L249.583 874.758Z" fill="#273252"/>
<path d="M242.118 896.601C242.118 896.601 243.565 833.659 245.012 815.669C246.459 797.68 246.459 782.266 256.577 777.136C266.695 771.994 279.718 775.848 282.612 788.696C285.506 801.544 295.624 899.177 295.624 899.177L242.118 896.601Z" fill="#1D2538"/>
<path d="M239.633 896.601C239.633 896.601 240.881 833.659 242.118 815.669C243.366 797.68 243.365 782.266 252.068 777.136C260.781 771.994 271.979 775.848 274.464 788.696C276.949 801.544 285.662 899.177 285.662 899.177L239.633 896.601Z" fill="#273252"/>
<path d="M281.94 710.329C281.94 710.329 314.297 716.748 320.515 720.601C326.733 724.454 347.892 764.276 349.14 782.266L351.624 766.852L325.496 715.47L295.634 709.052L281.94 710.329Z" fill="#1D2538"/>
<path d="M638.686 293.7L674.335 322.925V864.129H629.249L638.686 293.7Z" fill="#C94039"/>
<path d="M411.159 754.665V304.6L638.686 293.7V775.371L411.159 754.665Z" fill="#EE5D4F"/>
<path d="M419.547 754.806V310.672L630.298 299.827V775.372L419.547 754.806Z" fill="#F7BC4B"/>
<path d="M425.481 740.302V319.234L621.878 309.428V743.549L425.481 740.302Z" fill="#FEED7F"/>
<path d="M407.636 866.066C407.636 866.066 406.944 798.687 408.044 778.24C409.135 757.901 407.636 752.468 409.502 751.245C415.908 747.034 419.987 746.536 419.987 746.536C419.987 746.536 627.005 749.794 629.941 750.909C632.877 752.024 636.798 754.167 638.78 756.245C640.762 758.324 644.316 875.364 644.316 875.364L407.636 866.066Z" fill="#F5894E"/>
<path opacity="0.75" d="M407.635 866.066L554.972 780.794L563.371 760.229C564.65 757.101 567.596 755.109 570.962 755.098C586.417 755.044 628.746 755.044 630.381 756.754C632.373 758.832 636.599 875.332 636.599 875.332L407.635 866.066Z" fill="#F7BC4B"/>
<path d="M497.22 396.886L598.842 392.892" stroke="#1689CB" stroke-width="6.29444" stroke-miterlimit="10"/>
<path d="M529.494 371.547L598.842 368.625" stroke="#1689CB" stroke-width="6.29444" stroke-miterlimit="10"/>
<path d="M583.219 347.215L597.227 346.543" stroke="#1689CB" stroke-width="6.29444" stroke-miterlimit="10"/>
<path d="M525.425 350.213L553.326 348.827" stroke="#1689CB" stroke-width="6.29444" stroke-miterlimit="10"/>
<path d="M581.108 343.881L574.479 344.198L574.774 350.793L581.404 350.477L581.108 343.881Z" fill="#1689CB"/>
<path d="M527.469 368.148L520.839 368.465L521.134 375.06L527.764 374.744L527.469 368.148Z" fill="#1689CB"/>
<path d="M572.951 344.379L566.321 344.696L566.617 351.291L573.246 350.975L572.951 344.379Z" fill="#1689CB"/>
<path d="M560.372 352.139C562.416 352.139 564.073 350.429 564.073 348.318C564.073 346.208 562.416 344.498 560.372 344.498C558.328 344.498 556.671 346.208 556.671 348.318C556.671 350.429 558.328 352.139 560.372 352.139Z" fill="#1689CB"/>
<path d="M518.065 354.423C520.109 354.423 521.766 352.712 521.766 350.602C521.766 348.492 520.109 346.781 518.065 346.781C516.02 346.781 514.363 348.492 514.363 350.602C514.363 352.712 516.02 354.423 518.065 354.423Z" fill="#1689CB"/>
<path d="M549.541 700.458L567.564 700.599" stroke="#1689CB" stroke-width="6.29444" stroke-miterlimit="10"/>
<path d="M475.201 700.209L511.102 700.415" stroke="#1689CB" stroke-width="6.29444" stroke-miterlimit="10"/>
<path d="M538.71 704.517L547.245 704.582L546.857 696.009L538.332 695.955L538.71 704.517Z" fill="#1689CB"/>
<path d="M528.214 704.582L536.749 704.647L536.372 696.074L527.837 696.02L528.214 704.582Z" fill="#1689CB"/>
<path d="M471.731 704.192L465.66 695.912L460.166 704.279L471.731 704.192Z" fill="#1689CB"/>
<path d="M523.36 704.125C525.306 702.399 525.451 699.28 523.685 697.158C521.919 695.036 518.91 694.715 516.964 696.44C515.018 698.166 514.873 701.286 516.639 703.408C518.405 705.53 521.414 705.851 523.36 704.125Z" fill="#1689CB"/>
<path d="M515.013 376.407C517.057 376.407 518.715 374.696 518.715 372.586C518.715 370.476 517.057 368.765 515.013 368.765C512.969 368.765 511.312 370.476 511.312 372.586C511.312 374.696 512.969 376.407 515.013 376.407Z" fill="#1689CB"/>
<path d="M421.308 764.288L580.451 771.28L571.685 777.385L421.308 771.994V764.288Z" fill="#CC6D3D"/>
<path d="M421.308 778.413V786.12L565.415 793.437L566.254 783.619L421.308 778.413Z" fill="#CC6D3D"/>
<path d="M421.727 792.993V800.7L564.577 807.963L564.157 799.39L421.727 792.993Z" fill="#CC6D3D"/>
<path d="M421.308 807.107V814.814L565.415 822.553L564.996 813.97L421.308 807.107Z" fill="#CC6D3D"/>
<path d="M483.547 869.195V839.245C483.547 836.766 485.508 834.818 487.93 834.904L542.652 837.156C545.074 837.242 547.035 839.331 547.035 841.81V871.49" stroke="#CC6D3D" stroke-width="1.04907" stroke-miterlimit="10" stroke-linecap="round"/>
<path d="M498.049 869.877V854.745L525.142 855.21L525.289 871.057L498.049 869.877Z" fill="#CC6D3D"/>
<path d="M592.625 468.25V489.378L608.656 479.106L592.625 468.25Z" fill="#BB83C3"/>
<path d="M592.625 596.146V617.264L608.656 606.992L592.625 596.146Z" fill="#BB83C3"/>
<path d="M447.72 468.25V489.378L431.678 479.106L447.72 468.25Z" fill="#BB83C3"/>
<path d="M449.933 596.146V617.264L433.89 606.992L449.933 596.146Z" fill="#BB83C3"/>
<path d="M569.39 527.911L529.934 528.117V426.847L569.39 425.147V527.911Z" fill="#F7BC4B"/>
<path d="M569.39 658.947L529.934 658.677V557.407L569.39 556.173V658.947Z" fill="#F7BC4B"/>
<path d="M512.519 658.341L475.653 658.915L474.814 559.085L512.519 557.916V658.341Z" fill="#F7BC4B"/>
<path d="M512.518 528.236L474.814 528.431V429.434L512.518 427.81V528.236Z" fill="#F7BC4B" stroke="#1689CB" stroke-width="1.04907" stroke-miterlimit="10"/>
<path opacity="0.5" d="M617.506 475.956L434.027 326.378L614.234 316.658L617.506 475.956Z" fill="#EE5D4F"/>
<path opacity="0.5" d="M433.743 340.644V366.34L612.976 512.79V490.947L433.743 340.644Z" fill="#EE5D4F"/>
<path d="M291.491 937.679C291.491 937.679 291.25 942.322 292.938 943.47C294.616 944.617 301.096 946.035 309.473 946.76C317.84 947.486 327.015 943.935 333.075 943.751C339.136 943.567 356.08 940.666 356.919 936.099C357.757 931.531 354.937 927.125 354.937 927.125L291.491 937.679Z" fill="#29ABE2"/>
<path d="M295.046 920.036C290.076 924.268 291.051 931.076 291.408 935.795C291.764 940.515 301.746 942.993 311.382 943.253C320.42 943.491 321.112 940.093 343.938 938.545C356.793 937.679 357.181 934.183 356.72 924.636C356.373 917.438 345.175 916.02 337.27 912.773C324.289 907.469 299.324 916.399 295.046 920.036Z" fill="#1D2538"/>
<path d="M295.046 920.035C290.076 924.268 291.051 931.076 291.408 935.795C291.764 940.514 301.746 942.993 311.382 943.253C320.42 943.491 343.938 938.544 343.938 938.544L329.637 933.847L337.27 912.783C337.27 912.783 299.324 916.398 295.046 920.035Z" fill="#121721"/>
<path d="M361.102 943.113C361.102 943.113 361.123 948.373 363.084 949.553C365.045 950.733 372.447 951.913 381.936 952.173C391.425 952.432 401.554 947.832 408.38 947.226C415.205 946.62 436.637 942.236 437.287 937.019C437.948 931.802 434.498 927.028 434.498 927.028L361.102 943.113Z" fill="#29ABE2"/>
<path d="M364.027 922.969C358.691 928.067 360.2 935.687 360.892 940.991C361.584 946.295 373.003 948.438 383.886 948.091C394.099 947.767 394.665 943.881 420.322 940.645C434.771 938.815 437.476 934.854 436.375 924.116C435.546 916.02 420.332 915.154 411.21 912.015C396.248 906.863 368.63 918.585 364.027 922.969Z" fill="#1D2538"/>
<path d="M364.028 922.969C358.691 928.067 360.201 935.687 360.893 940.991C361.585 946.295 373.003 948.438 383.886 948.091C394.099 947.767 394.665 943.881 420.322 940.644L403.473 937.289L401.816 921.02C401.816 921.009 368.631 918.585 364.028 922.969Z" fill="#121721"/>
<path d="M288.367 651.241C287.329 668.365 286.711 673.939 287.749 696.204C288.168 705.221 292.037 722.182 292.037 722.182C292.037 722.182 295.351 773.997 296.189 792.549C297.018 811.102 335.456 823.95 342.093 789.692C348.73 755.433 337.532 670.508 330.067 655.949C322.591 641.391 289.405 634.106 288.367 651.241Z" fill="#CE9436"/>
<path d="M317.474 702.904C320.242 711.466 322.172 727.886 322.172 727.886C322.172 727.886 323.828 759.861 324.657 778.413C325.485 796.965 335.446 823.95 342.083 789.692C348.72 755.433 332.133 692.351 324.657 677.792C317.191 663.234 311.204 683.486 317.474 702.904Z" fill="#FEED7F"/>
<path d="M314.979 924.43C314.979 924.43 297.364 926.357 294.418 919.321C291.482 912.285 294.344 910.456 295.55 903.659C296.756 896.872 293.526 817.856 295.613 794.823C297.7 771.789 339.095 775.816 340.898 793.654C342.691 811.481 340.426 859.377 339.304 879.9C338.833 888.559 338.749 896.071 338.308 902.132C337.711 910.445 343.656 914.331 339.85 916.442C332.678 920.436 314.979 924.43 314.979 924.43Z" fill="#CE9436"/>
<path d="M323.828 921.864C320.892 914.829 322.926 910.423 324.132 903.637C325.338 896.839 324.657 780.134 324.657 780.134C324.657 780.134 339.105 775.837 340.898 793.664C342.691 811.491 340.426 859.388 339.304 879.91C338.832 888.569 338.749 896.081 338.308 902.143C337.71 910.456 343.656 914.342 339.849 916.452C332.678 920.436 329.228 920.576 323.828 921.864Z" fill="#FEED7F"/>
<path d="M378.037 680.077C377.691 699.463 341.255 708.771 330.476 705.773C319.687 702.775 288.986 697.114 287.34 677.793C285.684 658.385 284.394 646.966 308.908 646.966C333.412 646.955 378.865 632.97 378.037 680.077Z" fill="#CE9436"/>
<path d="M398.493 773.131C401.848 762.729 391.856 672.64 381.906 645.244C371.955 617.849 338.35 669.653 340.846 684.211C343.1 683.659 343.079 711.087 354.12 769.851C356.72 783.695 367.803 788.837 376.936 787.981C386.047 787.126 397.665 775.707 398.493 773.131Z" fill="#FEED7F"/>
<path d="M384.118 770.847C386.361 763.898 387.578 744.793 381.905 709.182C381.349 705.675 390.22 681.18 389.622 677.847C387.211 664.316 384.558 652.551 381.905 645.234C371.955 617.827 321.899 668.927 324.384 683.486C326.638 682.934 339.891 718.361 350.932 777.125C353.532 790.969 367.803 788.826 376.925 787.971C386.047 787.126 383.289 773.423 384.118 770.847Z" fill="#CE9436"/>
<path d="M376.096 922.298C376.096 922.298 363.934 927.72 362.267 916.593C360.599 905.466 361.711 902.89 361.711 902.89C361.711 902.89 361.984 807.974 360.327 789.984C358.67 771.994 354.246 765.143 363.368 754.871C372.49 744.599 398.482 736.881 400.978 777.991C403.473 819.101 408.443 892.326 409.271 897.456C410.1 902.598 418.393 900.022 410.1 914.58C401.816 929.149 376.096 922.298 376.096 922.298Z" fill="#FEED7F"/>
<path d="M370.288 925.577C370.288 925.577 358.125 931 356.458 919.873C354.802 908.735 355.903 906.169 355.903 906.169C355.903 906.169 355.63 807.963 353.963 789.984C352.306 771.994 347.882 765.142 357.004 754.87C366.126 744.598 387.285 727.042 389.77 768.141C392.255 809.24 400.412 915.305 401.251 920.436C391.311 928.434 370.288 925.577 370.288 925.577Z" fill="#CE9436"/>
<path d="M319.687 875.624C319.687 875.624 327.152 900.032 332.132 909.027C332.132 909.016 317.191 915.868 319.687 875.624Z" fill="#CE9436"/>
<path d="M394.76 877.334C394.76 877.334 395.588 894.458 405.549 900.888C405.549 900.888 398.084 901.743 394.351 897.467C390.619 893.181 394.76 877.334 394.76 877.334Z" fill="#CE9436"/>
<path d="M295.823 601.201C295.823 601.201 267.073 580.008 260.404 577.356C253.736 574.704 247.057 586.362 248.598 596.969C250.139 607.566 277.348 618.693 287.613 622.936C297.868 627.168 309.171 619.224 295.823 601.201Z" fill="#A96443"/>
<path d="M293.254 519.598C279.906 529.134 249.615 565.698 246.029 583.19C242.432 600.682 265.531 612.339 284.016 580.008C288.284 572.55 302.554 550.133 306.601 543.444C316.866 526.483 303.519 512.26 293.254 519.598Z" fill="#7A462F"/>
<path d="M300.436 531.787L273.227 582.66C273.227 582.66 265.531 612.339 284.006 580.008C288.273 572.55 302.544 550.133 306.591 543.444C316.866 526.483 300.436 531.787 300.436 531.787Z" fill="#A96443"/>
<path d="M291.199 601.201C291.199 601.201 262.448 580.008 255.78 577.356C249.111 574.704 242.432 586.362 243.974 596.969C245.515 607.577 272.724 618.693 282.989 622.936C293.254 627.168 304.546 619.224 291.199 601.201Z" fill="#7A462F"/>
<path d="M361.815 486.791C361.815 486.791 359.404 507.941 358.555 515.41C357.705 522.878 325.642 519.956 325.642 519.956L328.934 485.665L361.815 486.791Z" fill="#A96443"/>
<path d="M360.536 486.791C360.536 486.791 358.125 507.941 357.276 515.41C356.426 522.878 324.363 519.956 324.363 519.956L327.655 485.665L360.536 486.791Z" fill="#7A462F"/>
<path d="M288.116 654.196C288.116 654.196 281.731 572.658 285.547 542.383C286.176 537.415 289.395 525.162 292.216 520.659C295.036 516.156 321.826 509.261 327.666 509.099C330.434 509.023 342.785 508.839 355.095 510.593C366.587 512.227 385.46 514.208 388.7 520.529C390.744 524.523 386.487 547.449 384.212 561.358C381.801 576.078 383.803 587.606 380.186 597.975C378.341 603.279 382.042 651.306 382.042 651.306C382.042 651.306 343.54 654.748 317.873 656.079C292.226 657.378 288.116 654.196 288.116 654.196Z" fill="#1689CB"/>
<path d="M365.119 600.811L371.284 559.474C371.284 559.474 383.593 517.239 388.721 520.518C392.443 522.9 389.989 541.192 387.714 555.101C385.303 569.822 383.824 587.595 380.207 597.965C378.361 603.269 384.023 651.511 384.023 651.511L366.702 652.605L365.119 600.811Z" fill="#29ABE2"/>
<path d="M375.383 570.341L373.59 604.383L377.7 651.933" stroke="#1689CB" stroke-width="1.04907" stroke-miterlimit="10"/>
<path d="M387.452 553.51C385.848 568.696 382.566 577.669 377.48 577.886C372.364 578.102 370.896 567.689 370.896 552.319C370.896 533.832 377.218 517.736 384.369 517.736C391.447 517.736 389.381 535.293 387.452 553.51Z" fill="#7A462F"/>
<path d="M357.611 510.582C357.611 510.582 342.785 514.825 334.576 513.494C326.366 512.162 320.83 510.744 322.822 509.878C330.738 506.447 357.611 510.582 357.611 510.582Z" fill="#7A462F"/>
<path d="M326.345 453.247C327.729 436.372 330.183 426.858 347.787 426.955C356.983 426.999 368.485 429.445 373.56 432.811C378.152 435.864 382.828 436.134 382.315 451.775C382.031 460.239 381.717 480.946 377.953 495.234C375.541 504.391 363.116 500.505 353.564 500.397C329.396 500.137 326.062 495.461 325.296 477.536C324.573 460.672 325.779 460.174 326.345 453.247Z" fill="#A96443"/>
<path d="M322.748 453.247C324.132 436.372 326.586 426.858 344.19 426.955C353.386 426.999 364.888 429.445 369.963 432.811C374.555 435.864 379.231 436.134 378.718 451.775C378.434 460.239 378.12 480.946 374.356 495.234C371.944 504.391 359.184 501.555 349.632 501.457C325.464 501.198 322.475 495.472 321.7 477.547C320.987 460.672 322.182 460.174 322.748 453.247Z" fill="#7A462F"/>
<path d="M316.992 458.919C314.853 474.971 318.156 486.206 319.687 492.3C322.528 503.611 341.611 499.812 344.327 500.245C369.984 504.38 360.18 467.253 361.596 448.917C363.011 430.581 352.023 423.535 335.079 426.717C324.206 428.763 319.98 436.491 316.992 458.919Z" fill="#273252"/>
<path d="M340.866 426.327C340.866 426.327 347.294 425.429 363.577 427.918C375.436 429.726 379.231 437.195 379.231 437.195C379.231 437.195 375.645 438.234 370.665 440.669C366.02 442.942 349.894 441.6 349.894 441.6L340.866 426.327Z" fill="#273252"/>
<path d="M373.591 437.054C373.591 437.054 376.673 454.936 364.867 468.455C364.867 468.455 354.822 455.228 353.312 446.991C351.802 438.754 373.591 437.054 373.591 437.054Z" fill="#273252"/>
<path d="M355.525 471.485C357.286 477.439 362.015 481.368 366.125 480.437C366.125 480.437 365.633 466.669 365.633 464.038C365.633 462.382 364.479 457.371 360.096 458.367C355.714 459.352 353.701 465.316 355.525 471.485Z" fill="#A96443"/>
<path d="M357.161 471.994C358.922 477.947 363.651 481.876 367.761 480.946C367.761 480.946 367.268 467.177 367.268 464.547C367.268 462.891 366.115 457.88 361.732 458.875C357.349 459.871 355.326 465.824 357.161 471.994Z" fill="#7A462F"/>
<path d="M360.17 479.04C360.474 480.664 362.036 481.79 363.64 481.562C365.244 481.335 366.324 479.852 366.041 478.229C365.758 476.594 364.196 475.436 362.56 475.652C360.925 475.88 359.855 477.395 360.17 479.04Z" fill="#F3E7D9"/>
<path d="M381.013 460.858C381.117 458.96 380.789 457.398 380.28 457.368C379.771 457.338 379.274 458.853 379.17 460.75C379.066 462.648 379.394 464.211 379.903 464.241C380.411 464.271 380.908 462.756 381.013 460.858Z" fill="#273252"/>
<path d="M382.157 454.351C382.157 454.351 380.406 453.085 378.487 454.611C378.393 454.687 378.299 454.762 378.204 454.849" stroke="#273252" stroke-width="1.04907" stroke-miterlimit="10"/>
<path d="M433.261 587.162C418.362 581.317 389.392 566.348 380.479 559.117C371.556 551.887 370.204 536.376 375.772 526.483C380.972 517.239 386.707 515.215 397.602 525.53C408.496 535.845 411.547 541.29 421.581 545.565C431.615 549.841 443.516 557.71 449.618 568.599C455.721 579.488 448.161 593.007 433.261 587.162Z" fill="#7A462F"/>
<path d="M416.191 551.389C405.003 549.408 397.098 530.26 392.505 523.592C387.913 516.925 397.59 525.53 397.59 525.53C408.484 535.845 411.536 541.29 421.57 545.565C426.865 547.828 432.695 551.086 437.906 555.264C442.561 558.987 427.263 553.348 416.191 551.389Z" fill="#A96443"/>
<path d="M437.654 573.416C436.386 569.389 439.343 555.903 444.973 543.141C450.604 530.379 453.875 521.406 457.964 515.442C462.053 509.478 462.515 507.01 470.127 509.034C477.739 511.058 475.002 522.207 470.766 537.188C466.96 550.664 459.851 588.31 444.354 587.866C435.778 586.426 438.913 577.442 437.654 573.416Z" fill="#7A462F"/>
<path d="M457.471 573.286C463.102 560.525 473.733 520.227 473.733 520.227C473.733 520.227 474.184 524.967 469.948 539.948C466.142 553.424 460.218 588.277 444.721 587.845C444.732 587.845 451.841 586.048 457.471 573.286Z" fill="#A96443"/>
<path d="M470.871 521.19C470.871 521.19 463.689 525.693 458.677 517.748C456.643 514.511 459.442 499.888 459.442 493.502C459.442 488.999 466.142 480.47 469.319 477.731C473.943 473.759 476.25 472.698 479.846 474.289C483.443 475.88 480.612 478.002 476.764 482.234C473.45 485.882 472.916 489.919 472.916 489.919C472.916 489.919 475.736 488.988 482.929 491.11C490.111 493.231 492.68 496.544 492.166 500.256C491.653 503.969 490.499 512.574 487.93 512.574C485.361 512.574 481.388 510.582 481.388 510.582C481.388 510.582 477.54 523.831 470.871 521.19Z" fill="#7A462F"/>
<path d="M659.656 771.669V683.994C659.656 683.994 655.462 656.934 662.801 638.533C670.141 620.132 666.995 609.308 676.432 596.319C685.869 583.33 696.354 573.589 702.645 572.506C708.936 571.424 715.227 572.506 722.567 579.001C729.906 585.495 729.906 585.495 737.246 589.825C744.585 594.154 746.682 651.522 748.779 664.511C750.876 677.5 758.216 791.153 757.167 809.554C756.119 827.954 760.24 853.932 756.046 859.344C751.851 864.756 717.051 875.613 717.051 875.613L657.559 863.674L659.656 771.669Z" fill="#3E4C6F"/>
<path d="M662.309 647.809C662.309 647.809 683.405 643.523 698.745 651.446C702.698 653.481 717.607 673.571 717.607 680.065C717.607 686.559 720.9 702.839 722.105 715.828C723.322 728.817 726.079 840.066 726.079 840.066C726.079 840.066 729.382 729.91 726.96 712.591C724.538 695.273 722.661 691.344 721.445 678.355C720.229 665.366 712.291 651.706 701.387 647.376C682.44 638.392 662.309 647.809 662.309 647.809Z" fill="#273252"/>
<path d="M729.906 592.444C729.906 592.444 725.712 602.186 725.712 606.516C725.712 612.036 724.663 630.329 725.712 636.823C726.76 643.317 725.712 660.636 725.712 660.636C725.712 660.636 724.663 657.389 722.566 636.823C720.469 616.257 721.297 611.765 722.566 606.516C724.663 597.856 729.906 592.444 729.906 592.444Z" fill="#273252"/>
<path d="M726.76 683.193L739.385 712.429C741.209 740.669 737.885 737.747 742.446 755.639C747.007 773.531 744.271 816.838 743.358 827.197C742.446 837.555 746.095 862.029 746.095 862.029C746.095 862.029 744.271 841.311 747.007 827.197C749.744 813.082 750.656 772.589 746.095 756.581C741.534 740.572 742.415 720.439 741.534 713.273C740.653 706.097 733.618 691.387 726.76 683.193Z" fill="#273252"/>
<path d="M681.674 616.257C677.48 620.587 677.48 625.999 685.868 621.669C694.256 617.34 685.868 611.928 681.674 616.257Z" fill="#273252"/>
<path d="M689.014 624.917C687.965 628.164 690.062 629.246 693.208 624.917C696.353 620.587 690.062 621.669 689.014 624.917Z" fill="#273252"/>
<path d="M731.164 658.947C731.164 658.947 732.821 670.085 729.508 664.944C726.184 659.802 728.669 655.094 731.164 658.947Z" fill="#273252"/>
<path d="M735.725 674.794C735.725 674.794 729.088 670.507 734.068 664.522C739.049 658.536 742.771 678.647 735.725 674.794Z" fill="#273252"/>
<path d="M695.494 872.192L708.768 871.337L707.112 836.224C707.112 836.224 710.425 794.259 702.959 777.99C695.494 761.722 688.029 748.019 678.068 736.026C668.117 724.032 659.813 747.164 659.813 747.164L657.559 861.964L695.494 872.192Z" fill="#273252"/>
<path d="M583.775 897.596C583.775 897.596 580.787 847.297 580.787 837.079C580.787 826.861 587.718 831.97 586.722 816.654C585.736 801.338 585.736 790.103 598.591 776.822C611.456 763.54 606.507 765.586 622.34 762.523C638.172 759.46 662.907 765.586 667.855 772.741C672.804 779.896 683.688 812.573 683.688 812.573C683.688 812.573 697.539 816.654 700.506 828.918C703.473 841.181 700.475 879.899 700.475 879.899C700.475 879.899 680.375 894.512 676.411 895.529C672.448 896.547 641.978 903.019 641.978 903.019L583.775 897.596Z" fill="#3E4C6F"/>
<path d="M641.978 902.813L658.576 893.18L662.907 868.75L663.137 897.672L641.978 902.813Z" fill="#273252"/>
<path d="M624.07 774.689C624.07 774.689 649.643 778.997 653.816 784.928C657.989 790.86 662.686 819.414 662.686 819.414L662.906 868.75L662.686 887.833L665.821 866.823L667.384 818.332L658.513 781.162C658.513 781.162 641.81 771.994 624.07 774.689Z" fill="#273252"/>
<path d="M596.934 820.215C596.934 820.215 611.813 819.403 624.332 822.64C636.862 825.876 643.908 834.763 647.819 852.536C651.73 870.32 646.256 884.857 646.256 884.857L644.694 853.337C644.694 853.337 631.389 829.091 620.432 827.478C609.475 825.865 588.337 825.054 588.337 825.054L596.934 820.215Z" fill="#273252"/>
<path d="M606.727 776.28C603.823 776.28 593.873 787.418 604.242 784.842C618.953 781.194 609.632 776.28 606.727 776.28Z" fill="#273252"/>
<path d="M630.78 849.646C627.467 848.791 620.41 855.209 626.628 855.642C632.856 856.064 634.104 850.501 630.78 849.646Z" fill="#273252"/>
<path d="M599.262 793.404C600.919 795.547 597.605 800.688 593.453 800.255C589.301 799.822 597.595 791.261 599.262 793.404Z" fill="#273252"/>
<path d="M712.082 791.694C712.082 791.694 688.018 775.425 686.362 767.718C684.705 760.001 692.17 795.114 712.082 791.694Z" fill="#3E4C6F"/>
<path d="M670.603 889.608L676.684 850.782L673.371 809.672L670.058 826.796C670.058 826.796 671.714 844.493 672.27 846.777C672.815 849.072 670.603 889.608 670.603 889.608Z" fill="#273252"/>
<path d="M677.386 659.521L670.676 674.859L686.97 675.357L677.386 659.521Z" fill="#273252"/>
<path d="M679.4 663.212L674.671 674.025L686.152 674.372L679.4 663.212Z" fill="#3E4C6F"/>
<path d="M678.11 696.626C682.742 696.626 686.498 692.749 686.498 687.966C686.498 683.184 682.742 679.307 678.11 679.307C673.477 679.307 669.722 683.184 669.722 687.966C669.722 692.749 673.477 696.626 678.11 696.626Z" fill="#273252"/>
<path d="M679.787 694.883C683.487 694.883 686.487 691.786 686.487 687.966C686.487 684.146 683.487 681.05 679.787 681.05C676.087 681.05 673.087 684.146 673.087 687.966C673.087 691.786 676.087 694.883 679.787 694.883Z" fill="#3E4C6F"/>
<path d="M687.609 701.486H671.022V707.19H687.609V701.486Z" fill="#273252"/>
<path d="M687.452 702.092H673.769V706.801H687.452V702.092Z" fill="#3E4C6F"/>
</g>
<defs>
<clipPath id="clip0_122_1461">
<rect width="802" height="1048" fill="white"/>
</clipPath>
</defs>
</svg>
