<svg width="579" height="507" viewBox="0 0 579 507" fill="none" xmlns="http://www.w3.org/2000/svg">
<path d="M133.296 231.67C126.822 229.749 121.926 233.431 127.453 238.874C132.98 244.318 142.139 250.401 137.086 254.243C132.032 258.086 84.8181 247.84 51.9732 233.912C19.1284 219.983 16.444 213.42 5.39042 222.545C-5.66312 231.67 -0.294262 243.677 26.8659 256.164C54.026 268.652 110.557 281.459 132.348 279.218C154.14 276.977 160.614 274.255 156.192 267.691C151.771 261.127 149.087 254.884 156.824 255.524C164.561 256.164 190.616 258.566 197.564 254.564C204.512 250.561 203.407 249.921 191.248 247.359C179.089 244.798 145.139 235.032 133.296 231.67Z" fill="url(#paint0_linear_122_7377)"/>
<path d="M96.1877 219.183C84.8184 215.02 72.5015 207.976 68.3959 215.02C64.4482 222.064 84.1867 231.83 96.9773 231.19C109.768 230.549 112.452 225.106 96.1877 219.183Z" fill="url(#paint1_linear_122_7377)"/>
<path d="M225.04 226.067C217.934 225.747 218.092 243.357 231.356 245.758C270.201 252.803 321.364 241.116 354.998 230.71C360.367 228.949 361.156 237.273 351.524 244.318C341.892 251.362 326.101 255.364 336.049 261.287C345.997 267.211 398.423 249.12 414.687 233.431C430.952 217.742 416.582 215.181 407.423 214.7C398.265 214.22 395.738 205.255 410.739 197.41C425.899 189.726 465.375 168.113 462.217 161.229C459.059 154.345 408.844 185.884 357.524 202.213C284.255 226.067 258.358 227.188 225.04 226.067Z" fill="url(#paint2_linear_122_7377)"/>
<path d="M422.267 422.661C427.004 419.459 431.742 420.9 428.899 426.823C426.057 432.747 420.056 439.951 425.109 441.712C430.163 443.473 465.376 422.341 487.957 402.169C510.538 381.997 511.011 376.074 522.381 380.396C533.75 384.719 532.487 395.765 514.012 413.215C495.536 430.665 453.533 456.28 435.531 460.443C417.372 464.605 411.529 464.125 413.266 457.721C415.003 451.317 415.635 445.554 409.635 448.116C403.634 450.677 383.264 459.802 376.632 458.362C370 456.921 370.631 456.12 379.79 450.837C388.949 445.554 413.74 428.584 422.267 422.661Z" fill="url(#paint3_linear_122_7377)"/>
<path d="M448.795 402.649C456.849 396.246 464.902 387.12 469.955 391.763C475.008 396.406 461.744 409.533 451.322 412.415C440.742 415.297 437.268 411.775 448.795 402.649Z" fill="#FAE1ED"/>
<path d="M347.103 443.153C352.788 441.072 357.209 455 347.261 460.603C317.89 476.773 273.834 481.416 243.989 482.056C239.252 482.216 240.831 489.1 250.464 492.142C260.096 495.184 273.834 494.063 267.518 501.587C261.201 509.112 214.303 508.791 197.091 500.627C179.879 492.462 190.617 486.538 197.88 483.657C205.144 480.775 204.828 472.931 190.617 470.689C176.405 468.608 138.981 462.044 139.77 455.641C140.56 449.237 189.195 460.924 234.673 460.123C299.573 459.323 320.733 453.079 347.103 443.153Z" fill="url(#paint4_linear_122_7377)"/>
<path d="M470.745 190.046C474.693 189.245 490.325 194.689 467.745 208.777C457.481 215.18 445.322 223.345 440.742 218.542C436.163 213.74 448.48 194.528 470.745 190.046Z" fill="url(#paint5_linear_122_7377)"/>
<path d="M562.331 344.216C574.806 335.891 588.228 345.016 567.542 361.666C558.067 369.19 543.382 380.877 538.171 376.554C533.118 372.232 543.54 356.863 562.331 344.216Z" fill="url(#paint6_linear_122_7377)"/>
<path d="M539.908 220.784C540.224 214.22 531.223 218.062 517.643 227.188C504.063 236.473 483.061 263.689 409.002 277.297C334.786 290.905 326.101 288.023 324.048 304.352C321.995 320.682 367.946 307.874 399.686 298.109C431.425 288.343 451.48 288.023 449.901 300.35C448.321 312.677 404.265 342.294 313.468 339.733C222.671 337.171 183.194 307.714 161.877 324.044C140.559 340.373 193.616 377.195 267.201 378.475C340.786 379.756 388.632 372.072 448.006 335.41C507.379 298.749 512.748 277.457 506.274 272.814C499.957 268.171 489.535 284.821 477.219 286.742C464.902 288.663 465.06 283.7 472.797 277.297C480.535 270.893 539.434 232.471 539.908 220.784Z" fill="url(#paint7_linear_122_7377)"/>
<path d="M52.4478 339.093C44.2366 336.531 34.1305 353.181 47.079 363.587C60.0274 373.833 131.402 389.042 134.876 394.965C138.35 400.889 137.244 405.691 122.875 406.972C108.505 408.253 89.5561 402.489 96.1883 414.977C102.82 427.464 168.51 441.712 195.196 435.629C221.725 429.545 208.461 417.858 199.144 411.615C189.828 405.371 192.828 394.325 213.198 395.766C233.726 397.206 288.046 399.768 288.994 390.643C289.941 381.517 218.093 382.958 154.772 367.269C91.451 351.58 87.8191 349.979 52.4478 339.093Z" fill="url(#paint8_linear_122_7377)"/>
<path d="M88.9241 321.963C92.8718 325.004 92.3981 333.97 78.1864 330.448C63.9747 326.926 30.6561 315.239 31.2878 307.074C31.9194 298.909 66.9749 305.153 88.9241 321.963Z" fill="url(#paint9_linear_122_7377)"/>
<path d="M142.928 190.206C129.348 194.689 171.352 212.779 209.407 214.7C245.41 216.621 256.622 208.457 252.674 204.614C248.726 200.772 228.041 204.775 198.038 199.652C168.036 194.529 152.719 186.844 142.928 190.206Z" fill="url(#paint10_linear_122_7377)"/>
<path d="M272.097 200.772C266.57 203.013 267.202 210.858 274.308 209.737C281.414 208.617 302.731 205.095 308.889 200.932C315.048 196.77 310.311 192.127 301.942 193.248C293.415 194.529 280.15 197.41 272.097 200.772Z" fill="#F47D56"/>
<path d="M288.361 465.406C281.887 472.45 179.72 414.336 166.14 397.847C165.825 397.366 165.509 396.886 165.193 396.566C156.666 382.158 147.034 241.276 161.403 240.155C181.457 238.714 282.834 274.895 285.677 296.668C285.992 299.229 286.624 306.594 287.098 316.84C289.782 360.865 293.73 459.483 288.361 465.406Z" fill="url(#paint11_linear_122_7377)"/>
<path d="M288.361 465.406C281.887 472.45 179.721 414.336 166.141 397.847C173.247 393.524 181.774 388.401 192.038 382.158C238.936 354.141 281.571 303.712 281.571 303.712L287.098 316.679C289.782 360.865 293.73 459.482 288.361 465.406Z" fill="url(#paint12_linear_122_7377)"/>
<path d="M287.729 466.046C287.729 466.046 350.734 460.283 386.895 453.879C423.056 447.475 442.321 446.355 445.321 438.83C448.321 431.306 448.953 373.993 446.584 332.368C444.216 290.904 443.268 273.934 435.215 268.651C427.162 263.368 279.992 283.06 279.518 288.023C279.044 292.986 276.202 299.549 278.097 332.368C279.992 365.187 281.097 429.545 282.045 438.67C282.834 447.796 281.413 465.566 287.729 466.046Z" fill="url(#paint13_linear_122_7377)"/>
<path d="M161.403 240.155C161.403 240.155 204.986 254.564 230.409 266.25C255.832 277.937 276.518 286.742 279.518 288.023C282.361 289.304 358.472 280.659 381.369 279.378C404.265 278.097 433.478 275.216 437.268 270.733C441.058 266.25 335.102 230.87 320.416 227.668C305.731 224.146 168.035 231.67 161.403 240.155Z" fill="url(#paint14_linear_122_7377)"/>
<path d="M421.793 287.863C421.793 287.863 348.998 296.668 325.153 297.628C292.151 299.069 292.151 304.512 292.151 306.433C292.151 308.354 296.098 409.693 295.151 424.422C294.204 439.15 296.098 449.877 296.098 449.877C296.098 449.877 414.687 434.188 421.319 432.747C427.951 431.306 435.057 428.905 435.057 427.304C435.057 425.863 435.531 362.626 434.584 330.287C433.636 298.269 436.005 286.902 421.793 287.863Z" fill="#BF2726"/>
<path d="M416.582 295.067C416.582 295.067 350.261 303.071 328.469 304.032C298.467 305.313 298.467 310.276 298.467 312.037C298.467 313.798 302.099 406.171 301.151 419.619C300.362 433.067 301.941 442.833 301.941 442.833C301.941 442.833 409.95 428.584 415.95 427.144C421.951 425.863 428.583 423.622 428.583 422.181C428.583 420.74 429.057 363.266 428.109 333.809C427.477 304.512 429.53 294.266 416.582 295.067Z" fill="url(#paint15_linear_122_7377)"/>
<path d="M402.685 349.979C402.685 349.979 448.794 342.935 451.794 343.255C454.794 343.575 459.689 346.457 460.479 354.942C461.426 363.266 461.742 374.633 456.689 377.355C448.636 381.837 410.264 384.879 406.632 385.679C400.158 387.28 396.526 376.074 396.211 367.749C395.895 359.424 397.316 352.06 402.685 349.979Z" fill="#D02527"/>
<path d="M402.842 348.218C402.842 348.218 448.951 341.174 451.952 341.494C454.952 341.814 459.847 344.696 460.637 353.181C461.426 361.665 460.163 370.311 455.11 373.032C447.057 377.515 410.422 380.717 406.79 381.517C400.316 383.118 396.684 374.313 396.368 365.988C396.052 357.823 397.473 350.459 402.842 348.218Z" fill="url(#paint16_linear_122_7377)"/>
<path d="M401.421 350.299C398.737 351.739 400.632 352.86 409.633 351.579C418.475 350.299 450.531 345.656 452.584 345.016C454.636 344.535 454.32 342.294 451.794 342.294C449.267 342.294 425.897 345.656 419.897 346.296C413.738 347.097 403.474 349.178 401.421 350.299Z" fill="url(#paint17_linear_122_7377)"/>
<path d="M343.155 302.271C343.155 302.271 344.734 387.601 345.208 410.174C345.682 432.747 343.945 437.069 345.682 436.589C347.419 436.109 348.682 438.19 349.471 435.629C350.261 433.067 349.945 301.631 347.576 300.35C345.208 299.069 343.629 300.51 343.155 302.271Z" fill="#BF2726"/>
<path d="M388.474 295.547C388.474 295.547 390.053 380.877 390.527 403.45C391 426.183 389.263 430.346 391 429.865C392.579 429.385 394.001 431.466 394.79 428.905C395.58 426.343 395.264 294.907 392.895 293.626C390.369 292.345 388.948 293.786 388.474 295.547Z" fill="#BF2726"/>
<path d="M343.155 296.668L342.681 282.099L348.839 281.619V297.308C348.682 297.628 343.786 300.03 343.155 296.668Z" fill="#BF2726"/>
<path d="M388.789 293.146L388.316 278.898L394.474 278.417L394.316 293.946C394.316 293.946 389.421 296.508 388.789 293.146Z" fill="#BF2726"/>
<path d="M344.734 457.402L344.26 440.432L350.419 439.952V458.362C350.419 458.362 345.366 461.404 344.734 457.402Z" fill="#BF2726"/>
<path d="M389.421 450.838L388.947 434.188L395.106 433.708L394.948 451.799C394.948 451.799 390.053 454.84 389.421 450.838Z" fill="#BF2726"/>
<path d="M342.522 282.58L214.933 231.51L219.197 230.87L348.997 281.94L342.522 282.58Z" fill="#BF2726"/>
<path d="M388.316 278.737L261.832 227.988L266.885 227.828L394.632 278.097L388.316 278.737Z" fill="#BF2726"/>
<path d="M154.139 283.54L278.255 342.775L278.097 349.819L154.139 291.225V283.54Z" fill="#BF2726"/>
<path d="M157.454 349.178L280.307 408.412L280.149 415.617L157.77 357.023L157.454 349.178Z" fill="#BF2726"/>
<path d="M442.795 358.624C442.795 358.624 444.374 357.664 447.216 360.225C450.058 362.786 447.216 366.148 447.216 366.148L460.954 360.865C460.954 360.865 460.954 354.942 460.48 351.42C460.007 347.898 457.954 346.937 457.954 346.937L441.531 354.462L442.795 358.624Z" fill="url(#paint18_linear_122_7377)"/>
<path d="M443.426 358.784C443.426 358.784 445.636 358.144 447.373 360.545C449.11 362.947 448.005 364.708 448.005 364.708L447.373 365.508C447.373 365.508 448.163 365.828 449.426 364.547C450.531 363.267 451.005 360.065 448.321 357.984C445.636 355.902 444.057 356.543 442.636 357.663C441.215 358.784 441.373 360.865 441.373 360.865L443.426 358.784Z" fill="#BA2026"/>
<path d="M275.729 35.8763C279.045 34.4355 280.94 30.7533 280.15 27.2313C279.203 22.9088 279.992 17.3055 288.677 14.1037C304.152 8.34032 316.627 20.0271 311.574 39.2383C306.521 58.4495 283.466 52.6861 275.571 62.1316C270.834 67.8949 270.044 76.7001 270.202 82.7836C270.36 86.6258 272.887 89.8277 276.518 90.7882L286.151 93.1896C291.046 94.4704 295.783 91.1084 296.573 86.1456C297.362 80.7024 299.415 74.6189 305.416 72.6977C317.101 69.0156 337.471 54.4471 336.839 33.1547C336.208 11.7023 315.364 -2.38591 296.415 0.335668C277.466 3.05725 269.886 16.1849 266.57 23.8694C266.097 24.8299 265.781 25.9506 265.465 26.9111C263.728 32.9947 269.886 38.4378 275.729 35.8763Z" fill="url(#paint19_linear_122_7377)"/>
<path d="M280.466 130.011C288.14 130.011 294.362 123.704 294.362 115.923C294.362 108.142 288.14 101.835 280.466 101.835C272.791 101.835 266.57 108.142 266.57 115.923C266.57 123.704 272.791 130.011 280.466 130.011Z" fill="url(#paint20_linear_122_7377)"/>
<path d="M384.827 41.7703C388.143 40.3294 390.038 36.6473 389.248 33.1252C388.301 28.8027 389.09 23.1995 397.775 19.9976C413.25 14.2342 425.725 25.921 420.672 45.1322C415.619 64.3434 392.564 58.58 384.669 68.0255C379.932 73.7889 379.142 82.594 379.3 88.6775C379.458 92.5197 381.984 95.7216 385.616 96.6822L395.249 99.0836C400.144 100.364 404.881 97.0024 405.671 92.0395C406.46 86.5963 408.513 80.5128 414.513 78.5917C426.199 74.9095 446.569 60.341 445.937 39.0487C445.305 17.5962 424.462 3.50801 405.513 6.22959C386.564 8.95117 378.984 22.0788 375.668 29.7633C375.194 30.7238 374.879 31.8445 374.563 32.805C372.826 38.8886 378.984 44.3317 384.827 41.7703Z" fill="#FDA758"/>
<path d="M389.564 135.905C397.238 135.905 403.46 129.597 403.46 121.817C403.46 114.036 397.238 107.729 389.564 107.729C381.889 107.729 375.668 114.036 375.668 121.817C375.668 129.597 381.889 135.905 389.564 135.905Z" fill="#FDA758"/>
<path d="M184.773 69.6561C186.51 67.5749 186.668 64.373 184.931 62.2918C182.878 59.7303 181.457 55.5679 186.51 50.2848C195.195 41.1595 207.67 45.0017 210.512 59.8904C213.354 74.7791 195.669 78.6213 193.3 87.7466C191.879 93.3498 194.248 99.5935 196.3 103.756C197.564 106.317 200.406 107.758 203.248 107.118L210.67 105.517C214.46 104.716 216.671 100.874 215.407 97.1921C214.144 93.1897 213.67 88.2269 217.144 84.8649C223.934 78.3011 233.251 61.4913 225.829 47.083C218.408 32.5145 199.143 32.1943 186.984 40.359C174.825 48.6839 174.193 57.8092 174.351 64.2129C174.351 65.0134 174.509 65.8138 174.667 66.6143C175.457 71.7373 181.615 73.4983 184.773 69.6561Z" fill="url(#paint21_linear_122_7377)"/>
<path d="M214.302 133.853C220.145 133.853 224.882 129.051 224.882 123.127C224.882 117.203 220.145 112.401 214.302 112.401C208.459 112.401 203.722 117.203 203.722 123.127C203.722 129.051 208.459 133.853 214.302 133.853Z" fill="url(#paint22_linear_122_7377)"/>
<defs>
<linearGradient id="paint0_linear_122_7377" x1="149.918" y1="263.899" x2="25.4253" y2="230.935" gradientUnits="userSpaceOnUse">
<stop stop-color="#F1CCDE"/>
<stop offset="0.9946" stop-color="#FBECF4"/>
</linearGradient>
<linearGradient id="paint1_linear_122_7377" x1="119.753" y1="229.087" x2="79.2596" y2="220.852" gradientUnits="userSpaceOnUse">
<stop stop-color="#F1CCDE"/>
<stop offset="0.9946" stop-color="#FBECF4"/>
</linearGradient>
<linearGradient id="paint2_linear_122_7377" x1="435.734" y1="177.721" x2="327.641" y2="226.484" gradientUnits="userSpaceOnUse">
<stop stop-color="#F1CCDE"/>
<stop offset="0.9946" stop-color="#FBECF4"/>
</linearGradient>
<linearGradient id="paint3_linear_122_7377" x1="450.66" y1="463.526" x2="451.343" y2="378.705" gradientUnits="userSpaceOnUse">
<stop stop-color="#F1CCDE"/>
<stop offset="0.9946" stop-color="#FBECF4"/>
</linearGradient>
<linearGradient id="paint4_linear_122_7377" x1="136.859" y1="476.111" x2="256.954" y2="475.288" gradientUnits="userSpaceOnUse">
<stop stop-color="#F1CCDE"/>
<stop offset="0.9946" stop-color="#FBECF4"/>
</linearGradient>
<linearGradient id="paint5_linear_122_7377" x1="461.49" y1="217.369" x2="457.55" y2="192.024" gradientUnits="userSpaceOnUse">
<stop stop-color="#F1CCDE"/>
<stop offset="0.9946" stop-color="#FBECF4"/>
</linearGradient>
<linearGradient id="paint6_linear_122_7377" x1="560.996" y1="372.141" x2="553.501" y2="345.59" gradientUnits="userSpaceOnUse">
<stop stop-color="#F1CCDE"/>
<stop offset="0.9946" stop-color="#FBECF4"/>
</linearGradient>
<linearGradient id="paint7_linear_122_7377" x1="500.444" y1="182.565" x2="429.698" y2="234.9" gradientUnits="userSpaceOnUse">
<stop stop-color="#F1CCDE"/>
<stop offset="0.9946" stop-color="#FBECF4"/>
</linearGradient>
<linearGradient id="paint8_linear_122_7377" x1="73.2111" y1="381.382" x2="273.562" y2="419.258" gradientUnits="userSpaceOnUse">
<stop stop-color="#FDC07C"/>
<stop offset="0.9946" stop-color="#F1AD66"/>
</linearGradient>
<linearGradient id="paint9_linear_122_7377" x1="32.9014" y1="320.784" x2="89.6593" y2="313.994" gradientUnits="userSpaceOnUse">
<stop stop-color="#FDC07C"/>
<stop offset="0.9946" stop-color="#F1AD66"/>
</linearGradient>
<linearGradient id="paint10_linear_122_7377" x1="327.446" y1="203.314" x2="219.027" y2="202.491" gradientUnits="userSpaceOnUse">
<stop stop-color="#8B1D56"/>
<stop offset="1" stop-color="#C84799"/>
</linearGradient>
<linearGradient id="paint11_linear_122_7377" x1="234.449" y1="453.85" x2="205.494" y2="171.617" gradientUnits="userSpaceOnUse">
<stop stop-color="#C53027"/>
<stop offset="0.9946" stop-color="#D95530"/>
</linearGradient>
<linearGradient id="paint12_linear_122_7377" x1="250.884" y1="411.852" x2="208.489" y2="318.741" gradientUnits="userSpaceOnUse">
<stop stop-color="#BF2726"/>
<stop offset="0.9892" stop-color="#D95530"/>
</linearGradient>
<linearGradient id="paint13_linear_122_7377" x1="351.746" y1="453.932" x2="363.1" y2="360.423" gradientUnits="userSpaceOnUse">
<stop stop-color="#C53027"/>
<stop offset="0.9946" stop-color="#DA6330"/>
</linearGradient>
<linearGradient id="paint14_linear_122_7377" x1="464.148" y1="383.107" x2="288.343" y2="250.163" gradientUnits="userSpaceOnUse">
<stop stop-color="#C53027"/>
<stop offset="0.9946" stop-color="#D95530"/>
</linearGradient>
<linearGradient id="paint15_linear_122_7377" x1="338.674" y1="500.094" x2="363.419" y2="371.551" gradientUnits="userSpaceOnUse">
<stop stop-color="#C53027"/>
<stop offset="0.9946" stop-color="#DA6330"/>
</linearGradient>
<linearGradient id="paint16_linear_122_7377" x1="430.347" y1="323.165" x2="426.088" y2="413.345" gradientUnits="userSpaceOnUse">
<stop stop-color="#C53027"/>
<stop offset="0.9946" stop-color="#D95530"/>
</linearGradient>
<linearGradient id="paint17_linear_122_7377" x1="424.283" y1="362.134" x2="427.115" y2="347.422" gradientUnits="userSpaceOnUse">
<stop stop-color="#C53027"/>
<stop offset="0.9946" stop-color="#DA6330"/>
</linearGradient>
<linearGradient id="paint18_linear_122_7377" x1="452.232" y1="338.642" x2="450.267" y2="380.258" gradientUnits="userSpaceOnUse">
<stop stop-color="#C53027"/>
<stop offset="0.9946" stop-color="#D95530"/>
</linearGradient>
<linearGradient id="paint19_linear_122_7377" x1="298.017" y1="79.5946" x2="303.212" y2="-3.17189" gradientUnits="userSpaceOnUse">
<stop stop-color="#292A69"/>
<stop offset="0.9946" stop-color="#1C194E"/>
</linearGradient>
<linearGradient id="paint20_linear_122_7377" x1="282.713" y1="78.8321" x2="287.836" y2="-2.79772" gradientUnits="userSpaceOnUse">
<stop stop-color="#292A69"/>
<stop offset="0.9946" stop-color="#1C194E"/>
</linearGradient>
<linearGradient id="paint21_linear_122_7377" x1="706.644" y1="671.988" x2="789.649" y2="769.238" gradientUnits="userSpaceOnUse">
<stop stop-color="#FDC07C"/>
<stop offset="0.9946" stop-color="#F1AD66"/>
</linearGradient>
<linearGradient id="paint22_linear_122_7377" x1="685.212" y1="690.281" x2="768.218" y2="787.531" gradientUnits="userSpaceOnUse">
<stop stop-color="#FDC07C"/>
<stop offset="0.9946" stop-color="#F1AD66"/>
</linearGradient>
</defs>
</svg>
