<svg width="709" height="550" viewBox="0 0 709 550" fill="none" xmlns="http://www.w3.org/2000/svg">
<g clip-path="url(#clip0_122_7906)">
<path d="M578.826 145.223C578.826 145.223 560.621 164.015 564.732 166.951C568.843 169.887 596.443 151.095 632.265 129.367C668.087 107.639 682.181 87.6729 621.695 117.622C621.695 117.622 611.124 93.5453 588.809 107.052C566.494 120.559 578.826 145.223 578.826 145.223V145.223Z" fill="#EFE6D9"/>
<path d="M221.713 73.1677C236.764 36.4958 270.18 6.5613 309.411 0.880095C348.642 -4.80111 391.669 17.1033 405.686 54.1829C412.217 41.4742 422.23 30.5766 434.341 22.9944C440.199 19.3276 446.767 16.3699 453.677 16.2729C468.531 16.0643 481.444 31.6602 478.467 46.2147C493.877 38.9635 510.923 35.2686 527.95 35.3181C538.531 35.3488 542.932 48.9056 534.431 55.2065C524.296 62.7188 512.588 68.5265 501.234 74.1814C389.68 129.745 282.988 195.068 182.778 269.16C172.771 276.559 161.397 284.444 149.066 282.76C160.395 264.054 175.07 247.38 192.188 233.769C185.062 235.249 177.937 236.729 170.812 238.209C168.9 238.607 166.875 238.999 165.028 238.364C163.133 237.713 161.74 236.076 160.735 234.343C154.145 222.981 161.3 208.642 169.62 198.478C180.125 185.645 192.754 174.555 206.836 165.797C206.836 165.797 210.168 101.298 221.713 73.1677Z" fill="#EFE6D9"/>
<path d="M268.664 426.859C202.611 420.832 135.436 427.352 71.775 445.968C42.9772 454.389 11.6979 468.347 1.48835 496.56C0.474334 499.362 -0.300845 502.451 0.603098 505.291C2.26714 510.518 8.54737 512.452 13.9576 513.36C37.2503 517.267 61.0479 516.519 84.6429 515.472C139.543 513.035 194.375 509.039 249.048 503.492C233.257 504.384 217.619 507.881 202.938 513.764C196.918 516.177 196.646 524.698 202.561 527.359C209.385 530.43 217.242 531.849 224.718 532.999C322.387 548.018 421.611 552.908 520.284 547.566C575.654 544.569 634.022 537.141 677.898 503.233C689.125 494.557 699.936 479.681 692.906 467.357C688.272 459.232 678.013 456.606 668.849 454.738C651.244 451.15 633.64 447.563 616.035 443.975C643.512 443.915 670.979 440.408 697.588 433.559C699.279 433.124 700.868 432.276 702.037 430.98C706.57 425.955 701.706 419.952 696.991 416.609C681.761 405.809 663.195 400.956 644.952 396.985C584.863 383.903 523.342 378.148 461.862 376.736C391.283 375.114 319.51 379.391 252.778 402.43C253.351 410.926 262.007 417.973 270.443 416.809L268.664 426.859Z" fill="#EFE6D9"/>
<path d="M636.5 345.482C616.027 342.427 594.88 343.982 575.074 349.997C573.144 350.583 571.139 351.264 569.758 352.735C568.377 354.205 567.884 356.71 569.222 358.22C570.013 359.114 571.235 359.47 572.39 359.772C606.297 368.626 642.079 366.337 676.842 361.907C679.773 361.534 683.464 360.374 683.616 357.424C683.753 354.761 680.798 353.128 678.272 352.274C671.337 349.928 664.118 348.424 656.823 347.804L636.5 345.482Z" fill="#EFE6D9"/>
<path opacity="0.2" d="M181.728 437.183C83.4961 442.636 52.7256 460.553 83.7818 465.876C114.851 471.199 252.15 473.874 280.259 456.112C308.367 438.364 224.326 434.807 181.728 437.183ZM129.055 457.502C114.267 458.488 105.256 453.386 123.926 451.581C146.413 449.413 143.856 456.515 129.055 457.502Z" fill="black"/>
<path opacity="0.2" d="M319.309 457.595C280.132 459.358 275.223 477.714 324.044 474.756C372.864 471.797 378.486 454.932 319.309 457.595Z" fill="black"/>
<g opacity="0.2">
<path d="M293.555 490.677C242.497 493.574 255.409 514.467 309.962 512.006C364.515 509.545 351.39 487.396 293.555 490.677V490.677Z" fill="black"/>
<path d="M599.26 406.185C525.774 410.354 544.358 440.425 622.874 436.883C701.391 433.341 682.499 401.462 599.26 406.185Z" fill="black"/>
<path d="M389.04 515.612C366.519 515.417 375.43 526.56 393.183 526.56C410.936 526.56 423.067 515.908 389.04 515.612Z" fill="black"/>
<path d="M34.904 493.764C14.4279 494.341 28.9864 507.079 40.8217 504.416C52.6569 501.753 55.9116 493.172 34.904 493.764Z" fill="black"/>
<path d="M64.7881 496.131C52.2158 496.943 62.421 503.233 67.451 502.049C72.4809 500.865 73.9604 495.54 64.7881 496.131Z" fill="black"/>
<path d="M53.4458 484.493C47.3196 484.953 51.6706 486.86 56.4046 487.255C61.1387 487.649 61.336 483.901 53.4458 484.493Z" fill="black"/>
<path d="M368.033 524.489C361.23 524.813 362.904 528.828 371.386 528.631C379.868 528.434 376.317 524.094 368.033 524.489Z" fill="black"/>
<path d="M627.393 478.37C604.872 478.174 613.783 489.317 631.536 489.317C649.289 489.317 661.42 478.666 627.393 478.37Z" fill="black"/>
<path d="M606.386 487.247C599.584 487.57 601.258 491.586 609.74 491.389C618.222 491.192 614.671 486.852 606.386 487.247Z" fill="black"/>
</g>
<path d="M300.872 331.4C300.872 331.4 291.428 351.029 289.391 351.585C287.354 352.141 270.502 337.141 270.502 337.141L271.984 326.03L284.947 319.548L300.872 331.4Z" fill="#FFB68D"/>
<path opacity="0.3" d="M300.872 331.4C300.872 331.4 291.428 351.029 289.391 351.585C287.354 352.141 270.502 337.141 270.502 337.141L271.984 326.03L284.947 319.548L300.872 331.4Z" fill="black"/>
<path d="M350.591 295.258C350.643 297.232 349.981 299.166 349.228 300.984C347.787 304.476 345.93 307.878 343.126 310.41C340.555 312.734 337.322 314.175 334.154 315.577C323.547 320.277 313.472 327.677 302.852 332.377C300.644 333.364 298.333 334.364 295.918 334.26C290.777 334.052 287.207 329.119 285.09 324.432C284.558 323.237 284.052 321.913 284.298 320.628C284.597 319.083 285.895 317.966 287.116 316.966C287.155 316.94 287.181 316.914 287.22 316.875C298.528 307.592 309.343 295.661 320.665 286.39C323.404 284.144 326.494 281.768 330.039 281.937L336.076 282.288C337.115 282.482 338.023 282.781 338.854 283.158C340.893 284.053 342.542 285.352 344.762 286.637C347.891 288.468 350.474 291.636 350.591 295.258V295.258Z" fill="#FFB68D"/>
<path opacity="0.3" d="M350.591 295.258C350.643 297.232 349.981 299.166 349.228 300.984C347.787 304.476 345.93 307.878 343.125 310.41C340.555 312.734 337.322 314.175 334.154 315.577C323.547 320.277 313.472 327.678 302.851 332.378C300.644 333.364 298.333 334.364 295.918 334.26C292.257 334.117 289.4 331.573 287.297 328.431C289.141 327.833 290.79 327.119 292.101 326.301C302.15 320.056 314.744 308.164 314.744 308.164H314.718C319.691 304.593 324.339 300.478 328.792 296.258C332.817 292.454 336.88 288.221 338.854 283.158C340.892 284.054 342.541 285.352 344.761 286.637C347.89 288.468 350.474 291.636 350.591 295.258V295.258Z" fill="black"/>
<path d="M525.107 352.18C525.107 361.138 505.301 371.834 497.121 379.87C480.554 384.363 463.689 387.284 448.901 387.284C401.732 387.284 372.858 393.789 352.928 376.716C332.999 359.629 344.788 338.882 348.449 335.636C348.449 335.636 348.462 335.636 348.475 335.623C349.462 335.208 396.058 308.565 452.25 308.162C509.338 307.747 525.107 335.107 525.107 352.18V352.18Z" fill="#363E4F"/>
<path d="M380.314 322.701C380.314 322.701 333.056 346.784 323.968 358.144C314.88 369.504 322.151 389.043 338.963 395.859C355.776 402.675 429.843 377.229 429.843 377.229C429.843 377.229 480.96 328.701 461.421 308.708C441.882 288.714 380.314 322.701 380.314 322.701V322.701Z" fill="#363E4F"/>
<path opacity="0.3" d="M380.314 322.701C380.314 322.701 333.056 346.784 323.968 358.144C314.88 369.504 322.151 389.043 338.963 395.859C355.776 402.675 429.843 377.229 429.843 377.229C429.843 377.229 480.96 328.701 461.421 308.708C441.882 288.714 380.314 322.701 380.314 322.701V322.701Z" fill="black"/>
<path d="M568.484 422.23C568.484 433.539 561.447 440.822 549.892 430.773C547.139 428.372 544.049 425.541 540.855 422.529C530.612 412.908 519.147 401.509 513.214 397.108C505.424 391.33 502.658 379.022 509.189 376.01C509.189 376.01 512.006 373.971 517.317 372.244C524.392 369.947 535.922 368.181 551.151 372.491C551.151 372.491 555.669 377.762 555.669 379.269L545.62 380.022C545.62 380.022 554.657 386.059 557.682 389.071C560.694 392.083 568.484 410.922 568.484 422.23Z" fill="#363E4F"/>
<path d="M540.881 422.529C540.868 422.529 540.868 422.529 540.855 422.529C530.612 412.908 519.147 401.509 513.214 397.108C505.424 391.33 502.658 379.022 509.189 376.01C509.189 376.01 512.006 373.971 517.317 372.244C524.73 372.842 531.702 377.425 538.843 388.564C548.866 404.183 551.917 420.997 540.881 422.529V422.529Z" fill="#FFB68D"/>
<path d="M528.63 387.433C528.656 387.991 528.643 388.575 528.604 389.185C527.838 400.572 514.179 399.819 514.179 399.819C514.179 399.819 457.078 401.662 410.507 404.752C393.668 405.856 378.218 407.141 367.325 408.544C326.349 413.854 319.52 385.394 319.897 370.217C319.923 369.23 320.013 368.269 320.195 367.334C322.714 353.806 340.722 345.172 371.129 345.172C384.047 345.172 401.38 347.366 419.518 350.508C419.557 350.508 419.583 350.521 419.622 350.521C428.23 352.027 437.006 353.741 445.588 355.546C479.929 362.751 510.92 371.333 513.803 372.878C519.178 375.748 528.305 377.604 528.63 387.433V387.433Z" fill="#FFB68D"/>
<path opacity="0.3" d="M528.63 387.432C528.656 387.991 528.643 388.575 528.604 389.185C527.838 400.571 514.179 399.818 514.179 399.818C514.179 399.818 457.078 401.662 410.507 404.752C393.668 405.856 378.218 407.141 367.325 408.543C326.349 413.853 319.52 385.394 319.897 370.216C319.923 369.23 320.013 368.269 320.195 367.334C320.676 367.931 321.234 368.477 321.844 368.944C325.947 372.06 331.413 372.502 336.541 372.813C363.378 374.475 390.214 375.903 417.077 377.098C418.7 377.175 420.53 377.175 421.686 376.02C422.971 374.735 422.803 372.644 422.543 370.853C421.569 364.075 420.595 357.298 419.622 350.521C428.23 352.027 437.006 353.741 445.588 355.545C446.64 360.037 447.705 364.517 448.769 368.996C449.211 370.853 449.704 372.813 451.08 374.111C452.327 375.28 454.066 375.721 455.741 376.111C479.708 381.694 504.091 385.485 528.63 387.432V387.432Z" fill="black"/>
<path d="M412.013 402.753C411.52 403.428 411.014 404.103 410.507 404.752C393.668 405.856 378.218 407.141 367.325 408.544C326.349 413.854 319.52 385.394 319.897 370.217C319.923 369.23 320.013 368.269 320.195 367.334C322.714 353.806 340.964 344.675 371.371 344.675C384.29 344.675 401.38 347.366 419.518 350.508C419.57 350.612 419.622 350.716 419.661 350.82C424.867 361.739 428.411 380.201 412.013 402.753V402.753Z" fill="#363E4F"/>
<path opacity="0.3" d="M412.013 402.753C411.52 403.428 411.014 404.103 410.507 404.752C393.668 405.856 378.218 407.141 367.325 408.543C326.349 413.853 319.52 385.394 319.897 370.216C319.923 369.23 320.013 368.269 320.195 367.334C320.676 367.931 321.234 368.477 321.844 368.944C325.947 372.06 331.413 372.502 336.541 372.813C363.378 374.475 390.214 375.903 417.077 377.098C418.7 377.175 420.53 377.175 421.686 376.02C422.971 374.735 422.803 372.644 422.543 370.853C421.582 364.166 420.621 357.493 419.661 350.819C424.867 361.738 428.411 380.201 412.013 402.753Z" fill="black"/>
<path d="M450.815 320.981C450.815 320.981 403.558 345.064 394.47 356.424C385.382 367.784 392.652 387.324 409.465 394.14C426.278 400.956 500.345 375.509 500.345 375.509C500.345 375.509 531.699 339.157 512.159 319.164C492.62 299.17 450.815 320.981 450.815 320.981V320.981Z" fill="#363E4F"/>
<path d="M311.58 141.486C311.598 141.48 311.647 141.502 311.672 141.514C315.051 152.663 321.961 161.93 321.961 161.93C321.961 161.93 320.917 198.89 347.641 201.421C374.383 203.946 380.413 171.287 397.153 172.679C413.898 174.09 461.406 151.954 456.408 121.894C455.466 116.216 453.263 111.762 450.304 108.302C437.684 93.3892 411.326 96.3611 411.326 96.3611C411.326 96.3611 406.515 62.5121 368.368 62.9503C340.255 63.2835 328.533 84.5078 328.533 84.5078C328.533 84.5078 308.747 57.6023 298.248 66.645C287.737 75.7123 299.727 97.8474 299.727 97.8474C299.727 97.8474 266.633 90.4251 273.91 111.59C280.948 132.109 309.811 140.958 311.58 141.486V141.486Z" fill="#363E4F"/>
<path opacity="0.3" d="M311.58 141.486C311.598 141.48 311.647 141.502 311.672 141.514C315.051 152.663 321.961 161.93 321.961 161.93C321.961 161.93 320.917 198.89 347.641 201.421C374.383 203.946 380.413 171.287 397.153 172.679C413.899 174.09 461.407 151.954 456.408 121.894C455.466 116.216 453.263 111.761 450.304 108.302C449.28 121.902 423.631 124.692 411.327 104.574C397.414 81.8243 359.163 60.2757 332.351 96.2905C305.546 132.323 278.927 106.992 278.927 106.992C278.927 106.992 279.58 127.815 311.58 141.486V141.486Z" fill="black"/>
<path d="M368.885 263.657C363.146 273.238 357.381 282.859 352.837 293.064C351.188 296.777 348.358 303.385 345.294 306.047C342.554 308.436 337.932 310.111 334.297 310.332C329.117 310.656 324.495 307.293 321.599 302.749C320.171 300.542 319.158 298.062 318.678 295.582C317.665 290.298 320.262 285.066 322.768 280.314C324.871 276.341 326.961 272.355 329.065 268.382C331.973 262.852 334.894 257.334 337.802 251.803L345.411 254.347C353.967 254.828 362.328 258.139 368.885 263.657V263.657Z" fill="#FFB68D"/>
<path opacity="0.3" d="M368.885 263.657C363.146 273.238 357.381 282.859 352.837 293.064C351.188 296.777 348.358 303.385 345.294 306.047C342.554 308.436 337.932 310.111 334.297 310.332C329.117 310.656 324.495 307.293 321.599 302.749C324.066 300.659 326.455 298.478 328.792 296.258C333.765 291.558 338.815 286.183 339.854 279.418C339.958 278.73 340.01 278.016 339.815 277.354C339.348 275.835 337.738 275.043 336.348 274.29C333.583 272.784 331.09 270.771 329.065 268.382C331.973 262.852 334.894 257.334 337.803 251.803L345.411 254.347C353.967 254.828 362.328 258.139 368.885 263.657Z" fill="black"/>
<path d="M397.201 208.945C395.76 218.28 392.034 227.109 387.697 235.483C385.516 239.715 383.153 243.87 381.361 248.284C378.765 254.659 377.376 261.489 374.636 267.811C374.312 268.564 373.935 269.33 373.26 269.785C372.559 270.252 371.637 270.265 370.793 270.278C365.08 270.291 359.342 270.304 353.694 269.46C351.967 269.201 350.227 268.85 348.527 268.396C337.867 265.591 327.974 259.087 323.547 249.115C323.378 248.726 323.209 248.31 323.248 247.895C323.313 247.272 323.806 246.791 324.261 246.363C329.078 241.793 332.362 235.859 335.452 229.978C340.763 219.851 345.748 209.568 350.422 199.143C353.292 192.729 356.057 186.198 360.056 180.434C360.199 180.213 360.354 180.005 360.51 179.784C364.756 173.851 370.585 168.762 377.622 166.853L385.244 172.566C390.099 172.215 393.397 177.382 394.942 182.005C397.811 190.639 398.603 199.961 397.201 208.945V208.945Z" fill="#29319F"/>
<path opacity="0.3" d="M397.202 208.945C395.76 218.28 392.034 227.109 387.698 235.483C385.517 239.715 383.154 243.87 381.362 248.284C378.765 254.659 377.376 261.489 374.637 267.811C374.312 268.564 373.935 269.33 373.26 269.785C372.559 270.252 371.637 270.265 370.793 270.278C365.081 270.291 359.342 270.304 353.694 269.46C351.968 269.201 350.228 268.85 348.527 268.396C349.683 266.279 350.812 264.15 351.916 262.008C359.433 247.467 366.119 230.783 361.433 215.099C359.914 209.997 357.213 205.193 356.655 199.896C355.98 193.313 358.693 186.951 360.056 180.434C360.199 180.213 360.355 180.005 360.511 179.784C364.756 173.851 370.586 168.762 377.623 166.853L385.244 172.566C390.1 172.215 393.397 177.382 394.943 182.005C397.812 190.639 398.604 199.961 397.202 208.945V208.945Z" fill="black"/>
<path d="M588.679 306.346C587.939 320.576 582.356 334.26 576.605 341.739C568.23 352.619 533.396 370.029 497.121 379.871C505.3 371.834 508.507 361.954 508.507 352.995C508.507 335.922 494.758 320.913 437.67 321.329C381.478 321.731 349.461 335.208 348.475 335.623C352.46 332.196 440.773 286.014 440.773 286.014C440.773 286.014 403.095 273.005 388.411 261.437C387.087 260.398 385.957 259.359 385.049 258.36C376.752 249.128 373.104 229.459 371.819 220.396C371.39 217.475 371.221 215.657 371.221 215.657C371.221 215.657 364.717 204.271 363.496 195.326C362.276 186.38 364.522 164.841 398.876 149.364C406.289 146.015 412.937 143.366 418.948 141.276H418.961C449.472 130.72 463.247 135.187 476.153 141.639C491.603 149.364 525.36 240.066 525.36 240.066C525.36 240.066 531.462 246.155 566.439 264.462C584.291 273.81 589.523 290.415 588.679 306.346V306.346Z" fill="#FDA758"/>
<path opacity="0.3" d="M411.652 208.179C404.835 213.022 396.786 215.878 388.697 218.059C383.283 219.513 377.415 220.604 371.819 220.396C371.39 217.475 371.222 215.657 371.222 215.657C371.222 215.657 364.717 204.271 363.497 195.325C362.276 186.38 364.522 164.84 398.876 149.364C406.29 146.015 412.937 143.366 418.948 141.276H418.961C425.349 148.429 429.543 157.57 430.452 167.125C431.932 182.809 424.505 199.051 411.652 208.179V208.179Z" fill="black"/>
<path opacity="0.3" d="M588.679 306.346C587.939 320.575 582.356 334.26 576.605 341.738C568.23 352.618 533.396 370.029 497.121 379.87C505.3 371.834 508.507 361.953 508.507 352.995C508.507 335.922 494.758 320.913 437.67 321.328C381.478 321.731 349.461 335.208 348.475 335.623C352.46 332.196 440.773 286.014 440.773 286.014C440.773 286.014 403.095 273.005 388.411 261.436C392.423 263.293 396.76 264.565 401.109 265.24C412.508 266.993 424.128 265.266 435.528 263.527C451.121 261.164 466.701 258.788 482.294 256.425C486.487 266.785 495.277 274.744 505.054 280.158C514.466 285.352 524.853 288.468 535.175 291.519C535.577 291.649 535.98 291.765 536.382 291.882C538.005 292.376 539.862 293.064 540.394 294.674C541.887 299.205 531.514 300.971 532.89 305.554C533.292 306.891 534.656 307.683 535.915 308.293C552.404 316.278 572.684 315.109 588.679 306.346V306.346Z" fill="black"/>
<path opacity="0.3" d="M535.175 291.519C498.264 299.257 440.773 286.014 440.773 286.014C440.773 286.014 403.096 273.005 388.412 261.436C392.424 263.293 396.76 264.565 401.109 265.24C412.509 266.993 424.129 265.266 435.528 263.527C451.121 261.164 466.701 258.788 482.294 256.425C486.488 266.785 495.277 274.744 505.054 280.158C514.467 285.352 524.854 288.468 535.175 291.519Z" fill="black"/>
<path d="M429.101 159.816C426.946 165.658 422.389 171.748 416.52 175.214C401.901 183.848 389.385 182.316 385.919 177.343C382.465 172.358 385.711 166.554 385.711 166.554L379.518 161.127L375 157.167L377.635 153.571L397.63 126.163L415.871 142.379L418.767 144.95C419.818 144.768 420.792 144.664 421.688 144.651C430.478 144.444 432.01 151.896 429.101 159.816V159.816Z" fill="#FFB68D"/>
<path opacity="0.4" d="M429.101 159.816C426.946 165.658 422.389 171.748 416.521 175.214C401.901 183.848 389.385 182.316 385.919 177.343C382.465 172.358 385.711 166.554 385.711 166.554L379.518 161.127C380.7 160.14 379.713 157.323 377.635 153.571L397.63 126.163L415.871 142.379L418.767 144.95C419.818 144.768 420.792 144.664 421.688 144.651C425.064 149.209 427.608 154.363 429.101 159.816V159.816Z" fill="black"/>
<path d="M319.01 121.457C319.01 121.457 321.745 106.597 318.474 104.738C315.987 103.335 313.567 106.436 311.861 109.544C311.303 110.54 310.828 111.527 310.437 112.368C308.858 115.86 311.737 121.51 313.778 123.179L316.545 122.26L319.01 121.457Z" fill="#ED4A2F"/>
<path opacity="0.3" d="M316.545 122.26L319.01 121.457C319.01 121.457 321.745 106.597 318.474 104.738C315.987 103.335 313.567 106.436 311.862 109.544C314.733 108.142 317.062 110.521 316.629 116.523C316.486 118.478 316.471 120.411 316.545 122.26V122.26Z" fill="black"/>
<path d="M319.769 134.818C319.769 134.818 318.55 159.423 316.662 159.943C314.773 160.464 313.664 148.946 313.664 148.946C313.664 148.946 310.632 151.866 309.391 151.689C308.15 151.511 313.245 131.876 313.245 131.876L319.769 134.818Z" fill="#ED4A2F"/>
<path opacity="0.3" d="M313.249 131.871C313.249 131.871 308.145 151.506 309.39 151.69C310.636 151.874 313.665 148.952 313.665 148.952C313.665 148.952 314.78 160.459 316.665 159.938C316.746 159.915 316.83 159.84 316.91 159.728C315.675 155.305 316.038 143.117 317.06 141.805C317.981 140.615 317.873 140.934 319.492 139.712C319.674 136.823 319.776 134.823 319.776 134.823L313.249 131.871Z" fill="black"/>
<path d="M318.72 132.715C318.72 132.715 309.111 155.399 307.159 155.238C305.207 155.077 308.128 143.88 308.128 143.88C308.128 143.88 304.276 145.579 303.171 144.986C302.067 144.392 313.606 127.708 313.606 127.708L318.72 132.715Z" fill="#ED4A2F"/>
<path d="M320.764 133.718C318.78 137.5 312.602 133.939 312.223 128.931C311.844 123.923 314.96 117.767 319.324 119.896C323.687 122.025 323.29 128.9 320.764 133.718Z" fill="#ED4A2F"/>
<path d="M325.242 147.524C327.862 141.433 324.404 131.292 321.447 127.518C319.914 125.542 318.241 128.494 317.385 132.58C316.694 135.848 316.522 139.827 317.344 142.594C318.839 147.617 321.34 151.708 323.65 149.902C324.188 149.476 324.732 148.704 325.242 147.524V147.524Z" fill="#ED4A2F"/>
<path opacity="0.3" d="M325.242 147.524C327.863 141.433 324.405 131.292 321.447 127.518C319.914 125.542 318.241 128.494 317.386 132.58C318.454 133.316 320.596 134.946 323 140.71C324.691 144.758 324.357 147.846 323.65 149.902C324.188 149.476 324.733 148.704 325.242 147.524Z" fill="black"/>
<path d="M319.229 140.018C319.435 140.575 319.653 141.107 319.877 141.657C321.264 145.066 322.929 148.453 324.843 151.686C334.757 168.666 356.968 187.235 376.633 182.965C378.92 182.465 381.178 181.668 383.382 180.503C403.658 169.837 415.387 145.157 407.556 126.69C415.607 122.723 410.437 100.245 403.103 103.333C399.409 104.887 398.589 107.745 398.766 110.315C387.212 91.2263 367.613 70.2789 334.043 92.8636C314.226 106.2 313.146 123.783 319.229 140.018V140.018Z" fill="#FFB68D"/>
<path opacity="0.3" d="M319.229 140.018C320.045 117.033 334.834 101.115 360.815 103.652C389.515 106.454 410.682 163.82 376.633 182.965C378.92 182.465 381.178 181.668 383.382 180.503C403.658 169.837 415.387 145.157 407.556 126.69C415.607 122.723 410.437 100.245 403.103 103.333C399.409 104.887 398.589 107.745 398.766 110.315C387.212 91.2263 367.613 70.2789 334.043 92.8636C314.226 106.2 313.146 123.783 319.229 140.018V140.018Z" fill="black"/>
<path d="M319.883 141.649C317.781 127.845 319.779 108.349 344.976 96.6601C369.595 85.2434 388.218 97.9951 398.851 110.447C387.302 91.3458 367.695 70.2167 334.053 92.8651C313.554 106.664 313.104 124.971 319.883 141.649V141.649Z" fill="#F7BC4B"/>
<path d="M366.316 130.972C368.067 129.941 368.322 127.125 366.884 124.682C365.447 122.239 362.862 121.094 361.11 122.125C359.358 123.156 359.104 125.972 360.541 128.415C361.979 130.858 364.564 132.003 366.316 130.972Z" fill="#363E4F"/>
<path d="M341.354 147.497C343.105 146.466 343.36 143.65 341.922 141.207C340.485 138.764 337.9 137.619 336.148 138.649C334.397 139.68 334.142 142.496 335.579 144.939C337.017 147.382 339.602 148.527 341.354 147.497Z" fill="#363E4F"/>
<path d="M362.992 110.219C360.436 108.832 357.321 108.405 354.371 109.121C352.896 109.48 351.511 110.261 350.411 111.293C349.25 112.286 348.582 113.694 348.109 115.042C349.081 113.95 349.98 112.896 351.122 112.16C352.234 111.418 353.424 110.804 354.734 110.511C356.026 110.169 357.383 110.036 358.763 110.001C360.142 109.996 361.554 110.042 362.992 110.219V110.219Z" fill="#363E4F"/>
<path d="M333.27 123.388C331.206 122.98 328.855 123.428 327.029 124.972C326.117 125.748 325.382 126.752 324.9 127.847C324.363 128.927 324.278 130.165 324.348 131.3C324.834 130.238 325.254 129.245 325.884 128.385C326.498 127.529 327.155 126.719 327.973 126.055C329.559 124.67 331.222 123.843 333.27 123.388Z" fill="#363E4F"/>
<path d="M638.985 420.51C638.985 431.819 631.948 439.103 620.393 429.053C617.641 426.652 614.551 423.821 611.357 420.809C601.113 411.188 589.649 399.789 583.715 395.388C575.925 389.61 573.16 377.302 579.691 374.29C579.691 374.29 582.508 372.251 587.818 370.525C594.894 368.227 606.423 366.461 621.653 370.771C621.653 370.771 626.171 376.042 626.171 377.549L616.122 378.302C616.122 378.302 625.158 384.339 628.183 387.351C631.195 390.363 638.985 409.202 638.985 420.51Z" fill="#363E4F"/>
<path d="M611.383 420.809C611.37 420.809 611.37 420.809 611.357 420.809C601.114 411.189 589.649 399.789 583.716 395.388C575.926 389.61 573.16 377.302 579.691 374.29C579.691 374.29 582.508 372.252 587.819 370.525C595.232 371.122 602.204 375.705 609.345 386.845C619.368 402.464 622.419 419.277 611.383 420.809V420.809Z" fill="#FFB68D"/>
<path d="M599.131 385.713C599.157 386.271 599.144 386.855 599.105 387.465C598.339 398.852 584.681 398.099 584.681 398.099C584.681 398.099 527.58 399.942 481.009 403.032C464.169 404.136 448.719 405.421 437.826 406.824C396.851 412.134 390.022 383.674 390.398 368.497C390.424 367.51 390.515 366.549 390.697 365.614C393.215 352.086 411.223 343.452 441.63 343.452C454.549 343.452 471.882 345.646 490.019 348.788C490.058 348.788 490.084 348.801 490.123 348.801C498.731 350.307 507.508 352.021 516.09 353.826C550.431 361.031 581.422 369.613 584.304 371.158C589.679 374.028 598.807 375.884 599.131 385.713V385.713Z" fill="#FFB68D"/>
<path opacity="0.3" d="M599.131 385.713C599.157 386.271 599.144 386.856 599.105 387.466C598.339 398.852 584.681 398.099 584.681 398.099C584.681 398.099 527.58 399.943 481.009 403.033C464.169 404.136 448.719 405.422 437.826 406.824C396.851 412.134 390.022 383.675 390.398 368.497C390.424 367.51 390.515 366.55 390.697 365.615C391.177 366.212 391.735 366.757 392.346 367.225C396.448 370.341 401.914 370.782 407.043 371.094C433.879 372.756 460.716 374.184 487.578 375.378C489.201 375.456 491.032 375.456 492.187 374.301C493.473 373.015 493.304 370.925 493.044 369.133C492.071 362.356 491.097 355.579 490.123 348.802C498.731 350.308 507.508 352.021 516.09 353.826C517.141 358.318 518.206 362.798 519.271 367.277C519.712 369.133 520.205 371.094 521.582 372.392C522.828 373.561 524.568 374.002 526.243 374.392C550.21 379.974 574.593 383.766 599.131 385.713V385.713Z" fill="black"/>
<path d="M482.515 401.034C482.022 401.709 481.515 402.384 481.009 403.033C464.17 404.137 448.719 405.422 437.826 406.824C396.851 412.134 389.506 383.895 389.883 368.717C389.909 367.731 390.245 366.115 390.427 365.181C392.945 351.652 411.256 342.449 441.663 342.449C454.581 342.449 471.882 345.647 490.019 348.789C490.071 348.893 490.123 348.996 490.162 349.1C495.368 360.019 498.913 378.482 482.515 401.034V401.034Z" fill="#363E4F"/>
<path opacity="0.3" d="M482.515 401.033C482.021 401.709 481.515 402.384 481.009 403.033C464.169 404.136 448.719 405.422 437.826 406.824C396.851 412.134 390.022 383.675 390.398 368.497C390.424 367.51 390.515 366.55 390.697 365.615C391.177 366.212 391.735 366.757 392.346 367.225C396.448 370.341 401.914 370.782 407.043 371.094C433.879 372.756 460.716 374.184 487.578 375.378C489.201 375.456 491.032 375.456 492.187 374.301C493.473 373.015 493.304 370.925 493.044 369.133C492.084 362.447 491.123 355.774 490.162 349.1C495.368 360.019 498.913 378.481 482.515 401.033V401.033Z" fill="black"/>
<path opacity="0.3" d="M435.077 235.586C435.077 235.586 447.782 246.732 470.914 244.451C494.045 242.17 504.216 232.333 504.216 232.333C504.216 232.333 493.719 208.939 469.611 210.568C445.502 212.197 435.077 235.586 435.077 235.586V235.586Z" fill="black"/>
<path d="M493.642 255.114C492.902 267.941 489.85 276.471 480.619 281.314C479.62 281.846 478.529 282.327 477.373 282.768C465.585 287.234 452.978 279.912 449.719 266.084C448.317 260.099 447.057 250.219 446.071 240.949C444.798 228.809 444.019 217.696 444.019 217.696C473.31 192.066 492.824 214.034 492.824 214.034C492.824 214.034 494.46 240.871 493.642 255.114V255.114Z" fill="#FFB68D"/>
<path opacity="0.3" d="M493.642 255.114C492.902 267.941 489.85 276.471 480.619 281.314C483.554 269.473 483.307 256.853 479.762 245.181C478.282 240.3 475.426 234.898 470.375 234.145C468.636 233.886 466.87 234.249 465.143 234.652C458.613 236.158 452.212 238.274 446.071 240.949C444.798 228.809 444.019 217.696 444.019 217.696C473.31 192.066 492.824 214.034 492.824 214.034C492.824 214.034 494.46 240.871 493.642 255.114V255.114Z" fill="black"/>
<path d="M504.197 232.315C503.638 231.834 485.644 216.462 468.83 215.255C451.757 214.034 435.074 235.587 435.074 235.587C435.074 235.587 435.061 235.314 435.048 234.795C434.84 225.615 433.295 139.133 452.978 133.499C467.038 129.487 475.828 135.031 481.645 144.34C486.423 152 489.188 162.192 491.201 171.735C495.641 192.716 504.08 231.718 504.197 232.315V232.315Z" fill="#29319F"/>
<path opacity="0.3" d="M461.585 195.91C462.014 195.897 462.442 195.897 462.871 195.91C462.442 195.949 462.014 195.936 461.585 195.91Z" fill="black"/>
<path opacity="0.3" d="M504.197 232.315C503.638 231.835 485.643 216.462 468.83 215.255C451.757 214.034 435.073 235.587 435.073 235.587C435.073 235.587 435.06 235.314 435.047 234.795C439.215 225.408 440.851 214.346 448.849 208.075C457.522 201.285 469.869 203.064 480.671 205.167C476.594 199.571 469.791 196.065 462.871 195.91C467.35 195.676 471.44 192.534 473.803 188.613C476.386 184.341 477.282 179.278 478.048 174.344C479.58 164.386 480.788 154.376 481.644 144.34C486.422 152 489.188 162.192 491.2 171.735C495.641 192.716 504.08 231.718 504.197 232.315V232.315Z" fill="black"/>
<path d="M545.003 411.913C541.718 411.913 526.099 405.863 526.099 405.863L523.178 406.408C523.178 406.408 532.721 417.016 532.721 421.404C532.721 425.793 525.061 429.986 521.218 427.974C517.388 425.974 507.923 412.095 507.196 412.095C506.456 412.095 502.807 413.744 502.807 413.744C502.807 413.744 505.69 433.635 504.963 436.192C504.235 438.75 498.211 440.217 493.096 439.49C487.98 438.75 487.98 417.756 485.968 417.016C483.956 416.289 481.904 417.6 481.904 417.6C481.904 417.6 480.164 432.907 477.022 436.738C473.893 440.568 465.545 444.047 463.104 435.348C461.053 427.987 466.22 412.134 465.727 408.304C465.649 407.603 465.376 407.304 464.844 407.512C461.364 408.901 438.059 421.08 437.709 412.381C437.358 403.682 466.934 386.635 464.844 380.364C462.767 374.106 456.626 323.744 451.406 298.244C446.174 272.745 452.705 256.711 469.375 253.452C474.802 252.387 479.113 252.79 482.592 254.296C493.07 258.788 495.965 273.277 498.847 288.026C502.69 307.657 514.09 379.027 514.09 379.027C514.09 379.027 540.433 398.216 546.834 401.683C553.222 405.149 548.288 411.913 545.003 411.913V411.913Z" fill="#FFB68D"/>
<path opacity="0.3" d="M545.004 411.913C541.719 411.913 526.1 405.863 526.1 405.863L523.179 406.408C523.179 406.408 532.721 417.016 532.721 421.404C532.721 425.793 525.061 429.986 521.218 427.974C517.388 425.974 507.923 412.095 507.196 412.095C506.456 412.095 502.808 413.744 502.808 413.744C502.808 413.744 505.69 433.634 504.963 436.192C504.236 438.75 498.212 440.217 493.096 439.49C487.981 438.75 487.981 417.756 485.968 417.016C483.956 416.289 481.905 417.6 481.905 417.6C481.905 417.6 480.165 432.907 477.023 436.737C473.894 440.568 465.546 444.047 463.105 435.348C461.053 427.987 466.221 412.134 465.728 408.304C472.972 404.474 480.204 400.605 486.722 395.671C488.267 394.503 489.825 393.191 490.513 391.387C491.019 390.075 491.006 388.634 490.98 387.219C490.565 355.773 489.448 324.328 487.63 292.921C486.89 279.938 485.994 266.825 482.593 254.296C493.07 258.788 495.966 273.277 498.848 288.026C502.691 307.657 514.09 379.027 514.09 379.027C514.09 379.027 540.434 398.216 546.834 401.682C553.222 405.149 548.288 411.913 545.004 411.913V411.913Z" fill="black"/>
<path d="M470.946 537.372C470.946 537.372 544.404 488.306 633.46 464.482L633.058 453.592C633.058 453.592 544.869 467.902 469.382 520.136L470.946 537.372Z" fill="#F7BC4B"/>
<path opacity="0.5" d="M470.946 537.372C470.946 537.372 544.404 488.306 633.46 464.482L633.058 453.592C633.058 453.592 544.869 467.902 469.382 520.136L470.946 537.372Z" fill="black"/>
<path d="M41.7493 452.331L43.551 461.717C43.551 461.717 165.314 446.428 233.567 468.269C233.567 468.269 233.294 475.913 243.669 476.186C254.043 476.459 255.135 469.907 255.135 469.907C255.135 469.907 391.474 475.517 470.946 537.372L469.382 520.136C469.382 520.136 424.743 467.819 249.353 451.77C249.353 451.77 118.438 418.501 41.7493 452.331V452.331Z" fill="#F7BC4B"/>
<path opacity="0.3" d="M41.7493 452.331L43.551 461.717C43.551 461.717 165.314 446.428 233.567 468.269C233.567 468.269 233.294 475.913 243.669 476.186C254.043 476.459 255.135 469.907 255.135 469.907C255.135 469.907 391.474 475.517 470.946 537.372L469.382 520.136C469.382 520.136 424.743 467.819 249.353 451.77C249.353 451.77 118.438 418.501 41.7493 452.331V452.331Z" fill="black"/>
<path d="M41.7493 452.33C41.7493 452.33 132.525 435.477 237.438 460.133C237.438 460.133 236.837 467.436 243.177 467.663C249.516 467.889 250.379 461.427 250.379 461.427C250.379 461.427 372.25 458.421 469.382 520.135C469.382 520.135 549.878 474.52 633.058 453.591C633.058 453.591 499.434 406.367 329.318 427.296C329.318 427.296 261.164 399.39 195.694 396.17C195.694 396.17 105.682 411.894 41.7493 452.33V452.33Z" fill="#F7BC4B"/>
<path d="M266.34 360.484C266.34 360.484 161.514 360.053 89.905 398.014L246.065 441.584L325.87 408.799C325.87 408.799 312.498 377.739 266.34 360.484V360.484Z" fill="#ED4A2F"/>
<path opacity="0.6" d="M266.34 360.484C266.34 360.484 161.514 360.053 89.905 398.014L246.065 441.584L325.87 408.799C325.87 408.799 312.498 377.739 266.34 360.484V360.484Z" fill="black"/>
<path d="M237.438 460.133L251.733 455.287C251.733 455.287 259.345 437.829 246.065 441.584C232.785 445.34 237.438 460.133 237.438 460.133V460.133Z" fill="#363E4F"/>
<path d="M89.9054 398.014L80.8464 438.564C80.8464 438.564 161.515 420.446 237.438 460.133C237.438 460.133 237.438 448.917 246.065 441.584C246.065 441.584 194.3 378.602 89.9054 398.014Z" fill="#ED4A2F"/>
<path opacity="0.3" d="M89.9054 398.014L80.8464 438.564C80.8464 438.564 161.515 420.446 237.438 460.133C237.438 460.133 237.438 448.917 246.065 441.584C246.065 441.584 194.3 378.602 89.9054 398.014Z" fill="black"/>
<path opacity="0.3" d="M97.9304 407.865C97.9304 407.865 137.525 401.558 176.768 411.72C176.768 411.72 135.587 404.841 97.9304 407.865V407.865Z" fill="black"/>
<path opacity="0.3" d="M98.1089 419.419C98.1089 419.419 175.127 406.139 234.711 446.598C234.711 446.598 185.375 412.102 98.1089 419.419Z" fill="black"/>
<path d="M246.065 441.584L325.871 408.799C325.871 408.799 463.481 364.798 596.778 409.23L464.344 461.858L246.065 441.584Z" fill="#ED4A2F"/>
<path opacity="0.6" d="M246.065 441.584L325.871 408.799C325.871 408.799 463.481 364.798 596.778 409.23L464.344 461.858L246.065 441.584Z" fill="black"/>
<path d="M246.065 441.584C246.065 441.584 249.516 446.329 250.379 461.427C250.379 461.427 348.303 438.564 471.246 503.703L466.932 444.172C466.932 444.172 362.97 397.152 246.065 441.584V441.584Z" fill="#ED4A2F"/>
<path opacity="0.3" d="M246.065 441.584C246.065 441.584 249.516 446.329 250.379 461.427C250.379 461.427 348.303 438.564 471.246 503.703L466.932 444.172C466.932 444.172 362.97 397.152 246.065 441.584V441.584Z" fill="black"/>
<path opacity="0.3" d="M258.371 448.997C258.371 448.997 355.139 424.547 460.861 463.116C460.861 463.116 380.967 418.692 258.371 448.997Z" fill="black"/>
<path opacity="0.3" d="M355.235 451.019C355.235 451.019 414 454.111 460.394 480.092C460.394 480.092 397.917 455.967 355.235 451.019Z" fill="black"/>
<path d="M471.246 503.703C471.246 503.703 545.444 463.584 607.994 448.917C607.994 448.917 600.66 419.152 596.778 409.23C596.778 409.23 536.385 419.152 466.932 444.172L471.246 503.703Z" fill="#ED4A2F"/>
<path opacity="0.5" d="M471.246 503.703C471.246 503.703 545.444 463.584 607.994 448.917C607.994 448.917 600.66 419.152 596.778 409.23C596.778 409.23 536.385 419.152 466.932 444.172L471.246 503.703Z" fill="black"/>
<path opacity="0.3" d="M477.405 479.164C477.405 479.164 543.284 448.853 599.884 438.956C599.884 438.956 542.974 441.43 477.405 479.164Z" fill="black"/>
<path opacity="0.3" d="M478.118 461.427C478.118 461.427 534.1 435.447 593.174 427.405C593.174 427.405 535.027 429.57 478.118 461.427V461.427Z" fill="black"/>
<path d="M325.871 408.797L246.062 441.58C200.971 379.26 134.899 363.602 123.331 361.278C122.98 361.213 122.682 361.161 122.435 361.11C121.864 361.006 121.565 360.954 121.565 360.954C121.76 360.876 121.955 360.785 122.149 360.707C189.195 332.183 267.329 326.301 267.329 326.301C290.543 340.946 305.124 361.317 313.926 378.131C322.898 395.308 325.871 408.797 325.871 408.797V408.797Z" fill="#ED4A2F"/>
<path d="M270.938 418.029L247.516 427.39C219.329 381.195 160.346 358.487 160.346 358.487C175.965 353.436 191.454 349.503 205.489 346.451C218.421 353.203 257.799 376.677 270.938 418.029Z" fill="#F7BC4B"/>
<path d="M289.232 359.071L249.386 370.497C240.674 361.136 229.573 351.918 215.525 344.387C243.543 338.843 263.694 337.091 263.694 337.091C273.626 342.608 282.156 350.593 289.232 359.071Z" fill="#F7BC4B"/>
<path d="M314.069 400.774L277.04 415.588C274.729 408.927 268.173 392.789 254.293 376.08L293.425 364.382C307.006 382.441 314.069 400.774 314.069 400.774Z" fill="#F7BC4B"/>
<path opacity="0.5" d="M313.926 378.131C297.762 375.508 282 369.666 266.018 365.628C219.654 353.93 170.993 357.357 123.331 361.278C123.084 361.304 122.85 361.317 122.604 361.343L122.435 361.11L122.149 360.707C189.195 332.183 267.329 326.301 267.329 326.301C270.938 328.586 274.34 331.001 277.547 333.52C279.144 334.766 280.676 336.039 282.169 337.337C297.022 350.23 307.175 365.225 313.926 378.131Z" fill="white"/>
<path d="M246.062 441.58C246.062 441.58 246.113 441.554 246.229 441.502L246.062 441.58Z" fill="#28ABE2"/>
<path d="M246.231 441.502C247.231 441.022 252.826 438.412 262.161 434.972L246.231 441.502Z" fill="#28ABE2"/>
<path d="M583.135 399.424C545.094 400.384 492.927 418.016 474.465 424.689C470.128 426.26 467.649 427.221 467.649 427.221C377.168 399.8 295.619 422.651 262.161 434.972L325.871 408.797C348.007 400.852 370.326 395.425 392.086 391.867C493.784 375.223 583.135 399.424 583.135 399.424Z" fill="#ED4A2F"/>
<path d="M459.768 391.633C440.163 396.541 421.35 403.63 411.535 407.564C365.041 404.941 325.585 413.705 325.585 413.705C371.066 398.047 419.623 392.698 459.768 391.633Z" fill="#F7BC4B"/>
<path d="M548.483 395.879C512.584 398.203 464.792 416.289 464.792 416.289C449.602 411.809 433.892 409.291 418.74 408.07C429.569 403.76 449.913 396.203 470.44 391.452C516.102 391.049 548.483 395.879 548.483 395.879V395.879Z" fill="#F7BC4B"/>
<path opacity="0.5" d="M583.135 399.424C545.094 400.384 492.927 418.016 474.465 424.689C449.849 407.954 421.48 396.697 392.086 391.867C493.784 375.223 583.135 399.424 583.135 399.424Z" fill="white"/>
<path opacity="0.3" d="M282.169 337.337C278.923 339.7 271.445 344.712 269.225 342.453C269.225 342.453 274.223 336.558 277.547 333.52C279.144 334.766 280.676 336.039 282.169 337.337V337.337Z" fill="black"/>
<path d="M293.672 326.47C293.672 330.573 292.192 333.689 286.947 334.013C281.702 334.351 280.222 333.364 280.222 333.364C280.222 333.364 275.794 338.934 271.86 342.219C270.133 343.647 268.225 344.114 266.888 343.712C265.148 343.205 264.356 341.258 266.109 338.116C269.238 332.546 269.562 323.198 273.665 321.718C277.755 320.238 288.089 318.109 288.089 318.109C288.089 318.109 292.763 321.666 293.555 325.418C293.633 325.769 293.672 326.119 293.672 326.47V326.47Z" fill="#FFB68D"/>
<path opacity="0.3" d="M293.672 326.47C293.672 330.573 292.192 333.689 286.946 334.013C281.701 334.351 280.221 333.364 280.221 333.364C280.221 333.364 275.794 338.934 271.86 342.219C270.133 343.647 268.224 344.114 266.887 343.712C274.521 341.505 279.403 328.352 279.403 328.352C289.024 329.417 292.854 326.119 293.555 325.418C293.633 325.769 293.672 326.119 293.672 326.47V326.47Z" fill="black"/>
</g>
<defs>
<clipPath id="clip0_122_7906">
<rect width="709" height="550" fill="white"/>
</clipPath>
</defs>
</svg>
