<svg width="450" height="416" viewBox="0 0 450 416" fill="none" xmlns="http://www.w3.org/2000/svg">
<g clip-path="url(#clip0_122_3275)">
<path d="M325.78 312.438C330.997 312.438 335.546 308.412 336.081 302.95C337.017 294.612 336.081 282.68 326.449 275.636C310.262 263.991 296.35 275.348 296.35 275.348C296.35 275.348 299.828 261.835 291.667 252.778C283.641 243.721 271.735 249.615 271.735 249.615C271.735 249.615 264.645 233.227 248.725 238.977C232.94 244.728 238.826 261.547 238.826 261.547C238.826 261.547 227.321 249.615 212.74 257.091C198.158 264.566 205.917 281.53 205.917 281.53C205.917 281.53 192.138 268.735 179.831 285.411C173.41 294.037 176.353 302.375 179.43 307.55C181.303 310.713 184.647 312.581 188.125 312.581H325.78V312.438Z" fill="url(#paint0_linear_122_3275)"/>
<path d="M296.483 312.438C296.483 312.438 305.58 306.975 299.159 295.474C293.139 284.549 273.34 295.043 273.34 295.043C273.34 295.043 278.557 280.236 269.594 276.354C262.638 273.335 257.019 278.942 257.019 278.942C257.019 278.942 254.745 266.866 247.12 267.01C233.475 267.154 237.89 284.117 237.89 284.117C237.89 284.117 229.729 275.204 218.893 280.38C208.058 285.555 212.472 297.343 212.472 297.343C212.472 297.343 199.897 289.724 195.081 298.493C190.265 307.119 195.081 312.294 200.165 312.294C205.248 312.294 296.483 312.438 296.483 312.438Z" fill="url(#paint1_linear_122_3275)"/>
<path d="M321.098 313.588C315.881 313.588 311.199 310.425 308.924 305.537C306.65 300.506 305.58 293.893 310.663 287.567C320.563 275.492 333.94 284.405 333.94 284.405C333.94 284.405 324.977 269.454 335.947 260.541C346.917 251.628 356.95 259.678 356.95 259.678C356.95 259.678 357.084 230.208 381.966 234.089C406.848 237.971 401.898 261.835 401.898 261.835C401.898 261.835 413.537 252.634 423.838 262.554C434.138 272.473 425.175 283.973 425.175 283.973C425.175 283.973 437.483 277.936 443.101 291.449C443.101 291.593 443.235 291.736 443.235 291.88C447.382 302.231 440.158 313.588 429.724 313.588H321.098V313.588Z" fill="url(#paint2_linear_122_3275)"/>
<path d="M415.945 313.156C419.691 313.156 423.436 311.863 426.379 309.131C428.386 307.262 429.991 304.675 429.59 301.368C428.52 293.462 419.691 297.631 419.691 297.631C419.691 297.631 425.309 288.43 417.416 281.242C409.524 274.054 399.089 282.392 399.089 282.392C399.089 282.392 404.574 265.285 390.527 262.266C379.825 259.966 375.545 278.223 375.545 278.223C375.545 278.223 369.391 270.029 359.759 276.067C350.127 282.105 362.568 296.193 362.568 296.193C362.568 296.193 351.064 290.874 343.438 297.343C335.813 303.812 340.897 313.013 349.325 313.013C356.281 313.013 402.3 313.156 415.945 313.156Z" fill="url(#paint3_linear_122_3275)"/>
<path d="M252.739 86.881C252.739 86.881 240.565 82.5683 227.856 75.3804C215.148 68.1925 214.88 65.3173 212.071 69.7738C209.262 74.3741 227.856 84.1496 229.462 87.7436C231.067 91.3375 228.258 93.6377 218.225 87.7436C208.058 81.8495 202.172 79.8369 198.693 85.731C195.215 91.6251 204.044 106.001 225.582 119.658C246.986 133.315 258.09 126.846 254.745 114.483C251.401 102.119 243.91 102.694 244.177 98.813C244.445 94.9315 250.464 101.401 265.314 106.72C280.163 112.039 289.527 107.438 282.704 100.538C275.882 93.7814 265.982 92.7751 252.739 86.881Z" fill="#FEF5F9"/>
<path d="M204.847 63.5922C203.108 65.3172 193.342 63.3046 179.697 51.2289C166.052 39.1533 168.192 28.6589 171.938 29.9527C175.684 31.2466 173.811 37.1407 186.118 47.3475C198.158 57.4105 206.853 61.7233 204.847 63.5922Z" fill="#FEF5F9"/>
<path d="M215.817 44.9036C211.67 47.3475 216.218 55.973 222.238 59.5669C228.392 63.1609 229.863 59.7107 227.99 54.1041C226.251 48.6413 220.365 42.1722 215.817 44.9036Z" fill="#FEF5F9"/>
<path d="M185.851 96.5129C185.316 99.2443 171.938 94.5003 164.045 87.7436C156.153 80.987 154.146 74.0866 158.427 73.0803C162.708 72.2177 162.708 75.5241 171.403 80.987C180.232 86.5935 186.654 92.9189 185.851 96.5129Z" fill="#FEF5F9"/>
<path d="M252.739 148.266C244.445 144.097 240.565 143.522 220.097 130.44C202.573 119.227 183.443 103.845 180.232 106.001C177.155 108.157 181.838 118.652 189.998 125.552C198.158 132.452 214.746 139.497 214.211 143.809C213.542 148.122 202.038 136.765 201.369 143.378C200.7 149.847 212.071 165.229 234.01 174.717C255.949 184.349 263.173 181.186 262.906 177.736C262.638 174.286 244.043 164.654 242.839 161.204C241.635 157.754 245.649 159.479 252.872 159.91C259.963 160.342 264.377 154.016 252.739 148.266Z" fill="#FEF5F9"/>
<path d="M378.487 122.102C378.487 122.102 393.47 121.814 413.002 104.707C432.533 87.7436 438.419 76.243 442.432 78.2556C446.445 80.2682 443.235 92.9189 433.603 104.42C423.971 115.92 421.162 124.977 424.239 128.571C427.315 132.165 437.482 124.689 447.114 114.483C456.746 104.276 461.027 102.982 457.281 119.083C453.536 135.04 418.888 172.705 388.521 183.199C358.02 193.693 375.277 170.836 389.323 161.923C403.236 153.154 414.473 137.771 409.657 134.753C404.841 131.877 385.31 140.934 374.608 137.628C366.849 135.471 365.645 124.402 378.487 122.102Z" fill="#FEF5F9"/>
<path d="M450.191 86.5935C451.395 88.1748 463.167 81.9932 471.194 71.4989C479.22 61.0045 480.023 57.9856 477.615 56.2605C475.207 54.5354 471.461 61.0045 464.104 69.7738C456.746 78.543 447.917 83.4308 450.191 86.5935Z" fill="#FEF5F9"/>
<path d="M439.221 44.041C431.195 50.6539 429.322 59.2794 434.272 61.8671C440.158 64.886 450.325 49.6476 449.522 44.041C449.121 41.0221 442.967 41.0221 439.221 44.041Z" fill="#FEF5F9"/>
<path d="M362.568 206.2C383.036 199.731 398.152 187.512 408.319 180.036C418.486 172.561 420.493 180.899 416.747 187.08C413.001 193.262 426.914 189.237 449.255 167.961C471.595 146.541 481.762 139.209 481.361 145.247C480.959 151.285 448.586 193.118 409.925 217.557C371.397 241.996 333.806 244.584 317.887 244.584C301.968 244.584 308.121 233.658 320.562 231.933C333.137 230.208 357.485 226.326 365.645 221.007C373.805 215.832 355.879 225.751 344.642 220.576C333.405 215.257 345.98 211.376 362.568 206.2Z" fill="#FEF5F9"/>
<path d="M378.621 249.04C377.283 249.759 377.952 252.347 379.29 252.059C392.4 249.04 413.804 241.709 442.967 216.407C468.384 194.268 462.766 186.074 455.943 190.099C449.121 193.981 442.031 206.2 422.767 222.301C403.37 238.546 389.457 243.002 378.621 249.04Z" fill="#FEF5F9"/>
<path d="M351.732 255.366C336.883 257.378 325.646 259.103 316.014 256.947C306.382 254.791 300.496 254.934 299.827 258.528C299.158 261.979 317.619 266.435 335.813 264.566C354.14 262.841 363.906 257.091 363.772 254.503C363.504 251.916 359.491 254.359 351.732 255.366Z" fill="#FEF5F9"/>
<path d="M208.726 195.85V317.613C208.726 323.507 213.141 328.251 218.625 328.251C224.11 328.251 228.525 323.507 228.525 317.613V195.85H208.726Z" fill="url(#paint4_linear_122_3275)"/>
<path d="M208.726 195.85V224.026C209.529 224.458 210.331 225.033 211.268 225.464C219.027 230.064 224.645 234.089 228.659 237.396V195.85H208.726V195.85Z" fill="#F05236"/>
<path d="M223.575 281.098C224.244 281.098 224.779 280.523 224.779 279.805V222.445C224.779 221.726 224.244 221.151 223.575 221.151C222.906 221.151 222.371 221.726 222.371 222.445V279.805C222.371 280.523 222.906 281.098 223.575 281.098Z" fill="#F05236"/>
<path d="M215.816 313.444H216.218C216.753 313.444 217.154 313.013 217.154 312.438V272.76C217.154 272.185 216.753 271.754 216.218 271.754H215.816C215.281 271.754 214.88 272.185 214.88 272.76V312.438C214.88 313.013 215.281 313.444 215.816 313.444Z" fill="#F05236"/>
<path d="M215.816 251.628H216.218C216.753 251.628 217.154 251.197 217.154 250.621V210.944C217.154 210.369 216.753 209.938 216.218 209.938H215.816C215.281 209.938 214.88 210.369 214.88 210.944V250.621C214.88 251.197 215.281 251.628 215.816 251.628Z" fill="#F05236"/>
<path d="M194.68 3.78881C194.68 3.78881 189.998 8.6766 188.125 12.9893C186.386 17.1583 187.055 26.6464 187.055 26.6464L194.278 33.1155L187.055 41.4534C187.055 41.4534 185.315 58.9919 184.914 75.6679C184.513 92.3438 186.653 103.844 186.653 103.844L193.877 116.064L187.59 125.552C187.59 125.552 185.449 154.735 185.449 162.785C185.449 170.836 187.322 180.18 187.322 180.18L193.208 184.78L188.259 192.831C188.259 192.831 188.259 202.031 192.539 203.469C196.82 204.906 287.788 207.063 340.228 206.488C392.668 205.913 427.048 203.9 429.188 203.9C431.329 203.9 445.108 196.568 445.108 196.568C445.108 196.568 446.981 190.674 447.248 181.043C447.516 171.411 446.981 168.823 446.981 168.823L442.298 162.21C442.298 162.21 445.777 159.479 446.312 158.041C446.847 156.46 444.84 153.441 444.84 153.441C444.84 153.441 446.579 149.272 447.382 147.116C448.051 144.959 450.592 117.358 449.924 102.551C449.255 87.8873 446.312 77.968 446.312 77.968L443.77 69.9176C443.77 69.9176 446.579 63.5922 447.917 60.5733C449.389 57.5544 450.325 32.9717 449.121 24.0587C447.917 15.1457 444.439 6.52022 441.629 6.08895C413.002 1.48869 269.46 -3.11158 194.68 3.78881Z" fill="url(#paint5_linear_122_3275)"/>
<path d="M200.967 9.10786C200.967 9.10786 196.553 13.7081 194.813 17.5896C193.074 21.4711 193.743 30.3841 193.743 30.3841L200.566 36.4219L193.743 44.1849C193.743 44.1849 192.004 60.4296 191.737 76.0992C191.335 91.6251 193.476 102.263 193.476 102.263L200.298 113.62L192.807 125.696C192.807 125.696 192.406 149.703 192.406 157.179C192.406 164.798 194.278 176.586 194.278 176.586L201.636 180.324L195.215 185.068C195.215 185.068 195.215 193.55 199.362 194.987C203.509 196.425 289.794 198.294 339.559 197.862C389.323 197.431 421.964 195.562 423.971 195.562C425.978 195.562 439.088 188.662 439.088 188.662C439.088 188.662 440.961 183.199 441.094 174.286C441.362 165.373 440.827 162.929 440.827 162.929L436.412 156.748C436.412 156.748 439.623 154.304 440.158 152.866C440.693 151.428 438.82 148.553 438.82 148.553C438.82 148.553 440.559 144.672 441.228 142.659C441.897 140.647 444.305 114.914 443.636 101.257C442.967 87.5998 440.158 78.3993 440.158 78.3993L435.074 69.4863C435.074 69.4863 440.292 65.0298 441.629 62.1547C442.967 59.2795 443.904 36.4219 442.833 28.2277C441.629 20.0335 438.419 11.8393 435.743 11.408C408.186 7.09525 271.868 2.7825 200.967 9.10786Z" fill="url(#paint6_linear_122_3275)"/>
<path d="M235.214 10.8331C268.39 10.5456 299.693 8.67674 328.99 10.4018C358.287 12.1269 333.94 12.2707 302.77 12.1269C276.283 11.9832 216.217 16.8709 212.873 14.2833C209.529 11.6956 224.512 10.8331 235.214 10.8331Z" fill="#F3802C"/>
<path d="M294.61 19.7461C290.195 20.7524 299.693 20.4649 324.576 20.4649C349.458 20.4649 360.294 25.3526 379.825 23.4838C399.356 21.6149 404.038 19.4586 403.102 19.171C402.166 18.8835 385.979 21.3274 373.939 21.6149C361.899 22.0462 340.227 17.8772 328.99 18.1647C317.753 18.4523 299.693 18.596 294.61 19.7461Z" fill="#F3802C"/>
<path d="M371.531 11.5518C362.836 11.5518 354.408 11.983 361.364 14.4269C368.321 16.8708 385.845 15.0019 388.119 13.4206C390.26 11.983 377.417 11.5518 371.531 11.5518Z" fill="#F3802C"/>
<path d="M419.021 11.983C416.48 11.8393 416.881 14.2832 422.232 14.4269C427.583 14.5707 429.322 16.8708 421.697 19.1709C414.072 21.4711 384.507 26.2151 388.387 26.9339C392.132 27.6527 412.868 24.2025 420.092 22.0461C427.315 19.746 433.737 16.5833 430.927 14.5707C427.984 12.7018 423.436 12.1268 419.021 11.983Z" fill="#F3802C"/>
<path d="M220.9 25.065C226.384 24.3463 246.451 24.49 255.548 23.34C264.644 22.0461 283.64 19.6023 282.303 21.6149C280.831 23.6275 256.751 26.6464 243.775 27.2214C230.799 27.6527 211.803 26.3589 220.9 25.065Z" fill="#F3802C"/>
<path d="M193.743 30.384C193.743 30.384 205.515 33.978 214.88 35.5593C224.244 37.1407 241.769 36.8532 239.361 38.4345C236.953 40.0159 220.766 40.8784 211.937 40.7346C203.241 40.5909 194.144 34.8405 193.743 30.384Z" fill="#F3802C"/>
<path d="M441.629 62.4423C441.629 62.4423 428.519 65.6049 417.015 66.4675C405.51 67.1863 380.895 66.4675 378.755 68.0488C376.614 69.6302 402.299 70.7802 414.607 70.7802C426.914 70.7802 431.864 71.6428 436.813 68.6239C441.094 66.0362 441.629 62.4423 441.629 62.4423Z" fill="#F3802C"/>
<path d="M196.419 107.151C196.419 107.151 204.044 108.014 218.893 109.595C233.742 111.176 259.962 110.314 256.083 112.326C252.07 114.195 230.13 114.626 222.104 114.626C214.077 114.626 200.298 113.764 200.298 113.764L196.419 107.151Z" fill="#F3802C"/>
<path d="M436.278 156.604C436.278 156.604 418.754 155.598 408.319 155.598C397.885 155.598 372.601 153.729 374.742 156.029C376.882 158.329 403.637 160.198 414.473 161.348C425.309 162.498 437.75 160.054 437.616 159.191C437.349 158.473 438.686 157.035 436.278 156.604Z" fill="#F3802C"/>
<path d="M252.203 185.355C252.203 185.355 272.403 181.761 289.66 183.343C306.917 184.924 337.284 183.343 330.595 184.349C323.907 185.355 306.516 188.949 290.195 187.368C273.875 185.787 234.01 189.812 252.203 185.355Z" fill="#F3802C"/>
<path d="M354.943 182.049C354.943 182.049 375.143 178.455 392.4 180.036C409.657 181.618 440.024 180.036 433.335 181.043C426.646 182.049 409.256 185.643 392.935 184.062C376.614 182.624 336.615 186.505 354.943 182.049Z" fill="#F3802C"/>
<path d="M401.497 191.681C401.497 191.681 374.876 193.406 352.134 192.687C329.392 191.968 289.527 192.687 298.356 192.256C307.185 191.824 329.927 190.099 351.465 190.818C373.003 191.537 425.443 189.668 401.497 191.681Z" fill="#F3802C"/>
<path d="M391.731 172.273C391.731 172.273 365.11 173.998 342.368 173.28C319.626 172.561 279.761 173.28 288.59 172.848C297.419 172.417 320.161 170.692 341.699 171.411C363.237 172.13 415.677 170.261 391.731 172.273Z" fill="#F3802C"/>
<path d="M194.145 176.586C194.145 176.586 203.242 178.024 210.867 178.024C218.492 178.024 235.348 176.442 235.08 178.168C234.813 179.893 201.502 180.324 201.502 180.324L194.145 176.586Z" fill="#F3802C"/>
<path d="M425.844 185.787H209.127C206.318 185.787 204.178 183.343 204.178 180.468V24.7775C204.178 21.7586 206.452 19.4585 209.127 19.4585H425.844C428.653 19.4585 430.794 21.9024 430.794 24.7775V180.468C430.927 183.343 428.653 185.787 425.844 185.787Z" fill="#F37040"/>
<path d="M422.366 178.168H212.739C209.395 178.168 206.586 175.292 206.586 171.555V27.6527C206.586 24.0587 209.261 21.0398 212.739 21.0398H422.366C425.71 21.0398 428.519 23.915 428.519 27.6527V171.555C428.519 175.149 425.71 178.168 422.366 178.168Z" fill="url(#paint7_linear_122_3275)"/>
<path d="M433.871 195.85V317.613C433.871 323.507 429.456 328.251 423.971 328.251C418.486 328.251 414.072 323.507 414.072 317.613V195.85H433.871Z" fill="url(#paint8_linear_122_3275)"/>
<path d="M433.871 195.85V224.026C433.068 224.458 432.265 225.033 431.329 225.464C423.57 230.064 417.951 234.089 413.938 237.396V195.85H433.871V195.85Z" fill="#F05236"/>
<path d="M419.021 281.098C418.352 281.098 417.817 280.523 417.817 279.805V222.445C417.817 221.726 418.352 221.151 419.021 221.151C419.69 221.151 420.225 221.726 420.225 222.445V279.805C420.225 280.523 419.69 281.098 419.021 281.098Z" fill="#F05236"/>
<path d="M426.78 313.444H426.379C425.844 313.444 425.443 313.013 425.443 312.438V272.76C425.443 272.185 425.844 271.754 426.379 271.754H426.78C427.316 271.754 427.717 272.185 427.717 272.76V312.438C427.717 313.013 427.316 313.444 426.78 313.444Z" fill="#F05236"/>
<path d="M426.78 251.628H426.379C425.844 251.628 425.443 251.197 425.443 250.621V210.944C425.443 210.369 425.844 209.938 426.379 209.938H426.78C427.316 209.938 427.717 210.369 427.717 210.944V250.621C427.717 251.197 427.316 251.628 426.78 251.628Z" fill="#F05236"/>
<path d="M242.973 49.2165H222.237C221.301 49.2165 220.498 48.354 220.498 47.3477V47.0601C220.498 46.0538 221.301 45.1913 222.237 45.1913H242.973C243.909 45.1913 244.712 46.0538 244.712 47.0601V47.3477C244.712 48.354 243.909 49.2165 242.973 49.2165Z" fill="#FAA65B"/>
<path d="M242.973 57.6982H222.237C221.301 57.6982 220.498 56.8356 220.498 55.8293V55.5418C220.498 54.5355 221.301 53.673 222.237 53.673H242.973C243.909 53.673 244.712 54.5355 244.712 55.5418V55.8293C244.712 56.8356 243.909 57.6982 242.973 57.6982Z" fill="#FAA65B"/>
<path d="M231.735 65.8924H222.237C221.301 65.8924 220.498 65.0299 220.498 64.0236V63.736C220.498 62.7297 221.301 61.8672 222.237 61.8672H231.735C232.672 61.8672 233.475 62.7297 233.475 63.736V64.0236C233.341 65.0299 232.672 65.8924 231.735 65.8924Z" fill="#FAA65B"/>
<path d="M247.12 162.785L281.901 113.189C283.641 110.601 287.52 110.601 289.393 113.189L308.255 139.928C310.128 142.515 314.275 142.372 315.88 139.64L351.331 79.9807C353.07 76.9618 357.618 77.1055 359.224 80.1245L402.835 163.217C404.306 166.092 402.166 169.542 398.821 169.542H250.732C247.254 169.542 245.113 165.661 247.12 162.785Z" fill="url(#paint9_linear_122_3275)"/>
<path d="M300.363 61.7234C297.821 63.736 299.56 66.8986 304.777 68.48C309.459 69.7738 308.79 75.0929 311.6 75.0929C314.543 74.9491 316.549 70.9239 313.74 66.1799C311.065 61.4358 303.306 59.4232 300.363 61.7234Z" fill="white"/>
<path d="M297.553 74.8052C298.356 71.4988 301.834 72.0738 304.911 76.6741C307.72 80.843 312.135 78.2554 313.205 81.1306C314.142 84.0057 311.466 87.5997 306.383 86.5934C301.299 85.5871 296.617 78.5429 297.553 74.8052Z" fill="white"/>
<path d="M377.284 72.0739C377.418 75.3803 380.762 75.8116 384.909 72.0739C388.521 68.7674 392.267 72.3614 393.872 69.7738C395.477 67.1861 393.471 63.0171 388.254 62.7296C383.036 62.4421 377.15 68.1924 377.284 72.0739Z" fill="white"/>
<path d="M385.712 82.137C383.705 79.5494 385.979 76.818 391.33 76.6742C396.146 76.5304 396.681 71.0676 399.357 71.9302C402.032 72.7927 403.236 77.1055 399.624 81.1307C396.012 85.1559 387.986 85.0122 385.712 82.137Z" fill="white"/>
<path d="M229.328 111.751C230.799 114.626 234.01 113.333 236.017 107.87C237.756 103.126 242.705 104.42 242.973 101.257C243.24 98.0942 239.762 95.5065 235.08 97.8067C230.264 100.251 227.589 108.301 229.328 111.751Z" fill="white"/>
<path d="M240.967 116.351C238.023 115.058 238.96 111.464 243.642 108.732C247.789 106.145 245.916 101.113 248.726 100.394C251.535 99.6755 254.478 102.982 253.006 108.445C251.535 113.908 244.311 117.789 240.967 116.351Z" fill="white"/>
<path d="M233.876 155.885C233.341 155.885 232.939 155.741 232.538 155.31C231.602 154.447 231.602 153.01 232.271 152.147L286.048 84.4372C286.45 83.8622 287.118 83.5746 287.787 83.5746C288.456 83.5746 288.991 84.0059 289.393 84.581L312.67 120.521L347.451 60.2858C347.719 59.8545 348.254 59.4233 348.789 59.2795L401.497 44.7599C402.701 44.4724 403.771 45.1912 404.038 46.3413C404.306 47.4913 403.637 48.7852 402.567 49.0727L350.662 63.3048L314.676 125.696C314.275 126.415 313.606 126.702 312.937 126.846C312.268 126.846 311.599 126.558 311.198 125.84L287.654 89.4687L235.615 154.879C235.08 155.597 234.411 155.885 233.876 155.885Z" fill="url(#paint10_linear_122_3275)"/>
<path d="M234.946 159.479C238.197 159.479 240.832 156.647 240.832 153.153C240.832 149.66 238.197 146.828 234.946 146.828C231.695 146.828 229.06 149.66 229.06 153.153C229.06 156.647 231.695 159.479 234.946 159.479Z" fill="#F05236"/>
<path d="M287.787 92.7751C291.038 92.7751 293.674 89.9432 293.674 86.4497C293.674 82.9563 291.038 80.1244 287.787 80.1244C284.537 80.1244 281.901 82.9563 281.901 86.4497C281.901 89.9432 284.537 92.7751 287.787 92.7751Z" fill="#F05236"/>
<path d="M312.402 130.296C315.653 130.296 318.288 127.464 318.288 123.971C318.288 120.477 315.653 117.645 312.402 117.645C309.151 117.645 306.516 120.477 306.516 123.971C306.516 127.464 309.151 130.296 312.402 130.296Z" fill="#F05236"/>
<path d="M349.859 66.8986C353.11 66.8986 355.745 64.0667 355.745 60.5733C355.745 57.0799 353.11 54.2479 349.859 54.2479C346.608 54.2479 343.973 57.0799 343.973 60.5733C343.973 64.0667 346.608 66.8986 349.859 66.8986Z" fill="#F05236"/>
<path d="M400.427 54.1041C403.677 54.1041 406.313 51.2721 406.313 47.7787C406.313 44.2853 403.677 41.4534 400.427 41.4534C397.176 41.4534 394.541 44.2853 394.541 47.7787C394.541 51.2721 397.176 54.1041 400.427 54.1041Z" fill="#F05236"/>
<path d="M99.4321 243.146C98.7632 246.021 97.5592 248.896 96.0877 251.484C86.8572 267.154 41.1059 309.706 28.7986 316.607C20.6383 321.063 12.7455 323.651 7.7958 322.788C5.38784 322.357 3.64876 321.063 2.97988 318.907C1.10702 312.15 -3.57513 306.112 14.7521 283.398C33.2132 260.685 66.657 224.458 71.6067 222.157C95.9539 210.944 103.178 228.052 99.4321 243.146Z" fill="url(#paint11_linear_122_3275)"/>
<path d="M99.4319 243.146C98.763 246.021 97.5591 248.896 96.0875 251.484C86.857 267.154 41.1058 309.706 28.7984 316.606C20.6381 321.063 12.7454 323.651 7.79565 322.788C8.73208 321.925 9.66851 320.919 10.6049 320.057C32.2766 298.205 69.6 265.716 69.6 265.716C84.0477 252.922 93.412 246.165 99.4319 243.146Z" fill="#F79342"/>
<path d="M61.3058 379.141C53.2793 380.579 29.1997 358.009 16.6248 341.333C8.99955 331.27 2.97966 324.082 0.839247 317.038C-0.498509 312.437 -0.364742 307.837 2.04322 302.662C8.06312 289.149 23.1798 293.461 29.601 303.524C29.601 303.524 54.3495 340.039 61.8409 351.827C63.58 354.559 64.9177 357.002 65.8542 359.159C71.6065 371.522 68.1284 377.991 61.3058 379.141Z" fill="url(#paint12_linear_122_3275)"/>
<path d="M61.3059 379.141C53.2794 380.579 29.1998 358.009 16.6249 341.333C8.99966 331.27 2.97976 324.082 0.839355 317.038C10.7387 329.114 33.3468 353.409 59.8344 358.44C61.9748 358.871 63.9814 359.159 65.8543 359.303C71.6066 371.522 68.1285 377.991 61.3059 379.141Z" fill="#F79342"/>
<path d="M35.0858 311.575C34.6844 311.575 34.1493 311.287 33.8818 310.856C33.8818 310.856 30.2698 304.962 28.1294 302.518L25.989 299.931C25.4539 299.356 25.4539 298.349 26.1228 297.774C26.6579 297.199 27.5943 297.199 28.1294 297.918L30.2698 300.506C31.2063 301.656 32.544 303.525 33.748 305.25C33.748 304.1 33.748 302.949 33.748 301.656C33.8818 297.199 33.748 293.461 33.748 293.461C33.748 292.599 34.2831 291.88 35.0858 291.88C35.8884 291.88 36.5573 292.455 36.5573 293.318C36.5573 293.318 36.6911 297.055 36.5573 301.656C36.4235 306.256 36.4235 309.994 36.4235 309.994C36.4235 310.712 36.0222 311.287 35.3533 311.431C35.3533 311.575 35.2195 311.575 35.0858 311.575Z" fill="#F28127"/>
<path d="M256.484 191.968C256.484 202.463 249.662 207.782 241.1 206.344C241.1 206.344 241.1 206.344 240.966 206.344C238.96 206.056 236.819 205.338 234.813 204.188C226.653 200.019 182.239 152.435 182.239 152.435C182.908 148.553 184.246 145.678 185.851 143.522C190.533 137.196 197.489 137.628 197.489 137.628C197.489 137.628 256.484 179.03 256.484 191.968Z" fill="url(#paint13_linear_122_3275)"/>
<path d="M242.304 206.488C242.304 206.488 241.903 206.488 241.1 206.344C241.1 206.344 241.1 206.344 240.966 206.344C238.96 206.057 236.819 205.338 234.813 204.188C226.653 200.019 182.239 152.435 182.239 152.435C182.908 148.553 184.246 145.678 185.851 143.522C191.068 150.278 207.656 171.842 218.626 183.343C231.602 197 242.304 206.488 242.304 206.488Z" fill="#F79342"/>
<path d="M182.373 150.134L167.39 136.621C167.39 136.621 160.835 136.046 153.344 135.615C145.852 135.184 141.304 132.596 141.839 129.721C142.374 126.846 146.655 126.846 149.598 127.421C152.541 127.996 153.477 127.277 153.477 127.277C153.477 127.277 146.387 125.408 141.839 124.114C137.291 122.82 126.589 122.389 126.321 118.795C125.92 115.201 137.692 115.345 143.846 115.201C152.407 115.058 158.561 116.208 166.721 118.22C174.882 120.377 180.5 125.839 184.781 128.427C189.062 131.015 194.68 138.059 194.68 138.059C194.68 138.059 187.323 150.566 182.373 150.134Z" fill="url(#paint14_linear_122_3275)"/>
<path d="M179.697 148.122C179.697 148.122 173.811 150.278 175.952 157.754C177.691 163.792 184.915 163.935 187.456 161.348C190.132 158.616 190.266 156.747 190.266 156.747C190.266 156.747 195.215 157.466 199.095 154.591C202.974 151.716 200.834 146.397 200.834 146.397C200.834 146.397 205.382 148.697 207.523 144.241C209.663 139.928 206.051 132.74 201.369 131.59C195.617 130.152 194.145 135.328 194.145 135.328C194.145 135.328 187.992 132.884 183.577 136.909C179.296 140.79 179.697 148.122 179.697 148.122Z" fill="url(#paint15_linear_122_3275)"/>
<path d="M220.231 190.531C219.83 190.531 219.429 190.387 219.161 190.099C218.76 189.668 218.626 188.949 218.894 188.374C218.894 188.23 220.499 184.636 222.639 181.761C224.646 179.03 225.716 177.736 225.85 177.736C226.385 177.161 227.321 177.161 227.857 177.736C228.392 178.311 228.392 179.317 227.857 179.892C227.857 179.892 226.786 181.186 224.78 183.774C224.245 184.493 223.71 185.212 223.308 186.074C224.111 185.787 224.78 185.355 225.449 185.068L230.131 183.055C230.8 182.768 231.736 183.055 232.004 183.918C232.271 184.636 232.004 185.643 231.201 185.93L226.519 187.943C224.111 189.093 220.633 190.531 220.633 190.531C220.633 190.531 220.499 190.531 220.231 190.531Z" fill="#F28127"/>
<path d="M256.217 195.85C254.745 204.619 224.646 233.083 202.038 249.903C179.43 266.579 163.778 274.629 149.598 263.272C148.929 262.697 148.26 262.122 147.591 261.547C135.819 250.19 141.036 233.514 167.925 217.701C175.283 213.388 220.633 189.524 234.545 184.205C246.05 179.749 254.344 184.78 255.949 191.681C256.351 192.831 256.351 194.268 256.217 195.85Z" fill="url(#paint16_linear_122_3275)"/>
<path d="M256.217 195.85C254.746 204.619 224.646 233.083 202.038 249.903C179.43 266.579 163.778 274.629 149.598 263.272C148.929 262.697 148.26 262.122 147.591 261.547C178.895 253.353 204.847 237.827 242.973 204.331C248.458 199.587 252.739 195.131 255.95 191.537C256.351 192.831 256.351 194.268 256.217 195.85Z" fill="#F79342"/>
<path d="M114.147 207.925C90.7358 209.363 69.8669 213.963 64.2483 226.183C58.6297 238.402 59.6999 272.185 59.9675 289.293C60.235 304.243 62.1079 309.419 62.1079 309.419C62.1079 309.419 56.7569 316.319 55.4191 331.126C53.9476 345.933 62.5092 355.134 62.5092 355.134C62.5092 355.134 52.6098 367.353 53.9476 384.029C55.4191 400.705 68.7966 414.506 112.675 415.656C156.553 416.806 180.633 409.618 186.653 394.667C192.673 379.86 181.703 360.022 181.703 360.022C181.703 360.022 190.934 349.815 189.864 332.995C188.793 316.319 183.175 309.419 183.175 309.419C183.175 309.419 189.462 296.912 185.984 279.373C179.964 248.609 183.309 228.339 176.754 212.669C173.677 205.194 159.898 205.338 114.147 207.925Z" fill="url(#paint17_linear_122_3275)"/>
<path d="M133.544 267.441C131.671 267.441 129.932 267.441 127.925 267.441C95.6856 267.01 70.9371 263.847 70.6695 263.847C69.8669 263.703 69.3318 262.985 69.4656 262.122C69.5993 261.26 70.2682 260.685 71.0709 260.828C71.3384 260.828 95.9531 263.847 128.059 264.422C161.637 264.997 176.352 260.685 176.486 260.685C177.289 260.541 177.958 260.972 178.225 261.691C178.493 262.41 177.958 263.272 177.289 263.56C176.62 263.703 163.644 267.441 133.544 267.441Z" fill="#A12168"/>
<path d="M128.996 317.038C128.594 317.038 128.327 317.038 127.925 317.038C95.5518 316.894 68.3954 312.437 68.1278 312.437C67.3251 312.294 66.79 311.575 66.9238 310.712C67.0576 309.85 67.7265 309.275 68.5291 309.418C68.7967 309.418 95.8193 313.875 127.792 314.019C128.059 314.019 128.461 314.019 128.728 314.019C161.771 314.019 179.028 308.987 179.162 308.987C179.964 308.7 180.633 309.275 180.901 309.994C181.168 310.856 180.633 311.575 179.964 311.862C179.563 312.006 162.44 317.038 128.996 317.038Z" fill="#A12168"/>
<path d="M126.855 367.066C126.454 367.066 126.053 367.066 125.651 367.066C92.2075 366.922 63.8471 358.009 63.4457 357.865C62.6431 357.577 62.2418 356.715 62.5093 355.996C62.7769 355.134 63.5795 354.702 64.2484 354.99C64.5159 355.134 92.6088 364.047 125.651 364.047C160.433 364.19 177.021 359.878 177.155 359.878C177.958 359.734 178.626 360.165 178.894 361.028C179.028 361.89 178.626 362.609 177.824 362.897C177.155 362.897 161.102 367.066 126.855 367.066Z" fill="#A12168"/>
<path d="M64.2485 365.628C58.8975 366.491 55.1518 377.273 61.9743 382.592C68.7969 387.911 95.552 393.373 102.375 385.035C109.197 376.697 105.318 370.66 93.6791 369.222C82.0407 367.784 73.0777 364.047 64.2485 365.628Z" fill="#C34599"/>
<path d="M112.407 323.651C105.986 325.663 96.2207 329.832 121.237 335.008C130.467 336.876 175.014 334.433 182.238 326.382C189.462 318.332 171.804 320.488 154.814 321.638C140.367 322.644 122.976 320.2 112.407 323.651Z" fill="#C34599"/>
<path d="M168.459 223.595C174.881 221.582 184.646 217.413 159.63 212.238C150.4 210.369 105.852 212.813 98.6285 220.864C91.4046 228.914 109.063 226.758 126.052 225.608C140.5 224.458 157.891 227.045 168.459 223.595Z" fill="#C34599"/>
<path d="M77.4922 266.148C68.5292 266.004 68.7968 274.485 72.4087 278.079C76.0206 281.673 117.09 285.411 124.314 280.092C131.538 274.773 126.855 269.885 117.09 269.742C107.324 269.454 88.0605 266.435 77.4922 266.148Z" fill="#C34599"/>
<path d="M153.075 210.082C153.075 210.082 154.279 199.731 148.259 197C142.239 194.268 108.929 195.85 99.6988 197.431C90.4683 199.012 86.0537 209.938 93.1438 212.669C100.1 215.257 149.062 212.238 153.075 210.082Z" fill="url(#paint18_linear_122_3275)"/>
<path d="M92.6088 211.663C91.9399 211.663 91.4048 211.232 91.271 210.513C91.0035 209.65 91.5386 208.932 92.2075 208.644C92.6088 208.5 102.642 205.625 120.702 204.906C141.838 204.044 150.534 204.619 150.935 204.619C151.738 204.619 152.273 205.338 152.273 206.2C152.273 207.063 151.47 207.638 150.801 207.638C150.667 207.638 141.704 207.063 120.835 207.925C103.043 208.644 93.0101 211.519 93.0101 211.519C92.8764 211.663 92.7426 211.663 92.6088 211.663Z" fill="#A12168"/>
<path d="M148.26 208.069C140.1 209.363 141.17 198.581 141.304 197.287C141.036 198.581 138.628 208.932 127.525 209.076C115.753 209.363 116.689 197.144 116.689 197.144C116.689 197.144 107.726 206.057 99.0307 202.319C90.3353 198.581 94.8836 184.062 94.8836 184.062C94.8836 184.062 79.9008 194.843 74.5497 182.624C72.4093 177.592 73.7471 170.548 76.1551 163.935C79.6332 154.304 85.118 145.534 85.118 145.534L149.196 111.607C149.196 111.607 155.752 121.527 159.765 137.34C160.969 142.084 162.039 147.403 162.44 153.154C164.982 178.024 156.955 206.632 148.26 208.069Z" fill="url(#paint19_linear_122_3275)"/>
<path d="M95.4185 184.637C95.151 184.637 94.8834 184.493 94.6159 184.349C94.0808 183.918 93.947 183.055 94.3483 182.336C94.3483 182.336 97.0239 178.311 98.3616 176.155C99.9669 173.567 100.77 170.404 100.903 170.261C101.171 169.542 101.84 169.111 102.509 169.254C103.178 169.542 103.579 170.261 103.445 170.979C103.445 171.123 102.375 174.717 100.636 177.592C99.298 179.605 96.7563 183.63 96.6225 183.774C96.2212 184.493 95.8199 184.637 95.4185 184.637Z" fill="#600C32"/>
<path d="M117.759 195.993C117.492 195.993 117.358 195.993 117.09 195.85C116.421 195.418 116.154 194.556 116.555 193.837C116.555 193.837 118.562 189.812 119.498 186.505C120.435 183.199 120.435 181.618 120.435 181.474C120.435 180.755 121.104 180.036 121.773 180.036C122.441 180.036 123.11 180.611 123.11 181.474C123.11 181.618 123.11 183.63 122.04 187.224C120.97 190.962 118.963 194.987 118.829 195.131C118.696 195.706 118.294 195.993 117.759 195.993Z" fill="#600C32"/>
<path d="M142.508 196.137C142.24 196.137 142.106 196.137 141.839 195.993C141.17 195.562 140.902 194.7 141.304 194.125C141.304 194.125 142.508 191.537 143.444 188.087C144.38 184.493 144.648 182.336 144.648 182.193C144.782 181.474 145.451 180.899 146.119 180.899C146.788 181.043 147.323 181.761 147.323 182.48C147.323 182.624 147.056 184.78 146.119 188.662C145.183 192.543 143.845 195.275 143.712 195.418C143.444 195.993 143.043 196.137 142.508 196.137Z" fill="#600C32"/>
<path d="M160.032 137.34C147.993 152.147 130.334 166.667 106.121 169.111C87.526 170.98 79.4994 167.961 76.2888 163.935C79.767 154.304 85.2518 145.534 85.2518 145.534L149.33 111.607C149.33 111.607 156.019 121.527 160.032 137.34Z" fill="url(#paint20_linear_122_3275)"/>
<path d="M80.5697 154.304C80.5697 154.304 85.3856 157.179 112.542 153.441C140.367 149.703 158.561 129.721 160.032 124.833C160.969 121.958 158.427 117.789 157.357 115.92C156.287 114.051 156.019 93.3501 129.799 82.9995C99.1645 70.7801 59.8345 103.988 56.8914 112.182C53.9484 120.233 72.1418 116.208 73.3458 122.246C74.5498 128.14 75.3525 136.909 74.8174 139.64C74.2823 142.228 73.6134 153.872 80.5697 154.304Z" fill="url(#paint21_linear_122_3275)"/>
<path d="M154.949 112.326C155.083 112.326 155.217 112.47 155.484 112.47C156.019 112.758 156.287 113.476 156.019 114.051C155.618 114.77 145.986 132.021 120.702 139.928C97.0242 147.403 76.8241 142.803 76.5565 142.803C76.0214 142.659 75.7539 142.084 75.7539 141.509C75.7539 140.934 76.289 140.503 76.6903 140.647C76.8241 140.647 96.6229 145.103 119.766 137.628C144.247 129.865 153.745 112.758 153.879 112.614C154.146 112.326 154.548 112.183 154.949 112.326Z" fill="#CB2628"/>
<path d="M148.662 120.664C148.929 120.664 149.063 120.808 149.33 120.952C149.33 121.096 150.936 122.964 152.675 125.696C154.414 128.427 154.681 129.434 154.681 129.577C154.815 130.152 154.548 130.584 154.013 130.584C153.477 130.584 153.076 130.296 152.942 129.721C152.942 129.721 152.675 128.858 151.203 126.415C149.598 123.827 147.993 121.958 147.993 121.814C147.725 121.383 147.725 120.808 147.993 120.521C148.126 120.664 148.394 120.664 148.662 120.664Z" fill="#CB2628"/>
<path d="M139.03 129.146C139.297 129.146 139.565 129.29 139.699 129.577L145.718 137.915C145.986 138.346 145.986 138.922 145.585 139.353C145.183 139.64 144.648 139.497 144.247 139.065L138.361 130.727C138.093 130.296 138.093 129.721 138.495 129.434C138.628 129.146 138.896 129.146 139.03 129.146Z" fill="#CB2628"/>
<path d="M127.124 135.759C127.391 135.759 127.659 136.046 127.793 136.19L133.144 145.534C133.411 145.966 133.277 146.541 132.876 146.828C132.475 147.116 131.94 146.828 131.672 146.397L126.321 137.053C126.054 136.621 126.187 136.046 126.589 135.759C126.722 135.759 126.856 135.615 127.124 135.759Z" fill="#CB2628"/>
<path d="M115.217 139.497C115.485 139.497 115.753 139.784 115.886 140.072L120.97 149.847C121.237 150.422 121.104 150.997 120.702 151.285C120.301 151.572 119.632 151.285 119.365 150.71L114.281 140.934C114.013 140.359 114.147 139.784 114.549 139.64C114.95 139.353 115.084 139.353 115.217 139.497Z" fill="#CB2628"/>
<path d="M101.171 141.797C101.439 141.797 101.706 142.084 101.84 142.372L107.459 152.147C107.726 152.722 107.726 153.297 107.191 153.585C106.79 153.872 106.121 153.729 105.854 153.154L100.369 143.378C100.101 142.803 100.235 142.228 100.636 141.94C100.636 141.797 100.904 141.653 101.171 141.797Z" fill="#CB2628"/>
<path d="M89.8002 142.516C90.0678 142.659 90.2015 142.803 90.3353 143.091L94.2148 153.154C94.4823 153.729 94.2148 154.304 93.8135 154.591C93.4121 154.879 92.877 154.591 92.6095 154.016L88.73 143.953C88.4625 143.378 88.73 142.803 89.1313 142.516C89.3989 142.516 89.5327 142.516 89.8002 142.516Z" fill="#CB2628"/>
<path d="M79.0983 141.222C79.3658 141.222 79.6334 141.509 79.7672 141.797L84.3155 152.147C84.5831 152.722 84.4493 153.297 83.9142 153.585C83.5129 153.872 82.9778 153.585 82.7102 153.01L78.1619 142.659C77.8943 142.084 78.0281 141.509 78.5632 141.365C78.8307 141.078 78.9645 141.078 79.0983 141.222Z" fill="#CB2628"/>
<path d="M80.9709 121.67C77.0914 121.67 74.6835 120.952 74.5497 120.952C74.1484 120.808 73.747 120.52 73.6133 119.945C73.4795 119.514 73.4795 118.939 73.747 118.508L78.0279 111.895C78.4292 111.176 79.3656 111.032 80.0345 111.464C80.7034 111.895 80.8372 112.901 80.4358 113.62L77.359 118.22C78.563 118.364 80.1683 118.508 82.1749 118.364C86.5895 118.22 89.9339 117.07 90.0677 117.07C90.8703 116.783 91.673 117.214 91.8068 118.077C92.0743 118.939 91.673 119.802 90.8703 119.945C90.7366 119.945 86.9908 121.239 82.3087 121.383C81.9073 121.67 81.3722 121.67 80.9709 121.67Z" fill="#CB2628"/>
</g>
<defs>
<linearGradient id="paint0_linear_122_3275" x1="263.201" y1="347.116" x2="242.997" y2="223.025" gradientUnits="userSpaceOnUse">
<stop stop-color="#DEDBEE"/>
<stop offset="1" stop-color="#F7F9FD"/>
</linearGradient>
<linearGradient id="paint1_linear_122_3275" x1="234.427" y1="273.066" x2="288.366" y2="383.734" gradientUnits="userSpaceOnUse">
<stop stop-color="#DEDBEE"/>
<stop offset="1" stop-color="#B2AFD7"/>
</linearGradient>
<linearGradient id="paint2_linear_122_3275" x1="372.228" y1="326.429" x2="384.361" y2="240.621" gradientUnits="userSpaceOnUse">
<stop stop-color="#DEDBEE"/>
<stop offset="1" stop-color="#F7F9FD"/>
</linearGradient>
<linearGradient id="paint3_linear_122_3275" x1="398.537" y1="251.265" x2="358.398" y2="380.79" gradientUnits="userSpaceOnUse">
<stop stop-color="#DEDBEE"/>
<stop offset="1" stop-color="#B2AFD7"/>
</linearGradient>
<linearGradient id="paint4_linear_122_3275" x1="218.633" y1="300.435" x2="218.633" y2="223.574" gradientUnits="userSpaceOnUse">
<stop stop-color="#F9B566"/>
<stop offset="1" stop-color="#EF6C4A"/>
</linearGradient>
<linearGradient id="paint5_linear_122_3275" x1="305.101" y1="-60.6429" x2="323.887" y2="142.289" gradientUnits="userSpaceOnUse">
<stop stop-color="#F9B566"/>
<stop offset="1" stop-color="#F05236"/>
</linearGradient>
<linearGradient id="paint6_linear_122_3275" x1="311.199" y1="27.6614" x2="348.017" y2="362.655" gradientUnits="userSpaceOnUse">
<stop stop-color="#F9B566"/>
<stop offset="1" stop-color="#EF6C4A"/>
</linearGradient>
<linearGradient id="paint7_linear_122_3275" x1="209.712" y1="342.92" x2="379.244" y2="11.6257" gradientUnits="userSpaceOnUse">
<stop stop-color="#F0CBDD"/>
<stop offset="0.9946" stop-color="#FAEBF3"/>
</linearGradient>
<linearGradient id="paint8_linear_122_3275" x1="423.974" y1="300.435" x2="423.974" y2="223.574" gradientUnits="userSpaceOnUse">
<stop stop-color="#F9B566"/>
<stop offset="1" stop-color="#EF6C4A"/>
</linearGradient>
<linearGradient id="paint9_linear_122_3275" x1="324.705" y1="234.616" x2="324.705" y2="131.107" gradientUnits="userSpaceOnUse">
<stop stop-color="#171A47"/>
<stop offset="1" stop-color="#2D3079"/>
</linearGradient>
<linearGradient id="paint10_linear_122_3275" x1="231.732" y1="100.315" x2="404.148" y2="100.315" gradientUnits="userSpaceOnUse">
<stop stop-color="#EC4927"/>
<stop offset="1" stop-color="#F06944"/>
</linearGradient>
<linearGradient id="paint11_linear_122_3275" x1="55.3276" y1="254.428" x2="25.8171" y2="361.456" gradientUnits="userSpaceOnUse">
<stop stop-color="#FAB666"/>
<stop offset="1" stop-color="#F99F45"/>
</linearGradient>
<linearGradient id="paint12_linear_122_3275" x1="56.1883" y1="248.801" x2="24.4659" y2="363.852" gradientUnits="userSpaceOnUse">
<stop stop-color="#FAB666"/>
<stop offset="1" stop-color="#F99F45"/>
</linearGradient>
<linearGradient id="paint13_linear_122_3275" x1="237.929" y1="193.268" x2="212.084" y2="166.01" gradientUnits="userSpaceOnUse">
<stop stop-color="#FAB666"/>
<stop offset="1" stop-color="#F99F45"/>
</linearGradient>
<linearGradient id="paint14_linear_122_3275" x1="161.493" y1="149.509" x2="158.548" y2="100.903" gradientUnits="userSpaceOnUse">
<stop stop-color="#B32978"/>
<stop offset="1" stop-color="#C14B9B"/>
</linearGradient>
<linearGradient id="paint15_linear_122_3275" x1="198.988" y1="166.182" x2="184.387" y2="133.967" gradientUnits="userSpaceOnUse">
<stop stop-color="#FEC976"/>
<stop offset="0.9892" stop-color="#F6DD9B"/>
</linearGradient>
<linearGradient id="paint16_linear_122_3275" x1="231.571" y1="176.46" x2="188.418" y2="226.178" gradientUnits="userSpaceOnUse">
<stop stop-color="#FAB666"/>
<stop offset="1" stop-color="#F99F45"/>
</linearGradient>
<linearGradient id="paint17_linear_122_3275" x1="125.013" y1="416.695" x2="108.668" y2="146.957" gradientUnits="userSpaceOnUse">
<stop stop-color="#B32978"/>
<stop offset="1" stop-color="#C14B9B"/>
</linearGradient>
<linearGradient id="paint18_linear_122_3275" x1="120.93" y1="190.733" x2="121.747" y2="219.644" gradientUnits="userSpaceOnUse">
<stop stop-color="#B32978"/>
<stop offset="1" stop-color="#C14B9B"/>
</linearGradient>
<linearGradient id="paint19_linear_122_3275" x1="121.152" y1="143.012" x2="115.01" y2="196.827" gradientUnits="userSpaceOnUse">
<stop offset="0.00537634" stop-color="#6B1036"/>
<stop offset="1" stop-color="#782844"/>
</linearGradient>
<linearGradient id="paint20_linear_122_3275" x1="118.248" y1="151.574" x2="111.603" y2="106.859" gradientUnits="userSpaceOnUse">
<stop offset="0.00537634" stop-color="#6B1036"/>
<stop offset="1" stop-color="#782844"/>
</linearGradient>
<linearGradient id="paint21_linear_122_3275" x1="75.8968" y1="154.477" x2="136.72" y2="96.4617" gradientUnits="userSpaceOnUse">
<stop stop-color="#EC4927"/>
<stop offset="1" stop-color="#F06944"/>
</linearGradient>
<clipPath id="clip0_122_3275">
<rect width="450" height="416" fill="white"/>
</clipPath>
</defs>
</svg>
