<svg width="658" height="658" viewBox="0 0 658 658" fill="none" xmlns="http://www.w3.org/2000/svg">
<path d="M193.357 40.9695L193.355 40.9615C192.975 38.7012 194.64 36.6114 196.928 36.4834C201.586 36.2227 209.884 35.8004 221.028 35.401C223.012 35.3298 224.731 36.775 224.986 38.7441C224.989 38.7712 224.993 38.7984 224.996 38.8258C225.29 41.0981 223.551 43.1293 221.26 43.1707C213.907 43.3037 203.741 43.8155 197.361 44.1727C195.405 44.2823 193.682 42.902 193.357 40.9695Z" fill="url(#paint0_linear_122_8217)"/>
<path d="M222.36 58.1274C214.981 58.4155 207.69 58.7777 200.577 59.2254C198.249 59.372 196.189 57.7449 195.801 55.4446L195.76 55.2019C195.31 52.5328 197.273 50.066 199.975 49.9043C206.674 49.5034 215.716 49.1594 222.036 48.9415C224.408 48.8597 226.441 50.6124 226.706 52.9709C226.709 53.0015 226.713 53.032 226.716 53.0626C227.012 55.6969 225.009 58.0239 222.36 58.1274Z" fill="url(#paint1_linear_122_8217)"/>
<path d="M365.526 59.1583C343.315 58.1948 295.384 56.5185 246.913 57.4215C241.137 57.5291 236.217 53.2486 235.53 47.5129C235.519 47.4242 235.509 47.3357 235.498 47.2476C234.706 40.6475 239.788 34.817 246.434 34.6817C278.178 34.0357 321.001 34.0726 366.636 36.6926C372.203 37.0122 376.701 41.3649 377.197 46.919L377.198 46.93C377.802 53.6989 372.316 59.4528 365.526 59.1583Z" fill="url(#paint2_linear_122_8217)"/>
<path d="M413.494 52.7019C416.206 48.2704 415.583 42.3669 411.625 38.5941C407.351 34.5197 400.429 34.4742 396.105 38.4963C391.373 42.8989 391.272 50.2947 395.795 54.8182C399.574 58.5971 405.352 59.1536 409.715 56.4808L419.217 65.983C420.261 67.0265 421.953 67.0265 422.996 65.983V65.983C424.04 64.9395 424.04 63.2477 422.996 62.2041L413.494 52.7019ZM399.004 51.6095C396.352 48.9574 396.345 44.6495 399.004 41.9905C401.656 39.3385 405.971 39.3384 408.623 41.9905C411.282 44.6495 411.275 48.9574 408.623 51.6095C405.964 54.2685 401.663 54.2685 399.004 51.6095Z" fill="url(#paint3_linear_122_8217)"/>
<path d="M151.212 279.102C151.212 279.102 176.435 266.079 178.491 279.787C180.547 293.495 185.894 290.617 199.602 289.52C213.31 288.423 215.641 294.318 215.641 294.318C215.641 294.318 177.577 305.33 142.941 292.627L151.212 279.102Z" fill="url(#paint4_linear_122_8217)"/>
<path d="M203.806 259.91C203.806 259.91 166.885 268.318 142.941 292.627C142.941 292.627 140.017 264.297 148.242 256.254C156.467 248.212 161.402 264.114 161.402 264.114C161.402 264.114 164.509 257.899 169.992 258.813C175.476 259.727 176.755 264.114 181.873 259.544C186.991 254.975 203.806 259.91 203.806 259.91Z" fill="url(#paint5_linear_122_8217)"/>
<path d="M554.1 271.425C554.1 271.425 552.729 289.52 530.521 296.785C530.521 296.785 552.455 294.592 563.559 286.367L554.1 271.425Z" fill="url(#paint6_linear_122_8217)"/>
<path d="M522.296 263.611C522.296 263.611 545.463 267.586 563.558 286.367C563.558 286.367 570.55 266.49 566.574 260.047C562.599 253.604 554.648 266.353 554.648 266.353C554.648 266.353 554.785 259.636 547.52 259.499C540.254 259.361 540.94 264.982 522.296 263.611Z" fill="url(#paint7_linear_122_8217)"/>
<path d="M537.193 128.675C521.109 131.6 518.915 153.716 518.915 153.716C518.915 153.716 508.497 152.254 508.131 160.113C507.766 167.973 479.252 172.725 479.252 172.725C479.252 172.725 528.237 169.435 551.998 152.436L537.193 128.675Z" fill="url(#paint8_linear_122_8217)"/>
<path d="M472.398 110.9C472.398 110.9 523.302 118.074 551.998 152.437C551.998 152.437 563.33 131.965 556.75 120.085C550.17 108.204 538.107 115.698 538.107 115.698C538.107 115.698 540.666 93.5821 523.85 93.0337C507.035 92.4854 511.239 108.57 511.239 108.57C511.239 108.57 490.585 103.909 472.398 110.9Z" fill="url(#paint9_linear_122_8217)"/>
<path d="M102.365 144.577L100.537 156.092C100.537 156.092 120.094 163.22 157.564 163.952C157.564 163.952 147.145 163.22 141.296 154.813C135.447 146.405 128.685 154.63 128.685 154.63C128.685 154.63 129.233 136.9 116.256 136.352C103.279 135.804 102.365 144.577 102.365 144.577Z" fill="url(#paint10_linear_122_8217)"/>
<path d="M100.537 156.092C100.537 156.092 113.331 139.642 146.231 128.493C146.231 128.493 138.555 125.568 118.449 131.6C118.449 131.6 116.804 113.87 107.665 117.526C98.5263 121.182 102.547 137.632 102.547 137.632C102.547 137.632 98.5263 136.169 97.7952 139.642C97.0641 143.115 98.1608 151.888 100.537 156.092Z" fill="url(#paint11_linear_122_8217)"/>
<path d="M132.011 416.01C133.583 416.01 134.857 414.736 134.857 413.164C134.857 411.592 133.583 410.318 132.011 410.318C130.439 410.318 129.165 411.592 129.165 413.164C129.165 414.736 130.439 416.01 132.011 416.01Z" fill="url(#paint12_linear_122_8217)"/>
<path d="M165.275 435.36C167.941 435.36 170.102 433.198 170.102 430.533C170.102 427.867 167.941 425.706 165.275 425.706C162.609 425.706 160.448 427.867 160.448 430.533C160.448 433.198 162.609 435.36 165.275 435.36Z" fill="url(#paint13_linear_122_8217)"/>
<path d="M390.183 349.348C392.849 349.348 395.01 347.187 395.01 344.521C395.01 341.855 392.849 339.694 390.183 339.694C387.518 339.694 385.356 341.855 385.356 344.521C385.356 347.187 387.518 349.348 390.183 349.348Z" fill="url(#paint14_linear_122_8217)"/>
<path d="M125.522 65.6085C128.737 65.6085 131.343 63.0023 131.343 59.7874C131.343 56.5725 128.737 53.9663 125.522 53.9663C122.307 53.9663 119.701 56.5725 119.701 59.7874C119.701 63.0023 122.307 65.6085 125.522 65.6085Z" fill="url(#paint15_linear_122_8217)"/>
<path d="M153.755 74.0713C155.766 74.0713 157.397 72.4409 157.397 70.4297C157.397 68.4185 155.766 66.7881 153.755 66.7881C151.744 66.7881 150.113 68.4185 150.113 70.4297C150.113 72.4409 151.744 74.0713 153.755 74.0713Z" fill="url(#paint16_linear_122_8217)"/>
<path d="M127.771 99.1707C129.517 99.1707 130.932 97.7553 130.932 96.0094C130.932 94.2635 129.517 92.8481 127.771 92.8481C126.025 92.8481 124.61 94.2635 124.61 96.0094C124.61 97.7553 126.025 99.1707 127.771 99.1707Z" fill="url(#paint17_linear_122_8217)"/>
<path d="M558.704 211.53C561.952 211.53 564.586 208.897 564.586 205.648C564.586 202.4 561.952 199.766 558.704 199.766C555.455 199.766 552.822 202.4 552.822 205.648C552.822 208.897 555.455 211.53 558.704 211.53Z" fill="url(#paint18_linear_122_8217)"/>
<path d="M587.489 243.851C589.061 243.851 590.335 242.576 590.335 241.005C590.335 239.433 589.061 238.158 587.489 238.158C585.917 238.158 584.643 239.433 584.643 241.005C584.643 242.576 585.917 243.851 587.489 243.851Z" fill="url(#paint19_linear_122_8217)"/>
<path d="M232.228 83.3467C232.228 83.3467 248.038 92.6683 253.704 99.9795C253.704 99.9795 267.413 152.437 271.251 188.261L244.383 165.414L232.228 83.3467Z" fill="url(#paint20_linear_122_8217)"/>
<path d="M170.815 173.822L185.711 190.089C185.711 190.089 231.406 187.347 271.251 188.261C271.251 188.261 265.768 180.036 251.42 169.435C237.072 158.834 180.959 158.834 170.815 173.822Z" fill="url(#paint21_linear_122_8217)"/>
<path d="M251.42 169.435C214.133 168.887 170.815 173.822 170.815 173.822L166.033 148.807L159.914 116.806L155.461 93.4908C189.458 84.1692 232.228 83.3467 232.228 83.3467C234.948 90.1789 237.481 98.7439 239.74 107.802C242.449 118.615 244.796 130.152 246.66 140.275C249.676 156.703 251.42 169.435 251.42 169.435Z" fill="url(#paint22_linear_122_8217)"/>
<path d="M246.66 140.275C225.933 141.371 191.235 143.817 166.033 148.807L159.914 116.806C173.721 113.856 207.542 107.451 239.74 107.802C242.449 118.616 244.796 130.153 246.66 140.275Z" fill="url(#paint23_linear_122_8217)"/>
<path d="M222.93 122.472C226.631 134.218 220.251 145.658 208.68 148.024C197.109 150.391 184.728 142.787 181.027 131.041C177.325 119.295 183.705 107.855 195.276 105.488C206.847 103.122 219.228 110.726 222.93 122.472Z" fill="url(#paint24_linear_122_8217)"/>
<path d="M296.658 202.883L311.28 212.936C311.28 212.936 352.039 214.216 384.208 217.871L381.101 207.27C381.101 207.27 350.577 199.411 296.658 202.883Z" fill="url(#paint25_linear_122_8217)"/>
<path d="M276.735 99.9794C276.735 99.9794 288.158 163.403 296.658 202.883C296.658 202.883 338.331 203.706 381.101 207.27C381.101 207.27 375.8 157.372 362.458 102.173C362.458 102.173 331.568 94.8616 276.735 99.9794Z" fill="url(#paint26_linear_122_8217)"/>
<path d="M359.879 195.811C342.024 194.654 325.62 193.943 314.025 193.527C313.292 189.932 310.98 186.986 307.89 185.368C306.354 184.564 304.625 184.088 302.802 184.023C298.195 161.388 293.296 135.401 290.075 118.014C292.468 117.918 294.546 116.808 295.954 115.135C297.455 113.35 298.195 110.927 297.742 108.413C303.41 108.159 308.985 108.031 314.434 108.031C327.492 108.031 337.972 108.769 345.591 109.59C346.144 112.085 347.44 114.274 349.227 115.93C351.118 117.683 353.558 118.838 356.246 119.126C362.108 145.657 366.074 170.008 368.456 186.539C367.042 186.447 365.703 186.718 364.519 187.265C361.388 188.715 359.346 192.1 359.879 195.811Z" fill="url(#paint27_linear_122_8217)"/>
<path d="M470.292 162.307C470.292 162.307 447.997 157.01 426.25 154.082C426.25 154.082 421.864 149.234 412.355 143.532L452.801 93.3484L465.456 105.192C465.456 105.192 471.214 136.722 470.292 162.307Z" fill="url(#paint28_linear_122_8217)"/>
<path d="M470.292 162.307C470.292 162.307 447.997 157.01 426.25 154.082C426.25 154.082 421.864 149.235 412.355 143.532L438.95 142.435L460.335 151.34L470.292 162.307Z" fill="url(#paint29_linear_122_8217)"/>
<path d="M460.335 151.34C437.305 145.725 412.356 143.532 412.356 143.532C411.807 139.386 411.182 135.033 410.535 130.657C410.261 128.825 409.987 126.994 409.702 125.163C408.55 117.563 407.333 110.105 406.258 103.668C405.94 101.716 405.622 99.8735 405.337 98.1407C403.911 89.7622 402.902 84.1692 402.902 84.1692C433.872 85.54 452.801 93.3483 452.801 93.3483C453.535 97.3402 454.27 102.034 454.983 106.98C455.246 108.811 455.509 110.687 455.762 112.573C456.705 119.548 457.582 126.709 458.306 132.949C458.536 134.879 458.745 136.71 458.942 138.432C459.808 146.076 460.335 151.34 460.335 151.34Z" fill="url(#paint30_linear_122_8217)"/>
<path d="M455.762 112.573C434.914 106.673 414.549 104.403 406.258 103.668C405.94 101.716 405.622 99.8734 405.337 98.1406C413.244 98.8206 433.828 101.036 454.983 106.98C455.246 108.811 455.509 110.686 455.762 112.573Z" fill="url(#paint31_linear_122_8217)"/>
<path d="M458.942 138.432C439.564 133.344 420.416 131.381 410.535 130.657C410.261 128.825 409.987 126.994 409.702 125.163C419.484 125.875 438.774 127.827 458.306 132.949C458.536 134.879 458.745 136.71 458.942 138.432Z" fill="url(#paint32_linear_122_8217)"/>
<path d="M279.72 228.924C279.72 228.924 292.097 237.336 296.533 243.445C296.533 243.445 307.265 285.325 310.27 313.526L289.235 293.769L279.72 228.924Z" fill="url(#paint33_linear_122_8217)"/>
<path d="M231.641 294.986L243.303 308.745C243.303 308.745 279.076 309.923 310.269 313.526C310.269 313.526 305.977 306.718 294.744 297.414C283.511 288.111 239.583 284.04 231.641 294.986Z" fill="url(#paint34_linear_122_8217)"/>
<path d="M294.744 297.414C265.554 294.282 231.641 294.986 231.641 294.986L227.898 275.142L223.107 249.756L219.622 231.261C246.236 226.462 279.72 228.924 279.72 228.924C281.849 234.446 283.832 241.305 285.601 248.53C287.721 257.154 289.558 266.316 291.018 274.341C293.379 287.364 294.744 297.414 294.744 297.414Z" fill="url(#paint35_linear_122_8217)"/>
<path d="M291.018 274.341C274.792 273.692 247.627 273.081 227.898 275.142L223.107 249.756C233.916 248.459 260.394 245.92 285.601 248.53C287.721 257.154 289.559 266.316 291.018 274.341Z" fill="url(#paint36_linear_122_8217)"/>
<path d="M359.936 235.048C359.936 235.048 369.665 242.21 372.874 247.288C372.874 247.288 378.233 280.029 378.345 300.304L363.567 285.903L359.936 235.048Z" fill="url(#paint37_linear_122_8217)"/>
<path d="M319.447 285.773L328.013 295.687C328.013 295.687 354.887 297.189 378.346 300.304C378.346 300.304 375.582 295.459 367.593 288.63C359.464 281.682 325.658 277.968 319.447 285.773Z" fill="url(#paint38_linear_122_8217)"/>
<path d="M367.593 288.63C345.298 285.858 319.447 285.773 319.447 285.773L316.761 271.185L313.142 251.534L309.909 234.595C332.299 232.402 359.936 235.048 359.936 235.048C361.361 239.703 362.562 245.396 363.544 251.29C364.702 258.196 365.575 265.376 366.206 271.539C367.199 281.3 367.593 288.63 367.593 288.63Z" fill="url(#paint39_linear_122_8217)"/>
<path d="M352.307 259.246C354.135 266.597 349.778 272.942 342.647 273.555C335.557 274.165 328.181 268.892 326.094 261.643C323.963 254.237 328.127 247.54 335.476 246.827C342.869 246.109 350.439 251.735 352.307 259.246Z" fill="url(#paint40_linear_122_8217)"/>
<path d="M512.517 323.072C512.517 323.072 470.877 317.253 429.903 316.023C429.903 316.023 429.106 314.763 411.897 305.443L496.98 197.252L509.685 207.818C509.685 207.818 518.356 272.066 512.517 323.072Z" fill="url(#paint41_linear_122_8217)"/>
<path d="M512.517 323.072C512.517 323.072 470.877 317.253 429.903 316.023C429.903 316.023 429.106 314.763 411.897 305.443L462.751 297.658L502.081 310.834L512.517 323.072Z" fill="url(#paint42_linear_122_8217)"/>
<path d="M502.085 310.839C459.096 304.533 411.895 305.444 411.895 305.444C411.512 297.328 411.018 288.807 410.481 280.253C410.404 279.058 410.327 277.851 410.25 276.656C410.097 274.276 409.932 271.897 409.768 269.517C408.792 254.668 407.662 240.115 406.642 227.558C406.346 223.753 406.039 220.156 405.765 216.778C404.383 200.438 403.363 189.548 403.363 189.548C462.156 185.731 496.975 197.257 496.975 197.257C497.742 205.022 498.389 214.19 498.96 223.863C498.96 223.917 498.971 223.994 498.971 224.082C499.179 227.602 499.376 231.188 499.552 234.807C500.243 248.461 500.769 262.498 501.153 274.737C501.252 277.49 501.329 280.154 501.394 282.699C501.427 283.642 501.46 284.574 501.482 285.495C501.921 300.487 502.085 310.839 502.085 310.839Z" fill="url(#paint43_linear_122_8217)"/>
<path d="M501.394 282.699C467.146 276.919 428.225 276.481 410.251 276.656C410.097 274.276 409.932 271.897 409.768 269.517C408.792 254.668 407.662 240.115 406.642 227.558C406.346 223.753 406.039 220.156 405.765 216.778C420.724 216.46 459.601 216.515 498.96 223.863C498.96 223.917 498.971 223.994 498.971 224.082L501.394 282.699Z" fill="url(#paint44_linear_122_8217)"/>
<path d="M168.347 312.002C132.741 309.509 115.707 359.141 135.721 361.617C155.736 364.093 195.764 313.921 168.347 312.002Z" fill="url(#paint45_linear_122_8217)"/>
<path d="M174.007 354.586C160.676 353.653 154.299 372.235 161.792 373.162C169.285 374.089 184.272 355.305 174.007 354.586Z" fill="url(#paint46_linear_122_8217)"/>
<path d="M209.613 202.193C188.72 200.731 178.725 229.853 190.469 231.306C202.212 232.759 225.7 203.319 209.613 202.193Z" fill="url(#paint47_linear_122_8217)"/>
<path d="M166.866 222.055C159.265 221.523 155.629 232.118 159.901 232.646C164.173 233.175 172.718 222.465 166.866 222.055Z" fill="url(#paint48_linear_122_8217)"/>
<path d="M454.149 63.2558C442.599 62.4473 437.074 78.5466 443.566 79.3498C450.058 80.153 463.042 63.8783 454.149 63.2558Z" fill="url(#paint49_linear_122_8217)"/>
<path d="M504.331 46.5474C483.255 45.0721 473.173 74.4492 485.02 75.9149C496.866 77.3806 520.559 47.6834 504.331 46.5474Z" fill="url(#paint50_linear_122_8217)"/>
<path d="M408.594 154.792C400.993 154.26 397.357 164.855 401.629 165.383C405.902 165.912 414.446 155.202 408.594 154.792Z" fill="url(#paint51_linear_122_8217)"/>
<path d="M484.704 405.635L499.875 413.809L517.878 405.635L518.701 389.185L484.704 405.635Z" fill="url(#paint52_linear_122_8217)"/>
<path d="M462.862 379.264L480.728 385.478L505.266 374.375L508.922 357.331L462.862 379.264Z" fill="url(#paint53_linear_122_8217)"/>
<path d="M518.701 389.185L484.704 405.635L476.457 372.779L462.858 379.26L467.793 334.845L508.918 357.327L495.901 363.523L518.701 389.185Z" fill="url(#paint54_linear_122_8217)"/>
<path d="M312.797 552.891L309.4 563.818L308.065 568.088L300.934 591.036L298.126 600.07L297.369 602.489L281.636 653.065H222.688L239.179 595.222C239.179 595.222 238.127 575.765 239.442 567.615C239.957 564.47 241.429 559.527 243.07 554.637C245.668 546.854 248.644 539.219 248.644 539.219L288.03 547.611L312.797 552.891Z" fill="#573353"/>
<path d="M312.797 552.891L309.4 563.818L308.065 568.088L300.934 591.036L298.126 600.07L297.369 602.489L281.636 653.065H257.52L261.843 643.568C261.843 643.568 261.843 643.568 261.843 643.558L272.97 619.095V619.085L282.035 599.165C282.035 599.165 271.024 598.303 261.348 596.484H261.338C257.888 595.832 254.617 595.064 252.062 594.17C245.678 591.93 262.274 584.82 273.769 579.383C279.795 576.522 284.423 574.135 283.613 573.136C282.813 572.158 279.764 569.834 275.178 567.12C274.505 566.721 273.8 566.31 273.054 565.89H273.043C265.492 561.662 254.681 556.835 243.07 554.637C245.667 546.854 248.644 539.219 248.644 539.219L288.03 547.611L312.797 552.891Z" fill="#573353"/>
<path d="M222.688 653.065C223.819 648.175 225.09 643.326 226.286 638.455C227.537 633.599 228.8 628.747 230.103 623.907C232.686 614.219 235.385 604.564 238.128 594.922L238.087 595.28C237.875 590.466 237.722 585.668 237.756 580.85C237.78 578.442 237.823 576.033 237.96 573.617C238.034 572.408 238.1 571.2 238.246 569.987C238.371 568.787 238.557 567.536 238.819 566.348C239.363 563.955 240.052 561.649 240.812 559.36L241.984 555.945C242.377 554.811 242.813 553.664 243.259 552.564C245.056 548.116 246.786 543.644 248.644 539.219C247.243 543.809 245.713 548.354 244.25 552.922C243.873 554.074 243.494 555.18 243.162 556.331L242.164 559.771C241.538 562.07 240.903 564.377 240.474 566.679C240.262 567.84 240.135 568.971 240.052 570.157C239.959 571.329 239.906 572.516 239.862 573.701C239.778 576.074 239.785 578.46 239.812 580.845C239.869 585.614 240.014 590.402 240.27 595.163L240.28 595.346L240.229 595.521C237.475 605.16 234.677 614.787 231.764 624.38C230.318 629.18 228.832 633.969 227.335 638.754C225.782 643.523 224.305 648.314 222.688 653.065Z" fill="#573353"/>
<path d="M285.278 593.644C285.278 593.644 285.314 593.876 285.381 594.311C285.418 594.744 285.472 595.413 285.432 596.236C285.385 597.892 285.145 600.245 284.699 603.033C284.266 605.825 283.636 609.057 282.868 612.493C282.114 615.934 281.187 619.572 280.238 623.201C279.734 625.008 279.23 626.815 278.735 628.594C278.244 630.374 277.695 632.107 277.193 633.791C276.169 637.155 275.154 640.277 274.236 642.938C272.423 648.267 270.993 651.75 270.993 651.75C270.993 651.75 271.716 648.056 273.026 642.588C273.671 639.851 274.459 636.669 275.334 633.269C275.781 631.572 276.204 629.808 276.692 628.032C277.163 626.252 277.642 624.443 278.12 622.634C279.1 619.025 280.08 615.415 280.998 612.032C281.903 608.647 282.747 605.488 283.471 602.78C284.165 600.066 284.712 597.797 285 596.192C285.147 595.386 285.229 594.764 285.263 594.32C285.273 593.879 285.278 593.644 285.278 593.644Z" fill="#573353"/>
<path d="M292.64 603.46C292.64 603.46 292.507 603.626 292.257 603.938C292.01 604.253 291.654 604.715 291.112 605.239C290.589 605.779 289.946 606.448 289.178 607.142C288.42 607.858 287.559 608.662 286.588 609.495C285.629 610.344 284.584 611.257 283.45 612.184C282.325 613.124 281.14 614.116 279.882 615.1C277.397 617.109 274.68 619.162 271.961 621.213C270.586 622.217 269.211 623.22 267.857 624.208C266.511 625.206 265.142 626.128 263.84 627.051C261.223 628.879 258.748 630.54 256.602 631.928C252.322 634.723 249.345 636.413 249.345 636.413C249.345 636.413 251.89 634.125 255.86 630.91C257.839 629.293 260.173 627.444 262.697 625.494C263.964 624.527 265.255 623.501 266.599 622.505C267.936 621.498 269.295 620.476 270.653 619.454C272.022 618.447 273.392 617.44 274.739 616.449C276.094 615.467 277.427 614.501 278.717 613.566C281.312 611.717 283.734 609.991 285.81 608.512C287.887 607.037 289.635 605.814 290.807 604.929C291.411 604.5 291.872 604.125 292.17 603.858C292.477 603.598 292.64 603.46 292.64 603.46Z" fill="#573353"/>
<path d="M286.68 617.833C286.68 617.833 286.319 618.413 285.527 619.432C284.753 620.43 283.64 621.825 282.248 623.458C280.865 625.097 279.215 626.973 277.41 628.947C276.5 629.927 275.582 630.96 274.607 631.971C273.638 632.986 272.653 634.017 271.668 635.049C270.665 636.062 269.661 637.074 268.673 638.072C267.693 639.076 266.683 640.02 265.73 640.958C263.809 642.818 261.982 644.522 260.386 645.953C257.212 648.831 254.954 650.611 254.954 650.611C254.954 650.611 256.684 648.315 259.485 645.073C260.878 643.444 262.536 641.576 264.347 639.61C265.26 638.633 266.177 637.599 267.156 636.594C268.126 635.58 269.112 634.55 270.097 633.52C271.1 632.507 272.103 631.494 273.09 630.497C274.07 629.493 275.076 628.545 276.027 627.606C277.943 625.742 279.76 624.03 281.344 622.589C282.918 621.139 284.266 619.957 285.205 619.141C285.676 618.733 286.046 618.413 286.298 618.194C286.547 617.959 286.68 617.833 286.68 617.833Z" fill="#573353"/>
<path d="M275.292 565.965L246.145 565.073C246.145 565.073 243.077 586.851 242.821 589.016C242.565 591.181 251.77 597.294 255.094 597.676C258.418 598.059 269.284 593.983 271.202 591.563C273.119 589.144 275.292 565.965 275.292 565.965Z" fill="#573353"/>
<path d="M383.356 653.065H319.307L302.543 608.105C302.543 608.105 300.209 605.823 297.369 602.489C296.538 601.521 295.665 600.459 294.792 599.334C291.69 595.358 288.608 590.636 287.557 586.545C287.01 584.442 286.778 580.897 286.736 576.691C286.631 567.52 287.451 555.173 288.03 547.611C288.356 543.499 288.608 540.796 288.608 540.796C288.608 540.796 340.404 522.654 349.344 541.059C351.069 544.603 353.403 550.987 356.054 559.001C366.108 589.416 380.695 643.19 383.356 653.065Z" fill="#573353"/>
<path d="M349.344 541.059C349.344 541.059 350.249 542.657 351.527 545.604C352.794 548.553 354.525 552.803 356.375 557.981C357.296 560.579 358.294 563.371 359.284 566.364C360.287 569.352 361.34 572.503 362.365 575.78C363.403 579.054 364.473 582.437 365.511 585.889C366.54 589.344 367.585 592.854 368.629 596.364C369.633 599.886 370.636 603.407 371.624 606.874C372.611 610.341 373.523 613.769 374.424 617.081C376.216 623.708 377.818 629.912 379.142 635.244C380.486 640.569 381.496 645.036 382.246 648.151C382.974 651.272 383.356 653.065 383.356 653.065C383.356 653.065 382.802 651.319 381.834 648.263C380.892 645.201 379.544 640.827 377.928 635.579C376.358 630.318 374.527 624.181 372.565 617.605C370.637 611.022 368.581 603.999 366.525 596.977C364.481 589.953 362.438 582.928 360.523 576.343C359.555 573.055 358.619 569.877 357.731 566.863C356.828 563.852 355.974 561.005 355.186 558.377C353.574 553.135 352.22 548.768 351.132 545.76C350.59 544.256 350.164 543.072 349.844 542.276C349.518 541.482 349.344 541.059 349.344 541.059Z" fill="#573353"/>
<path d="M297.942 568.403L327.915 567.483C327.915 567.483 331.07 589.963 331.333 592.198C331.596 594.433 322.131 600.743 318.713 601.138C315.295 601.532 304.121 597.325 302.149 594.827C300.177 592.33 297.942 568.403 297.942 568.403Z" fill="#573353"/>
<path d="M330.676 620.988C332.149 623.449 340.92 640.276 347.419 653.065H319.308L302.543 608.105C302.543 608.105 300.209 605.823 297.369 602.489C296.538 601.521 295.665 600.459 294.792 599.334C295.834 599.576 296.948 599.818 298.126 600.07C314.354 603.435 341.435 606.685 348.292 610.208C351.689 611.954 350.28 613.311 347.114 614.499C341.204 616.739 329.13 618.422 330.676 620.988Z" fill="#573353"/>
<path d="M296.233 566.826C291.511 568.75 288.514 572.494 286.736 576.691C286.579 562.524 288.608 540.796 288.608 540.796C288.608 540.796 340.404 522.654 349.344 541.059C351.069 544.603 353.403 550.987 356.054 559.001C333.411 561.02 305.225 563.155 296.233 566.826Z" fill="#573353"/>
<path d="M350.834 551.576C350.834 551.576 351.677 553.065 352.572 555.43C352.801 556.02 353.041 556.662 353.262 557.351C353.487 558.039 353.732 558.765 353.931 559.53C354.365 561.052 354.743 562.706 354.985 564.408C355.101 565.259 355.19 566.122 355.192 567.007C355.188 567.456 355.201 567.883 355.109 568.364C355.065 568.604 355.062 568.811 354.98 569.07C354.892 569.334 354.794 569.594 354.691 569.843C354.283 570.596 353.659 571.273 353.125 571.784C352.58 572.323 352.006 572.741 351.475 573.113C350.409 573.853 349.451 574.33 348.77 574.634C348.087 574.936 347.679 575.064 347.679 575.064C347.679 575.064 347.988 574.776 348.528 574.271C349.064 573.769 349.815 573.043 350.655 572.158C351.065 571.707 351.502 571.216 351.912 570.684C352.328 570.127 352.666 569.615 352.967 568.973C352.985 568.851 353.01 568.735 353.045 568.622C353.078 568.502 353.065 568.3 353.079 568.143C353.112 567.825 353.073 567.436 353.065 567.063C353.018 566.307 352.935 565.507 352.813 564.708C352.717 563.908 352.568 563.1 352.444 562.303C352.31 561.503 352.179 560.716 352.052 559.954C351.784 558.428 351.547 556.992 351.361 555.752C350.974 553.277 350.834 551.576 350.834 551.576Z" fill="#573353"/>
<path d="M345.4 553.154C345.4 553.154 345.642 554.732 346.067 557.494C346.482 560.254 347.147 564.191 348.076 568.868C348.554 571.2 349.108 573.726 349.868 576.309C350.263 577.598 350.701 578.885 351.353 580.064C352.044 581.314 352.752 582.682 353.291 584.174C353.556 584.929 353.765 585.753 353.851 586.59C353.942 587.428 353.926 588.229 353.927 588.989C353.925 589.742 353.942 590.524 353.98 591.233C354.03 592.05 354.112 592.67 354.272 593.385C354.567 594.752 355.314 596.024 356.048 597.512C356.777 598.972 357.378 600.596 357.818 602.124C358.719 605.25 359.487 608.323 360.273 611.376C361.06 614.421 361.78 617.428 362.49 620.335C363.192 623.242 363.871 626.052 364.515 628.717C365.175 631.377 365.799 633.892 366.375 636.213C367.483 640.906 368.095 644.85 368.588 647.604C369.055 650.361 369.26 651.948 369.26 651.948C369.26 651.948 368.855 650.403 368.145 647.699C367.788 646.349 367.355 644.71 366.858 642.83C366.337 640.959 365.77 638.837 365.094 636.56C364.383 634.297 363.614 631.785 362.882 629.145C362.125 626.504 361.363 623.713 360.592 620.821C359.821 617.931 359.025 614.945 358.215 611.91C357.418 608.883 356.589 605.775 355.729 602.765C355.295 601.226 354.792 599.842 354.115 598.449C353.465 597.087 352.585 595.586 352.216 593.86C352.028 593.042 351.926 592.103 351.907 591.365C351.88 590.519 351.886 589.752 351.905 588.965C351.971 587.383 351.938 586.111 351.478 584.788C351.028 583.454 350.415 582.182 349.77 580.883C349.082 579.507 348.667 578.089 348.312 576.744C347.613 574.038 347.21 571.459 346.855 569.079C346.167 564.318 345.881 560.328 345.65 557.542C345.448 554.752 345.4 553.154 345.4 553.154Z" fill="#573353"/>
<path d="M312.096 606.264C312.096 606.264 312.997 606.323 314.573 606.425C315.36 606.47 316.313 606.599 317.408 606.735C318.508 606.862 319.738 607.04 321.072 607.27C322.411 607.479 323.857 607.732 325.375 608.043C326.899 608.334 328.502 608.657 330.149 609.038C333.454 609.752 336.946 610.646 340.434 611.549C342.169 612.031 343.905 612.513 345.613 612.987C347.322 613.459 348.985 613.988 350.604 614.468C353.833 615.455 356.83 616.431 359.384 617.319C364.498 619.071 367.836 620.462 367.836 620.462C367.836 620.462 364.286 619.778 359.033 618.529C356.404 617.914 353.347 617.166 350.083 616.328C348.452 615.902 346.758 615.5 345.053 615.03C343.343 614.58 341.606 614.124 339.868 613.667C332.938 611.787 326.007 609.906 320.809 608.496C319.508 608.152 318.316 607.836 317.259 607.557C316.198 607.299 315.282 607.016 314.508 606.854C312.973 606.479 312.096 606.264 312.096 606.264Z" fill="#573353"/>
<path d="M332.254 621.164C332.254 621.164 332.465 621.181 332.852 621.319C333.245 621.451 333.801 621.646 334.5 621.937C335.9 622.504 337.875 623.365 340.207 624.47C342.545 625.563 345.242 626.896 348.103 628.375C349.529 629.123 351.017 629.87 352.499 630.682C353.985 631.487 355.494 632.306 357.003 633.125C358.499 633.968 359.994 634.811 361.466 635.641C362.944 636.462 364.366 637.327 365.758 638.134C368.533 639.766 371.099 641.333 373.277 642.713C377.645 645.453 380.457 647.456 380.457 647.456C380.457 647.456 377.284 646.097 372.663 643.812C370.347 642.68 367.667 641.319 364.819 639.821C363.4 639.063 361.915 638.312 360.438 637.493C358.955 636.685 357.449 635.864 355.942 635.043C354.446 634.202 352.951 633.362 351.478 632.535C350.001 631.716 348.575 630.862 347.178 630.064C344.395 628.451 341.814 626.915 339.615 625.574C337.418 624.23 335.587 623.109 334.305 622.324C333.663 621.94 333.157 621.619 332.812 621.431C332.47 621.225 332.254 621.164 332.254 621.164Z" fill="#573353"/>
<path d="M238.305 547.369C228.483 543.867 194.828 522.476 190.274 509.329C186.646 498.844 194.271 479.892 202.043 460.278C204.02 455.304 205.997 450.287 207.806 445.355C209.131 441.747 210.498 438.435 211.908 435.385C219.995 417.821 229.292 409.313 237.948 407.672C237.948 407.672 249.001 439.16 246.288 452.98C246.067 454.136 245.741 455.167 245.31 456.05C242.954 460.825 239.042 468.744 235.276 476.338C230.06 486.844 225.159 496.709 225.159 496.709C236.37 510.034 254.775 521.256 255.658 529.143C256.531 537.031 248.118 550.871 238.305 547.369Z" fill="#BA3888"/>
<path d="M204.867 505.827C204.867 505.827 206.849 504.923 209.822 503.568C210.556 503.22 211.351 502.844 212.191 502.447C213.018 502.031 213.889 501.592 214.791 501.139C215.678 500.669 216.58 500.156 217.464 499.61C217.913 499.344 218.341 499.052 218.764 498.751L219.458 498.275C219.767 498.096 220.045 497.92 220.514 497.827C220.65 497.812 220.74 497.781 220.915 497.801C221.092 497.832 221.258 497.847 221.429 497.947C221.808 498.152 221.984 498.492 222.062 498.741C222.209 499.257 222.135 499.559 222.111 499.9C222.019 500.536 221.843 501.078 221.662 501.616C221.297 502.681 220.815 503.649 220.342 504.575C219.381 506.42 218.322 508.037 217.34 509.366C216.36 510.696 215.446 511.73 214.772 512.416C214.095 513.1 213.675 513.452 213.675 513.452C213.675 513.452 214.966 511.678 216.547 508.852C217.332 507.437 218.215 505.769 219.039 503.943C219.457 503.034 219.828 502.069 220.157 501.107C220.312 500.629 220.454 500.133 220.507 499.693C220.528 499.5 220.53 499.244 220.507 499.237C220.504 499.229 220.53 499.326 220.666 499.398C220.768 499.457 220.843 499.435 220.789 499.448C220.72 499.45 220.515 499.547 220.353 499.636L219.697 500.069C219.23 500.389 218.761 500.697 218.283 500.969C217.339 501.542 216.362 501.99 215.426 502.436C213.539 503.29 211.731 503.945 210.164 504.444C207.032 505.451 204.867 505.827 204.867 505.827Z" fill="#BA3888"/>
<path d="M216.436 520.814C216.436 520.814 216.951 520.82 217.878 520.887C218.795 520.954 220.1 521.063 221.659 521.243C223.219 521.414 225.032 521.649 226.969 521.938C228.907 522.216 230.964 522.574 233.021 522.928C235.072 523.316 237.124 523.698 239.037 524.117C240.952 524.523 242.733 524.936 244.254 525.322C247.299 526.075 249.301 526.73 249.301 526.73C249.301 526.73 247.2 526.619 244.085 526.251C242.526 526.075 240.713 525.835 238.778 525.542C237.812 525.388 236.808 525.256 235.798 525.073C234.785 524.899 233.757 524.722 232.728 524.546C230.678 524.157 228.626 523.775 226.713 523.36C224.798 522.956 223.016 522.548 221.494 522.168C219.971 521.799 218.706 521.455 217.824 521.208C216.94 520.957 216.436 520.814 216.436 520.814Z" fill="#BA3888"/>
<path d="M218.67 528.702C218.67 528.702 218.78 528.76 218.986 528.868C219.203 528.965 219.508 529.064 219.924 529.161C220.751 529.354 221.961 529.492 223.422 529.597C224.884 529.693 226.594 529.765 228.431 529.838C230.271 529.911 232.234 529.988 234.196 530.066C235.179 530.12 236.163 530.174 237.13 530.228C238.099 530.272 239.051 530.364 239.974 530.431C241.82 530.578 243.544 530.767 245.017 530.997C246.49 531.216 247.713 531.485 248.551 531.743C248.972 531.859 249.292 532.001 249.505 532.095C249.715 532.197 249.827 532.251 249.827 532.251C249.827 532.251 249.344 532.126 248.489 532.064C247.634 531.991 246.409 531.963 244.938 531.938C243.464 531.92 241.745 531.9 239.903 531.877C238.058 531.857 236.09 531.784 234.119 531.708C232.149 531.598 230.175 531.482 228.328 531.279C226.48 531.088 224.756 530.838 223.291 530.528C221.825 530.227 220.617 529.847 219.816 529.468C219.416 529.291 219.113 529.078 218.935 528.94C218.762 528.785 218.67 528.702 218.67 528.702Z" fill="#BA3888"/>
<path d="M246.288 452.979C246.067 454.136 245.741 455.167 245.31 456.05C242.954 460.825 239.042 468.744 235.277 476.338C224.728 463.454 210.698 460.636 202.043 460.278C204.02 455.304 205.997 450.287 207.806 445.355C209.131 441.747 210.499 438.434 211.908 435.385C220.889 435.774 235.645 438.813 246.288 452.979Z" fill="#BA3888"/>
<path d="M189.405 501.095C189.405 501.095 189.428 500.67 189.47 499.872C189.5 499.075 189.61 497.904 189.812 496.421C190.242 493.464 191.087 489.258 192.578 484.351C194.067 479.446 196.003 473.786 198.302 467.82C199.454 464.843 200.644 461.767 201.854 458.641C203.045 455.507 204.255 452.322 205.465 449.137C206.728 445.979 207.888 442.781 209.202 439.66C210.501 436.543 211.924 433.546 213.415 430.7C214.881 427.821 216.533 425.183 218.212 422.751C219.878 420.312 221.66 418.146 223.429 416.268C224.3 415.315 225.217 414.48 226.082 413.684C226.999 412.943 227.847 412.217 228.724 411.637C229.563 411.007 230.43 410.536 231.199 410.061C232.014 409.662 232.733 409.239 233.44 408.978C234.135 408.692 234.753 408.436 235.32 408.293C235.879 408.129 236.348 407.974 236.746 407.913C237.53 407.756 237.948 407.672 237.948 407.672C237.948 407.672 237.538 407.786 236.768 408C236.379 408.088 235.924 408.277 235.384 408.479C234.838 408.663 234.242 408.954 233.573 409.269C232.893 409.562 232.206 410.02 231.431 410.452C230.698 410.962 229.878 411.465 229.089 412.128C227.467 413.39 225.781 414.994 224.112 416.894C222.441 418.79 220.765 420.969 219.208 423.42C217.641 425.859 216.115 428.528 214.688 431.344C213.246 434.171 211.868 437.158 210.621 440.247C209.363 443.321 208.239 446.545 207 449.724C205.755 452.895 204.51 456.066 203.285 459.188C202.04 462.304 200.815 465.371 199.629 468.338C198.461 471.305 197.331 474.173 196.26 476.893C195.22 479.623 194.267 482.215 193.457 484.631C192.664 487.05 191.937 489.271 191.39 491.266C190.82 493.256 190.424 495.017 190.126 496.474C189.858 497.933 189.639 499.083 189.559 499.88C189.459 500.673 189.405 501.095 189.405 501.095Z" fill="#BA3888"/>
<path d="M225.159 496.709C225.159 496.709 225.663 497.201 226.545 498.063C227.411 498.932 228.708 500.116 230.252 501.539C231.805 502.953 233.637 504.576 235.616 506.301C237.6 508.026 239.717 509.865 241.835 511.704C242.882 512.643 243.929 513.582 244.96 514.507C245.993 515.432 246.972 516.387 247.924 517.308C249.813 519.166 251.509 520.991 252.785 522.714C253.441 523.558 253.962 524.4 254.386 525.161C254.794 525.934 255.121 526.623 255.302 527.226C255.413 527.518 255.474 527.792 255.518 528.032C255.574 528.267 255.607 528.47 255.614 528.638C255.643 528.968 255.658 529.143 255.658 529.143C255.658 529.143 255.612 528.974 255.526 528.655C255.449 528.338 255.266 527.889 255.005 527.346C254.492 526.245 253.462 524.845 252.057 523.315C250.659 521.779 248.876 520.116 246.933 518.364C244.959 516.633 242.854 514.785 240.748 512.938C238.651 511.071 236.545 509.202 234.642 507.369C232.729 505.545 231 503.778 229.585 502.202C226.747 499.048 225.159 496.709 225.159 496.709Z" fill="#BA3888"/>
<path d="M317.924 380.149C317.924 380.149 300.834 373.839 297.81 373.971C294.787 374.102 296.277 391.981 299.826 396.714C303.376 401.446 322.394 404.339 322.394 404.339L321.605 388.169L317.924 380.149Z" fill="#F2DAC9"/>
<path d="M294.871 392.705C294.854 395.723 297.04 395.88 300.818 396.076C304.595 396.273 307.801 395.955 307.721 393.706C307.641 391.456 306.597 390.053 302.568 390.157C298.538 390.261 294.882 390.688 294.871 392.705Z" fill="#F2DAC9"/>
<path d="M294.17 387.208C293.793 390.361 296.06 390.786 299.986 391.442C303.912 392.098 307.301 392.148 307.486 389.786C307.67 387.424 306.746 385.834 302.521 385.462C298.296 385.09 294.422 385.1 294.17 387.208Z" fill="#F2DAC9"/>
<path d="M294.114 380.799C293.143 383.865 295.497 384.622 299.588 385.854C303.68 387.085 307.305 387.638 307.926 385.328C308.548 383.017 307.844 381.306 303.38 380.31C298.917 379.315 294.762 378.751 294.114 380.799Z" fill="#F2DAC9"/>
<path d="M294.918 374.628C293.64 377.578 295.904 378.572 299.848 380.215C303.792 381.859 307.342 382.779 308.196 380.544C309.051 378.309 308.525 376.534 304.186 375.088C299.848 373.642 295.773 372.656 294.918 374.628Z" fill="#F2DAC9"/>
<path d="M324.497 388.826C324.497 388.826 319.37 377.389 318.056 376.469C316.741 375.548 307.144 369.764 304.91 368.318C302.675 366.872 304.384 372.13 305.961 374.102C307.539 376.074 310.431 380.018 310.431 380.018C310.431 380.018 308.328 383.436 309.511 388.169C310.694 392.901 323.577 396.319 323.577 396.319L324.497 388.826Z" fill="#F2DAC9"/>
<path d="M341.062 393.427C341.062 393.427 331.202 387.248 326.732 386.46C322.262 385.671 316.741 391.85 317.398 398.291C318.056 404.733 321.211 408.019 322.92 409.203C324.629 410.386 342.376 417.353 342.376 417.353L341.062 393.427Z" fill="#F2DAC9"/>
<path d="M327.696 405.04C328.217 394.63 333.305 390.141 342.244 390.842C351.184 391.543 399.387 419.588 405.346 423.094C411.306 426.6 412.884 445.881 405.171 449.912C397.459 453.944 379.93 450.964 367.485 445.179C355.04 439.395 326.995 419.062 327.696 405.04Z" fill="#BA3888"/>
<path d="M276.049 375.638L276.573 390.771L294.108 387.99L294.527 372.021L285.532 366.397L276.049 375.638Z" fill="url(#paint55_linear_122_8217)"/>
<path d="M295.9 378.456C291.872 376.584 283.869 368.381 283.869 368.381C283.869 368.381 270.67 357.159 275.613 350.586C280.545 344.003 293.523 346.611 293.523 346.611C293.523 346.611 296.605 352.826 299.991 359.399C301.769 360.819 303.336 361.797 305.576 362.744C307.3 363.48 305.144 364.816 303.378 365.909C303.988 367.066 304.577 368.181 305.134 369.191C305.628 370.106 306.091 370.947 306.501 371.673C307.132 372.777 307.658 373.629 308.016 374.144C310.761 378.036 299.907 380.339 295.9 378.456Z" fill="url(#paint56_linear_122_8217)"/>
<path d="M306.501 371.672C306.217 371.883 305.891 372.062 305.502 372.209C302.42 373.345 300.674 370.779 300.674 370.779C302.199 370.495 303.808 369.843 305.134 369.19C305.628 370.105 306.091 370.947 306.501 371.672Z" fill="white"/>
<path d="M296.417 356.008C296.417 356.008 295.809 354.699 294.872 354.818C293.935 354.938 294.683 355.693 294.683 355.693C294.683 355.693 291.689 356.494 291.802 358.96C291.802 358.96 293.414 357.166 296.417 356.008Z" fill="url(#paint57_linear_122_8217)"/>
<path d="M295.324 361.113C295.835 362.057 296.872 362.485 297.641 362.068C298.411 361.652 298.62 360.549 298.109 359.605C297.598 358.661 296.56 358.234 295.791 358.65C295.022 359.066 294.812 360.169 295.324 361.113Z" fill="url(#paint58_linear_122_8217)"/>
<path d="M253.007 364.272C254.245 365.283 255.498 366.277 256.767 367.288C265.406 374.155 274.133 380.725 274.133 380.725L283.634 377.471L283.221 362.614L288.899 364.107L284.759 358.601C289.975 355.81 286.418 352.445 286.418 352.445C286.418 352.445 306.806 348.234 307.312 342.926C307.792 337.848 301.19 337.836 300.586 337.836C311.475 334.592 318.496 327.943 316.423 322.74C315.774 321.14 314.263 319.679 311.747 318.508C301.036 313.495 290.034 322.068 290.034 322.068C299.138 310.427 290.955 301.734 277.344 311.687C263.733 321.64 258.052 342.973 258.052 342.973C258.052 342.973 252.636 332.699 250.214 334.923C247.793 337.147 254.298 344.891 254.298 344.891C254.298 344.891 244.03 338.739 242.639 341.588C241.215 344.437 253.898 348.709 253.898 348.709C248.459 349.35 243.378 356.435 253.007 364.272Z" fill="url(#paint59_linear_122_8217)"/>
<path d="M256.768 367.288C265.406 374.155 274.134 380.725 274.134 380.725L283.634 377.471L283.221 362.614L288.899 364.107L284.759 358.601C289.975 355.809 286.418 352.444 286.418 352.444C286.418 352.444 306.806 348.234 307.312 342.926C307.792 337.848 301.191 337.835 300.586 337.836C311.475 334.592 318.496 327.943 316.423 322.74C308.757 330.24 287.88 336.278 286.681 336.638C287.24 336.753 291.546 337.679 289.315 342.626C286.929 347.905 266.384 354.096 266.384 354.096C266.384 354.096 266.501 361.837 256.768 367.288Z" fill="url(#paint60_linear_122_8217)"/>
<path d="M293.657 319.108C294.853 318.354 296.329 317.572 298.019 316.965C298.876 316.706 299.749 316.359 300.692 316.215C301.62 316.002 302.588 315.913 303.557 315.821C304.53 315.825 305.512 315.791 306.465 315.94C307.428 316.028 308.349 316.255 309.222 316.541C310.118 316.743 310.895 317.198 311.651 317.537C312.421 317.874 313.048 318.325 313.644 318.768C314.815 319.645 315.572 320.654 315.945 321.406C316.322 322.165 316.382 322.636 316.382 322.636C316.382 322.636 316.131 322.229 315.572 321.674C315.016 321.116 314.126 320.46 312.941 319.893C312.359 319.627 311.684 319.324 310.968 319.12C310.241 318.92 309.511 318.629 308.704 318.508C308.308 318.431 307.905 318.353 307.498 318.273C307.081 318.247 306.663 318.21 306.243 318.16C305.405 318.047 304.533 318.114 303.675 318.126C301.944 318.191 300.226 318.536 298.613 318.904C297.82 319.139 297.033 319.32 296.307 319.574C295.573 319.8 294.892 320.066 294.25 320.287C291.721 321.26 290.031 322.081 290.031 322.081C290.031 322.081 291.259 320.631 293.657 319.108Z" fill="url(#paint61_linear_122_8217)"/>
<path d="M260.292 334.637C261.14 332.182 262.299 329.366 263.82 326.476C264.566 325.025 265.403 323.552 266.339 322.109C267.264 320.656 268.299 319.242 269.377 317.854C270.525 316.522 271.659 315.172 272.952 314.003C274.164 312.742 275.575 311.782 276.915 310.747C278.207 309.848 279.685 309.015 281.049 308.378C282.445 307.745 283.836 307.292 285.161 307.038C287.817 306.48 290.207 307.063 291.48 307.973C292.772 308.908 293.003 309.839 293.045 309.792C293.045 309.792 292.901 309.632 292.632 309.333C292.355 309.047 291.89 308.69 291.252 308.36C289.957 307.691 287.819 307.587 285.473 308.327C284.299 308.695 283.076 309.246 281.825 309.917C280.571 310.637 279.393 311.435 278.074 312.418C276.912 313.399 275.634 314.418 274.505 315.603C273.304 316.718 272.249 318.027 271.174 319.304C270.125 320.611 269.112 321.949 268.199 323.335C267.29 324.719 266.372 326.076 265.595 327.459C263.975 330.187 262.62 332.838 261.511 335.143C260.416 337.452 259.499 339.393 258.945 340.788C258.371 342.18 258.043 342.975 258.043 342.975C258.043 342.975 258.17 342.12 258.52 340.649C258.888 339.186 259.421 337.086 260.292 334.637Z" fill="url(#paint62_linear_122_8217)"/>
<path d="M290.012 367.038C290.012 367.038 282.599 355.81 277.434 360.527C272.27 365.244 282.68 376.028 290.012 367.038Z" fill="url(#paint63_linear_122_8217)"/>
<path d="M355.917 552.501C355.917 552.501 319.286 559.285 292.815 556.961C283.991 556.182 274.715 554.3 266.585 552.249C253.092 548.863 242.733 545.003 242.733 545.003L246.666 525.546L335.987 532.351L351.973 533.571L355.917 552.501Z" fill="#FDA758"/>
<path d="M335.987 532.351C314.059 544.393 295.654 546.139 280.72 544.182C274.315 543.341 269.793 546.969 266.585 552.249C253.092 548.863 242.733 545.003 242.733 545.003L246.666 525.546L335.987 532.351Z" fill="#FDA758"/>
<path d="M307.665 403.024L261.264 398.291C261.264 398.291 262.315 388.3 263.493 385.671C264.566 383.304 273.758 380.391 285.085 381.285C286.326 381.39 287.588 381.538 288.871 381.727C301.88 383.704 306.36 387.637 306.613 390.793C306.75 392.339 307.002 395.294 307.233 397.913C307.465 400.657 307.665 403.024 307.665 403.024Z" fill="#FDA758"/>
<path d="M307.665 403.024L261.264 398.291C261.264 398.291 262.315 388.3 263.493 385.671C264.566 383.304 273.758 380.391 285.085 381.285C285.106 383.02 284.695 385.219 284.464 387.753C283.97 393.201 296.138 393.832 307.233 397.913C307.465 400.657 307.665 403.024 307.665 403.024Z" fill="#FDA758"/>
<path d="M269.007 382.631C269.007 382.631 269.202 382.557 269.569 382.416C269.936 382.282 270.48 382.075 271.185 381.868C272.591 381.44 274.646 380.941 277.162 380.627C278.419 380.468 279.79 380.345 281.244 380.308C282.708 380.273 284.215 380.247 285.845 380.404C286.623 380.477 287.413 380.55 288.214 380.625L288.816 380.681L288.967 380.695L289.17 380.723L289.471 380.767C289.873 380.83 290.276 380.894 290.681 380.958C292.306 381.22 294.003 381.579 295.645 381.981C298.913 382.904 302.233 384.053 304.854 386.254C306.128 387.339 307.275 388.831 307.413 390.621C307.505 392.074 307.54 393.412 307.583 394.669C307.761 399.674 307.664 403.024 307.664 403.024C307.664 403.024 307.025 399.731 306.328 394.779C306.16 393.544 305.977 392.205 305.784 390.79C305.618 389.68 304.735 388.62 303.63 387.748C302.5 386.873 301.111 386.203 299.668 385.586C298.209 384.991 296.656 384.522 295.086 384.101C293.498 383.688 291.939 383.33 290.33 383.045C289.926 382.973 289.524 382.901 289.124 382.83L288.825 382.773C288.799 382.767 288.673 382.745 288.728 382.753L288.578 382.732L287.979 382.648C287.183 382.536 286.396 382.426 285.623 382.318C284.149 382.123 282.632 382.008 281.234 381.939C279.825 381.883 278.488 381.856 277.252 381.877C274.782 381.929 272.717 382.107 271.275 382.292C269.834 382.474 269.007 382.631 269.007 382.631Z" fill="#FDA758"/>
<path d="M358.125 530.942C356.548 535.685 353.634 540.186 353.634 540.186C353.634 540.186 335.934 546.139 298.073 543.509C260.212 540.88 246.54 530.016 246.54 530.016C246.54 530.016 241.629 524.579 239.525 518.973C237.422 513.368 245.141 484.267 245.141 484.267C245.141 484.267 236.991 466.504 232.7 450.981C231.648 447.174 230.828 443.514 230.418 440.275C228.314 423.795 234.098 407.493 234.098 407.493C234.098 407.493 247.939 394.168 281.772 395.052C315.605 395.925 336.46 403.991 341.54 407.146C343.391 408.293 345.032 412.994 346.441 419.188C348.902 430.031 350.637 445.439 351.531 454.473C352.173 460.983 351.825 469.48 351.289 477.084C350.658 486.087 349.764 493.859 349.953 495.657C350.311 498.991 358.367 518.795 359.072 524.758C359.293 526.609 358.851 528.796 358.125 530.942Z" fill="#FDA758"/>
<path d="M234.099 407.494C234.099 407.494 234.399 407.176 235.023 406.642C235.64 406.101 236.583 405.345 237.858 404.488C238.487 404.046 239.224 403.622 240.006 403.124C240.811 402.668 241.683 402.171 242.632 401.671C244.543 400.705 246.742 399.674 249.232 398.79C250.476 398.347 251.768 397.863 253.143 397.486C254.506 397.069 255.925 396.669 257.406 396.353C258.145 396.182 258.893 396.008 259.65 395.832C260.41 395.671 261.188 395.553 261.97 395.409C262.754 395.273 263.546 395.136 264.346 394.997C265.148 394.869 265.965 394.801 266.784 394.699C268.426 394.512 270.093 394.291 271.792 394.223C273.488 394.145 275.206 393.946 276.939 393.99C278.677 393.991 280.408 393.965 282.184 393.99C283.922 394.053 285.666 394.116 287.41 394.178C290.912 394.389 294.429 394.64 297.857 395.01C299.578 395.155 301.275 395.404 302.953 395.627C304.633 395.833 306.282 396.115 307.906 396.377C311.155 396.893 314.272 397.534 317.21 398.214C320.152 398.873 322.904 399.628 325.424 400.382C327.948 401.126 330.224 401.932 332.224 402.684C333.215 403.081 334.144 403.453 335.002 403.796C335.847 404.171 336.623 404.516 337.324 404.827C338.716 405.471 339.766 406.068 340.478 406.474C341.171 406.913 341.54 407.146 341.54 407.146C341.54 407.146 341.151 406.949 340.422 406.579C339.68 406.235 338.575 405.774 337.157 405.22C336.441 404.961 335.649 404.674 334.786 404.363C333.913 404.083 332.968 403.78 331.959 403.456C329.925 402.857 327.622 402.223 325.092 401.597C322.559 400.983 319.803 400.376 316.871 399.816C315.404 399.542 313.901 399.245 312.35 399.016C310.802 398.774 309.228 398.488 307.612 398.285C304.392 397.808 301.045 397.457 297.645 397.117C294.239 396.774 290.79 396.558 287.323 396.368C285.579 396.293 283.836 396.218 282.099 396.143C280.4 396.107 278.667 396.119 276.969 396.105L275.695 396.099L274.429 396.156C273.586 396.189 272.748 396.223 271.914 396.256C270.244 396.285 268.608 396.467 266.994 396.614C266.188 396.696 265.384 396.744 264.597 396.853C263.809 396.965 263.029 397.076 262.258 397.186C261.487 397.299 260.719 397.386 259.968 397.517C259.221 397.662 258.482 397.805 257.753 397.947C257.026 398.096 256.301 398.211 255.6 398.382C254.9 398.555 254.21 398.726 253.532 398.894C252.164 399.195 250.878 399.604 249.635 399.977C247.154 400.738 244.93 401.59 242.98 402.405C242.014 402.83 241.122 403.258 240.296 403.652C239.493 404.088 238.733 404.456 238.083 404.848C236.774 405.618 235.753 406.248 235.097 406.735C234.429 407.205 234.099 407.494 234.099 407.494Z" fill="#FDA758"/>
<path d="M351.289 477.084C327.416 458.343 314.154 432.177 329.361 413.278L346.441 419.188C348.902 430.031 350.637 445.439 351.531 454.473C352.173 460.983 351.826 469.481 351.289 477.084Z" fill="#FDA758"/>
<path d="M358.125 530.942C356.548 535.685 353.634 540.186 353.634 540.186C353.634 540.186 335.934 546.139 298.073 543.51C260.212 540.88 246.54 530.016 246.54 530.016C246.54 530.016 241.629 524.579 239.525 518.973C237.422 513.368 245.141 484.267 245.141 484.267C245.141 484.267 236.991 466.504 232.7 450.981C252.787 469.27 296.064 479.461 320.685 478.746C356.968 477.694 343.822 491.629 301.228 496.099C260.475 500.379 290.722 541.238 358.125 530.942Z" fill="#FDA758"/>
<path d="M275.292 404.338C275.292 404.338 275.04 404.813 274.699 405.757C274.346 406.694 273.912 408.1 273.482 409.915C273.027 411.724 272.664 413.965 272.361 416.54C272.212 417.828 272.141 419.21 272.027 420.658C272.005 422.114 271.893 423.639 271.91 425.235C271.923 428.426 272.061 431.881 272.41 435.52C272.599 437.339 272.745 439.21 273.058 441.107C273.351 443.005 273.56 444.955 273.96 446.913C274.347 448.871 274.622 450.881 275.116 452.878C275.571 454.901 276.029 456.867 276.471 459C276.891 461.067 277.314 463.149 277.739 465.24C278.014 467.395 278.317 469.558 278.565 471.723C278.647 473.893 278.844 476.06 278.821 478.222C278.756 480.383 278.793 482.542 278.555 484.664C278.459 485.726 278.39 486.788 278.274 487.837C278.129 488.881 277.984 489.92 277.841 490.952C277.563 493.018 277.175 495.029 276.849 497.014C276.154 500.971 275.48 504.764 275.132 508.384C275.008 509.288 275.029 510.181 274.971 511.061C274.949 511.941 274.853 512.811 274.891 513.662C274.923 514.514 274.954 515.352 274.984 516.175C275.005 516.999 275.035 517.808 275.173 518.59C275.28 519.375 275.385 520.145 275.487 520.897C275.586 521.65 275.674 522.389 275.865 523.089C276.192 524.504 276.502 525.845 276.793 527.106C277.164 528.347 277.577 529.491 277.924 530.561C278.304 531.618 278.551 532.632 278.958 533.475C280.414 536.926 281.246 538.898 281.246 538.898C281.246 538.898 280.271 536.987 278.565 533.642C278.107 532.816 277.801 531.816 277.356 530.772C276.944 529.715 276.461 528.583 276.013 527.348C275.643 526.084 275.249 524.739 274.834 523.321C274.594 522.618 274.479 521.867 274.344 521.101C274.207 520.334 274.067 519.55 273.924 518.749C273.75 517.951 273.683 517.123 273.627 516.277C273.56 515.432 273.492 514.57 273.423 513.694C273.344 512.816 273.422 511.924 273.416 511.017C273.447 510.112 273.402 509.183 273.499 508.259C273.745 504.537 274.303 500.659 274.944 496.697C275.541 492.735 276.188 488.659 276.443 484.505C276.665 482.431 276.612 480.333 276.665 478.23C276.676 476.127 276.465 474.02 276.381 471.911C276.129 469.824 275.877 467.738 275.627 465.66C275.214 463.567 274.804 461.483 274.397 459.415C273.967 457.353 273.542 455.307 273.121 453.285C272.658 451.259 272.414 449.213 272.059 447.225C271.696 445.238 271.499 443.257 271.271 441.325C271.013 439.398 270.92 437.492 270.783 435.645C270.524 431.948 270.532 428.436 270.656 425.205C270.712 423.589 270.871 422.043 270.98 420.575C271.179 419.112 271.331 417.723 271.557 416.428C272.012 413.841 272.508 411.604 273.072 409.804C273.597 407.995 274.173 406.626 274.59 405.711C275.004 404.793 275.292 404.338 275.292 404.338Z" fill="#FDA758"/>
<path d="M252.587 477.799C252.587 477.799 252.916 477.918 253.531 478.141C254.149 478.352 255.056 478.661 256.209 479.055C257.372 479.424 258.77 479.904 260.4 480.373C262.021 480.873 263.869 481.369 265.871 481.946C267.883 482.49 270.066 483.065 272.38 483.646C274.701 484.205 277.144 484.799 279.69 485.34C280.962 485.61 282.247 485.925 283.563 486.171C284.877 486.425 286.207 486.683 287.548 486.943C290.22 487.512 292.972 487.886 295.703 488.371C298.44 488.823 301.193 489.179 303.894 489.582C306.607 489.904 309.278 490.221 311.862 490.529C314.454 490.769 316.961 491.001 319.337 491.221C320.526 491.345 321.684 491.431 322.806 491.488C323.928 491.561 325.011 491.632 326.052 491.699C328.134 491.806 330.043 492.021 331.738 492.055C333.435 492.121 334.914 492.178 336.131 492.225C338.569 492.328 339.966 492.418 339.966 492.418C339.966 492.418 338.575 492.523 336.135 492.652C334.915 492.713 333.432 492.787 331.731 492.871C330.029 492.993 328.109 492.95 326.012 492.958C323.916 492.932 321.638 493.017 319.24 492.855C316.84 492.733 314.303 492.653 311.687 492.452C309.076 492.199 306.37 491.999 303.632 491.683C300.903 491.301 298.122 490.971 295.356 490.536C292.603 490.021 289.83 489.617 287.138 489.019C284.436 488.47 281.79 487.873 279.248 487.215C276.692 486.618 274.26 485.886 271.949 485.219C269.641 484.543 267.483 483.822 265.498 483.143C263.515 482.452 261.711 481.787 260.133 481.14C258.543 480.527 257.184 479.922 256.057 479.451C253.821 478.456 252.587 477.799 252.587 477.799Z" fill="#FDA758"/>
<path d="M259.054 488.211C259.054 488.211 260.244 488.692 262.328 489.533C264.399 490.398 267.403 491.526 270.984 492.912C272.782 493.586 274.73 494.316 276.79 495.089C278.847 495.866 281.036 496.63 283.292 497.44C285.537 498.28 287.907 499.003 290.276 499.847C292.66 500.65 295.098 501.413 297.531 502.188C299.979 502.909 302.41 503.7 304.834 504.358C307.268 504.974 309.624 505.751 311.958 506.275C313.12 506.56 314.262 506.84 315.381 507.114C316.495 507.41 317.592 507.668 318.668 507.878C320.818 508.302 322.837 508.807 324.722 509.141C326.611 509.452 328.34 509.771 329.876 510.056C331.411 510.341 332.767 510.444 333.877 510.604C336.102 510.891 337.378 511.086 337.378 511.086C337.378 511.086 336.096 511.085 333.845 511.029C332.722 510.977 331.346 511.004 329.784 510.868C328.222 510.736 326.456 510.586 324.531 510.386C322.607 510.186 320.545 509.821 318.354 509.485C316.155 509.18 313.883 508.634 311.513 508.154C310.326 507.92 309.132 507.635 307.927 507.326C306.722 507.021 305.502 506.712 304.272 506.4C301.817 505.758 299.358 504.99 296.88 504.281C294.433 503.475 291.983 502.681 289.589 501.848C287.205 500.989 284.858 500.144 282.619 499.245C280.366 498.38 278.213 497.484 276.185 496.604C274.142 495.758 272.249 494.868 270.496 494.067C266.994 492.446 264.144 490.954 262.149 489.918C261.149 489.406 260.383 488.959 259.857 488.667C259.333 488.37 259.054 488.211 259.054 488.211Z" fill="#FDA758"/>
<path d="M400.267 455.525C397.143 456.051 385.953 456.65 373.196 456.282C364.414 456.029 354.886 455.314 346.725 453.821C339.426 452.464 333.231 450.487 329.624 447.637C316.131 436.941 320.338 405.211 337.512 407.841C337.512 407.841 344.043 409.46 353.151 411.995C358.967 413.604 365.824 415.592 372.702 417.758C389.76 423.101 406.956 429.579 408.68 434.312C412.182 443.956 407.45 454.294 400.267 455.525Z" fill="#BA3888"/>
<path d="M373.196 456.282C364.414 456.029 354.886 455.314 346.725 453.821C339.258 442.999 335.693 425.036 353.151 411.995C358.967 413.604 365.824 415.592 372.702 417.758C360.87 434.743 366.518 448.121 373.196 456.282Z" fill="#BA3888"/>
<path d="M337.512 407.841C337.512 407.841 338.49 408.026 340.192 408.388C341.89 408.766 344.327 409.26 347.231 409.936C348.682 410.276 350.254 410.644 351.917 411.034C353.578 411.41 355.349 411.923 357.127 412.414C360.719 413.4 364.534 414.512 368.35 415.618C370.256 416.198 372.148 416.735 374.036 417.346C375.902 417.937 377.725 418.575 379.488 419.184C383.012 420.414 386.272 421.652 389.032 422.797C391.8 423.923 394.05 424.997 395.625 425.741C396.412 426.115 397.017 426.436 397.431 426.652C397.844 426.868 398.065 426.983 398.065 426.983C398.065 426.983 397.132 426.639 395.5 426.036C393.873 425.423 391.521 424.631 388.702 423.682C385.879 422.741 382.578 421.675 379.032 420.559C377.256 420.008 375.422 419.439 373.558 418.861C371.72 418.284 369.782 417.756 367.883 417.195C364.077 416.055 360.27 414.919 356.717 413.799C354.916 413.261 353.256 412.673 351.605 412.217C349.968 411.73 348.42 411.27 346.992 410.845C344.135 409.991 341.773 409.21 340.111 408.696C338.453 408.165 337.512 407.841 337.512 407.841Z" fill="#BA3888"/>
<path d="M331.026 443.251C331.026 443.251 331.291 443.228 331.787 443.183C332.285 443.152 333.012 443.056 333.931 442.947C335.766 442.752 338.397 442.363 341.55 441.966C344.705 441.572 348.387 441.113 352.332 440.622C356.277 440.14 360.492 439.674 364.705 439.198C368.922 438.757 373.138 438.302 377.096 437.932C381.054 437.549 384.751 437.222 387.923 436.97C391.094 436.704 393.744 436.553 395.595 436.413C397.45 436.303 398.51 436.24 398.51 436.24C398.51 436.24 397.465 436.434 395.632 436.731C393.796 437.012 391.18 437.46 388.029 437.909C384.88 438.372 381.202 438.874 377.257 439.371C375.283 439.611 373.247 439.888 371.171 440.116C369.097 440.352 366.99 440.593 364.883 440.833C360.664 441.274 356.445 441.715 352.482 442.059C348.52 442.414 344.818 442.705 341.64 442.902C338.461 443.115 335.812 443.209 333.945 443.265C333.014 443.305 332.286 443.292 331.789 443.272C331.291 443.258 331.026 443.251 331.026 443.251Z" fill="#BA3888"/>
<path d="M344.699 446.757C344.699 446.757 344.9 446.727 345.278 446.67C345.658 446.629 346.223 446.571 346.966 446.522C348.422 446.443 350.487 446.298 352.972 446.22C355.455 446.131 358.352 446.07 361.455 446.045C364.559 446.01 367.868 446.038 371.177 446.064C374.486 446.125 377.795 446.183 380.896 446.298C383.997 446.401 386.891 446.533 389.37 446.678C391.85 446.809 393.916 446.992 395.362 447.086C396.808 447.196 397.634 447.283 397.634 447.283C397.634 447.283 396.806 447.342 395.357 447.406C393.908 447.453 391.838 447.569 389.356 447.622C386.873 447.69 383.977 447.735 380.875 447.746C377.772 447.771 374.464 447.735 371.155 447.708C367.848 447.647 364.54 447.594 361.439 447.489C358.339 447.397 355.446 447.283 352.966 447.16C350.487 447.028 348.422 446.918 346.977 446.84C346.257 446.803 345.691 446.774 345.305 446.754C344.91 446.756 344.699 446.757 344.699 446.757Z" fill="#BA3888"/>
<defs>
<linearGradient id="paint0_linear_122_8217" x1="225.911" y1="-1.52466" x2="166.691" y2="144.698" gradientUnits="userSpaceOnUse">
<stop stop-color="#2AAABB"/>
<stop offset="1" stop-color="#1F93A1"/>
</linearGradient>
<linearGradient id="paint1_linear_122_8217" x1="232.613" y1="1.18955" x2="173.393" y2="147.412" gradientUnits="userSpaceOnUse">
<stop stop-color="#2AAABB"/>
<stop offset="1" stop-color="#1F93A1"/>
</linearGradient>
<linearGradient id="paint2_linear_122_8217" x1="311.855" y1="33.2828" x2="252.635" y2="179.505" gradientUnits="userSpaceOnUse">
<stop stop-color="#2AAABB"/>
<stop offset="1" stop-color="#1F93A1"/>
</linearGradient>
<linearGradient id="paint3_linear_122_8217" x1="401.981" y1="69.7839" x2="342.761" y2="216.006" gradientUnits="userSpaceOnUse">
<stop stop-color="#2AAABB"/>
<stop offset="1" stop-color="#1F93A1"/>
</linearGradient>
<linearGradient id="paint4_linear_122_8217" x1="210.222" y1="271.251" x2="181.709" y2="287.701" gradientUnits="userSpaceOnUse">
<stop stop-color="#E6BAC1"/>
<stop offset="1" stop-color="#D67E8B"/>
</linearGradient>
<linearGradient id="paint5_linear_122_8217" x1="174.464" y1="250.245" x2="169.346" y2="320.797" gradientUnits="userSpaceOnUse">
<stop stop-color="#E6BAC1"/>
<stop offset="1" stop-color="#D67E8B"/>
</linearGradient>
<linearGradient id="paint6_linear_122_8217" x1="533.939" y1="283.235" x2="562.086" y2="286.16" gradientUnits="userSpaceOnUse">
<stop stop-color="#E6BAC1"/>
<stop offset="1" stop-color="#D67E8B"/>
</linearGradient>
<linearGradient id="paint7_linear_122_8217" x1="546.231" y1="269.338" x2="559.391" y2="331.117" gradientUnits="userSpaceOnUse">
<stop stop-color="#E6BAC1"/>
<stop offset="1" stop-color="#D67E8B"/>
</linearGradient>
<linearGradient id="paint8_linear_122_8217" x1="496.022" y1="182.183" x2="529.662" y2="148.543" gradientUnits="userSpaceOnUse">
<stop stop-color="#E6BAC1"/>
<stop offset="1" stop-color="#D67E8B"/>
</linearGradient>
<linearGradient id="paint9_linear_122_8217" x1="515.602" y1="101.259" x2="515.602" y2="197.765" gradientUnits="userSpaceOnUse">
<stop stop-color="#E6BAC1"/>
<stop offset="1" stop-color="#D67E8B"/>
</linearGradient>
<linearGradient id="paint10_linear_122_8217" x1="161.805" y1="117.218" x2="125.98" y2="157.795" gradientUnits="userSpaceOnUse">
<stop stop-color="#E6BAC1"/>
<stop offset="1" stop-color="#D67E8B"/>
</linearGradient>
<linearGradient id="paint11_linear_122_8217" x1="125.671" y1="115.603" x2="110.318" y2="193.101" gradientUnits="userSpaceOnUse">
<stop stop-color="#E6BAC1"/>
<stop offset="1" stop-color="#D67E8B"/>
</linearGradient>
<linearGradient id="paint12_linear_122_8217" x1="129.165" y1="413.164" x2="134.857" y2="413.164" gradientUnits="userSpaceOnUse">
<stop stop-color="#2AAABB"/>
<stop offset="1" stop-color="#1F93A1"/>
</linearGradient>
<linearGradient id="paint13_linear_122_8217" x1="160.448" y1="430.533" x2="170.102" y2="430.533" gradientUnits="userSpaceOnUse">
<stop stop-color="#2AAABB"/>
<stop offset="1" stop-color="#1F93A1"/>
</linearGradient>
<linearGradient id="paint14_linear_122_8217" x1="385.356" y1="344.521" x2="395.01" y2="344.521" gradientUnits="userSpaceOnUse">
<stop stop-color="#2AAABB"/>
<stop offset="1" stop-color="#1F93A1"/>
</linearGradient>
<linearGradient id="paint15_linear_122_8217" x1="120.512" y1="62.7521" x2="130.531" y2="56.8227" gradientUnits="userSpaceOnUse">
<stop stop-color="#2AAABB"/>
<stop offset="1" stop-color="#1F93A1"/>
</linearGradient>
<linearGradient id="paint16_linear_122_8217" x1="150.621" y1="72.2844" x2="156.889" y2="68.575" gradientUnits="userSpaceOnUse">
<stop stop-color="#2AAABB"/>
<stop offset="1" stop-color="#1F93A1"/>
</linearGradient>
<linearGradient id="paint17_linear_122_8217" x1="125.051" y1="97.6195" x2="130.492" y2="94.3994" gradientUnits="userSpaceOnUse">
<stop stop-color="#2AAABB"/>
<stop offset="1" stop-color="#1F93A1"/>
</linearGradient>
<linearGradient id="paint18_linear_122_8217" x1="553.642" y1="208.644" x2="563.766" y2="202.652" gradientUnits="userSpaceOnUse">
<stop stop-color="#2AAABB"/>
<stop offset="1" stop-color="#1F93A1"/>
</linearGradient>
<linearGradient id="paint19_linear_122_8217" x1="585.039" y1="242.454" x2="589.938" y2="239.555" gradientUnits="userSpaceOnUse">
<stop stop-color="#2AAABB"/>
<stop offset="1" stop-color="#1F93A1"/>
</linearGradient>
<linearGradient id="paint20_linear_122_8217" x1="252.754" y1="98.4373" x2="249.464" y2="219.619" gradientUnits="userSpaceOnUse">
<stop stop-color="#FCF2D3"/>
<stop offset="1" stop-color="#ECBF8F"/>
</linearGradient>
<linearGradient id="paint21_linear_122_8217" x1="212.276" y1="134.89" x2="222.42" y2="188.352" gradientUnits="userSpaceOnUse">
<stop stop-color="#DDCE9F"/>
<stop offset="1" stop-color="#CE9B66"/>
</linearGradient>
<linearGradient id="paint22_linear_122_8217" x1="155.461" y1="128.584" x2="251.42" y2="128.584" gradientUnits="userSpaceOnUse">
<stop stop-color="#D26F83"/>
<stop offset="1" stop-color="#CC3A60"/>
</linearGradient>
<linearGradient id="paint23_linear_122_8217" x1="208.667" y1="109.085" x2="188.653" y2="181.465" gradientUnits="userSpaceOnUse">
<stop stop-color="#F9E480"/>
<stop offset="1" stop-color="#E39E35"/>
</linearGradient>
<linearGradient id="paint24_linear_122_8217" x1="216.251" y1="84.2739" x2="181.432" y2="187.909" gradientUnits="userSpaceOnUse">
<stop stop-color="white"/>
<stop offset="1" stop-color="#F4DCC1"/>
</linearGradient>
<linearGradient id="paint25_linear_122_8217" x1="338.55" y1="177.527" x2="341.017" y2="220.571" gradientUnits="userSpaceOnUse">
<stop stop-color="#DDCE9F"/>
<stop offset="1" stop-color="#CE9B66"/>
</linearGradient>
<linearGradient id="paint26_linear_122_8217" x1="276.735" y1="152.716" x2="381.101" y2="152.716" gradientUnits="userSpaceOnUse">
<stop stop-color="#2C406B"/>
<stop offset="1" stop-color="#242250"/>
</linearGradient>
<linearGradient id="paint27_linear_122_8217" x1="350.601" y1="119.377" x2="265.61" y2="250.429" gradientUnits="userSpaceOnUse">
<stop stop-color="#453E8F"/>
<stop offset="1" stop-color="#323478"/>
</linearGradient>
<linearGradient id="paint28_linear_122_8217" x1="447.518" y1="114.438" x2="434.632" y2="194.495" gradientUnits="userSpaceOnUse">
<stop stop-color="#FCF2D3"/>
<stop offset="1" stop-color="#ECBF8F"/>
</linearGradient>
<linearGradient id="paint29_linear_122_8217" x1="446.652" y1="129.705" x2="438.975" y2="163.153" gradientUnits="userSpaceOnUse">
<stop stop-color="#DDCE9F"/>
<stop offset="1" stop-color="#CE9B66"/>
</linearGradient>
<linearGradient id="paint30_linear_122_8217" x1="402.902" y1="117.755" x2="460.335" y2="117.755" gradientUnits="userSpaceOnUse">
<stop stop-color="#2AAABB"/>
<stop offset="1" stop-color="#1F93A1"/>
</linearGradient>
<linearGradient id="paint31_linear_122_8217" x1="442.657" y1="82.5423" x2="409.483" y2="145.052" gradientUnits="userSpaceOnUse">
<stop stop-color="#F9E480"/>
<stop offset="1" stop-color="#E39E35"/>
</linearGradient>
<linearGradient id="paint32_linear_122_8217" x1="456.549" y1="89.9149" x2="423.375" y2="152.425" gradientUnits="userSpaceOnUse">
<stop stop-color="#F9E480"/>
<stop offset="1" stop-color="#E39E35"/>
</linearGradient>
<linearGradient id="paint33_linear_122_8217" x1="295.712" y1="258.205" x2="292.148" y2="322.908" gradientUnits="userSpaceOnUse">
<stop stop-color="#FCF2D3"/>
<stop offset="1" stop-color="#ECBF8F"/>
</linearGradient>
<linearGradient id="paint34_linear_122_8217" x1="266.92" y1="270.821" x2="272.677" y2="318.526" gradientUnits="userSpaceOnUse">
<stop stop-color="#DDCE9F"/>
<stop offset="1" stop-color="#CE9B66"/>
</linearGradient>
<linearGradient id="paint35_linear_122_8217" x1="219.622" y1="262.853" x2="294.744" y2="262.853" gradientUnits="userSpaceOnUse">
<stop stop-color="#2AAABB"/>
<stop offset="1" stop-color="#1F93A1"/>
</linearGradient>
<linearGradient id="paint36_linear_122_8217" x1="270.68" y1="221.878" x2="241.435" y2="308.149" gradientUnits="userSpaceOnUse">
<stop stop-color="#F9E480"/>
<stop offset="1" stop-color="#E39E35"/>
</linearGradient>
<linearGradient id="paint37_linear_122_8217" x1="371.826" y1="235.757" x2="366.891" y2="294.428" gradientUnits="userSpaceOnUse">
<stop stop-color="#FCF2D3"/>
<stop offset="1" stop-color="#ECBF8F"/>
</linearGradient>
<linearGradient id="paint38_linear_122_8217" x1="345.7" y1="255.552" x2="348.716" y2="290.919" gradientUnits="userSpaceOnUse">
<stop stop-color="#DDCE9F"/>
<stop offset="1" stop-color="#CE9B66"/>
</linearGradient>
<linearGradient id="paint39_linear_122_8217" x1="360.678" y1="220.147" x2="323.756" y2="289.968" gradientUnits="userSpaceOnUse">
<stop stop-color="#F9E480"/>
<stop offset="1" stop-color="#E39E35"/>
</linearGradient>
<linearGradient id="paint40_linear_122_8217" x1="360.381" y1="219.991" x2="323.46" y2="289.812" gradientUnits="userSpaceOnUse">
<stop stop-color="white"/>
<stop offset="1" stop-color="#F4DCC1"/>
</linearGradient>
<linearGradient id="paint41_linear_122_8217" x1="482.229" y1="207.217" x2="460.844" y2="321.545" gradientUnits="userSpaceOnUse">
<stop stop-color="#FCF2D3"/>
<stop offset="1" stop-color="#ECBF8F"/>
</linearGradient>
<linearGradient id="paint42_linear_122_8217" x1="462.433" y1="277.527" x2="462.159" y2="322.216" gradientUnits="userSpaceOnUse">
<stop stop-color="#DDCE9F"/>
<stop offset="1" stop-color="#CE9B66"/>
</linearGradient>
<linearGradient id="paint43_linear_122_8217" x1="403.363" y1="249.806" x2="502.085" y2="249.806" gradientUnits="userSpaceOnUse">
<stop stop-color="#683A75"/>
<stop offset="1" stop-color="#3F2A63"/>
</linearGradient>
<linearGradient id="paint44_linear_122_8217" x1="505.965" y1="185.287" x2="440.896" y2="265.343" gradientUnits="userSpaceOnUse">
<stop stop-color="#A77AAE"/>
<stop offset="1" stop-color="#7E60A4"/>
</linearGradient>
<linearGradient id="paint45_linear_122_8217" x1="174.937" y1="340.087" x2="129.321" y2="333.508" gradientUnits="userSpaceOnUse">
<stop stop-color="#F9E480"/>
<stop offset="1" stop-color="#E39E35"/>
</linearGradient>
<linearGradient id="paint46_linear_122_8217" x1="176.474" y1="365.101" x2="159.396" y2="362.638" gradientUnits="userSpaceOnUse">
<stop stop-color="#F9E480"/>
<stop offset="1" stop-color="#E39E35"/>
</linearGradient>
<linearGradient id="paint47_linear_122_8217" x1="213.479" y1="218.672" x2="186.713" y2="214.812" gradientUnits="userSpaceOnUse">
<stop stop-color="#F9E480"/>
<stop offset="1" stop-color="#E39E35"/>
</linearGradient>
<linearGradient id="paint48_linear_122_8217" x1="168.272" y1="228.05" x2="158.535" y2="226.646" gradientUnits="userSpaceOnUse">
<stop stop-color="#F9E480"/>
<stop offset="1" stop-color="#E39E35"/>
</linearGradient>
<linearGradient id="paint49_linear_122_8217" x1="456.287" y1="72.3659" x2="441.49" y2="70.2317" gradientUnits="userSpaceOnUse">
<stop stop-color="#F9E480"/>
<stop offset="1" stop-color="#E39E35"/>
</linearGradient>
<linearGradient id="paint50_linear_122_8217" x1="508.232" y1="63.1711" x2="481.231" y2="59.2768" gradientUnits="userSpaceOnUse">
<stop stop-color="#F9E480"/>
<stop offset="1" stop-color="#E39E35"/>
</linearGradient>
<linearGradient id="paint51_linear_122_8217" x1="410" y1="160.787" x2="400.263" y2="159.383" gradientUnits="userSpaceOnUse">
<stop stop-color="#F9E480"/>
<stop offset="1" stop-color="#E39E35"/>
</linearGradient>
<linearGradient id="paint52_linear_122_8217" x1="522.805" y1="320.536" x2="506.355" y2="385.605" gradientUnits="userSpaceOnUse">
<stop stop-color="#FDA758"/>
<stop offset="1" stop-color="#D07F30"/>
</linearGradient>
<linearGradient id="paint53_linear_122_8217" x1="499.766" y1="314.711" x2="483.316" y2="379.78" gradientUnits="userSpaceOnUse">
<stop stop-color="#FDA758"/>
<stop offset="1" stop-color="#D07F30"/>
</linearGradient>
<linearGradient id="paint54_linear_122_8217" x1="498.197" y1="349.321" x2="474.892" y2="409.09" gradientUnits="userSpaceOnUse">
<stop stop-color="#FDA758"/>
<stop offset="1" stop-color="#E39E35"/>
</linearGradient>
<linearGradient id="paint55_linear_122_8217" x1="272.92" y1="390.602" x2="292.562" y2="375.018" gradientUnits="userSpaceOnUse">
<stop stop-color="#F2DAC9"/>
<stop offset="1" stop-color="#D67F79"/>
</linearGradient>
<linearGradient id="paint56_linear_122_8217" x1="294.46" y1="358.855" x2="282.497" y2="380.021" gradientUnits="userSpaceOnUse">
<stop stop-color="#F2DAC9"/>
<stop offset="1" stop-color="#D67F79"/>
</linearGradient>
<linearGradient id="paint57_linear_122_8217" x1="304.959" y1="328.089" x2="289.01" y2="370.837" gradientUnits="userSpaceOnUse">
<stop stop-color="#2C406B"/>
<stop offset="1" stop-color="#242250"/>
</linearGradient>
<linearGradient id="paint58_linear_122_8217" x1="308.292" y1="329.333" x2="292.343" y2="372.081" gradientUnits="userSpaceOnUse">
<stop stop-color="#2C406B"/>
<stop offset="1" stop-color="#242250"/>
</linearGradient>
<linearGradient id="paint59_linear_122_8217" x1="276.136" y1="331.169" x2="300.444" y2="368.37" gradientUnits="userSpaceOnUse">
<stop stop-color="#2C406B"/>
<stop offset="1" stop-color="#242250"/>
</linearGradient>
<linearGradient id="paint60_linear_122_8217" x1="255.668" y1="323.047" x2="294.495" y2="351.165" gradientUnits="userSpaceOnUse">
<stop stop-color="#293960"/>
<stop offset="1" stop-color="#1D1B44"/>
</linearGradient>
<linearGradient id="paint61_linear_122_8217" x1="287.279" y1="306.614" x2="311.012" y2="329.062" gradientUnits="userSpaceOnUse">
<stop stop-color="#6C80B1"/>
<stop offset="1" stop-color="#616097"/>
</linearGradient>
<linearGradient id="paint62_linear_122_8217" x1="271.97" y1="322.799" x2="295.703" y2="345.248" gradientUnits="userSpaceOnUse">
<stop stop-color="#6C80B1"/>
<stop offset="1" stop-color="#616097"/>
</linearGradient>
<linearGradient id="paint63_linear_122_8217" x1="292.821" y1="352.474" x2="270.518" y2="380.092" gradientUnits="userSpaceOnUse">
<stop stop-color="#F2DAC9"/>
<stop offset="1" stop-color="#D67F79"/>
</linearGradient>
</defs>
</svg>
