<svg width="645" height="737" viewBox="0 0 645 737" fill="none" xmlns="http://www.w3.org/2000/svg">
<g clip-path="url(#clip0_122_1643)">
<path d="M584.986 106.056C596.03 107.524 629.161 158.156 627.689 163.293C626.216 168.429 425.218 39.2808 381.043 14.3317C381.043 14.3317 406.812 20.2021 426.691 29.7414C446.57 39.2808 434.79 21.6697 453.564 19.1014C472.339 16.5331 477.492 36.3456 477.492 36.3456C477.492 36.3456 481.91 27.1731 489.273 27.9069C496.635 28.6407 497.739 39.2808 497.739 39.2808C497.739 39.2808 506.801 -5.38646 542.283 1.1233C616.277 14.6986 584.986 106.056 584.986 106.056Z" fill="#EFE6D9"/>
<path d="M623.821 314.734C623.821 314.734 630.631 318.128 629.658 326.854C629.658 326.854 645.71 336.549 644.737 340.912C643.764 345.275 541.133 273.528 534.81 268.68C528.486 263.832 567.885 278.86 567.885 278.86C567.885 278.86 558.157 262.378 583.45 256.561C608.743 250.743 636.468 281.769 623.821 314.734Z" fill="#EFE6D9"/>
<path d="M23.0842 647.787C42.8885 665.609 285.058 742.029 398.156 736.307C511.255 730.572 597.504 661.16 578.345 647.143C559.172 633.14 508.687 628.678 555.341 615.305C601.981 601.932 657.576 578.375 617.322 551.628C577.068 524.868 488.882 495.576 488.882 495.576C488.882 495.576 492.082 483.476 490.16 475.838C488.251 468.2 446.235 449.949 335.53 452.281C244.804 454.183 136.814 476.481 140.646 486.665C144.478 496.849 182.823 504.5 166.205 510.865C149.601 517.23 17.9617 554.174 25.6387 565.631C31.662 574.636 79.9292 593.088 100.312 600.578C95.2295 597.523 88.0365 592.699 90.8061 591.426C94.8396 589.564 101.602 597.027 101.979 597.456C101.602 596.746 90.6044 575.855 97.2059 578.053C103.915 580.277 109.347 603.848 109.347 603.848C109.347 603.848 3.26644 629.951 23.0842 647.787Z" fill="#FDA758"/>
<path opacity="0.3" d="M532.334 545.094C575.415 547.354 594.633 558.467 572.589 560.855C550.545 563.244 591.758 571.363 540.002 575.184C488.246 579.005 481.536 569.93 498.309 568.02C515.082 566.109 438.406 567.542 427.863 557.034C417.32 546.527 505.018 543.661 532.334 545.094Z" fill="black"/>
<path opacity="0.3" d="M337.451 542.706C455.61 547.826 472.117 557.994 477.868 566.273C483.619 574.552 463.327 594.289 463.327 594.289C463.327 594.289 524.667 621.036 533.613 635.683C542.558 650.33 455.659 695.545 419.238 701.277C382.817 707.008 269.72 700.003 247.357 687.267C224.993 674.53 279.305 659.883 279.305 659.883C279.305 659.883 165.569 627.404 154.068 611.484C142.566 595.563 265.887 571.363 265.887 571.363C265.887 571.363 242.245 556.716 240.328 551.621C238.411 546.527 308.058 541.432 337.451 542.706Z" fill="black"/>
<path d="M257.748 591.353C257.748 591.353 253.002 581.106 247.729 580.317C242.457 579.529 247.202 591.091 247.202 591.091C247.202 591.091 241.929 586.361 237.448 589.514C232.966 592.667 239.557 597.134 239.557 597.134C239.557 597.134 232.702 596.083 229.538 601.075C226.375 606.068 232.702 610.535 232.702 610.535C232.702 610.535 218.465 611.06 218.202 617.104C217.938 623.147 271.721 620.52 271.721 620.52L257.748 591.353Z" fill="#363E4F"/>
<path opacity="0.3" d="M258.539 489.212C277.072 489.212 280.584 498.765 254.386 498.446C228.188 498.128 227.549 489.212 258.539 489.212Z" fill="black"/>
<path opacity="0.3" d="M221.06 517.068C228.728 517.392 226.932 524.211 212.619 522.825C198.306 521.439 201.26 516.231 221.06 517.068Z" fill="black"/>
<path opacity="0.3" d="M154.387 560.537C168.138 560.292 183.46 564.358 186.016 566.587C188.572 568.816 173.237 575.184 153.429 574.229C133.621 573.274 113.813 570.408 112.216 567.542C110.618 564.677 136.496 560.856 154.387 560.537Z" fill="black"/>
<path d="M140.17 522.009C140.17 522.009 146.56 512.616 145.921 507.68C145.282 502.745 139.851 512.138 140.17 522.009Z" fill="#FDA758"/>
<path d="M130.106 523.442C130.106 522.964 123.877 501.312 115.57 492.874C107.263 484.436 127.391 521.85 126.752 521.213C126.113 520.576 117.966 512.456 113.014 513.412C108.062 514.367 121.64 523.282 121.64 523.282C121.64 523.282 102.152 517.392 96.8803 521.69C91.6088 525.989 120.043 527.263 120.043 527.263L130.106 523.442Z" fill="#FDA758"/>
<path d="M207.501 465.729C207.501 465.729 213.012 460.236 211.335 454.266C209.657 448.295 204.146 467.639 204.146 467.639C204.146 467.639 198.875 456.893 192.885 457.37C186.894 457.848 201.99 470.027 201.99 470.027L207.741 468.356L207.501 465.729Z" fill="#FDA758"/>
<path d="M151.911 480.296C150.713 478.625 140.41 465.729 134.18 469.311C127.95 472.893 151.911 480.296 151.911 480.296Z" fill="#FDA758"/>
<path d="M605.137 548.716C605.137 548.716 616.878 543.343 616.878 538.806C616.878 534.268 605.137 544.298 605.137 544.298C605.137 544.298 613.044 529.372 608.731 524.954C604.418 520.536 601.543 546.686 601.543 546.686L605.137 548.716Z" fill="#FDA758"/>
<path d="M39.3741 596.2C62.0573 596.2 64.2937 603.842 39.0546 605.116C13.8155 606.389 20.2051 596.2 39.3741 596.2Z" fill="#FDA758"/>
<path d="M33.8993 587.37C38.6071 588.263 33.8646 591.558 23.4067 590.189C12.9488 588.82 22.2822 585.169 33.8993 587.37Z" fill="#FDA758"/>
<path d="M19.885 607.026C24.3978 606.806 29.4695 609.255 30.428 609.892C31.3864 610.528 25.6357 612.439 17.3292 612.439C9.02262 612.439 6.78629 607.663 19.885 607.026Z" fill="#FDA758"/>
<path d="M71.0031 604.479C78.3747 605.609 68.7667 608.937 62.3771 607.981C55.9874 607.026 58.5432 602.568 71.0031 604.479Z" fill="#FDA758"/>
<path d="M571.631 619.762C594.314 619.762 596.551 627.404 571.311 628.678C546.072 629.952 552.462 619.762 571.631 619.762Z" fill="#FDA758"/>
<path d="M618.895 612.34C623.584 613.327 618.775 616.527 608.347 614.947C597.919 613.368 607.325 609.905 618.895 612.34Z" fill="#FDA758"/>
<path d="M609.012 634.092C613.525 633.872 618.596 636.32 619.555 636.957C620.513 637.594 614.763 639.505 606.456 639.505C598.15 639.505 595.913 634.728 609.012 634.092Z" fill="#FDA758"/>
<path d="M640.959 625.812C648.331 626.943 638.723 630.27 632.333 629.315C625.943 628.36 628.499 623.902 640.959 625.812Z" fill="#FDA758"/>
<path d="M320.906 440.215C325.912 441.944 331.011 443.278 336.134 444.516C341.266 445.714 346.421 446.814 351.672 447.515L351.983 446.21C346.979 444.478 341.879 443.145 336.756 441.91C331.624 440.714 326.468 439.615 321.218 438.91L320.906 440.215Z" fill="#F7BC4B"/>
<path d="M225.38 417.548C232.115 419.431 238.885 421.17 245.659 422.887C252.433 424.608 259.235 426.211 266.022 427.879C272.834 429.442 279.632 431.06 286.456 432.57L296.699 434.808C300.125 435.507 303.539 436.25 306.975 436.909L307.286 435.605C303.922 434.65 300.537 433.78 297.163 432.865L287.007 430.263C280.232 428.546 273.432 426.938 266.644 425.274C259.832 423.715 253.034 422.092 246.209 420.585C239.385 419.076 232.555 417.589 225.692 416.244L225.38 417.548Z" fill="#F7BC4B"/>
<path d="M73.509 381.513C84.3209 384.362 95.1668 387.069 106.018 389.753L138.61 397.647L171.274 405.24L187.631 408.929L204.021 412.481L204.333 411.176L188.095 406.986L171.825 402.933L139.232 395.042L106.568 387.452C95.6669 384.975 84.7608 382.52 73.8206 380.208L73.509 381.513Z" fill="#F7BC4B"/>
<path d="M0.0806373 364.09C4.33386 365.383 8.62123 366.533 12.9138 367.662C17.2027 368.806 21.5161 369.847 25.8296 370.887C30.1505 371.897 34.4721 372.904 38.8177 373.811L45.3372 375.166C47.5217 375.57 49.6956 376.019 51.8895 376.383L52.2012 375.079C50.0778 374.419 47.9342 373.843 45.8013 373.223L39.3686 371.504C35.0794 370.362 30.7662 369.32 26.4522 368.281C22.1309 367.273 17.8094 366.265 13.4637 365.36C9.12131 364.44 4.77388 363.541 0.392305 362.785L0.0806373 364.09Z" fill="#F7BC4B"/>
<path d="M354.859 220.958C354.508 225.423 354.305 229.889 354.125 234.357C353.928 238.823 353.838 243.292 353.748 247.76C353.69 252.229 353.634 256.699 353.683 261.169L353.76 267.876C353.835 270.112 353.864 272.347 353.979 274.584L355.325 274.606C355.514 272.374 355.616 270.141 355.764 267.908L356.061 261.208C356.256 256.741 356.347 252.273 356.436 247.804C356.492 243.335 356.548 238.866 356.498 234.395C356.464 229.925 356.408 225.454 356.204 220.98L354.859 220.958Z" fill="#F7BC4B"/>
<path d="M249.069 327.526C241.535 318.429 233.889 309.428 226.226 300.442L203.112 273.591L179.763 246.943L168.005 233.69L156.14 220.531L155.122 221.408L166.489 234.998L177.964 248.494L201.08 275.344L224.431 301.991C232.256 310.837 240.098 319.668 248.052 328.404L249.069 327.526Z" fill="#F7BC4B"/>
<path d="M316.537 405.206C313.692 401.508 310.735 397.906 307.761 394.319C304.799 390.722 301.758 387.193 298.716 383.665C295.649 380.157 292.581 376.652 289.434 373.214L284.71 368.06C283.098 366.374 281.521 364.659 279.879 362.999L278.862 363.877C280.274 365.735 281.752 367.536 283.195 369.368L287.635 374.766C290.598 378.362 293.64 381.891 296.683 385.418C299.751 388.925 302.819 392.43 305.966 395.868C309.102 399.315 312.255 402.747 315.52 406.084L316.537 405.206Z" fill="#F7BC4B"/>
<path d="M352.014 394.473C351.666 398.834 351.464 403.197 351.285 407.56C351.091 411.923 351.002 416.287 350.914 420.652C350.857 425.017 350.803 429.382 350.854 433.749L350.934 440.299C351.009 442.483 351.039 444.667 351.156 446.852L352.501 446.874C352.689 444.694 352.79 442.512 352.937 440.332L353.232 433.788C353.425 429.425 353.515 425.06 353.601 420.695C353.656 416.33 353.71 411.965 353.659 407.598C353.623 403.232 353.565 398.865 353.36 394.495L352.014 394.473Z" fill="#F7BC4B"/>
<path d="M470.755 243.316L475.068 248.809L482.735 267.914C482.735 267.914 489.053 288.998 473.63 288.69C461.649 288.451 466.921 247.853 466.921 247.853L470.755 243.316Z" fill="#FFB68D"/>
<path d="M447.993 221.425C450.281 221.425 469.315 251.107 473.232 259.953C473.69 260.988 471.568 264.429 471.635 264.729C472.274 267.595 421.795 285.426 418.601 285.426C415.406 285.426 393.361 239.574 393.361 237.982C393.361 237.809 393.872 233.658 394.959 233.206C403.873 229.495 445.145 221.425 447.993 221.425Z" fill="#363E4F"/>
<path d="M449.59 216.648C452.145 216.648 472.592 257.087 473.231 259.953C473.87 262.819 423.392 280.65 420.197 280.65C417.002 280.65 394.958 234.798 394.958 233.206C394.958 231.614 446.395 216.648 449.59 216.648Z" fill="#ED4A2F"/>
<path d="M403.612 233.98C407.861 232.547 413.736 230.711 419.88 228.875C424.425 227.508 429.131 226.141 433.419 224.909C439.886 223.073 445.439 221.572 448.236 220.956C449.258 222.389 450.763 224.895 452.511 227.977C457.93 237.518 465.633 252.593 468.39 258.703C464.141 260.955 454.031 264.948 444.095 268.593C439.429 270.321 434.791 271.956 430.825 273.309C426.764 274.69 423.403 275.762 421.413 276.298C420.109 274.515 418.065 271.005 415.726 266.703C412.163 260.151 407.928 251.762 404.594 244.875C402.698 240.988 401.098 237.572 400.063 235.213C401.044 234.851 402.241 234.436 403.612 233.98Z" fill="#65A9DF"/>
<path opacity="0.2" d="M430.825 273.309C434.791 271.956 439.43 270.321 444.095 268.593C446.878 257.457 451.046 239.716 452.512 227.977C450.764 224.895 449.258 222.389 448.236 220.956C445.44 221.572 439.887 223.073 433.42 224.909C432.586 239.474 431.336 261.531 430.825 273.309Z" fill="white"/>
<path opacity="0.2" d="M403.613 233.98L404.595 244.874C407.929 251.762 412.164 260.15 415.727 266.703C415.364 257.551 414.961 246.121 415.243 245.464C415.727 244.352 420.204 244.513 420.204 244.513L419.881 228.875C413.737 230.711 407.862 232.546 403.613 233.98Z" fill="white"/>
<path d="M454.701 239.495C455.293 238.168 461.65 238.301 464.764 238.301C467.879 238.301 471.474 243.555 471.713 244.749C471.953 245.943 472.432 250.242 468.598 250.481C464.764 250.719 462.129 244.033 462.129 244.033C462.129 244.033 452.784 243.794 454.701 239.495Z" fill="#FFB68D"/>
<path d="M499.433 395.276C500.334 415.939 512.246 455.75 517.651 472.34C520.42 480.849 526.511 484.359 532.494 484.346C541.126 484.333 549.556 476.989 547.593 466.738C546.934 463.938 546.477 461.687 546.396 460.239C546.073 454.504 552.218 416.609 550.55 391.136C548.91 366.332 522.047 368.195 507.944 379.531C502.66 383.752 499.164 389.3 499.433 395.276Z" fill="#363E4F"/>
<path opacity="0.3" d="M507.944 379.531C508.092 379.786 508.226 380.04 508.374 380.308C510.928 385.092 515.083 388.268 515.083 388.268C522.437 396.871 521.792 447.188 522.115 449.412C522.437 451.637 526.901 448.139 527.224 453.231C527.479 457.198 529.281 469.887 532.494 484.346C541.126 484.333 549.556 476.989 547.593 466.738C546.934 463.938 546.477 461.687 546.396 460.239C546.073 454.504 552.218 416.609 550.55 391.136C548.91 366.332 522.047 368.195 507.944 379.531Z" fill="black"/>
<path d="M519.077 549.068C519.87 552.257 526.741 559.895 529.457 560.378C532.172 560.86 538.088 559.587 538.088 559.587C538.088 559.587 539.204 565.791 540.481 566.582C540.858 566.823 541.53 567.131 542.31 567.332C544.152 567.815 546.666 567.694 547.674 564.679C549.113 560.378 549.745 554.803 548.79 551.936C548.226 550.247 544.797 548.974 540.925 547.929C538.223 547.206 535.292 546.589 532.979 546.053C523.554 543.815 518.284 545.892 519.077 549.068Z" fill="#363E4F"/>
<path opacity="0.3" d="M542.31 567.332C544.152 567.815 546.666 567.694 547.674 564.679C549.113 560.378 549.745 554.803 548.79 551.936C548.226 550.247 544.797 548.974 540.925 547.929C541.786 553.638 544.125 559.587 542.31 567.332Z" fill="black"/>
<path d="M518.758 472.177C519.094 473.222 519.594 474.504 519.876 475.361C521.409 479.931 522.385 487.696 524.751 496.553C529.82 515.474 535.373 538.696 535.373 542.703C535.373 548.599 526.916 548.746 528.502 550.502C530.022 552.163 536.946 554.24 541.88 552.86C542.162 552.78 542.445 552.686 542.714 552.579C547.177 550.85 548.145 552.096 548.145 552.096C548.145 552.096 546.397 545.571 546.397 542.073C546.397 538.562 553.106 513.089 553.106 498.764C553.106 495.937 552.851 492.949 552.448 489.92C551.332 481.492 548.777 473.976 547.352 467.879C544.595 459.423 535.952 455.931 528.342 458.008C522.265 459.643 517.83 463.601 518.758 472.177Z" fill="#FFB68D"/>
<path d="M517.653 472.34C517.989 473.385 518.312 474.35 518.594 475.207C520.127 479.777 522.385 487.696 524.752 496.553C541.706 501.954 549.665 493.94 552.448 489.92C551.332 481.492 549.02 472.835 547.595 466.738C542.633 451.556 515.569 452.99 517.653 472.34Z" fill="#363E4F"/>
<path opacity="0.3" d="M535.534 496.848C540.643 515.957 540.966 535.387 540.643 543.668C540.522 546.696 541.221 549.671 541.88 552.86C542.162 552.78 542.445 552.686 542.714 552.579C547.177 550.85 548.145 552.096 548.145 552.096C548.145 552.096 546.397 545.571 546.397 542.073C546.397 538.562 553.106 513.089 553.106 498.764C553.106 495.937 552.851 492.949 552.448 489.92C551.332 481.492 549.019 472.835 547.594 466.738C544.838 458.283 535.225 454.987 527.615 457.064C528.61 465.01 531.299 481.036 535.534 496.848Z" fill="black"/>
<path d="M452.267 410.968C452.67 435.624 455.413 469.566 457.82 484.748C458.129 486.718 458.492 489.103 458.909 491.81C461.625 507.207 471.251 510.691 479.439 507.622C485.288 505.438 490.397 499.93 491.755 493.029C493.032 486.664 507.095 436.669 511.882 426.163C516.681 415.658 523.928 378.834 497.509 370.768C481.617 365.904 453.02 373.944 452.307 397.822C452.186 401.708 452.173 406.157 452.267 410.968Z" fill="#363E4F"/>
<path opacity="0.3" d="M452.267 410.968C460.818 425.56 474.854 435.436 477.705 440.18C481.537 446.545 469.719 482.524 470.996 484.44C472.273 486.343 475.782 484.44 478.027 486.986C479.197 488.326 479.574 497.17 479.439 507.622C485.288 505.438 490.397 499.93 491.755 493.029C493.032 486.664 507.095 436.669 511.882 426.163C516.681 415.658 523.928 378.834 497.509 370.768C481.617 365.904 453.02 373.944 452.307 397.822C452.186 401.708 452.173 406.157 452.267 410.968Z" fill="black"/>
<path d="M462.205 578.052C465.405 578.682 468.752 577.248 468.752 577.248C468.752 577.248 468.766 577.369 468.793 577.583C468.914 578.709 469.358 582.447 470.03 583.787C470.836 585.369 473.23 586.012 475.461 585.06C477.707 584.096 480.584 576.779 480.584 573.912C480.584 571.044 479.777 568.82 477.868 566.274C477.868 566.274 475.327 563.259 472.759 562.146L472.746 562.133C470.191 561.021 454.541 551.775 453.896 557.832C453.264 563.875 459.018 577.409 462.205 578.052Z" fill="#363E4F"/>
<path opacity="0.3" d="M468.793 577.583C468.914 578.709 469.358 582.447 470.03 583.787C470.836 585.369 473.23 586.012 475.461 585.06C477.707 584.096 480.584 576.779 480.584 573.912C480.584 571.044 479.777 568.82 477.868 566.274C477.868 566.274 475.327 563.259 472.759 562.146C471.536 567.145 470.178 572.371 468.793 577.583Z" fill="black"/>
<path d="M461.896 560.86C462.528 563.567 465.889 569.771 468.444 569.771C469.64 569.771 470.313 569.53 470.972 569.208C471.711 568.873 472.437 568.431 473.876 568.176C476.511 567.721 478.823 568.82 478.985 568.98C478.917 568.766 478.528 566.287 479.146 563.245C479.778 560.069 488.571 543.976 491.125 532.519C492.268 527.427 492.389 521.37 492.241 515.501C492.013 506.014 489.85 497.291 490.643 493.352C490.428 483.771 481.042 478.274 471.954 478.864C465.056 479.306 459.867 483.06 459.813 492.078C460.997 499.837 461.627 509.926 463.106 520.231C465.903 539.648 468.484 558.85 468.121 560.056C466.037 558.622 461.251 558.153 461.896 560.86Z" fill="#FFB68D"/>
<path d="M458.911 491.809C460.095 499.568 461.627 509.926 463.106 520.231C465.54 522.589 468.672 524.237 472.679 524.639C484.51 525.832 489.875 520.017 492.241 515.501C492.013 506.014 490.964 496.969 491.757 493.029C491.367 476.158 459.019 470.906 458.911 491.809Z" fill="#363E4F"/>
<path opacity="0.3" d="M478.03 535.694C477.291 543.319 474.413 555.875 470.972 569.208C471.711 568.873 472.437 568.431 473.876 568.176C476.511 567.72 478.823 568.819 478.985 568.98C478.917 568.766 478.528 566.287 479.146 563.245C479.778 560.069 488.571 543.976 491.125 532.519C492.268 527.427 492.389 521.37 492.241 515.501C492.013 506.014 490.964 496.969 491.757 493.029C491.542 483.448 481.001 477.605 471.913 478.195C471.133 481.625 470.703 483.984 470.998 484.439C472.276 486.342 475.785 484.439 478.03 486.985C480.262 489.532 479.617 519.467 478.03 535.694Z" fill="black"/>
<path d="M438.164 403.075C438.164 403.075 452.308 426.243 500.225 426.002C523.041 425.895 538.516 417.239 548.479 408.18C559.45 398.224 563.726 387.799 563.726 387.799C563.726 387.799 554.381 360.329 546.946 347.438C539.525 334.547 526.349 309.945 526.349 309.945C526.349 309.945 530.073 296.21 533.179 283.614C533.77 281.188 534.348 278.803 534.873 276.566C535.747 272.76 536.473 269.383 536.89 266.958C538.799 255.728 533.273 242.489 512.931 241.404C504.824 240.975 493.745 244.995 485.503 248.707C480.098 251.146 475.917 253.451 474.586 254.295C471.494 256.278 456.422 268.995 454.419 277.329C454.257 278.053 454.177 278.736 454.217 279.38C454.701 287.5 465.242 320.451 465.242 320.451C465.242 320.451 465.174 320.705 465.054 321.188C464.354 323.921 461.759 333.824 458.291 343.378C454.217 354.607 438.164 403.075 438.164 403.075Z" fill="#F7BC4B"/>
<path opacity="0.1" d="M522.436 351.337C533.421 360.262 542.993 388.71 548.479 408.18C559.45 398.224 563.726 387.799 563.726 387.799C563.726 387.799 554.381 360.329 546.946 347.438C539.525 334.547 526.349 309.945 526.349 309.945C526.349 309.945 530.073 296.21 533.179 283.614C519.115 295.031 492.037 309.744 488.246 312.169C483.769 315.037 501.019 318.226 505.818 318.548C510.605 318.856 483.769 332.229 482.491 334.467C481.214 336.691 505.173 337.334 522.436 351.337Z" fill="black"/>
<path opacity="0.3" d="M465.242 320.45C465.242 320.45 465.175 320.705 465.054 321.187C472.651 307.707 488.946 276.324 482.492 265.685C482.492 265.685 468.752 266.958 466.52 267.279C465.39 267.44 460.308 271.634 454.419 277.329C454.258 278.053 454.177 278.736 454.218 279.379C454.702 287.5 465.242 320.45 465.242 320.45Z" fill="black"/>
<path opacity="0.1" d="M485.504 248.707C489.847 266.408 511.292 283.734 534.874 276.566C535.748 272.76 536.474 269.383 536.891 266.958C538.8 255.728 533.274 242.489 512.932 241.404C504.825 240.975 493.746 244.995 485.504 248.707Z" fill="black"/>
<path d="M469.88 228.417C470.203 229.208 470.566 229.945 470.996 230.655C477.06 241.161 492.844 243.144 502.941 234.863C508.091 230.642 501.099 222.052 492.387 214.24C482.868 205.704 471.319 198.093 471.319 198.093C471.319 198.093 464.852 215.995 469.88 228.417Z" fill="#FFB68D"/>
<path opacity="0.3" d="M470.996 230.655C477.06 241.161 492.844 243.144 502.941 234.863C508.091 230.642 501.099 222.052 492.387 214.24C489.079 232.357 477.221 238.172 470.996 230.655Z" fill="black"/>
<path d="M471.56 202.864C471.802 222.924 485.691 228.659 485.691 228.659C477.785 262.561 499.109 280.235 522.113 280.235C529.064 280.235 535.585 278.601 541.043 275.679C553.668 268.952 560.713 255.405 554.703 239.406C546.072 216.478 527.383 218.863 527.383 218.863C531.739 212.351 533.46 197.155 526.765 186.476C524.627 183.059 521.615 180.097 517.555 178.034C504.379 171.347 493.596 176.827 493.596 176.827C493.596 176.827 500.346 166.577 498.141 162.49C498.127 162.49 498.127 162.49 498.127 162.49C497.589 161.458 496.473 160.828 494.564 160.828C484.978 160.828 484.01 172.057 484.01 172.057C483.768 170.824 483.351 169.726 482.827 168.774C482.827 168.761 482.813 168.747 482.8 168.734C478.619 161.337 466.827 162.369 463.655 177.792C460.051 195.226 471.56 202.864 471.56 202.864Z" fill="#363E4F"/>
<path opacity="0.3" d="M474.652 194.422C474.464 201.417 475.056 214.75 481.617 220.378C490.719 228.176 505.737 226.113 505.737 226.113C505.737 226.113 494.874 235.814 500.628 252.216C500.628 252.216 497.589 251.104 495.358 247.124C495.358 247.124 494.632 285.81 541.043 275.679C553.668 268.953 560.713 255.405 554.703 239.406C546.072 216.478 527.383 218.863 527.383 218.863C531.739 212.351 533.46 197.155 526.765 186.476C525.945 205.691 499.149 214.415 485.771 205.571C478.471 200.733 475.621 197.021 474.652 194.422Z" fill="black"/>
<path opacity="0.3" d="M474.248 192.64C474.275 193.162 474.396 193.752 474.652 194.422C474.679 193.47 474.719 192.64 474.759 191.956C474.827 190.71 474.907 189.973 474.907 189.973C474.907 189.973 474.101 190.857 474.248 192.64Z" fill="black"/>
<path opacity="0.3" d="M473.47 193.672L474.25 192.64L474.761 191.956L481.739 182.684L493.597 176.828C493.597 176.828 500.346 166.577 498.141 162.49C498.128 162.49 498.128 162.49 498.128 162.49C497.178 161.453 495.992 161.704 495.098 161.74C489.937 161.949 485.933 179.347 485.933 179.347L484.858 180.057C484.858 180.057 483.782 176.6 484.011 172.057C483.769 170.825 483.352 169.726 482.828 168.774C482.828 168.761 482.814 168.748 482.801 168.734C480.313 165.625 474.559 164.486 470.835 174.322C465.927 187.347 473.47 193.672 473.47 193.672Z" fill="black"/>
<path d="M490.566 178.664C490.566 178.664 471.797 185.669 472.755 213.61C472.755 213.61 465.554 202.425 471.557 190.604C478.107 177.709 490.566 178.664 490.566 178.664Z" fill="#F7BC4B"/>
<path d="M483.058 216.953C489.276 217.34 488.809 229.371 482.1 231.759C475.391 234.148 474.193 226.983 475.63 223.401C477.068 219.819 479.225 216.714 483.058 216.953Z" fill="#FFB68D"/>
<path d="M413.802 271.099C414.125 272.211 419.476 283.44 419.476 283.44C419.476 283.44 418.28 289.644 417.796 298.716C417.527 303.996 418.858 307.654 421.197 309.838C422.891 311.419 425.11 312.237 427.624 312.33C433.62 312.572 436.968 307.078 436.255 300.391C435.529 293.705 435.287 282.958 435.287 282.958C435.287 282.958 440.007 277.464 440.961 275.561C441.916 273.645 442.48 269.826 443.677 266.248C444.874 262.657 442.964 260.754 440.329 263.139C437.694 265.524 436.726 269.826 436.726 269.826C436.726 269.826 437.869 245.237 434.736 243.709C431.778 242.275 430.42 255.648 430.42 255.648C430.42 255.648 427.382 254.536 426.104 254.536C424.827 254.536 422.434 257.404 422.434 257.404C422.434 257.404 420.511 257.725 419.396 258.047C418.28 258.355 417.486 260.593 417.486 260.593C417.486 260.593 415.402 260.593 414.609 261.223C413.802 261.866 413.493 269.987 413.802 271.099Z" fill="#FFB68D"/>
<path opacity="0.3" d="M421.197 309.838C422.891 311.419 425.11 312.237 427.624 312.331C433.62 312.572 436.968 307.078 436.255 300.391C435.529 293.705 435.287 282.958 435.287 282.958C435.287 282.958 440.007 277.464 440.961 275.561C441.916 273.645 442.48 269.826 443.677 266.248C444.874 262.657 442.964 260.754 440.329 263.139C437.694 265.524 436.726 269.826 436.726 269.826C436.726 269.826 437.869 245.237 434.736 243.709C435.852 246.416 433.136 267.601 432.652 270.938C432.182 274.288 424.827 298.636 424.827 298.636C424.827 298.636 422.394 304.103 421.197 309.838Z" fill="black"/>
<path d="M420.861 306.167C421.211 307.708 421.91 309.235 423.066 310.656C428.337 317.114 440.087 312.331 448.477 306.837C452.753 304.036 450.225 297.939 446.729 292.646C443.381 287.554 439.119 283.199 439.119 283.199C437.923 284.15 428.337 291.788 425.231 293.705C422.797 295.192 419.638 300.74 420.861 306.167Z" fill="#FFB68D"/>
<path opacity="0.3" d="M420.861 306.167C421.211 307.708 421.91 309.235 423.066 310.656C428.337 317.114 440.087 312.331 448.477 306.837C452.753 304.036 450.225 297.939 446.729 292.646C444.229 292.284 442.561 292.11 442.561 292.11C438.891 297.711 428.538 303.862 420.861 306.167Z" fill="black"/>
<path d="M434.092 298.957C434.428 299.855 434.792 300.699 435.195 301.477C441.729 314.327 456.613 313.054 456.613 313.054C456.613 313.054 482.023 283.909 486.097 276.03C488.343 271.675 488.101 265.377 485.412 260.888C483.233 257.243 479.455 254.778 474.104 255.501C465.244 256.694 436.728 276.03 436.728 276.03C436.728 276.03 428.338 283.44 434.092 298.957Z" fill="#65A9DF"/>
<path opacity="0.3" d="M435.195 301.477C441.729 314.327 456.613 313.054 456.613 313.054C456.613 313.054 482.023 283.909 486.097 276.03C488.343 271.675 488.101 265.377 485.412 260.888C482.158 276.58 454.085 292.284 435.195 301.477Z" fill="black"/>
<path d="M471.154 538.095C471.154 538.095 480.517 527.367 483.901 528.284C487.284 529.202 475.329 542.963 475.329 542.963C475.329 542.963 481.137 536.915 483.494 538.376C485.851 539.837 478.332 545.306 478.332 545.306C478.332 545.306 492.403 533.045 494.038 536.112C495.673 539.179 476.857 554.215 476.857 554.215C476.857 554.215 487.119 551.752 487.707 554.499C488.295 557.247 479.078 558.545 479.078 558.545L486.748 559.115C486.748 559.115 487.817 547.798 489.545 546.271C491.274 544.743 491.903 547.732 491.903 547.732C491.903 547.732 493.722 540.125 496.74 538.877C499.757 537.628 496.529 545.718 496.529 545.718C496.529 545.718 498.516 542.044 500.188 542.382C501.859 542.72 496.467 557.113 496.467 557.113C496.467 557.113 503.095 547.834 506.134 547.448C509.173 547.062 505.641 554.089 505.641 554.089C505.641 554.089 512.176 549.405 514.112 552.05C516.049 554.695 502.659 565.108 502.659 565.108C502.659 565.108 510.607 562.909 511.958 564.291C513.309 565.673 500.436 571.792 500.436 571.792C500.436 571.792 505.347 571.464 505.935 574.211C506.523 576.959 498.277 581.064 498.277 581.064C498.277 581.064 507.157 582.916 506.719 586.207C506.281 589.498 494.965 587.189 494.965 587.189C494.965 587.189 500.347 591.854 498.477 593.282C496.608 594.709 478.877 583.824 478.877 583.824L446.415 562.91L471.154 538.095Z" fill="#363E4F"/>
<path d="M253.431 627.082C253.431 627.082 267.803 642.854 272.59 647.142C273.907 648.321 278.331 649.648 284.045 650.948C299.17 654.378 323.398 657.648 323.398 657.648C323.398 657.648 323.868 671.503 325.307 675.805C326.746 680.106 367 702.069 376.586 703.034C386.172 703.985 422.594 693.948 422.594 693.948L426.91 679.624C426.91 679.624 430.446 678.297 435.878 676.234C435.878 676.234 435.878 676.234 435.891 676.234C453.517 669.534 490.975 655.075 492.077 652.877C493.516 650.01 490.168 575.506 490.168 575.506L470.028 545.409L469.557 484.748L460.926 483.327L272.119 487.615L270.68 551.145C270.68 551.145 254.869 579.807 253.901 583.626C252.947 587.445 253.431 627.082 253.431 627.082Z" fill="#ED4A2F"/>
<path opacity="0.3" d="M284.098 647.142L284.044 650.948C299.17 654.378 323.397 657.648 323.397 657.648C323.397 655.745 320.278 597.709 320.278 597.709L309.737 637.829L305.18 573.348L282.659 595.083L284.098 647.142Z" fill="black"/>
<path opacity="0.3" d="M360.775 622.312L378.979 641.42L376.586 703.034C386.172 703.985 422.594 693.948 422.594 693.948L426.91 679.624C426.91 679.624 430.446 678.297 435.864 676.234H435.878C435.878 676.234 435.878 676.234 435.891 676.234C453.517 669.534 490.975 655.075 492.077 652.877C493.516 650.01 490.168 575.506 490.168 575.506L470.028 545.409L469.557 484.748L367.484 533.47L361.245 558.314L342.086 581.71L341.602 610.373L338.241 637.119L360.775 622.312Z" fill="black"/>
<path opacity="0.3" d="M427.865 617.22L431.212 638.07L435.878 676.233C435.878 676.233 435.878 676.233 435.891 676.233C453.517 669.533 490.975 655.075 492.077 652.877C493.516 650.01 490.168 575.506 490.168 575.506L464.609 586.641C464.609 586.641 463.01 627.725 463.01 623.585C463.01 619.444 460.764 588.236 460.764 588.236L444.792 592.055L427.865 617.22Z" fill="black"/>
<path d="M490.84 607.926C495.615 608.283 495.896 611.021 490.045 610.877C484.194 610.733 485.061 607.494 490.84 607.926Z" fill="#F7BC4B"/>
<path d="M489.418 614.549C494.006 615.159 496.136 618.005 490.068 618.077C484.001 618.149 484.001 613.829 489.418 614.549Z" fill="#F7BC4B"/>
<path d="M492.841 620.394C498.703 621.242 498.548 624.929 492.769 623.849C486.99 622.769 488.363 619.746 492.841 620.394Z" fill="#F7BC4B"/>
<path d="M494.063 626.797C496.354 628.186 495.291 628.453 491.607 627.589C487.923 626.725 490.74 624.781 494.063 626.797Z" fill="#F7BC4B"/>
<path d="M491.883 631.636C496.684 630.469 498.745 631.708 493.544 633.579C488.344 635.451 488.921 632.356 491.883 631.636Z" fill="#F7BC4B"/>
<path d="M462.979 617.615C467.779 618.277 467.53 623.95 463.485 622.151C459.44 620.351 456.189 616.679 462.979 617.615Z" fill="#F7BC4B"/>
<path d="M487.808 645.027C493.488 644.481 493.875 647.474 489.108 647.474C484.34 647.474 481.812 645.603 487.808 645.027Z" fill="#F7BC4B"/>
<path d="M465.922 612.708C471.603 612.162 471.99 615.155 467.222 615.155C462.455 615.155 459.927 613.284 465.922 612.708Z" fill="#F7BC4B"/>
<path d="M492.383 637.451C496.632 639.78 497.44 644.651 494.767 643.571C492.095 642.491 488.049 635.075 492.383 637.451Z" fill="#F7BC4B"/>
<path d="M491.997 650.643C495.783 651.397 495.536 653.09 491.13 652.226C486.723 651.362 488.385 649.923 491.997 650.643Z" fill="#F7BC4B"/>
<path d="M487.518 653.594C491.092 653.705 492.719 657.337 488.674 656.834C484.629 656.33 482.895 653.45 487.518 653.594Z" fill="#F7BC4B"/>
<path opacity="0.3" d="M459.97 519.614L452.777 568.819L465.24 549.711L470.026 545.409L469.556 484.748C469.556 484.748 447.506 492.868 445.113 499.086C442.72 505.29 459.97 519.614 459.97 519.614Z" fill="black"/>
<path d="M414.917 613.24C414.917 613.24 426.426 636.636 426.426 638.552C426.426 640.455 422.594 693.948 422.594 693.948L426.91 679.623C426.91 679.623 430.446 678.297 435.864 676.233C434.56 664.964 431.589 639.557 431.212 638.07C430.742 636.167 417.794 618.01 418.278 614.191C418.762 610.372 426.426 551.265 426.426 551.265L427.865 541.108L424.987 546.374L415.401 609.407L399.59 606.071L414.917 613.24Z" fill="#363E4F"/>
<path d="M420.095 550.572C423.683 550.159 425.729 554.964 423.996 554.892C422.262 554.82 418.217 550.788 420.095 550.572Z" fill="#F7BC4B"/>
<path d="M421.234 561.201C424.503 561.744 426.218 565.52 419.934 564.224C413.649 562.928 414.299 560.049 421.234 561.201Z" fill="#F7BC4B"/>
<path d="M419.498 571.884C424.273 572.241 424.555 574.98 418.704 574.836C412.853 574.692 413.719 571.452 419.498 571.884Z" fill="#F7BC4B"/>
<path d="M418.874 580.417C423.462 581.027 425.592 583.873 419.524 583.945C413.457 584.017 413.457 579.697 418.874 580.417Z" fill="#F7BC4B"/>
<path d="M420.86 586.581C426.722 587.429 426.566 591.116 420.788 590.036C415.009 588.956 416.381 585.933 420.86 586.581Z" fill="#F7BC4B"/>
<path d="M418.729 594.258C421.02 595.647 419.957 595.914 416.273 595.05C412.589 594.186 415.406 592.242 418.729 594.258Z" fill="#F7BC4B"/>
<path d="M415.27 598.937C420.071 597.77 422.132 599.009 416.931 600.881C411.73 602.753 412.308 599.657 415.27 598.937Z" fill="#F7BC4B"/>
<path d="M403.297 606.728C408.097 607.39 407.848 613.063 403.802 611.264C399.757 609.464 396.507 605.792 403.297 606.728Z" fill="#F7BC4B"/>
<path d="M412.473 612.488C418.153 611.942 418.54 614.935 413.773 614.935C409.006 614.935 406.477 613.064 412.473 612.488Z" fill="#F7BC4B"/>
<path d="M420.49 609.68C424.738 612.008 425.546 616.879 422.874 615.799C420.201 614.719 416.156 607.304 420.49 609.68Z" fill="#F7BC4B"/>
<path d="M416.661 618.103C420.447 618.857 420.2 620.55 415.794 619.687C411.388 618.823 413.049 617.383 416.661 618.103Z" fill="#F7BC4B"/>
<path d="M412.182 621.055C415.756 621.166 417.383 624.798 413.338 624.294C409.293 623.791 407.559 620.911 412.182 621.055Z" fill="#F7BC4B"/>
<path d="M362.209 551.144C362.209 551.144 362.689 559.741 361.251 561.652C359.813 563.562 344.957 581.234 344.957 582.667C344.957 584.1 338.728 641.415 338.728 641.415C338.728 641.415 341.603 585.055 342.082 581.712C342.561 578.368 357.417 559.741 357.417 559.741L362.209 551.144Z" fill="#363E4F"/>
<path d="M360.771 622.31C364.126 625.653 380.898 640.937 380.898 640.937L376.585 701.595L377.065 642.847L360.771 622.31Z" fill="#363E4F"/>
<path d="M293.68 527.74C293.68 529.173 290.325 554.01 290.325 554.01L308.056 572.637L309.494 642.848L304.223 573.114L286.012 554.01L293.68 527.74Z" fill="#363E4F"/>
<path d="M282.657 595.085C284.095 601.772 284.095 647.146 284.095 647.146L281.219 618.011L282.657 595.085Z" fill="#363E4F"/>
<path d="M307.103 530.133C316.743 532.09 331.371 534.756 345.838 536.887C358.583 538.763 371.195 540.224 380.162 540.438C383.309 540.505 385.998 540.425 388.081 540.157C402.938 538.254 435.528 533.952 443.192 530.133C450.869 526.301 459.017 522.013 459.971 519.614C460.926 517.229 449.901 506.724 449.901 506.724C449.901 506.724 451.42 505.169 453.625 502.878C456.261 500.131 459.891 496.312 463.01 492.855C466.398 489.116 469.208 485.806 469.557 484.748C470.512 481.893 427.865 450.363 424.988 448.929C422.11 447.496 422.11 438.424 422.11 438.424C419.717 436.99 388.081 432.22 366.045 433.171C343.996 434.122 314.282 448.929 308.057 451.797C301.832 454.665 275.467 483.327 272.119 487.615C268.758 491.917 286.008 525.832 307.103 530.133Z" fill="#ED4A2F"/>
<path opacity="0.2" d="M286.331 505.772C290.176 512.231 306.498 525.376 314.753 531.634C323.68 533.323 334.813 535.266 345.838 536.887C358.583 538.763 371.195 540.224 380.162 540.438C383.309 540.505 385.998 540.425 388.081 540.157C402.938 538.254 435.528 533.952 443.192 530.133C450.869 526.301 459.017 522.013 459.971 519.614C460.926 517.229 449.901 506.724 449.901 506.724C449.901 506.724 451.42 505.169 453.625 502.878C456.261 500.131 459.891 496.312 463.01 492.855C466.398 489.116 469.208 485.806 469.557 484.748C470.512 481.893 427.865 450.363 424.988 448.929C422.11 447.496 422.11 438.424 422.11 438.424C422.11 438.424 350.543 438.585 327.23 447.187C303.903 455.777 282.176 486.034 282.176 486.034C282.176 486.034 281.222 497.169 286.331 505.772Z" fill="white"/>
<path opacity="0.3" d="M307.736 478.386C307.736 478.386 326.893 516.506 345.837 536.887C358.582 538.763 371.194 540.224 380.161 540.438C402.641 530.737 436.59 513.665 453.624 502.878C456.26 500.131 459.89 496.312 463.009 492.855C454.229 487.723 419.515 475.113 413.491 472.339L307.736 478.386Z" fill="black"/>
<path d="M364.287 492.715L361.092 496.217L357.897 527.104C357.897 527.104 307.419 480.615 306.461 478.704C305.502 476.794 306.141 455.779 306.94 452.276C307.739 448.773 364.287 492.715 364.287 492.715Z" fill="#363E4F"/>
<path d="M431.539 464.216C432.977 468.515 429.782 494.943 429.782 494.943C429.782 494.943 387.291 521.372 357.899 527.103C357.899 527.103 359.496 504.496 361.093 496.217C362.691 487.938 431.539 464.216 431.539 464.216Z" fill="#363E4F"/>
<path opacity="0.3" d="M431.539 464.216C432.977 468.515 429.782 494.943 429.782 494.943C429.782 494.943 387.291 521.372 357.899 527.103C357.899 527.103 359.496 504.496 361.093 496.217C362.691 487.938 431.539 464.216 431.539 464.216Z" fill="black"/>
<path d="M306.943 452.28C306.943 452.28 355.815 495.736 361.099 496.218C366.369 496.701 433.93 467.556 431.537 464.219C429.143 460.869 382.449 422.384 380.742 422.666C343.473 428.776 308.072 451.556 306.97 452.266C306.956 452.28 306.943 452.28 306.943 452.28Z" fill="#F7BC4B"/>
<path opacity="0.2" d="M306.971 452.266C308.598 452.025 372.313 442.243 375.392 442.243C378.511 442.243 431.538 464.219 431.538 464.219C429.145 460.869 382.451 422.384 380.743 422.666C343.474 428.776 308.074 451.556 306.971 452.266Z" fill="white"/>
<path d="M382.179 479.023L339.368 440.176C339.368 440.176 361.732 454.664 382.179 479.023Z" fill="#363E4F"/>
<path d="M381.54 434.604C381.54 434.604 358.217 441.609 356.301 443.36C354.384 445.111 357.904 445.072 368.121 441.927C378.984 438.584 385.693 435.559 381.54 434.604Z" fill="#363E4F"/>
<path d="M392.882 444.634C392.882 444.634 369.56 451.639 367.643 453.39C365.726 455.142 369.247 455.102 379.464 451.958C390.327 448.614 397.036 445.589 392.882 444.634Z" fill="#363E4F"/>
<path d="M404.223 454.664C404.223 454.664 380.901 461.669 378.984 463.421C377.067 465.172 380.588 465.132 390.805 461.988C401.667 458.644 408.376 455.619 404.223 454.664Z" fill="#363E4F"/>
<path d="M319.28 639.147C318.161 635.008 313.689 647.426 313.689 647.426C313.689 647.426 314.487 631.823 312.251 631.346C310.015 630.868 309.056 642.49 309.056 642.49C309.056 642.49 308.257 636.918 305.702 636.6C303.146 636.281 306.181 654.272 306.181 654.272C306.181 654.272 302.666 646.311 300.43 648.063C298.194 649.814 308.956 661.715 308.956 661.715C308.956 661.715 320.398 643.286 319.28 639.147Z" fill="#363E4F"/>
<path d="M270.957 649.235C270.957 649.235 273.941 642.656 272.812 640.833C271.683 639.011 270.27 644.095 270.27 644.095C270.27 644.095 267.468 638.087 265.982 639.112C264.496 640.138 270.957 649.235 270.957 649.235Z" fill="#363E4F"/>
<path d="M368.359 706.213C368.359 706.213 371.834 700.681 371.514 699.407C371.195 698.134 369.597 701.159 369.597 701.159C369.597 701.159 371.195 690.173 369.278 688.422C367.361 686.671 366.722 692.88 366.722 692.88C366.722 692.88 366.562 688.104 365.284 687.467C364.007 686.83 364.007 692.402 364.007 692.402C364.007 692.402 360.971 687.626 359.055 687.467C357.138 687.308 365.444 701.318 365.444 701.318C365.444 701.318 361.61 698.93 360.652 699.407C359.694 699.885 368.359 706.213 368.359 706.213Z" fill="#363E4F"/>
<path d="M270.24 645.841C269.95 622.656 277.359 615.65 277.359 615.65" stroke="#363E4F" stroke-width="1.34673" stroke-miterlimit="10" stroke-linecap="round" stroke-linejoin="round"/>
<path d="M263.7 622.218C263.7 622.218 269.032 628.009 270.23 642.815" stroke="#363E4F" stroke-width="1.34673" stroke-miterlimit="10" stroke-linecap="round" stroke-linejoin="round"/>
<path d="M253.638 608.128C253.638 608.128 269.572 612.546 270.171 636.308" stroke="#363E4F" stroke-width="1.34673" stroke-miterlimit="10" stroke-linecap="round" stroke-linejoin="round"/>
<path d="M257.032 602.874C266.453 602.874 268.773 615.531 249.843 615.292C230.914 615.053 244.811 602.874 257.032 602.874Z" fill="#F7BC4B"/>
<path d="M266.856 616.725C271.85 617.337 272.367 626.755 262.064 630.338C251.76 633.92 253.198 615.054 266.856 616.725Z" fill="#F7BC4B"/>
<path d="M278.357 607.412C287.748 608.803 289.619 620.785 282.191 622.934C274.763 625.084 260.626 604.785 278.357 607.412Z" fill="#F7BC4B"/>
<path d="M277.398 611.71C280.513 611.462 281.711 616.486 279.315 616.606C276.919 616.725 274.403 611.949 277.398 611.71Z" fill="#ED4A2F"/>
<path d="M265.777 619.71C267.601 620.355 265.298 625.084 261.943 624.845C258.589 624.606 262.063 618.397 265.777 619.71Z" fill="#ED4A2F"/>
<path d="M257.631 606.337C260.716 607.97 253.079 611.949 249.365 610.397C245.651 608.845 253.798 604.307 257.631 606.337Z" fill="#ED4A2F"/>
<path d="M466.743 658.793C465.97 656.776 462.88 662.826 462.88 662.826C462.88 662.826 463.432 655.225 461.886 654.992C460.341 654.76 459.679 660.421 459.679 660.421C459.679 660.421 459.127 657.707 457.361 657.552C455.595 657.397 457.692 666.161 457.692 666.161C457.692 666.161 455.264 662.283 453.719 663.136C452.174 663.989 459.61 669.786 459.61 669.786C459.61 669.786 467.515 660.809 466.743 658.793Z" fill="#363E4F"/>
<path d="M459.998 665.178C460.289 641.994 448.88 639.583 448.88 639.583" stroke="#363E4F" stroke-width="1.34673" stroke-miterlimit="10" stroke-linecap="round" stroke-linejoin="round"/>
<path d="M472.445 642.703C472.445 642.703 461.205 647.347 460.007 662.153" stroke="#363E4F" stroke-width="1.34673" stroke-miterlimit="10" stroke-linecap="round" stroke-linejoin="round"/>
<path d="M469.291 637.211C464.296 637.822 463.78 647.241 474.083 650.823C484.386 654.405 482.949 635.539 469.291 637.211Z" fill="#F7BC4B"/>
<path d="M447.882 631.344C438.491 632.736 436.62 644.718 444.048 646.867C451.476 649.017 465.613 628.718 447.882 631.344Z" fill="#F7BC4B"/>
<path d="M448.84 635.643C445.726 635.395 444.527 640.419 446.923 640.539C449.319 640.658 451.835 635.882 448.84 635.643Z" fill="#ED4A2F"/>
<path d="M470.369 640.196C468.545 640.841 470.848 645.569 474.203 645.331C477.557 645.092 474.083 638.883 470.369 640.196Z" fill="#ED4A2F"/>
</g>
<defs>
<clipPath id="clip0_122_1643">
<rect width="645" height="737" fill="white" transform="matrix(-1 0 0 1 645 0)"/>
</clipPath>
</defs>
</svg>
