<svg width="790" height="812" viewBox="0 0 790 812" fill="none" xmlns="http://www.w3.org/2000/svg">
<path d="M595.219 605.323C595.219 605.323 498.073 636.607 416.57 630.021C335.067 623.435 266.736 612.732 254.387 585.565C242.038 558.397 279.085 572.392 279.085 572.392C279.085 572.392 231.039 542.631 232.982 490.066C233.805 467.838 260.973 471.131 260.973 471.131C260.973 471.131 184.41 398.684 230.512 336.939C276.615 275.194 332.597 310.594 332.597 310.594C332.597 310.594 310.369 280.134 357.295 228.268C404.221 176.402 453.617 224.152 453.617 224.152C453.617 224.152 484.901 164.876 552.409 154.174C619.916 143.472 657.787 166.523 651.201 205.216C644.614 243.91 624.033 249.673 624.033 249.673C624.033 249.673 654.494 263.668 650.377 288.366C646.261 313.064 603.451 330.353 603.451 330.353C603.451 330.353 642.145 368.223 635.558 406.916C628.972 445.61 600.981 470.308 572.99 478.54C572.99 478.54 599.335 527.936 570.521 552.634C541.706 577.332 513.715 590.504 491.487 588.034C491.487 588.034 542.53 611.909 595.219 605.323Z" fill="#F3E7D9"/>
<path d="M532.769 719.156C532.769 719.156 482.418 714.117 458.51 714.866C434.603 715.624 402.734 718.826 378.876 717.624C355.018 716.422 227.716 728.557 241.547 732.797C255.386 737.037 294.722 739.515 323.042 737.943C351.363 736.362 362.938 734.287 362.938 734.287L402.323 735.218C402.323 735.218 367.647 755.733 437.501 755.733C547.909 755.733 493.145 741.861 493.145 741.861C493.145 741.861 521.087 738.585 543.15 731.249C565.214 723.914 532.769 719.156 532.769 719.156Z" fill="#573353"/>
<path d="M472.669 774.298C498.872 774.298 520.114 769.267 520.114 763.06C520.114 756.854 498.872 751.823 472.669 751.823C446.466 751.823 425.225 756.854 425.225 763.06C425.225 769.267 446.466 774.298 472.669 774.298Z" fill="#573353"/>
<path d="M548.122 776.257C562.571 776.257 574.285 773.482 574.285 770.058C574.285 766.634 562.571 763.859 548.122 763.859C533.672 763.859 521.958 766.634 521.958 770.058C521.958 773.482 533.672 776.257 548.122 776.257Z" fill="#573353"/>
<path d="M362.484 744.01C375.315 744.01 385.717 741.548 385.717 738.511C385.717 735.473 375.315 733.011 362.484 733.011C349.654 733.011 339.252 735.473 339.252 738.511C339.252 741.548 349.654 744.01 362.484 744.01Z" fill="#573353"/>
<path d="M221.567 729.677C208.543 727.726 170.763 732.608 155.78 735.218C140.796 737.827 89.8856 765.168 147.308 772.347C178.576 776.257 214.725 774.627 245.993 775.278C277.261 775.928 307.548 767.786 307.548 767.786C259.346 761.274 200.722 759.973 174.665 750.851C148.609 741.73 234.599 731.636 221.567 729.677Z" fill="#573353"/>
<path d="M509.8 705.909C509.8 705.909 640.724 696.137 659.288 708.84C677.853 721.543 647.565 723.494 647.565 723.494C647.565 723.494 733.547 734.238 695.438 744.99C657.329 755.733 621.509 752.803 590.891 749.872C560.274 746.941 636.813 737.169 612.387 723.494C587.969 709.812 509.8 705.909 509.8 705.909Z" fill="#573353"/>
<path d="M273.085 760.006C233.56 767.901 271.595 778.061 296.729 772.215C321.863 766.37 312.61 752.111 273.085 760.006Z" fill="#573353"/>
<path d="M329.348 747.015C323.355 747.723 316.95 759.85 338.486 754.071C360.014 748.291 335.341 746.315 329.348 747.015Z" fill="#573353"/>
<path d="M296.919 783.033C290.39 787.956 308.444 789.446 314.94 782.72C321.435 775.994 303.439 778.11 296.919 783.033Z" fill="#573353"/>
<path d="M174.97 770.799C174.97 770.799 105.536 785.824 164.976 792.575C224.415 799.325 210.099 780.67 222.011 781.757C233.924 782.844 236.451 769.729 208.658 767.193C180.865 764.666 174.97 770.799 174.97 770.799Z" fill="#573353"/>
<path d="M432.288 551.366C440.224 556.314 432.288 559.994 417.633 558.693C402.971 557.393 402.321 532.695 432.288 551.366Z" fill="#992C29"/>
<path d="M433.917 555.441C433.917 555.441 432.18 558.158 428.541 558.372C424.902 558.586 418.448 558.372 415.023 557.722C411.598 557.072 413.228 559.352 413.228 559.352C413.228 559.352 417.954 561.303 423.972 561.303C429.998 561.303 435.695 559.023 436.189 557.393C436.683 555.763 435.703 554.791 433.917 555.441Z" fill="#F3E7D9"/>
<path d="M390.229 556.783C409.721 556.783 425.522 547.768 425.522 536.646C425.522 525.525 409.721 516.509 390.229 516.509C370.737 516.509 354.936 525.525 354.936 536.646C354.936 547.768 370.737 556.783 390.229 556.783Z" fill="#1D2538"/>
<path d="M404.322 630.572C403.26 620.981 403.26 636.615 399.349 611.736C395.439 586.865 381.229 552.395 389.758 539.964C398.287 527.533 422.804 527.17 426.715 552.758C430.625 578.345 435.952 621.689 432.041 629.864C428.13 638.039 405.384 640.163 404.322 630.572Z" fill="#1D2538"/>
<path d="M405.927 618.009C405.153 611.02 402.296 613.424 402.305 604.294C402.305 595.156 419.387 542.689 422.236 561.328C425.084 579.966 428.962 611.539 426.122 617.499C423.281 623.459 406.701 624.999 405.927 618.009Z" fill="#273252"/>
<path d="M409.647 615.646C404.321 617.425 400.764 625.6 399.694 635.899C398.624 646.198 401.472 660.062 400.756 663.256C400.04 666.45 398.27 665.742 398.27 676.757C398.27 687.773 400.402 701.982 400.402 708.379C400.402 714.776 405.728 719.04 405.728 719.04C405.728 719.04 412.125 712.643 422.432 712.289C432.74 711.935 438.774 717.978 438.066 708.025C437.358 698.072 436.288 672.847 435.226 667.158C434.164 661.469 437.004 656.851 437.004 651.17C437.004 645.482 434.518 613.86 428.121 612.436C421.733 611.028 414.982 613.876 409.647 615.646Z" fill="#1D2538"/>
<path d="M404.674 616.478C403.999 623.04 411.425 640.526 411.425 640.526C411.425 640.526 404.576 650.603 404.32 653.319C403.612 660.778 403.489 659.362 405.621 665.043C406.156 666.467 418.884 661.486 418.884 661.486C418.884 661.486 427.882 649.17 427.882 644.906C427.882 639.217 430.961 612.214 424.565 610.798C418.168 609.382 405.736 606.171 404.674 616.478Z" fill="#273252"/>
<path d="M401.834 715.805C401.834 715.805 399.85 721.09 402.542 723.791C405.242 726.491 417.954 729.784 422.679 731.134C427.405 732.484 445.5 727.915 449.213 727.578C452.926 727.24 454.128 715.805 445.689 710.742C437.259 705.679 425.783 706.354 418.703 710.067C411.615 713.78 413.302 714.117 409.935 716.818C406.551 719.51 405.876 712.767 401.834 715.805Z" fill="#EE5D4F"/>
<path d="M401.834 715.855C401.357 717.633 400.294 719.765 403.727 722.367C406.765 724.672 420.135 728.171 425.05 728.525C429.965 728.879 446.801 724.359 450.514 724.022C454.227 723.684 452.053 706.256 439.737 706.017C417.385 705.589 411.071 711.936 411.071 711.936C411.071 711.936 402.303 714.077 401.834 715.855Z" fill="#121721"/>
<path d="M404.32 628.44C404.32 628.44 407.515 637.677 416.044 640.518C416.044 640.518 409.293 644.074 405.382 639.093C401.472 634.129 404.32 628.44 404.32 628.44Z" fill="#1D2538"/>
<path d="M354.454 534.992C350.19 558.208 346.872 588.051 347.819 595.164C348.766 602.269 357.295 603.693 366.77 603.215C376.246 602.738 377.67 591.846 379.086 583.795C380.502 575.743 390.694 548.617 386.907 538.194C383.112 527.763 358.719 511.775 354.454 534.992Z" fill="#1D2538"/>
<path d="M372.222 630.218C367.957 637.8 367.249 640.402 367.249 649.639C367.249 658.876 363.693 665.273 368.904 668.352C374.115 671.431 377.902 669.537 380.751 667.405C383.591 665.273 388.094 663.379 389.749 651.532C391.404 639.686 391.881 631.634 385.962 629.741C380.034 627.847 376.486 622.636 372.222 630.218Z" fill="#EE5D4F"/>
<path d="M370.328 628.086C367.957 631.165 365.824 638.747 365.824 647.984C365.824 657.221 361.799 663.149 367.01 666.228C372.221 669.307 375.3 667.652 378.857 665.281C382.413 662.91 386.2 661.255 387.855 649.408C389.51 637.562 389.987 629.51 384.068 627.617C378.141 625.715 372.691 625.007 370.328 628.086Z" fill="#121721"/>
<path d="M349.713 591.846C349.713 591.846 347.819 602.746 348.766 609.373C349.713 616.009 351.606 616.478 353.977 619.326C356.348 622.175 356.818 621.697 361.082 627.855C365.347 634.013 367.24 634.491 367.24 634.491C367.24 634.491 364.869 635.915 366.763 638.755C369.372 646.807 384.051 634.73 384.051 634.73C388.316 629.996 382.866 622.652 382.866 622.652C382.866 622.652 384.759 620.759 384.759 619.335C384.759 617.91 378.601 599.436 378.601 599.436C378.601 599.436 378.601 587.12 370.072 587.12C361.543 587.12 353.977 582.839 349.713 591.846Z" fill="#1D2538"/>
<path d="M351.73 591.13C346.041 613.514 354.924 614.757 357.295 617.598C359.666 620.438 363.099 632.696 370.558 633.05C378.017 633.404 379.976 631.099 380.865 626.118C381.754 621.138 384.949 620.965 383.533 616.7C382.117 612.436 380.157 604.261 374.468 597.156C368.788 590.068 353.376 584.634 351.73 591.13Z" fill="#273252"/>
<path d="M377.193 598.243C377.193 598.243 375.3 606.772 375.061 610.32C375.061 610.32 377.193 605.347 377.901 601.791C378.618 598.243 377.193 598.243 377.193 598.243Z" fill="#1D2538"/>
<path d="M352.792 615.77C352.792 615.77 356.348 619.795 360.844 618.379C360.844 618.379 363.215 618.618 360.366 619.804C357.534 620.981 354.924 621.928 352.792 615.77Z" fill="#1D2538"/>
<path d="M382.883 622.636C382.883 622.636 377.194 627.139 374.115 631.165C374.115 631.165 380.75 626.9 382.166 625.715C383.591 624.529 382.883 622.636 382.883 622.636Z" fill="#1D2538"/>
<path d="M457.148 564.34C457.148 564.34 457.362 573.24 457.362 574.763C457.362 576.286 456.498 585.185 459.1 583.448C461.701 581.711 462.137 580.847 462.36 575.636C462.574 570.416 457.148 564.34 457.148 564.34Z" fill="#F5894E"/>
<path d="M458.228 568.679C458.228 568.679 453.889 578.451 453.667 579.966C453.453 581.489 456.054 583.004 458.005 579.966C459.965 576.937 460.623 568.901 458.228 568.679Z" fill="#F5894E"/>
<path d="M449.542 556.305C449.542 556.305 451.279 556.956 449.105 560.216C446.932 563.476 447.368 564.991 447.805 569.552C448.241 574.113 446.282 577.15 447.805 577.587C449.328 578.023 450.192 580.188 452.143 575.413C454.094 570.638 452.58 569.552 455.181 567.601C457.783 565.649 461.257 572.598 461.257 572.598C461.257 572.598 461.257 580.196 461.043 581.72C460.829 583.243 462.343 588.018 464.731 583.671C467.118 579.324 466.032 578.245 466.032 573.462C466.032 568.679 466.246 566.514 466.032 562.175C465.818 557.837 462.343 553.49 459.52 549.151C456.712 544.796 449.542 556.305 449.542 556.305Z" fill="#CC6D3D"/>
<path d="M436.082 512.45C436.082 512.45 424.029 484.443 421.864 470.11C419.691 455.777 417.089 449.808 423.165 450.244C429.241 450.681 442.166 456.863 446.29 474.671C449.896 490.222 457.693 499.64 456.713 505.502C455.733 511.364 440.429 522.436 436.082 512.45Z" fill="#1D2538"/>
<path d="M435.62 511.388C435.62 511.388 428.137 495.433 427.149 485.496C426.169 475.56 427.371 465.911 430.112 466.216C432.862 466.52 438.691 470.809 440.56 483.15C442.19 493.935 445.705 500.463 445.269 504.522C444.832 508.589 437.588 518.312 435.62 511.388Z" fill="#273252"/>
<path d="M461.274 552.831C461.274 552.831 451.938 553.918 448.9 553.045C440.923 550.765 443.039 548.048 441.738 538.934C440.437 529.813 431.315 518.526 436.09 509.84C437.688 506.934 440.528 508.276 443.903 507.239C450.621 505.164 455.594 503.641 456.927 508.976C459.101 517.661 464.526 532.859 466.699 539.371C468.873 545.883 468.436 552.181 461.274 552.831Z" fill="#992C29"/>
<path d="M461.274 552.831C461.274 552.831 451.938 553.918 448.9 553.045C440.923 550.765 443.039 548.048 441.738 538.934C440.437 529.813 431.315 518.526 436.09 509.84C437.688 506.934 440.528 508.276 443.903 507.239C447.814 506.029 437.827 517.011 439.779 523.194C441.73 529.385 449.32 542.137 449.872 544.36C452.045 553.045 464.526 532.851 466.699 539.363C468.873 545.883 468.436 552.181 461.274 552.831Z" fill="#EE5D4F"/>
<path d="M448.677 552.181C446.726 551.745 446.504 556.519 449.114 557.828C451.715 559.129 458.663 559.129 462.138 557.392C465.612 555.655 464.961 556.528 464.525 552.181C464.089 547.834 450.628 552.617 448.677 552.181Z" fill="#FFFCF3"/>
<path d="M352.817 452.409C346.626 451.759 347.276 453.71 339.134 458.6C330.992 463.482 328.712 469.459 327.732 472.39C326.752 475.321 329.033 471.41 325.451 472.061C321.87 472.711 321.22 474.012 315.358 481.182C308.015 490.156 309.497 492.362 309.497 495.293C309.497 498.224 314.979 508.531 327.081 502.242C332.507 499.418 335.553 494.857 340.542 491.169C345.539 487.48 360.3 475.214 361.601 466.742C362.902 458.271 359.008 453.06 352.817 452.409Z" fill="#273252"/>
<path d="M352.817 452.41C354.537 446.433 347.276 453.71 339.134 458.601C330.992 463.483 328.712 469.46 327.732 472.39C326.752 475.321 329.033 471.411 325.451 472.061C321.87 472.711 321.22 474.012 315.358 481.183C308.015 490.156 309.497 492.363 309.497 495.294C309.497 498.224 317.095 496.38 317.095 496.38L315.358 491.169C315.366 491.169 326.217 477.272 352.817 452.41Z" fill="#3E4C6F"/>
<path d="M305.265 531.336C305.265 531.336 295.946 524.52 295.172 518.74C294.398 512.961 295.822 512.442 295.822 512.442C295.822 512.442 294.225 511.01 295.567 507.824C296.909 504.63 297.444 503.419 300.383 497.467C300.753 496.718 303.594 495.705 303.594 495.705C303.594 495.705 306.162 492.972 306.788 492.231C309.25 489.333 310.583 491.523 311.67 491.82C313.028 492.19 317.318 497.549 317.318 497.549C317.318 497.549 318.38 496.874 321.878 499.855C325.377 502.835 323.533 511.965 319.252 516.814C314.971 521.655 305.265 531.336 305.265 531.336Z" fill="#C94039"/>
<path d="M321.228 501.979C321.228 501.979 320.002 495.837 314.675 492.972C309.348 490.107 310.987 494.61 313.86 496.249C316.733 497.887 317.548 501.575 317.548 501.575C317.548 501.575 313.457 494.61 299.124 501.575C299.124 501.575 309.768 497.887 314.272 501.987C318.775 506.078 317.137 504.44 317.137 504.44C317.137 504.44 311.407 502.802 305.668 504.44C299.939 506.078 299.527 510.17 299.527 510.17C299.527 510.17 306.08 504.028 315.087 506.482C324.093 508.935 315.087 506.482 315.087 506.482C315.087 506.482 306.895 506.482 304.442 512.623C301.988 518.765 306.08 513.85 310.172 511.397C314.263 508.935 320.817 514.262 321.228 501.979Z" fill="#992C29"/>
<path d="M411.551 547.95C410.283 547.999 409.213 549.473 410.686 551.754C412.16 554.034 413.403 552.19 418.771 552.355C424.147 552.519 429.679 554.149 432.124 555.936C434.569 557.73 436.035 558.537 436.85 554.306C437.665 550.066 416.762 547.728 411.551 547.95Z" fill="#F3E7D9"/>
<path d="M366.387 549.901C367.252 550.337 367.474 553.812 365.086 553.812C362.699 553.812 346.736 558.916 346.415 555.112C346.085 551.317 365.523 549.465 366.387 549.901Z" fill="#F3E7D9"/>
<path d="M372.092 445.626C372.092 445.626 390.328 443.815 405.113 445.692C412.399 446.614 424.213 458.856 427.07 475.807C429.927 492.758 431.466 542.969 431.466 542.969L351.865 545.883C351.857 545.883 354.878 450.821 372.092 445.626Z" fill="#F7BC4B"/>
<path d="M397.697 521.309L410.449 488.897L405.114 445.692C412.4 446.614 424.214 458.856 427.071 475.807C429.927 492.758 431.467 542.969 431.467 542.969L374.324 544.681C374.324 544.681 393.49 533.147 401.78 527.08C407.699 522.749 406.201 516.468 406.201 516.468L397.697 521.309Z" fill="#CE9436"/>
<path d="M402.775 448.648C402.857 453.736 396.765 464.545 390.87 464.109C384.976 463.672 379.271 455.036 379.188 449.949C379.106 444.861 385.034 444.342 390.928 444.77C396.814 445.207 402.701 444.663 402.775 448.648Z" fill="#F5894E"/>
<path d="M376.538 445.552C374.364 442.078 354.449 445.47 350.975 451.982C349.329 455.069 348.687 461.293 348.588 468.151C348.481 475.758 349.049 484.147 349.674 489.869C350.539 497.797 350.539 503.329 346.291 518.988C341.409 536.959 344.167 556.191 347.509 554.783C355.775 551.301 362.995 550.708 365.58 550.84C366.593 550.889 367.424 550.041 367.366 549.029C367.366 549.029 371.392 546.97 369.441 533.617C367.49 520.264 365.448 505.083 367.054 491.82C368.651 478.565 377.369 446.878 376.538 445.552Z" fill="#992C29"/>
<path d="M383.272 444.054C375.525 451.595 384.548 484.468 389.413 484.023C394.279 483.579 407.344 447.833 398.905 444.004" stroke="#992C29" stroke-width="0.823264" stroke-miterlimit="10"/>
<path d="M389.158 490.42C390.108 490.42 390.878 488.887 390.878 486.995C390.878 485.104 390.108 483.57 389.158 483.57C388.207 483.57 387.437 485.104 387.437 486.995C387.437 488.887 388.207 490.42 389.158 490.42Z" fill="#29ABE2"/>
<path d="M380.704 444.095C376.464 443.362 373.517 443.684 371.055 445.248C368.593 446.812 365.687 450.484 363.143 458.766C360.591 467.056 365.622 484.065 368.124 484.221C368.75 484.262 370.569 476.787 372.52 466.686C375.904 449.241 383.857 444.639 380.704 444.095Z" fill="#F3E7D9"/>
<path d="M404.166 445.14C400.881 448.828 412.868 457.341 415.395 483.71C416.696 497.294 408.405 517.126 407.805 528.792C407.204 540.458 407.195 547.143 409.163 548.707C410.036 549.398 417.964 548.518 424.311 550.23C435.598 553.268 436.528 555.878 436.528 555.878C436.528 555.878 444.572 536.259 432.593 516.838C425.192 504.835 434.684 457.522 428.065 451.66C421.43 445.791 407.459 441.452 404.166 445.14Z" fill="#C94039"/>
<path d="M415.354 484.764C417.149 482.467 419.043 475.387 418.071 464.026C417.421 456.428 414.539 451.628 411.287 446.491C408.192 441.609 400.807 443.502 401.515 444.696C403.475 448.006 406.298 462.355 410.143 473.033C414.416 484.913 413.56 487.07 415.354 484.764Z" fill="#F3E7D9"/>
<path d="M419.397 527.253L417.462 528.644C417.462 528.644 422.328 536.408 429.828 535.724L429.877 533.93C429.877 533.93 424.188 534.07 419.397 527.253Z" fill="#F3E7D9"/>
<path d="M366.631 505.156C376.287 529.047 363.955 538.366 350.602 545.249C337.857 551.819 318.972 542.524 314.781 528.948C311.324 517.744 313.299 507.543 319.746 499.788C322.504 496.47 328.077 492.082 334.342 489.934C344.229 486.55 358.513 491.893 366.631 505.156Z" fill="#EE5D4F"/>
<path d="M314.781 528.948C311.324 517.744 313.299 507.544 319.746 499.788C322.504 496.471 328.077 492.083 334.342 489.934C344.229 486.55 318.972 542.524 314.781 528.948Z" fill="#C94039"/>
<path d="M350.922 504.851C358.751 516.245 340.721 533.073 334.448 536.456C328.175 539.84 318.18 535.427 315.06 523.408C313.833 518.666 314.492 514.92 316.386 511.791C318.452 508.375 323.457 510.548 327.607 508.136C331.624 505.806 334.571 499.113 338.762 498.833C343.323 498.52 347.628 500.068 350.922 504.851Z" fill="#1D2538"/>
<path d="M348.18 504.621C355.886 515.249 342.796 532.496 334.448 536.456C326.1 540.416 318.889 534.966 316.09 524.066C314.649 518.451 314.995 514.582 317.901 511.52C319.662 509.667 324.594 511.108 327.393 509.354C331.74 506.629 333.814 500.43 338.54 499.953C342.5 499.557 345.389 500.776 348.18 504.621Z" fill="#FEED7F"/>
<path d="M322.133 534.744L351.458 514.146C351.458 514.146 344.287 499.821 338.837 501.007C333.387 502.192 319.054 532.406 322.133 534.744Z" fill="#F7BC4B"/>
<path d="M315.457 531.163C315.457 531.163 321.895 532.019 326.192 529.121C330.482 526.223 327.724 519.966 330.77 517.908C332.499 516.739 336.401 521.185 339.332 520.872C344.09 520.37 350.775 512.211 352.199 509.684C353.624 507.156 364.277 519.061 364.647 527.557C365.001 535.608 355.591 545.167 343.39 546.533C331.19 547.908 324.908 547.159 315.457 531.163Z" fill="#C94039"/>
<path d="M318.133 530.183C318.133 530.183 322.784 532.135 326.818 529.41C330.86 526.685 329.066 520.255 330.539 518.954C332.013 517.653 335.956 522.214 338.747 521.967C343.275 521.556 351.417 512.459 352.759 510.063C354.118 507.659 368.887 523.507 361.091 534.539C356.546 540.968 350.199 544.344 343.876 544.945C332.285 546.056 322.06 540.359 318.133 530.183Z" fill="#1D2538"/>
<path d="M315.541 518.617C319.797 520.963 321.098 526.751 318.455 531.558C315.813 536.366 310.215 538.359 305.958 536.02C301.702 533.674 300.879 529.92 303.637 523.194C306.395 516.468 311.285 516.279 315.541 518.617Z" fill="#FFFCF3"/>
<path d="M315.681 522.28C318.513 523.845 319.386 527.706 317.624 530.908C315.863 534.111 313.64 536.589 310.808 535.025C307.976 533.46 306.733 529.978 308.206 526.01C309.663 522.058 312.849 520.716 315.681 522.28Z" fill="#992C29"/>
<path d="M321.337 524.388C321.337 524.388 327.873 521.251 328.244 519.992C328.614 518.74 329.396 515.801 324.3 518.049C322.959 518.641 321.049 517.793 319.501 518.411C315.137 520.14 311.326 523.597 313.31 526.989C316.002 531.6 321.337 524.388 321.337 524.388Z" fill="#CC6D3D"/>
<path d="M318.866 539.882C318.866 539.882 326.325 542.121 328.145 541.866C329.758 541.635 331.322 540.129 331.322 540.129L333.759 537.486C333.759 537.486 336.204 531.163 335.883 530.035C335.562 528.908 334.582 524.824 334.582 524.824C335.035 523.77 331.792 522.857 330.581 522.354C329.371 521.852 326.111 526.775 323.617 526.882C321.122 526.989 316.454 523.737 314.931 524.602C311.136 525.796 308.716 535.798 318.866 539.882Z" fill="#CC6D3D"/>
<path d="M318.513 528.627C318.513 532.044 318.027 536.877 315.146 536.877C312.264 536.877 308.09 532.044 308.09 528.627C308.09 525.211 310.42 522.437 313.302 522.437C316.183 522.437 318.513 525.203 318.513 528.627Z" fill="#CC6D3D"/>
<path d="M380.495 426.576L382.907 447.569C382.907 447.569 384.751 451.636 391.51 451.184C398.269 450.731 400.468 447.314 400.468 447.314L397.043 422.271L380.495 426.576Z" fill="#F5894E"/>
<path d="M380.495 426.576C380.495 426.576 387.55 440.325 390.712 442.852C393.873 445.379 400.122 444.589 400.122 444.589L397.858 422.254L380.495 426.576Z" fill="#CC6D3D"/>
<path d="M410.454 422.508C404.14 437.377 398.641 436.932 398.641 436.932C375.318 439.344 363.117 426.74 364.245 412.02C364.837 396.765 367.933 391.175 384.612 390.722C407.836 390.08 416.077 409.262 410.454 422.508Z" fill="#1D2538"/>
<path d="M410.454 422.508C404.14 437.377 398.641 436.932 398.641 436.932C375.318 439.344 363.117 426.74 364.245 412.02C364.837 396.765 365.784 389.347 385.131 387.742C411.994 385.511 416.077 409.262 410.454 422.508Z" fill="#1D2538"/>
<path d="M412.019 422.665C406.635 435.351 389.009 426.131 389.009 426.131C385.436 423.949 384.053 411.18 383.246 402.734C382.555 395.448 378.373 388.59 398.452 390.607C416.3 392.393 416.811 411.378 412.019 422.665Z" fill="#3E4C6F"/>
<path d="M384.72 392.5C384.72 392.5 373.557 396.098 371.449 398.436C369.342 400.774 366.386 425.192 370.387 433.12C374.331 440.941 399.959 439.789 405.705 434.067C410.414 429.383 409.254 428.378 410.242 420.648C411.279 412.506 406.446 401.581 405.829 398.436C404.775 393.036 384.72 392.5 384.72 392.5Z" fill="#CC6D3D"/>
<path d="M413.245 417.561C412.225 422.155 409.887 425.703 408.001 425.489C406.108 425.275 405.383 421.356 406.396 416.721C407.417 412.07 409.779 408.497 411.681 408.752C413.575 408.999 414.266 412.951 413.245 417.561Z" fill="#CC6D3D"/>
<path d="M373.094 408.686C368.023 412.004 366.377 430.148 375.202 434.816C384.027 439.492 391.914 438.035 398.023 432.593C403.374 427.827 400.32 420.047 392.902 414.827C383.838 408.447 378.166 405.368 373.094 408.686Z" fill="#F5894E"/>
<path d="M362.969 417.47C363.685 421.389 365.784 424.419 367.669 424.246C369.563 424.073 370.534 420.747 369.826 416.795C369.118 412.835 366.994 409.773 365.093 409.979C363.199 410.176 362.252 413.535 362.969 417.47Z" fill="#F5894E"/>
<path d="M405.992 399.029C405.992 399.029 404.757 410.991 406.173 414.531L409.326 419.776L410.388 402.8L405.992 399.029Z" fill="#3E4C6F"/>
<path d="M368.658 419.751C368.658 419.751 368.435 407.838 369.127 404.257L370.609 398.938L370.633 415.865L368.658 419.751Z" fill="#1D2538"/>
<path d="M405.728 390.879C405.728 390.879 401.414 393.365 387.007 393.447C379.853 393.488 373.777 394.863 370.303 394.509C361.765 393.628 376.09 385.264 390.769 384.918C405.621 384.564 405.728 390.879 405.728 390.879Z" fill="#1D2538"/>
<path d="M390.853 384.82C379.08 385.347 366.821 391.011 373.704 391.71C375.655 391.908 378.767 392.18 382.538 392.385C389.165 391.842 396.056 390.072 396.056 390.072C395.619 391.735 391.931 392.402 387.938 392.632C391.322 392.748 394.985 392.789 398.698 392.707C404.79 392.567 405.433 392.731 405.852 391.686C406.684 389.553 403.58 384.252 390.853 384.82Z" fill="#3E4C6F"/>
<path d="M396.878 402.273C396.985 404.002 396.211 404.801 395.346 404.85C394.482 404.899 393.856 404.183 393.749 402.454C393.642 400.725 394.26 399.293 395.124 399.235C395.989 399.194 396.771 400.553 396.878 402.273Z" fill="#34283A"/>
<path d="M382.447 403.302C382.554 405.031 381.78 405.83 380.916 405.879C380.051 405.929 379.426 405.212 379.319 403.483C379.212 401.755 379.829 400.322 380.694 400.264C381.558 400.207 382.34 401.582 382.447 403.302Z" fill="#34283A"/>
<path d="M399.184 396.576C399.184 396.576 397.496 393.53 394.747 394.362" stroke="#34283A" stroke-width="0.823264" stroke-miterlimit="10" stroke-linecap="round" stroke-linejoin="round"/>
<path d="M379.606 395.44C379.606 395.44 376.346 395.209 375.589 397.786" stroke="#34283A" stroke-width="0.823264" stroke-miterlimit="10" stroke-linecap="round" stroke-linejoin="round"/>
<path d="M112.167 413.568L148.012 424.583L184.73 412.852L149.379 391.529L112.167 413.568Z" fill="#FEED7F"/>
<path d="M185.027 409.517L184.731 412.852L149.577 393.727L149.223 389.076L185.027 409.517Z" fill="#CC6D3D"/>
<path d="M112.167 413.568L111.912 410.275L149.222 389.076L149.576 393.727L112.167 413.568Z" fill="#F7BC4B"/>
<path d="M107.87 444.259L151.223 417.503L191.81 440.67L149.329 446.548L107.87 444.259Z" fill="#FEED7F"/>
<path d="M191.81 440.67L184.804 417.915L149.774 398.626L111.698 418.895L107.87 444.26L150.91 424.131L191.81 440.67Z" fill="#CC6D3D"/>
<path d="M107.87 444.26L111.698 418.895L149.774 398.626L150.91 424.131L107.87 444.26Z" fill="#F7BC4B"/>
<path d="M121.452 428.079C121.673 426.706 121.234 425.493 120.47 425.37C119.707 425.247 118.909 426.261 118.688 427.634C118.467 429.008 118.906 430.221 119.669 430.344C120.433 430.467 121.23 429.453 121.452 428.079Z" fill="#665070"/>
<path d="M136.046 422.756C136.267 421.382 135.828 420.169 135.065 420.046C134.302 419.923 133.504 420.937 133.282 422.311C133.061 423.684 133.5 424.897 134.264 425.02C135.027 425.143 135.825 424.129 136.046 422.756Z" fill="#665070"/>
<path d="M149.52 506.589L176.103 497.936L190.296 446.35L151.101 430.502L149.52 506.589Z" fill="#CC6D3D"/>
<path d="M176.102 497.936L151.355 487.456L127.299 496.742L149.519 506.588L176.102 497.936Z" fill="#FEED7F"/>
<path d="M151.355 487.456L151.1 430.502L108.875 450.565L114.069 463.581L115.592 464.017L114.481 464.61L120.713 480.228L122.129 480.631L121.133 481.117L127.299 496.742L151.355 487.456Z" fill="#F7BC4B"/>
<path d="M157.833 447.388L154.812 446.128L155.207 437.937L158.27 439.155L157.833 447.388Z" fill="#F7BC4B"/>
<path d="M162.41 449.239L159.323 447.955L159.776 439.698L162.904 440.941L162.41 449.239Z" fill="#F7BC4B"/>
<path d="M177.279 452.376C176.925 452.063 176.711 451.495 176.76 450.993L176.851 450.013C176.917 449.33 177.427 449.083 177.913 449.503C178.267 449.816 178.481 450.392 178.432 450.894L178.341 451.874C178.275 452.557 177.757 452.796 177.279 452.376Z" fill="#FEED7F"/>
<path d="M179.947 453.398C179.593 453.085 179.379 452.508 179.428 452.006L179.527 451.027C179.593 450.343 180.112 450.096 180.597 450.516C180.951 450.829 181.174 451.405 181.124 451.916L181.026 452.904C180.951 453.579 180.433 453.826 179.947 453.398Z" fill="#FEED7F"/>
<path d="M182.869 454.665C182.515 454.352 182.292 453.768 182.342 453.266L182.441 452.278C182.506 451.586 183.042 451.339 183.527 451.767C183.89 452.08 184.104 452.665 184.054 453.175L183.955 454.163C183.89 454.855 183.354 455.093 182.869 454.665Z" fill="#F5894E"/>
<path d="M173.92 452.706L164.378 448.589L164.411 447.717L173.961 451.808L173.92 452.706Z" fill="#665070"/>
<path d="M173.945 449.882L164.519 445.732V444.827L173.954 448.959L173.945 449.882Z" fill="#FEED7F"/>
<path d="M174.185 447.058L164.569 443.032L164.561 441.979L174.176 446.004L174.185 447.058Z" fill="#FEED7F"/>
<path d="M157.538 463.597L154.442 462.486L154.319 454.22L157.661 455.505L157.538 463.597Z" fill="#F7BC4B"/>
<path d="M162.032 465.162L159.019 464.084L159.258 456.073L162.485 457.316L162.032 465.162Z" fill="#F7BC4B"/>
<path d="M175.451 467.417C175.171 467.17 175.031 466.7 175.114 466.289L175.278 465.457C175.394 464.873 175.879 464.65 176.266 464.996C176.546 465.251 176.686 465.737 176.596 466.157L176.423 466.972C176.299 467.532 175.83 467.746 175.451 467.417Z" fill="#FEED7F"/>
<path d="M177.659 468.158C177.387 467.919 177.256 467.458 177.354 467.047L177.536 466.232C177.667 465.655 178.145 465.433 178.524 465.779C178.795 466.034 178.919 466.503 178.82 466.923L178.631 467.73C178.499 468.273 178.03 468.487 177.659 468.158Z" fill="#FEED7F"/>
<path d="M179.989 469.08C179.725 468.841 179.61 468.389 179.709 467.985L179.906 467.187C180.046 466.619 180.532 466.405 180.894 466.742C181.158 466.989 181.273 467.458 181.166 467.862L180.96 468.652C180.82 469.195 180.343 469.401 179.989 469.08Z" fill="#F5894E"/>
<path d="M172.482 467.788L163.912 464.528L163.945 463.737L172.581 467.047L172.482 467.788Z" fill="#665070"/>
<path d="M172.704 465.417L164.077 461.926L164.085 461.07L172.779 464.619L172.704 465.417Z" fill="#665070"/>
<path d="M173.123 462.939L164.141 459.366L164.149 458.329L173.197 461.984L173.123 462.939Z" fill="#FEED7F"/>
<path d="M157.092 480.763L154.269 479.791L154.162 471.484L157.224 472.637L157.092 480.763Z" fill="#F7BC4B"/>
<path d="M161.176 482.137L158.435 481.191L158.682 473.139L161.645 474.259L161.176 482.137Z" fill="#F7BC4B"/>
<path d="M173.369 483.816C173.122 483.586 172.998 483.125 173.081 482.705L173.245 481.874C173.36 481.289 173.805 481.042 174.151 481.371C174.406 481.61 174.513 482.088 174.422 482.516L174.25 483.339C174.143 483.899 173.706 484.129 173.369 483.816Z" fill="#FEED7F"/>
<path d="M175.362 484.467C175.123 484.237 175.008 483.784 175.107 483.372L175.288 482.557C175.42 481.981 175.864 481.734 176.202 482.064C176.449 482.302 176.547 482.772 176.449 483.183L176.259 483.99C176.128 484.55 175.691 484.772 175.362 484.467Z" fill="#F5894E"/>
<path d="M177.469 485.283C177.23 485.06 177.139 484.616 177.238 484.213L177.436 483.406C177.576 482.838 178.02 482.599 178.35 482.92C178.588 483.15 178.679 483.611 178.572 484.023L178.366 484.813C178.218 485.357 177.782 485.579 177.469 485.283Z" fill="#F5894E"/>
<path d="M170.662 484.303L162.89 481.43L162.931 480.64L170.761 483.57L170.662 484.303Z" fill="#665070"/>
<path d="M170.891 481.948L163.062 478.828L163.07 477.972L170.974 481.149L170.891 481.948Z" fill="#FEED7F"/>
<path d="M171.319 479.454L163.144 476.251L163.152 475.214L171.401 478.507L171.319 479.454Z" fill="#FEED7F"/>
<path d="M114.086 463.598L151.216 447.964L151.174 449.512L115.593 464.001L114.086 463.598Z" fill="#FEED7F"/>
<path d="M120.721 480.236L151.256 467.928L151.273 469.352L122.121 480.639L120.721 480.236Z" fill="#FEED7F"/>
<path d="M560.939 356.911L525.679 367.992L487.759 356.812L524.996 331.201L560.939 356.911Z" fill="#F5894E"/>
<path d="M487.396 353.116L487.759 356.812L524.995 333.662V328.467L487.396 353.116Z" fill="#F7BC4B"/>
<path d="M560.937 356.911L561.151 353.239L524.994 328.467V333.662L560.937 356.911Z" fill="#CC6D3D"/>
<path d="M494.287 373.986L522.459 387.158L552.78 373.162L524.303 349.288L494.287 373.986Z" fill="#F5894E"/>
<path d="M490.854 359.99L524.864 337.762L555.966 358.343L552.78 373.162L525.942 357.932L494.288 373.985L490.854 359.99Z" fill="#F7BC4B"/>
<path d="M525.505 358.343L524.863 337.762L555.966 358.343L552.78 373.162L525.505 358.343Z" fill="#CC6D3D"/>
<path d="M494.953 377.279L504.898 426.675L525.554 431.614L546.144 425.028L552.623 376.455L525.348 361.637L494.953 377.279Z" fill="#F7BC4B"/>
<path d="M504.898 426.675L527.06 417.619L546.144 425.028L525.554 431.614L504.898 426.675Z" fill="#F5894E"/>
<path d="M527.061 417.619L525.348 361.637L552.623 376.455L546.144 425.028L527.061 417.619Z" fill="#CC6D3D"/>
<path d="M535.829 360.254L534.281 359.323V355.199L535.829 356.129V360.254Z" fill="#4B3355"/>
<path d="M547.841 366.691L546.342 365.761L546.573 361.669L548.071 362.6L547.841 366.691Z" fill="#4B3355"/>
<path d="M530.065 371.977L530.156 377.666L538.636 381.955L538.907 376.637L530.065 371.977Z" fill="#665070"/>
<path d="M542.422 383.947C542.109 383.585 541.904 383.091 541.904 382.663L541.879 378.72C541.871 377.806 542.694 377.658 543.361 378.448C543.674 378.818 543.871 379.312 543.871 379.74L543.888 383.643C543.888 384.54 543.081 384.713 542.422 383.947Z" fill="#F7BC4B"/>
<path d="M545.255 385.709C544.95 385.355 544.761 384.869 544.761 384.449L544.745 380.572C544.745 379.674 545.535 379.526 546.177 380.292C546.482 380.654 546.663 381.14 546.671 381.56L546.679 385.388C546.679 386.277 545.897 386.458 545.255 385.709Z" fill="#F5894E"/>
<path d="M547.872 387.372C547.576 387.026 547.395 386.557 547.395 386.137L547.387 382.325C547.387 381.444 548.161 381.288 548.778 382.037C549.074 382.391 549.247 382.869 549.247 383.28V387.043C549.255 387.915 548.498 388.096 547.872 387.372Z" fill="#F5894E"/>
<path d="M529.597 388.541L529.515 393.728L537.138 397.243L537.484 392.748L529.597 388.541Z" fill="#665070"/>
<path d="M540.505 399.293C540.184 398.922 539.986 398.42 539.994 397.976L540.027 393.958C540.036 393.036 540.875 392.888 541.55 393.686C541.863 394.065 542.061 394.567 542.053 394.995L542.02 398.972C542.011 399.886 541.18 400.067 540.505 399.293Z" fill="#F7BC4B"/>
<path d="M543.411 401.087C543.098 400.725 542.909 400.231 542.909 399.795L542.942 395.835C542.95 394.921 543.765 394.765 544.415 395.547C544.72 395.917 544.909 396.403 544.909 396.831L544.884 400.75C544.876 401.664 544.061 401.853 543.411 401.087Z" fill="#F7BC4B"/>
<path d="M545.996 402.561C545.691 402.207 545.51 401.722 545.51 401.293L545.535 397.391C545.543 396.494 546.334 396.329 546.967 397.095C547.264 397.457 547.445 397.934 547.445 398.363L547.428 402.232C547.412 403.113 546.63 403.302 545.996 402.561Z" fill="#F5894E"/>
<path d="M529.696 406.513L529.564 411.411L535.953 414.144L536.183 409.666L529.696 406.513Z" fill="#665070"/>
<path d="M538.374 415.527C538.127 415.198 537.987 414.753 538.02 414.375L538.341 410.826C538.416 409.995 539.173 409.863 539.708 410.588C539.963 410.925 540.095 411.378 540.054 411.773L539.716 415.297C539.642 416.087 538.901 416.219 538.374 415.527Z" fill="#F7BC4B"/>
<path d="M540.778 417.182C540.531 416.853 540.399 416.416 540.44 416.038L540.786 412.539C540.868 411.724 541.617 411.584 542.136 412.3C542.383 412.638 542.506 413.082 542.474 413.469L542.111 416.943C542.029 417.734 541.296 417.865 540.778 417.182Z" fill="#F7BC4B"/>
<path d="M543.255 418.573C543.017 418.252 542.893 417.824 542.926 417.445L543.297 413.988C543.379 413.181 544.12 413.049 544.639 413.749C544.877 414.078 545.001 414.523 544.96 414.902L544.581 418.335C544.49 419.125 543.766 419.257 543.255 418.573Z" fill="#F7BC4B"/>
<path d="M502.9 380.794C503.587 380.794 504.144 380.12 504.144 379.288C504.144 378.456 503.587 377.781 502.9 377.781C502.214 377.781 501.657 378.456 501.657 379.288C501.657 380.12 502.214 380.794 502.9 380.794Z" fill="#F5894E"/>
<path d="M507.683 378.572C508.369 378.572 508.926 377.897 508.926 377.065C508.926 376.233 508.369 375.559 507.683 375.559C506.996 375.559 506.439 376.233 506.439 377.065C506.439 377.897 506.996 378.572 507.683 378.572Z" fill="#F5894E"/>
<path d="M512.647 376.094C513.334 376.094 513.89 375.419 513.89 374.587C513.89 373.755 513.334 373.081 512.647 373.081C511.96 373.081 511.404 373.755 511.404 374.587C511.404 375.419 511.96 376.094 512.647 376.094Z" fill="#F5894E"/>
<path d="M517.259 373.789C517.946 373.789 518.502 373.114 518.502 372.282C518.502 371.45 517.946 370.775 517.259 370.775C516.573 370.775 516.016 371.45 516.016 372.282C516.016 373.114 516.573 373.789 517.259 373.789Z" fill="#F5894E"/>
<path d="M502.9 385.759C503.587 385.759 504.144 385.084 504.144 384.252C504.144 383.42 503.587 382.746 502.9 382.746C502.214 382.746 501.657 383.42 501.657 384.252C501.657 385.084 502.214 385.759 502.9 385.759Z" fill="#F5894E"/>
<path d="M507.683 383.536C508.369 383.536 508.926 382.862 508.926 382.03C508.926 381.197 508.369 380.523 507.683 380.523C506.996 380.523 506.439 381.197 506.439 382.03C506.439 382.862 506.996 383.536 507.683 383.536Z" fill="#F5894E"/>
<path d="M512.647 381.058C513.334 381.058 513.89 380.384 513.89 379.552C513.89 378.719 513.334 378.045 512.647 378.045C511.96 378.045 511.404 378.719 511.404 379.552C511.404 380.384 511.96 381.058 512.647 381.058Z" fill="#F5894E"/>
<path d="M517.259 378.753C517.946 378.753 518.502 378.078 518.502 377.246C518.502 376.414 517.946 375.74 517.259 375.74C516.573 375.74 516.016 376.414 516.016 377.246C516.016 378.078 516.573 378.753 517.259 378.753Z" fill="#F5894E"/>
<path d="M505.728 397.317C506.356 397.317 506.865 396.698 506.865 395.934C506.865 395.17 506.356 394.551 505.728 394.551C505.101 394.551 504.592 395.17 504.592 395.934C504.592 396.698 505.101 397.317 505.728 397.317Z" fill="#F5894E"/>
<path d="M510.125 395.284C510.752 395.284 511.261 394.665 511.261 393.901C511.261 393.137 510.752 392.518 510.125 392.518C509.497 392.518 508.989 393.137 508.989 393.901C508.989 394.665 509.497 395.284 510.125 395.284Z" fill="#F5894E"/>
<path d="M514.685 393.003C515.313 393.003 515.822 392.384 515.822 391.62C515.822 390.856 515.313 390.237 514.685 390.237C514.058 390.237 513.549 390.856 513.549 391.62C513.549 392.384 514.058 393.003 514.685 393.003Z" fill="#F5894E"/>
<path d="M518.915 390.887C519.543 390.887 520.052 390.268 520.052 389.504C520.052 388.74 519.543 388.121 518.915 388.121C518.288 388.121 517.779 388.74 517.779 389.504C517.779 390.268 518.288 390.887 518.915 390.887Z" fill="#F5894E"/>
<path d="M505.728 401.877C506.356 401.877 506.865 401.258 506.865 400.494C506.865 399.731 506.356 399.111 505.728 399.111C505.101 399.111 504.592 399.731 504.592 400.494C504.592 401.258 505.101 401.877 505.728 401.877Z" fill="#F5894E"/>
<path d="M510.125 399.844C510.752 399.844 511.261 399.225 511.261 398.461C511.261 397.697 510.752 397.078 510.125 397.078C509.497 397.078 508.989 397.697 508.989 398.461C508.989 399.225 509.497 399.844 510.125 399.844Z" fill="#F5894E"/>
<path d="M514.685 397.564C515.313 397.564 515.822 396.945 515.822 396.181C515.822 395.417 515.313 394.798 514.685 394.798C514.058 394.798 513.549 395.417 513.549 396.181C513.549 396.945 514.058 397.564 514.685 397.564Z" fill="#F5894E"/>
<path d="M518.915 395.439C519.543 395.439 520.052 394.82 520.052 394.056C520.052 393.293 519.543 392.673 518.915 392.673C518.288 392.673 517.779 393.293 517.779 394.056C517.779 394.82 518.288 395.439 518.915 395.439Z" fill="#F5894E"/>
<path d="M508.286 414.164C508.907 414.113 509.359 413.454 509.295 412.692C509.232 411.931 508.677 411.356 508.057 411.407C507.436 411.459 506.984 412.118 507.047 412.879C507.111 413.641 507.665 414.216 508.286 414.164Z" fill="#F5894E"/>
<path d="M512.634 412.312C513.254 412.26 513.706 411.601 513.643 410.84C513.58 410.079 513.025 409.503 512.404 409.555C511.784 409.607 511.332 410.266 511.395 411.027C511.458 411.788 512.013 412.363 512.634 412.312Z" fill="#F5894E"/>
<path d="M517.145 410.229C517.766 410.178 518.218 409.519 518.155 408.757C518.091 407.996 517.537 407.421 516.916 407.472C516.295 407.524 515.843 408.183 515.907 408.944C515.97 409.706 516.525 410.281 517.145 410.229Z" fill="#F5894E"/>
<path d="M521.336 408.286C521.957 408.235 522.408 407.576 522.345 406.814C522.282 406.053 521.727 405.478 521.106 405.53C520.486 405.581 520.034 406.24 520.097 407.001C520.16 407.763 520.715 408.338 521.336 408.286Z" fill="#F5894E"/>
<path d="M508.286 418.725C508.907 418.674 509.359 418.015 509.295 417.253C509.232 416.492 508.677 415.917 508.057 415.969C507.436 416.02 506.984 416.679 507.047 417.44C507.111 418.202 507.665 418.777 508.286 418.725Z" fill="#F5894E"/>
<path d="M512.634 416.873C513.254 416.822 513.706 416.163 513.643 415.401C513.58 414.64 513.025 414.065 512.404 414.116C511.784 414.168 511.332 414.827 511.395 415.588C511.458 416.35 512.013 416.925 512.634 416.873Z" fill="#F5894E"/>
<path d="M517.145 414.79C517.766 414.739 518.218 414.08 518.155 413.318C518.091 412.557 517.537 411.982 516.916 412.033C516.295 412.085 515.843 412.744 515.907 413.505C515.97 414.267 516.525 414.842 517.145 414.79Z" fill="#F5894E"/>
<path d="M521.336 412.847C521.957 412.796 522.408 412.137 522.345 411.375C522.282 410.614 521.727 410.039 521.106 410.091C520.486 410.142 520.034 410.801 520.097 411.562C520.16 412.324 520.715 412.899 521.336 412.847Z" fill="#F5894E"/>
<path d="M693.285 189.533L648.656 204.311L600.668 192.95L645.882 162.119L693.285 189.533Z" fill="#FEED7F"/>
<path d="M599.959 188.735L600.667 192.95L645.839 164.942V158.965L599.959 188.735Z" fill="#F7BC4B"/>
<path d="M693.284 189.533V185.31L645.839 158.965V164.942L693.284 189.533Z" fill="#F5894E"/>
<path d="M593.151 223.18L647.125 227.148L702.143 222.052L643.955 189.945L593.151 223.18Z" fill="#FEED7F"/>
<path d="M593.151 223.18L597.029 197.354L646.425 166.894L699.114 194.885L702.143 222.052L646.425 196.531L593.151 223.18Z" fill="#F5894E"/>
<path d="M593.151 223.18L597.029 197.354L646.425 166.894V196.531L593.151 223.18Z" fill="#F7BC4B"/>
<path d="M615.486 204.022C616.655 204.022 617.602 203.149 617.602 202.071C617.602 200.994 616.655 200.12 615.486 200.12C614.318 200.12 613.371 200.994 613.371 202.071C613.371 203.149 614.318 204.022 615.486 204.022Z" fill="#4B3355"/>
<path d="M625.58 199.132C626.749 199.132 627.696 198.259 627.696 197.181C627.696 196.104 626.749 195.23 625.58 195.23C624.412 195.23 623.464 196.104 623.464 197.181C623.464 198.259 624.412 199.132 625.58 199.132Z" fill="#4B3355"/>
<path d="M646.427 203.94L702.146 226.991L690.34 247.334L680.181 309.318L648.074 320.843L646.427 203.94Z" fill="#F5894E"/>
<path d="M612.673 310.141L609.989 290.819L610.928 290.407L609.791 289.345L607.099 269.933L607.849 269.505L606.894 268.344L604.383 250.076L605.527 249.59L604.053 248.627L594.8 228.119L646.427 203.94L648.073 299.439L612.673 310.141Z" fill="#F7BC4B"/>
<path d="M612.673 310.141L648.073 299.438L680.181 309.318L648.073 320.843L612.673 310.141Z" fill="#FEED7F"/>
<path d="M613.858 241.25C612.993 241.308 612.244 240.649 612.187 239.777L611.94 235.981C611.882 235.117 612.541 234.368 613.413 234.31C614.278 234.253 615.027 234.911 615.084 235.784L615.331 239.579C615.389 240.443 614.73 241.193 613.858 241.25Z" fill="#BB83C3"/>
<path d="M618.781 238.295C617.916 238.41 617.126 237.809 617.003 236.953L616.484 233.19C616.369 232.326 616.97 231.536 617.826 231.412C618.69 231.297 619.481 231.898 619.604 232.754L620.123 236.516C620.246 237.381 619.645 238.179 618.781 238.295Z" fill="#BB83C3"/>
<path d="M624.074 235.8C623.21 235.915 622.419 235.306 622.312 234.442L621.818 230.671C621.703 229.807 622.312 229.017 623.177 228.91C624.041 228.794 624.831 229.403 624.938 230.268L625.432 234.038C625.548 234.895 624.938 235.685 624.074 235.8Z" fill="#BB83C3"/>
<path d="M629.351 233.199C628.487 233.298 627.705 232.68 627.606 231.824L627.161 228.054C627.062 227.189 627.68 226.407 628.536 226.308C629.401 226.209 630.183 226.827 630.281 227.683L630.726 231.454C630.833 232.318 630.216 233.1 629.351 233.199Z" fill="#665070"/>
<path d="M634.407 230.499C633.543 230.564 632.786 229.906 632.728 229.041L632.456 225.254C632.39 224.39 633.049 223.632 633.913 223.575C634.778 223.509 635.535 224.168 635.593 225.032L635.865 228.819C635.922 229.683 635.272 230.441 634.407 230.499Z" fill="#665070"/>
<path d="M616.641 259.741C615.891 259.741 615.241 259.132 615.192 258.374L614.978 255.065C614.928 254.307 615.496 253.69 616.245 253.69C616.995 253.69 617.645 254.299 617.694 255.057L617.908 258.366C617.958 259.132 617.39 259.741 616.641 259.741Z" fill="#BB83C3"/>
<path d="M620.896 257.444C620.155 257.502 619.464 256.934 619.365 256.176L618.912 252.875C618.805 252.118 619.332 251.459 620.073 251.401C620.814 251.344 621.506 251.912 621.604 252.669L622.057 255.971C622.164 256.728 621.645 257.387 620.896 257.444Z" fill="#BB83C3"/>
<path d="M625.482 255.559C624.733 255.608 624.05 255.04 623.959 254.282L623.531 250.981C623.432 250.224 623.959 249.573 624.708 249.524C625.457 249.475 626.141 250.043 626.231 250.8L626.659 254.101C626.75 254.859 626.223 255.509 625.482 255.559Z" fill="#665070"/>
<path d="M630.043 253.591C629.294 253.632 628.619 253.056 628.528 252.299L628.141 248.989C628.051 248.232 628.586 247.59 629.335 247.54C630.084 247.499 630.759 248.075 630.85 248.833L631.237 252.142C631.327 252.9 630.792 253.542 630.043 253.591Z" fill="#665070"/>
<path d="M634.415 251.516C633.666 251.525 633.016 250.915 632.958 250.158L632.728 246.848C632.67 246.091 633.238 245.474 633.987 245.465C634.736 245.457 635.387 246.066 635.444 246.824L635.675 250.133C635.724 250.891 635.165 251.508 634.415 251.516Z" fill="#665070"/>
<path d="M619.194 280.348C618.445 280.306 617.795 279.664 617.745 278.899L617.531 275.581C617.482 274.823 618.05 274.239 618.799 274.272C619.548 274.313 620.199 274.955 620.248 275.721L620.462 279.039C620.512 279.804 619.943 280.389 619.194 280.348Z" fill="#BB83C3"/>
<path d="M623.45 278.273C622.709 278.289 622.018 277.688 621.919 276.931L621.466 273.605C621.359 272.848 621.886 272.214 622.627 272.197C623.368 272.181 624.059 272.782 624.158 273.539L624.611 276.865C624.718 277.622 624.199 278.256 623.45 278.273Z" fill="#BB83C3"/>
<path d="M628.028 276.626C627.279 276.634 626.596 276.033 626.505 275.268L626.077 271.942C625.979 271.184 626.505 270.55 627.255 270.542C628.004 270.534 628.687 271.135 628.778 271.9L629.206 275.226C629.305 275.992 628.778 276.618 628.028 276.626Z" fill="#665070"/>
<path d="M632.597 274.897C631.848 274.897 631.173 274.288 631.082 273.523L630.695 270.197C630.604 269.439 631.14 268.813 631.889 268.813C632.638 268.813 633.313 269.423 633.404 270.188L633.79 273.514C633.873 274.272 633.346 274.897 632.597 274.897Z" fill="#665070"/>
<path d="M636.968 273.053C636.219 273.02 635.569 272.378 635.511 271.621L635.28 268.295C635.223 267.537 635.791 266.944 636.54 266.977C637.289 267.01 637.94 267.652 637.997 268.41L638.228 271.736C638.277 272.493 637.717 273.086 636.968 273.053Z" fill="#665070"/>
<path d="M621.886 297.776C621.195 297.718 620.602 297.109 620.552 296.418L620.355 293.388C620.314 292.696 620.832 292.178 621.524 292.235C622.215 292.293 622.808 292.902 622.858 293.594L623.055 296.623C623.096 297.315 622.578 297.834 621.886 297.776Z" fill="#BB83C3"/>
<path d="M625.806 296.014C625.122 296.005 624.489 295.437 624.39 294.738L623.978 291.7C623.879 291.008 624.365 290.448 625.048 290.457C625.732 290.465 626.366 291.033 626.464 291.733L626.876 294.771C626.967 295.462 626.489 296.022 625.806 296.014Z" fill="#665070"/>
<path d="M630.021 294.664C629.338 294.647 628.704 294.079 628.614 293.38L628.218 290.342C628.128 289.65 628.614 289.09 629.297 289.107C629.98 289.123 630.614 289.691 630.705 290.391L631.1 293.429C631.19 294.129 630.705 294.68 630.021 294.664Z" fill="#665070"/>
<path d="M634.22 293.231C633.536 293.206 632.911 292.63 632.828 291.93L632.474 288.893C632.392 288.201 632.886 287.649 633.569 287.674C634.253 287.699 634.878 288.275 634.961 288.975L635.315 292.013C635.397 292.704 634.911 293.256 634.22 293.231Z" fill="#665070"/>
<path d="M638.236 291.692C637.544 291.642 636.943 291.033 636.894 290.342L636.68 287.312C636.631 286.62 637.149 286.102 637.841 286.151C638.532 286.201 639.133 286.81 639.183 287.501L639.397 290.531C639.446 291.231 638.928 291.749 638.236 291.692Z" fill="#665070"/>
<path d="M646.897 230.35L689.929 248.388L690.093 247.334L646.847 229.008L646.897 230.35Z" fill="#FEED7F"/>
<path d="M646.897 230.35L646.847 229.008L604.087 248.643L605.47 249.615L646.897 230.35Z" fill="#FEED7F"/>
<path d="M647.555 253.583L686.537 269.595L686.701 268.541L647.498 252.241L647.555 253.583Z" fill="#FEED7F"/>
<path d="M647.554 253.583L647.497 252.241L606.935 268.344L607.832 269.488L647.554 253.583Z" fill="#FEED7F"/>
<path d="M647.876 276.05L683.523 288.539L683.688 287.485L647.827 274.708L647.876 276.05Z" fill="#FEED7F"/>
<path d="M647.876 276.05L647.827 274.708L609.784 289.321L610.928 290.408L647.876 276.05Z" fill="#FEED7F"/>
<path d="M227.846 173.949L183.208 191.517L135.22 180.156L180.442 149.325L227.846 173.949Z" fill="#FEED7F"/>
<path d="M134.521 175.941L135.22 180.156L180.401 152.157V146.18L134.521 175.941Z" fill="#F7BC4B"/>
<path d="M227.846 173.949V169.734L180.401 146.18V152.157L227.846 173.949Z" fill="#F5894E"/>
<path d="M144.07 206.04L182.763 213.449L218.164 203.57L177.824 186.281L144.07 206.04Z" fill="#FEED7F"/>
<path d="M144.069 206.04L140.776 182.988L178.647 157.467L221.456 176.402L218.163 203.57L178.647 187.105L144.069 206.04Z" fill="#F5894E"/>
<path d="M144.069 206.04L140.776 182.988L178.647 157.467V187.105L144.069 206.04Z" fill="#F7BC4B"/>
<path d="M193.31 179.572C192.248 179.349 191.384 178.049 191.384 176.665V174.492C191.384 173.109 192.248 172.179 193.31 172.401C194.372 172.623 195.237 173.924 195.237 175.307V177.481C195.237 178.855 194.38 179.794 193.31 179.572Z" fill="#665070"/>
<path d="M209.165 187.063C208.103 186.841 207.239 185.54 207.239 184.157V181.984C207.239 180.601 208.103 179.67 209.165 179.893C210.227 180.115 211.092 181.416 211.092 182.799V184.972C211.092 186.347 210.227 187.286 209.165 187.063Z" fill="#665070"/>
<path d="M179.471 192.044L217.341 209.333L216.312 223.246L215.621 224.053L216.263 224.267L215.102 240.115L214.369 240.93L215.044 241.177L213.859 257.51L213.291 258.416L213.801 258.63L212.402 277.664L184.468 289.19L179.471 192.044Z" fill="#F5894E"/>
<path d="M153.126 280.134L150.525 259.881L151.34 259.593L150.302 258.564L148.08 241.358L149.059 240.905L147.849 239.843L145.98 225.667L147.199 225.181L145.791 224.218L144.07 210.98L179.471 192.044L184.468 289.19L153.126 280.134Z" fill="#F7BC4B"/>
<path d="M153.167 280.109L183.571 267.093L212.401 277.664L184.468 289.19L153.167 280.109Z" fill="#FEED7F"/>
<path d="M200.718 214.009C200.093 213.878 199.59 213.12 199.59 212.314V211.046C199.59 210.239 200.093 209.696 200.718 209.827C201.344 209.959 201.846 210.716 201.846 211.523V212.791C201.846 213.598 201.344 214.141 200.718 214.009Z" fill="#C94039"/>
<path d="M204.143 215.475C203.518 215.343 203.016 214.586 203.016 213.779V212.511C203.016 211.704 203.518 211.161 204.143 211.293C204.769 211.424 205.271 212.182 205.271 212.989V214.256C205.271 215.063 204.761 215.607 204.143 215.475Z" fill="#665070"/>
<path d="M207.395 216.941C206.769 216.809 206.267 216.051 206.267 215.245V213.977C206.267 213.17 206.769 212.627 207.395 212.758C208.021 212.89 208.523 213.648 208.523 214.454V215.722C208.523 216.529 208.021 217.072 207.395 216.941Z" fill="#665070"/>
<path d="M210.491 218.241C209.865 218.109 209.363 217.352 209.363 216.545V215.277C209.363 214.47 209.865 213.927 210.491 214.059C211.116 214.19 211.619 214.948 211.619 215.755V217.022C211.619 217.829 211.116 218.373 210.491 218.241Z" fill="#665070"/>
<path d="M200.316 228.672C199.691 228.54 199.188 227.782 199.188 226.976V225.708C199.188 224.901 199.691 224.358 200.316 224.489C200.942 224.621 201.444 225.379 201.444 226.185V227.445C201.444 228.252 200.934 228.803 200.316 228.672Z" fill="#C94039"/>
<path d="M203.732 230.137C203.107 230.005 202.604 229.248 202.604 228.441V227.173C202.604 226.366 203.107 225.823 203.732 225.955C204.358 226.086 204.86 226.844 204.86 227.651V228.918C204.86 229.717 204.358 230.269 203.732 230.137Z" fill="#665070"/>
<path d="M206.993 231.602C206.367 231.471 205.865 230.713 205.865 229.906V228.639C205.865 227.832 206.367 227.288 206.993 227.42C207.619 227.552 208.121 228.309 208.121 229.116V230.384C208.121 231.182 207.611 231.734 206.993 231.602Z" fill="#665070"/>
<path d="M210.089 232.903C209.463 232.771 208.961 232.014 208.961 231.207V229.939C208.961 229.132 209.463 228.589 210.089 228.721C210.714 228.853 211.217 229.61 211.217 230.417V231.685C211.208 232.491 210.706 233.035 210.089 232.903Z" fill="#665070"/>
<path d="M200.069 244.791C199.443 244.659 198.941 243.902 198.941 243.095V241.827C198.941 241.02 199.443 240.477 200.069 240.609C200.694 240.74 201.197 241.498 201.197 242.304V243.572C201.197 244.379 200.694 244.922 200.069 244.791Z" fill="#C94039"/>
<path d="M203.494 246.256C202.868 246.124 202.366 245.367 202.366 244.56V243.292C202.366 242.486 202.868 241.942 203.494 242.074C204.12 242.206 204.622 242.963 204.622 243.77V245.038C204.614 245.844 204.112 246.388 203.494 246.256Z" fill="#C94039"/>
<path d="M206.746 247.721C206.12 247.59 205.618 246.832 205.618 246.025V244.758C205.618 243.951 206.12 243.407 206.746 243.539C207.371 243.671 207.873 244.428 207.873 245.235V246.503C207.873 247.31 207.371 247.853 206.746 247.721Z" fill="#C94039"/>
<path d="M209.841 249.022C209.216 248.89 208.713 248.133 208.713 247.326V246.058C208.713 245.252 209.216 244.708 209.841 244.84C210.467 244.972 210.969 245.729 210.969 246.536V247.804C210.969 248.611 210.467 249.154 209.841 249.022Z" fill="#665070"/>
<path d="M199.831 262.31C199.205 262.187 198.703 261.429 198.703 260.623V259.355C198.703 258.548 199.205 257.996 199.831 258.12C200.456 258.243 200.958 259.001 200.958 259.807V261.075C200.95 261.882 200.448 262.434 199.831 262.31Z" fill="#C94039"/>
<path d="M203.248 263.735C202.622 263.611 202.12 262.854 202.12 262.047V260.779C202.12 259.972 202.622 259.421 203.248 259.544C203.873 259.668 204.375 260.425 204.375 261.232V262.5C204.375 263.306 203.865 263.858 203.248 263.735Z" fill="#C94039"/>
<path d="M206.507 265.167C205.882 265.043 205.379 264.286 205.379 263.479V262.211C205.379 261.404 205.882 260.853 206.507 260.976C207.133 261.1 207.635 261.857 207.635 262.664V263.932C207.627 264.739 207.125 265.29 206.507 265.167Z" fill="#665070"/>
<path d="M209.595 266.435C208.969 266.311 208.467 265.554 208.467 264.747V263.479C208.467 262.672 208.969 262.121 209.595 262.244C210.22 262.368 210.723 263.125 210.723 263.932V265.2C210.723 266.007 210.22 266.558 209.595 266.435Z" fill="#665070"/>
<path d="M196.818 243.202C196.686 243.202 196.546 243.177 196.414 243.136L186.346 239.695C185.671 239.464 185.226 238.723 185.35 238.04C185.473 237.357 186.132 236.995 186.807 237.225L196.875 240.666C197.55 240.897 197.995 241.638 197.872 242.321C197.765 242.856 197.328 243.202 196.818 243.202Z" fill="#665070"/>
<path d="M196.002 226.588C195.871 226.588 195.731 226.564 195.599 226.522L185.53 223.081C184.855 222.851 184.411 222.11 184.534 221.426C184.658 220.743 185.316 220.381 185.991 220.611L196.06 224.053C196.735 224.283 197.18 225.024 197.056 225.707C196.949 226.251 196.513 226.588 196.002 226.588Z" fill="#665070"/>
<path d="M196.973 211.77C196.858 211.77 196.742 211.745 196.619 211.704L186.312 207.678C185.488 207.357 184.896 206.427 185.011 205.604C185.118 204.78 185.892 204.402 186.715 204.764L197.014 209.234C197.599 209.489 197.977 210.23 197.87 210.906C197.78 211.432 197.418 211.77 196.973 211.77Z" fill="#665070"/>
<path d="M196.734 260.902C196.611 260.902 196.487 260.877 196.364 260.836L187.077 257.436C186.451 257.206 186.04 256.473 186.155 255.79C186.27 255.106 186.871 254.736 187.497 254.966L196.783 258.367C197.409 258.597 197.821 259.33 197.705 260.013C197.607 260.548 197.212 260.894 196.734 260.902Z" fill="#665070"/>
<path d="M180.449 209.621L215.619 224.053L216.311 223.246L180.392 208.279L180.449 209.621Z" fill="#CC6D3D"/>
<path d="M180.45 209.621L180.392 208.279L145.799 224.218L147.19 225.189L180.45 209.621Z" fill="#CC6D3D"/>
<path d="M181.101 227.428L214.377 240.93L215.094 240.123L181.043 226.078L181.101 227.428Z" fill="#CC6D3D"/>
<path d="M181.101 227.428L181.043 226.078L147.857 239.835L149.068 240.889L181.101 227.428Z" fill="#CC6D3D"/>
<path d="M181.42 247.508L213.256 258.416L213.832 257.486L181.371 246.166L181.42 247.508Z" fill="#CC6D3D"/>
<path d="M181.42 247.508L181.371 246.166L150.235 258.523L151.379 259.61L181.42 247.508Z" fill="#CC6D3D"/>
<path d="M495.036 69.0983L393.833 101.658L286.528 69.1065L391.346 7.10645L495.036 69.0983Z" fill="#F5894E"/>
<path d="M285.327 59.6223L286.529 69.1063L391.01 13.4207L391.536 0.0673828L285.327 59.6223Z" fill="#FEED7F"/>
<path d="M495.037 69.0981L495.523 56.7327L391.537 0.0673828L391.01 13.4207L495.037 69.0981Z" fill="#F7BC4B"/>
<path d="M392.194 92.5527L294.637 143.085L390.893 167.47L490.278 133.485L392.194 92.5527Z" fill="#F5894E"/>
<path d="M294.637 143.085L280.708 78.2776L390.045 21.6123L500.675 78.6892L490.278 133.486L392.038 96.6611L294.637 143.085Z" fill="#F7BC4B"/>
<path d="M294.637 143.085L280.708 78.2776L390.045 21.6123L392.038 96.6611L294.637 143.085Z" fill="#FEED7F"/>
<path d="M424.696 70.5795C424.976 66.8299 423.549 63.6666 421.509 63.5142C419.468 63.3618 417.587 66.2779 417.307 70.0275C417.027 73.7772 418.454 76.9405 420.494 77.0929C422.534 77.2453 424.416 74.3292 424.696 70.5795Z" fill="#4B3355"/>
<path d="M475.228 92.7541C475.484 89.3309 474.181 86.443 472.317 86.3038C470.454 86.1646 468.736 88.8268 468.48 92.25C468.224 95.6732 469.528 98.5611 471.391 98.7003C473.255 98.8395 474.973 96.1773 475.228 92.7541Z" fill="#4B3355"/>
<path d="M462.042 140.162C461.976 141.142 461.029 141.784 459.934 141.586C458.831 141.389 457.991 140.426 458.066 139.438C458.131 138.45 459.086 137.808 460.181 138.014C461.276 138.219 462.108 139.174 462.042 140.162Z" fill="#BB83C3"/>
<path d="M461.49 148.057C461.424 149.037 460.477 149.687 459.382 149.506C458.279 149.325 457.448 148.378 457.513 147.39C457.579 146.402 458.534 145.76 459.629 145.95C460.724 146.131 461.556 147.077 461.49 148.057Z" fill="#BB83C3"/>
<path d="M470.629 144.352C470.563 145.324 469.641 145.958 468.579 145.768C467.509 145.579 466.694 144.641 466.768 143.669C466.834 142.698 467.764 142.064 468.834 142.253C469.888 142.443 470.695 143.381 470.629 144.352Z" fill="#BB83C3"/>
<path d="M470.067 152.124C470.002 153.087 469.08 153.73 468.018 153.557C466.947 153.384 466.132 152.454 466.206 151.482C466.272 150.511 467.202 149.869 468.273 150.05C469.335 150.231 470.142 151.161 470.067 152.124Z" fill="#BB83C3"/>
<path d="M478.342 148.107C478.268 149.062 477.379 149.696 476.333 149.515C475.287 149.334 474.497 148.412 474.571 147.457C474.637 146.493 475.543 145.868 476.588 146.049C477.626 146.222 478.408 147.152 478.342 148.107Z" fill="#BB83C3"/>
<path d="M477.774 155.772C477.7 156.727 476.811 157.36 475.765 157.196C474.72 157.031 473.929 156.117 474.003 155.162C474.069 154.207 474.975 153.565 476.02 153.738C477.066 153.911 477.848 154.817 477.774 155.772Z" fill="#BB83C3"/>
<path d="M406.801 285.963L322.721 266.953L401.664 228.869L470.554 257.939L406.801 285.963Z" fill="#F5894E"/>
<path d="M489.069 143.324L471.377 257.972L400.807 229.66L394.147 105.808L489.069 143.324Z" fill="#F7BC4B"/>
<path d="M297.677 151.622L302.345 173.389L304.568 174.097L302.732 175.118L309.326 204.929L311.22 205.744L309.804 206.526L316.793 239.251L318.44 240.016L317.115 240.732L322.721 266.953L400.808 229.66L394.147 105.808L297.677 151.622Z" fill="#FEED7F"/>
<path d="M302.287 173.356L394.69 127.789L394.797 130.53L304.477 174.031L302.287 173.356Z" fill="#F5894E"/>
<path d="M401.078 230.384L394.146 105.808L392.006 106.763L398.798 232.516L401.078 230.384Z" fill="#F5894E"/>
<path d="M309.268 204.912L396.131 163.642L395.859 166.235L311.137 205.769L309.268 204.912Z" fill="#F5894E"/>
<path d="M316.784 239.25L399.135 197.659L398.871 200.252L318.43 240.008L316.784 239.25Z" fill="#F5894E"/>
<path d="M407.22 117.794L407.343 131.164L443.419 144.855L443.904 132.49L407.22 117.794Z" fill="#856792"/>
<path d="M407.822 143.505L407.929 157.912L443.469 169.956L443.955 157.599L407.822 143.505Z" fill="#856792"/>
<path d="M408.454 171.949V186.94L441.294 198.902L441.846 184.825L408.454 171.949Z" fill="#856792"/>
<path d="M408.109 206.69L408.134 218.875L440.932 230.598L441.377 219.328L408.109 206.69Z" fill="#856792"/>
<path d="M458.192 165.24C458.877 164.608 458.864 163.48 458.164 162.722C457.464 161.964 456.341 161.862 455.656 162.495C454.972 163.127 454.984 164.254 455.684 165.012C456.385 165.771 457.508 165.873 458.192 165.24Z" fill="#BB83C3"/>
<path d="M458.219 173.135C458.904 172.503 458.891 171.375 458.191 170.617C457.491 169.859 456.368 169.757 455.683 170.39C454.998 171.022 455.011 172.149 455.711 172.907C456.412 173.666 457.534 173.768 458.219 173.135Z" fill="#BB83C3"/>
<path d="M466.177 168.664C466.862 168.031 466.849 166.904 466.149 166.146C465.449 165.387 464.326 165.285 463.641 165.918C462.956 166.55 462.969 167.678 463.669 168.436C464.37 169.194 465.492 169.296 466.177 168.664Z" fill="#BB83C3"/>
<path d="M466.203 176.559C466.888 175.926 466.875 174.799 466.175 174.041C465.474 173.282 464.352 173.18 463.667 173.813C462.982 174.445 462.995 175.573 463.695 176.331C464.396 177.089 465.518 177.191 466.203 176.559Z" fill="#BB83C3"/>
<path d="M473.546 171.816C474.231 171.184 474.218 170.057 473.518 169.298C472.818 168.54 471.695 168.438 471.01 169.071C470.326 169.703 470.338 170.83 471.038 171.589C471.739 172.347 472.862 172.449 473.546 171.816Z" fill="#BB83C3"/>
<path d="M473.573 179.711C474.258 179.078 474.245 177.951 473.545 177.193C472.845 176.435 471.722 176.333 471.037 176.965C470.352 177.598 470.365 178.725 471.065 179.483C471.766 180.241 472.888 180.343 473.573 179.711Z" fill="#BB83C3"/>
<path d="M455.306 192.02C455.322 193.238 454.367 194.136 453.149 194.037C451.922 193.938 450.869 192.868 450.811 191.617C450.753 190.349 451.741 189.402 453.017 189.534C454.269 189.665 455.29 190.785 455.306 192.02Z" fill="#BB83C3"/>
<path d="M455.446 201.249C455.462 202.311 454.565 203.134 453.429 203.101C452.284 203.068 451.296 202.162 451.247 201.076C451.198 199.973 452.12 199.108 453.305 199.174C454.474 199.223 455.429 200.162 455.446 201.249Z" fill="#BB83C3"/>
<path d="M464.559 195.906C464.502 197.009 463.588 197.832 462.518 197.766C461.431 197.701 460.558 196.746 460.583 195.618C460.608 194.473 461.554 193.601 462.674 193.7C463.777 193.782 464.617 194.778 464.559 195.906Z" fill="#BB83C3"/>
<path d="M464.124 204.295C464.074 205.267 463.218 206.032 462.205 206.016C461.176 205.999 460.361 205.192 460.378 204.196C460.402 203.184 461.283 202.393 462.337 202.426C463.383 202.467 464.181 203.307 464.124 204.295Z" fill="#BB83C3"/>
<path d="M472.043 199.026C471.935 200.039 471.063 200.813 470.091 200.763C469.103 200.714 468.371 199.849 468.453 198.812C468.535 197.758 469.433 196.952 470.445 197.017C471.442 197.1 472.158 197.997 472.043 199.026Z" fill="#BB83C3"/>
<path d="M471.203 206.765C471.104 207.662 470.289 208.387 469.367 208.378C468.437 208.37 467.737 207.637 467.811 206.715C467.885 205.785 468.733 205.036 469.688 205.061C470.627 205.085 471.302 205.851 471.203 206.765Z" fill="#BB83C3"/>
<path d="M451.61 223.271C451.553 224.366 450.647 225.156 449.585 225.058C448.523 224.951 447.691 223.979 447.741 222.884C447.782 221.781 448.696 220.966 449.766 221.081C450.836 221.188 451.668 222.176 451.61 223.271Z" fill="#BB83C3"/>
<path d="M451.174 231.866C451.125 232.903 450.244 233.66 449.206 233.562C448.169 233.463 447.362 232.541 447.403 231.504C447.445 230.458 448.325 229.684 449.379 229.783C450.416 229.882 451.223 230.82 451.174 231.866Z" fill="#BB83C3"/>
<path d="M460.031 227.033C459.949 228.104 459.035 228.878 457.998 228.771C456.953 228.672 456.162 227.725 456.236 226.655C456.31 225.576 457.224 224.786 458.278 224.893C459.332 225 460.114 225.963 460.031 227.033Z" fill="#BB83C3"/>
<path d="M459.381 235.414C459.299 236.427 458.418 237.168 457.397 237.069C456.377 236.97 455.611 236.081 455.677 235.06C455.743 234.039 456.632 233.282 457.661 233.381C458.698 233.488 459.464 234.402 459.381 235.414Z" fill="#BB83C3"/>
<path d="M467.614 230.409C467.507 231.454 466.594 232.212 465.565 232.113C464.535 232.014 463.778 231.092 463.877 230.046C463.967 228.993 464.889 228.219 465.935 228.318C466.964 228.425 467.721 229.363 467.614 230.409Z" fill="#BB83C3"/>
<path d="M466.782 238.609C466.684 239.597 465.786 240.321 464.79 240.231C463.786 240.14 463.045 239.259 463.135 238.271C463.226 237.275 464.123 236.534 465.136 236.625C466.149 236.723 466.881 237.613 466.782 238.609Z" fill="#BB83C3"/>
</svg>
