<svg width="2164" height="1124" viewBox="0 0 2164 1124" fill="none" xmlns="http://www.w3.org/2000/svg">
<g clip-path="url(#clip0_133_679)">
<rect width="2164" height="1124" fill="white" fill-opacity="0.5"/>
<path d="M2165.31 -28.5867H2.66699V1095.41H2165.31V-28.5867Z" fill="url(#paint0_linear_133_679)"/>
<path opacity="0.19" d="M2.66712 59.46C159.442 108.232 320.239 145.195 483.479 169.987C647.112 194.836 812.662 207.366 978.493 207.453C1197.95 187.558 1423.82 163.205 1656.09 134.393C1936.57 99.3245 2206.4 59.9845 2465.56 16.3733L2364.12 113.787L1006.9 252.413L-115 173.733C-75.7641 135.655 -36.5417 97.5636 2.66712 59.46Z" fill="#CC7FA6"/>
<path opacity="0.19" d="M100.047 -47.32C167.462 -24.5403 239.158 -3.0344 315.094 16.3733C542.591 74.3113 777.036 105.777 1012.98 110.04C884.809 95.8131 757.988 72.6424 633.606 40.7267C472.546 -0.643079 316.262 -56.4854 166.995 -126L100.047 -47.32Z" fill="#CC7FA6"/>
<path d="M-163.928 582.607L2239.35 605.087C2262.02 866.741 2284.68 1128.38 2307.35 1390.01L-242.55 1313.21C-216.328 1069.67 -190.121 826.14 -163.928 582.607Z" fill="url(#paint1_linear_133_679)"/>
<path opacity="0.39" d="M46.4396 857.987C32.4364 889.627 81.3095 933.407 101.687 951.653C201.091 1040.66 347.838 1051.54 603.168 1041.57C825.349 1032.9 1197.87 1005.79 1196.02 979.753C1193.89 949.555 690.651 961.02 690.289 944.16C689.907 924.977 1334.54 905.719 1334.14 889.833C1333.91 879.98 1086.35 895.266 711.539 871.1C317.855 845.716 74.106 795.511 46.4396 857.987Z" fill="#FFBDBB"/>
<path opacity="0.51" d="M1912.12 754.953C1515.8 813.027 1349.16 802.143 1351.14 829.887C1355.15 886.087 1735.49 896.708 1733.62 919.807C1730.9 953.527 922.245 921.287 919.78 951.653C917.846 975.482 1414.1 1010.85 1412.76 1043.45C1410.98 1087.51 501.575 1071.87 501.171 1088.41C500.236 1127.75 2039.74 1347.68 2192.6 1015.35C2223.37 948.487 2217.06 817.747 2139.48 764.32C2085.66 727.172 2015.22 739.836 1912.12 754.953Z" fill="#EF998E"/>
<path d="M1706 822.393L288.68 813.027L118.687 766.193C184.559 767.442 250.431 768.691 316.304 769.94C743.369 777.621 1170.48 782.616 1597.63 784.927L1706 822.393Z" fill="#FABAA1"/>
<path d="M1091.9 753.08L649.916 751.207L813.535 796.167L1574.25 792.42L1091.9 753.08Z" fill="#FABAA1"/>
<path opacity="0.28" d="M1204.52 893.58C1594.04 882.977 1913.5 891.351 2133.11 901.073C2011.99 908.66 1836.77 918.027 1625.25 923.553C1196.21 934.793 764.81 926.326 764.661 916.06C764.534 907.255 1082.23 896.915 1204.52 893.58Z" fill="#F29681"/>
<path opacity="0.43" d="M-108.68 852.367C98.3085 798.377 301.727 837.062 301.429 854.24C301.132 872.187 78.3131 873.236 78.3131 889.833C78.3131 919.582 792.731 940.413 792.285 953.527C791.945 964.186 319.406 955.044 318.429 972.26C317.43 990.188 829.067 1013.6 828.409 1034.08C827.516 1062.61 -167.901 1067.8 -170.302 1028.46C-171.343 1011.26 16.6905 990.207 14.5656 972.26C11.8882 950.061 -276.548 975.501 -285.048 936.667C-290.339 912.576 -186.005 872.543 -108.68 852.367Z" fill="#F29681"/>
<path d="M764.661 981.627C942.325 989.645 1128.02 994.347 1321.39 994.74C1500.9 995.096 1673.89 991.705 1839.87 985.373C1664.95 982.301 1489.99 980.428 1315.01 979.753C1131.58 979.054 948.126 979.678 764.661 981.627Z" fill="#FFD3A5"/>
<path opacity="0.43" d="M165.435 1030.33C165.435 1034.72 501.171 1036.59 1172.65 1035.95L371.551 1022.84C234.126 1025.86 165.42 1028.36 165.435 1030.33Z" fill="#E87D6B"/>
<path opacity="0.48" d="M199.434 949.78C199.434 952.515 444.713 960.814 720.038 961.02C942.347 961.189 1149.27 956.037 1149.27 953.527C1149.27 951.653 987.778 950.96 664.79 949.78C354.574 948.637 199.476 948.075 199.434 949.78Z" fill="#E87D6B"/>
<path opacity="0.4" d="M675.414 882.34C675.52 887.267 1648.63 878.706 1648.63 872.973C1648.63 869.47 1284.8 864.281 885.781 874.847C823.457 876.495 675.372 880.467 675.414 882.34Z" fill="#E87D6B"/>
<path opacity="0.25" d="M105.937 799.913C105.937 791.24 429.158 776.684 779.535 798.04C797.299 799.127 1013.62 812.315 1013.28 818.647C1012.57 831.591 105.937 814.45 105.937 799.913Z" fill="#E87D6B"/>
<path d="M303.554 820.52H792.285L894.281 828.013L222.808 829.887L303.554 820.52Z" fill="#FFD3A5"/>
<path d="M1036.65 869.227C1679.42 855.963 1854.74 853.228 1854.74 854.24C1854.74 854.896 1781.48 856.806 1604 863.607C1476.51 868.496 1456.92 869.714 1414.89 871.1C1324.94 874.079 1196.93 875.746 1036.65 869.227Z" fill="#FFD3A5"/>
<path d="M-108.68 884.213C384.301 897.177 630.791 905.295 630.791 908.567C630.791 911.839 360.219 909.965 -180.927 902.947L-108.68 884.213Z" fill="#FFD3A5"/>
<path d="M405.55 749.333C400.684 749.577 394.926 750.42 394.926 751.207C394.926 751.993 397.561 751.9 405.55 753.08C411.925 754.035 418.3 755.084 418.3 754.953C418.3 754.822 411.925 753.942 411.925 753.08C411.925 752.218 422.443 752.125 422.55 751.207C422.613 750.776 415.304 748.846 405.55 749.333Z" fill="#FFD7B3"/>
<path d="M400.897 755.216C402.967 756.205 405.278 756.739 407.633 756.771C410.605 756.831 413.542 756.184 416.132 754.897C412.538 755.568 408.825 755.568 405.231 754.897C401.986 754.268 398.902 753.112 396.137 751.488C397.4 753.019 399.023 754.29 400.897 755.216V755.216Z" fill="#FFD7B3"/>
<path d="M424.675 753.661C424.462 752.893 418.512 752.893 418.3 753.661C418.194 754.092 419.809 754.953 421.487 754.953C423.166 754.953 424.781 754.092 424.675 753.661Z" fill="#FFD7B3"/>
<path d="M717.913 764.32C712.984 765.182 707.119 766.98 707.289 768.067C707.565 769.622 720.038 768.966 720.038 769.94C720.038 770.914 713.664 771.308 713.664 771.813C713.77 772.844 737.038 772.581 737.038 771.813C737.038 771.045 724.288 770.727 724.288 769.94C724.288 769.153 739.163 768.76 739.163 768.067C739.163 767.374 726.413 767.28 726.413 766.193C726.413 765.425 732.788 764.938 732.788 764.32C732.788 763.702 725.712 762.99 717.913 764.32Z" fill="#FFD7B3"/>
<path d="M496.921 732.473C490.27 732.473 484.172 733.654 484.172 734.347C484.172 735.04 494.796 735.096 494.796 736.22C494.796 737.344 479.922 738.974 479.922 739.967C480.049 741.465 513.921 740.866 513.921 739.967C513.921 739.367 499.046 738.861 499.046 738.093C499.046 737.325 515.854 737.869 516.045 736.22C516.194 734.965 506.845 732.473 496.921 732.473Z" fill="#FFD7B3"/>
<path d="M785.91 751.207C776.199 750.757 768.911 750.888 768.911 751.207C768.911 751.525 779.536 751.862 779.536 753.08C779.536 754.298 764.661 755.834 764.661 756.827C764.789 758.269 796.535 757.801 796.535 756.827C796.535 756.209 783.785 755.721 783.785 754.953C783.785 754.185 805.035 754.035 805.035 753.08C805.035 752.125 793.263 751.544 785.91 751.207Z" fill="#FFD7B3"/>
<path d="M898.531 591.973H1312.89L1123.77 631.313L1238.52 657.54L1032.4 650.047C1131.97 664.509 1175.39 674.175 1174.77 680.02C1172.65 699.896 660.391 677.566 660.54 670.653C660.54 667.356 777.41 666.345 970.778 666.907C895.485 659.688 857.945 654.068 858.157 650.047C858.398 645.713 902.313 643.215 989.902 642.553L707.288 591.973H898.531Z" fill="#FAE7BC"/>
<path d="M-117.179 822.393C-76.8057 824.698 -14.0994 827.845 63.4388 829.887C100.157 830.861 205.341 833.521 205.808 828.013C206.233 823.218 126.91 817.017 127.186 811.153C127.781 798.883 458.673 810.591 460.798 788.673C462.519 770.446 261.651 742.159 263.181 734.347C264.498 727.696 410.353 746.055 411.925 738.093C413.073 732.38 338.786 717.58 339.678 713.74C341.314 706.753 588.548 748.809 592.543 734.347C594.243 728.24 550.725 718.011 552.17 709.993C556.165 687.869 894.6 723.538 896.406 711.867C897.405 705.479 797.428 685.265 690.289 672.527C657.204 668.593 554.295 657.147 348.178 659.413C177.632 661.287 90.3827 666.663 -10.9333 706.247C-52.2441 722.428 -91.4321 742.528 -127.804 766.193C-124.248 784.927 -120.706 803.66 -117.179 822.393Z" fill="#FFD7B3"/>
<path d="M1786.75 792.42C1785.33 831.76 1783.91 871.1 1782.5 910.44L2190.48 895.453C2189.79 852.991 2189.08 810.529 2188.36 768.067L1786.75 792.42Z" fill="url(#paint2_linear_133_679)"/>
<path d="M462.923 876.72L477.797 859.86L507.546 863.607L535.17 859.86L577.668 882.34L462.923 876.72Z" fill="url(#paint3_linear_133_679)"/>
<path opacity="0.49" d="M545.795 773.687C541.8 774.286 513.666 778.426 513.921 781.18C514.283 784.927 569.169 783.597 569.169 784.927C569.169 786.257 501.172 787.681 501.172 790.547C501.172 794.593 662.666 797.59 662.666 803.66C662.666 806.526 626.542 808.418 626.542 809.28C626.691 810.723 728.538 805.927 728.538 801.787C728.538 798.508 664.79 798.134 664.79 794.293C664.79 789.666 749.341 790.097 749.787 783.053C750.34 774.792 634.957 760.573 545.795 773.687Z" fill="#FAE7BC"/>
<path d="M74.0624 462.713L435.298 339.073L596.792 423.373H647.79L811.408 528.28L1036.65 593.847L951.653 595.72C1018.89 607.272 1052.18 616.014 1051.52 621.947C1050.35 632.974 931.353 634.223 694.538 625.693L-27.9336 591.973L74.0624 462.713Z" fill="url(#paint4_linear_133_679)"/>
<path opacity="0.25" d="M435.298 339.073C253.915 418.952 192.632 450.237 195.182 455.22C198.773 462.208 327.14 416.142 335.427 430.867C342.269 442.987 261.395 484.725 269.554 500.18C277.714 515.635 359.013 474.59 437.423 505.8C466.832 517.508 489.037 536.654 507.545 552.633C530.733 572.648 550.747 595.333 567.043 620.073L-10.9346 578.86L78.3119 460.84L435.298 339.073Z" fill="url(#paint5_linear_133_679)"/>
<path opacity="0.22" d="M666.914 623.82C564.684 531.296 528.263 495.122 530.92 492.687C534.893 489.052 623.417 562.356 632.916 554.507C642.414 546.657 569.062 469.607 575.543 464.587C584.595 457.618 736.526 599.055 745.536 591.973C750.253 588.227 709.413 549.205 717.912 539.52C729.004 527.025 816.912 569.699 928.279 631.313L666.914 623.82Z" fill="url(#paint6_linear_133_679)"/>
<path opacity="0.28" d="M435.298 339.073C522.674 410.972 553.741 433.208 556.418 430.867C558.161 429.368 547.345 418.447 550.043 415.88C556.163 410.073 620.612 457.093 624.415 453.347C625.775 451.998 619.464 444.224 596.792 423.373L435.298 339.073Z" fill="url(#paint7_linear_133_679)"/>
<path opacity="0.21" d="M647.79 423.373C726.646 493.642 785.91 545.14 788.035 543.267C789.734 541.843 757.754 509.884 760.411 507.673C762.536 505.894 782.17 527.849 817.783 545.14C837.141 554.507 854.778 558.89 890.031 567.62C921.904 575.488 957.475 582.476 958.028 580.733C958.708 578.635 908.709 565.222 909.155 563.873C909.835 561.869 1031.89 593.472 1032.4 591.973C1032.91 590.475 930.871 561.663 811.409 528.28L647.79 423.373Z" fill="url(#paint8_linear_133_679)"/>
<path d="M-108.68 376.54C-82.4589 351.562 -56.2516 326.584 -30.0585 301.607L120.811 282.873L261.055 318.467C324.463 349.058 377.224 375.472 416.174 395.273C512.943 444.43 561.306 469.008 620.166 503.927C706.884 555.368 698.639 558.253 739.161 576.987C859.347 632.287 968.652 622.602 968.652 631.313C968.652 636.577 928.683 643.696 754.036 651.92C851.57 671.278 899.734 685.016 898.53 693.133C896.915 704.273 802.711 704.898 615.916 695.007C545.921 699.478 473.674 702.6 399.175 704.373C206.969 708.68 14.6454 702.423 -176.678 685.64C-153.998 582.607 -131.332 479.573 -108.68 376.54Z" fill="url(#paint9_linear_133_679)"/>
<path opacity="0.28" d="M-117.18 415.88C-114.375 402.954 -111.464 389.485 -108.68 376.54C-82.4589 351.562 -56.2516 326.584 -30.0585 301.607L23.0644 325.96L-44.9329 423.373L37.9388 410.26C35.0297 436.756 30.0599 463.045 23.0644 488.94C19.9833 500.18 15.0747 516.459 20.9395 535.773C23.0644 543.061 27.8455 558.497 40.0638 562C57.5093 567.002 74.1899 542.63 84.687 547.013C93.1867 550.591 96.714 568.257 84.687 618.2L275.929 706.247L-176.678 685.64C-156.491 595.72 -136.658 505.8 -117.18 415.88Z" fill="url(#paint10_linear_133_679)"/>
<path opacity="0.26" d="M307.803 700.627C284.918 696.112 192.803 677.06 78.3122 584.48C12.4398 531.259 -22.0476 483.526 -19.4339 481.447C-15.8641 478.599 58.0193 559.565 91.0617 545.14C110.547 536.654 98.9452 501.454 116.561 494.56C150.241 481.447 235.556 592.76 246.181 586.353C252.555 582.607 220.809 544.297 231.306 533.9C248.433 516.946 351.534 599.635 503.296 650.047C645.006 697.124 769.866 700.833 762.535 700.627C714.852 699.334 638.355 698.098 543.669 700.627C396.03 704.561 371.189 713.141 307.803 700.627Z" fill="url(#paint11_linear_133_679)"/>
<path opacity="0.25" d="M377.925 464.587C409.469 487.869 442.842 509.154 477.796 528.28C541.352 563.873 609.541 601.34 707.287 635.06C729.429 642.684 747.958 648.304 760.41 651.92L873.031 644.427C862.98 641.373 848.254 636.933 830.532 631.313C740.627 603.026 698.788 586.466 696.663 590.1C694.113 594.521 753.27 623.539 751.91 625.693C750.296 628.279 662.111 592.198 558.543 537.647C479.029 495.778 422.676 459.978 420.423 462.713C417.852 465.842 489.929 515.335 488.421 517.04C485.786 520.056 335.172 420.751 331.177 425.247C329.307 427.382 360.947 451.96 377.925 464.587Z" fill="url(#paint12_linear_133_679)"/>
<path opacity="0.22" d="M261.055 318.467C359.332 379.537 401.108 407.675 399.174 410.26C397.474 412.564 362.371 393.306 360.926 395.273C357.207 400.331 582.64 538.696 588.292 532.027C591.458 528.28 522.951 482.121 526.669 477.7C531.705 471.724 657.097 542.33 652.039 550.76C650.637 553.102 639.927 549.299 639.29 550.76C637.462 554.938 721.163 597.05 824.158 618.2C910.004 635.828 972.774 632.681 972.902 631.313C973.135 629.14 818.059 620.429 739.161 576.987C712.047 562 695.876 548.662 626.54 507.673C576.775 478.243 538.59 457.655 509.67 442.107C451.341 410.728 367.938 367.754 261.055 318.467Z" fill="url(#paint13_linear_133_679)"/>
<path opacity="0.28" d="M562.793 569.493C563.494 568.613 586.167 581.895 601.041 590.1C661.963 623.558 716.998 639.593 766.785 653.793C843.941 675.805 888.649 679.495 887.905 685.64C887.225 691.447 846.724 693.133 815.658 691.26C757.648 687.776 708.456 670.466 709.412 666.907C710.538 662.729 781.171 674.962 781.659 672.527C782.105 670.391 726.9 664.415 660.539 640.68C610.986 622.94 574.969 602.37 575.542 601.34C576.116 600.31 627.922 624.251 630.79 620.073C634.339 614.94 561.56 571.067 562.793 569.493Z" fill="url(#paint14_linear_133_679)"/>
<path opacity="0.25" d="M139.934 307.227C161.452 319.108 182.039 332.251 201.557 346.567C241.463 376.09 273.677 408.387 271.679 410.26C269.002 412.752 205.424 360.186 199.432 365.3C195.82 368.391 216.431 389.934 214.307 391.527C209.695 395.011 104.066 298.047 110.186 292.24C111.609 290.947 121.023 296.38 139.934 307.227Z" fill="url(#paint15_linear_133_679)"/>
<path d="M-140.554 395.273L-21.5584 449.6C15.3514 502.54 55.8098 533.713 86.8123 552.633C181.796 610.576 258.931 596.563 388.55 648.173C439.441 668.464 487.266 694.264 530.92 724.98L290.804 711.867L229.182 728.727L373.676 754.953L420.424 786.8C335.428 787.974 247.598 791.096 156.935 796.167C118.856 798.34 81.3159 800.838 44.314 803.66L-191.552 794.293L-140.554 395.273Z" fill="url(#paint16_linear_133_679)"/>
<path opacity="0.4" d="M-134.179 796.167C-137.919 670.56 -131.587 628.653 -121.43 627.567C-107.554 626.087 -84.945 700.29 -78.9315 698.753C-72.9179 697.217 -94.9108 632.044 -83.1813 627.567C-65.502 620.841 17.5823 755.721 27.3144 751.207C32.1167 748.977 11.9087 716.363 23.0645 708.12C31.5642 701.901 49.7747 715.482 105.936 738.093C126.689 746.638 147.972 754.143 169.684 760.573C188.501 765.93 207.658 770.308 227.057 773.687C267.711 781.11 308.886 786.117 350.302 788.673L44.3137 803.66L-134.179 796.167Z" fill="url(#paint17_linear_133_679)"/>
<path opacity="0.26" d="M63.438 659.413C96.3742 682.399 128.482 694.276 171.809 709.993C195.693 718.648 215.731 724.811 229.181 728.727L295.054 711.867C282.474 706.49 264.136 698.753 241.931 689.387C131.818 643.19 117.836 638.807 116.561 640.68C113.629 645.12 180.67 682.062 178.183 685.64C176.186 688.544 129.523 668.106 86.8121 646.3C36.4941 620.617 13.1837 604.019 10.3151 606.96C7.06398 610.313 31.7768 637.308 63.438 659.413Z" fill="url(#paint18_linear_133_679)"/>
<path opacity="0.17" d="M-108.68 438.36C-102.394 453.659 -93.8184 468.149 -83.1812 481.447C-66.4368 501.81 -45.2727 517.04 -42.8078 515.167C-39.8966 512.994 -63.1432 487.872 -59.8071 485.193C-54.8986 481.259 -0.309444 531.502 3.94039 528.28C7.74399 525.395 -30.4408 480.416 -83.1812 421.5L-121.43 400.893C-118.339 413.666 -114.075 426.196 -108.68 438.36V438.36Z" fill="url(#paint19_linear_133_679)"/>
<path opacity="0.1" d="M-21.5586 449.6C-11.9346 470.052 0.177456 489.524 14.565 507.673C27.8032 524.346 69.2816 575.282 144.185 605.087C195.374 625.45 247.753 625.862 248.306 623.82C248.582 622.846 237.256 619.905 237.681 618.2C238.212 616.083 256.274 617.919 258.93 618.2C312.33 623.67 375.801 653.793 375.801 653.793C415.779 672.669 456.925 689.555 499.046 704.373C470.157 685.954 439.597 669.664 407.675 655.667C393.14 649.297 341.802 627.436 267.43 610.707C216.432 599.223 220.384 604.993 186.683 595.72C136.475 581.924 90.1345 558.943 50.6886 528.28C21.9771 505.638 -2.41676 479.072 -21.5586 449.6V449.6Z" fill="url(#paint20_linear_133_679)"/>
<path opacity="0.08" d="M205.808 650.047C204.809 652.726 224.103 661.624 241.931 666.907C258.782 671.89 275.441 674.007 275.93 672.527C276.419 671.047 260.588 666.644 261.056 665.033C261.969 661.98 320.171 673.969 320.553 672.527C320.872 671.403 285.811 662.823 248.306 655.667C224.231 651.096 206.679 647.78 205.808 650.047Z" fill="url(#paint21_linear_133_679)"/>
<path opacity="0.26" d="M63.438 659.413C64.0329 658.627 85.5583 672.695 127.185 691.26C159.25 705.554 192.463 720.353 237.681 730.6C262.288 736.22 265.9 734.834 343.927 749.333C356.464 751.656 366.791 753.623 373.676 754.953L401.3 773.687C352.427 773.855 316.516 772.975 316.303 769.94C316.091 766.905 358.801 763.571 358.801 758.7C358.801 752.2 282.623 758.925 201.558 734.347C118.41 709.132 62.4392 660.762 63.438 659.413Z" fill="url(#paint22_linear_133_679)"/>
<path d="M2177.73 177.966L1973.74 237.913C1942.86 256.646 1909.59 275.492 1873.87 294.113C1818.2 323.141 1760.74 349.409 1701.75 372.793C1625.06 391.871 1553.52 424.363 1491.38 468.333L1391.51 492.686L1151.4 623.82L1225.77 629.44L1102.52 680.02L1587 672.526C1569.94 678.723 1552.11 683.125 1533.88 685.64C1513.95 688.337 1502.33 687.513 1491.38 695.006C1479.78 703.024 1475.89 715.744 1474.38 724.98L1880.24 713.74L1786.75 792.42L2188.35 775.56C2184.83 576.374 2181.29 377.177 2177.73 177.966Z" fill="url(#paint23_linear_133_679)"/>
<path opacity="0.45" d="M1476.51 723.107C1476.51 722.807 1549.58 730.806 1621 696.88C1661.97 677.416 1666.28 661.568 1708.12 638.807C1767.62 606.473 1822.59 605.237 1848.37 601.34C1911.5 591.805 1996.71 536.466 2090.61 331.58C2083.55 357.076 2070.8 402.954 2054.49 460.84C2020.1 582.906 2010.1 615.783 1977.99 650.047C1945.6 684.61 1906.8 703.455 1880.24 713.74L1841.99 747.46C1858.33 752.218 1905.08 763.683 1954.61 745.587C1994.73 730.918 2014.77 704.28 2033.24 681.893C2076.95 628.934 2084.74 573.652 2086.36 547.013C2102.95 594.371 2112.52 603.832 2118.23 603.213C2133.66 601.527 2128.86 525.957 2145.86 421.5C2153.69 373.445 2165.05 325.887 2179.86 279.127C2181.27 364.663 2182.69 450.212 2184.1 535.773C2185.49 615.353 2186.91 695.981 2188.35 775.56L1786.75 792.42L1880.24 713.74C1564.25 721.552 1476.53 723.444 1476.51 723.107Z" fill="url(#paint24_linear_133_679)"/>
<path opacity="0.32" d="M1106.77 678.147C1258.39 636.278 1326.7 619.155 1327.76 621.947C1328.83 624.738 1271.47 643.752 1272.52 646.3C1273.85 649.503 1366.99 622.621 1419.14 606.96C1442.74 599.879 1454.54 596.338 1468.01 591.973C1571.49 558.478 1634.86 525.507 1638 530.153C1641.15 534.799 1575.02 571.685 1578.5 576.987C1581.37 581.352 1630.61 562.731 1674.13 541.393C1716.01 520.787 1773.76 487.423 1835.62 432.74C1815.05 519.663 1778.97 552.39 1748.5 565.747C1732.71 572.678 1709.23 579.74 1680.5 599.467C1660.94 613.139 1644.99 630.398 1633.75 650.047L1587 672.527L1106.77 678.147Z" fill="url(#paint25_linear_133_679)"/>
<path opacity="0.3" d="M2001.36 282.873C1937.25 321.877 1886.53 375.664 1854.74 438.36C1898.94 386.506 1928.58 355.053 1933.37 357.807C1937.34 360.092 1922.46 384.726 1924.87 385.907C1927.27 387.087 1949.66 358.35 2001.36 282.873Z" fill="url(#paint26_linear_133_679)"/>
<path opacity="0.26" d="M1153.52 621.947C1160.75 621.16 1170.18 620.073 1181.14 618.2C1181.14 618.2 1204.2 614.453 1225.77 608.833C1265.08 598.642 1283.14 582.85 1319.26 569.493C1344.98 560.091 1372.24 554.398 1400.01 552.633C1361.99 564.487 1325.05 578.892 1289.52 595.72C1266.14 606.791 1244.89 618.2 1225.77 629.44L1153.52 621.947Z" fill="url(#paint27_linear_133_679)"/>
<path opacity="0.74" d="M1765.5 717.487L1880.24 713.74C1896.72 707.798 1912.4 700.258 1926.99 691.26C1947.26 678.824 1965.19 663.652 1980.11 646.3C1992.35 631.926 2002.35 616.176 2009.86 599.467C2000.81 607.803 1987.15 619.792 1969.49 633.187C1935.3 659.132 1891.31 686.408 1886.62 681.893C1881.92 677.379 1921.49 644.296 1916.37 638.807C1911.24 633.318 1868.6 653.793 1765.5 717.487Z" fill="url(#paint28_linear_133_679)"/>
<path opacity="0.45" d="M1542.38 672.527H1587L1633.75 650.047C1640.32 639.358 1648.16 629.311 1657.13 620.073C1675.86 600.953 1699.06 585.619 1725.12 575.113C1688.83 585.304 1664.44 599.467 1648.63 610.707C1628.42 625.169 1609.97 643.865 1608.25 642.553C1606.53 641.242 1623.47 624.251 1621 621.947C1618.54 619.642 1596.63 632.887 1542.38 672.527Z" fill="url(#paint29_linear_133_679)"/>
<path opacity="0.44" d="M1268.27 560.127L1389.39 509.547L1493.51 488.94C1525.38 468.052 1560.85 446.584 1599.75 425.247C1638.66 403.909 1676.76 385.157 1712.37 369.047C1631.46 389.214 1555.71 422.923 1489.26 468.333L1391.51 492.687L1268.27 560.127Z" fill="url(#paint30_linear_133_679)"/>
<path opacity="0.26" d="M1795.25 333.453C1831.94 316.593 1870.42 297.429 1909.99 275.38C1932.36 262.891 1953.61 250.402 1973.74 237.913C2093.46 201.252 2179.62 177.311 2177.73 177.967C2062.6 217.719 2014.92 236.433 2016.24 239.787C2017.87 243.871 2091.31 223.095 2092.73 226.673C2094.54 231.188 1980.45 271.446 1795.25 333.453Z" fill="url(#paint31_linear_133_679)"/>
<path opacity="0.31" d="M1115.27 674.4C1129.91 668.156 1144.78 661.911 1159.9 655.667C1182.14 646.525 1204.09 637.783 1225.77 629.44C1237.46 622.677 1254.09 613.386 1274.64 603.213C1294.74 593.247 1334.01 574.795 1400.01 552.633C1459.81 532.57 1520.2 516.628 1521.13 518.913C1521.81 520.562 1491.64 530.846 1412.76 562C1339.24 591.037 1333.69 594.633 1334.14 595.72C1335.97 600.122 1439.79 569.737 1440.38 571.367C1440.98 572.996 1349.18 600.516 1244.89 633.187C1189.86 650.44 1144.89 664.846 1115.27 674.4Z" fill="url(#paint32_linear_133_679)"/>
<path opacity="0.13" d="M1710.84 393.1C1730.5 382.816 1751.37 374.048 1752.47 373.599C1761.35 369.852 1765.52 368.372 1779.92 362.471C1787.64 359.305 1797.46 355.165 1811.31 349.039C1858.06 328.433 1883.94 316.05 1884.56 317.005C1885.7 318.729 1798.01 361.965 1801.36 368.073C1804.11 372.999 1865.81 349.508 1866.66 351.213C1868.3 354.622 1654.07 443.493 1648.54 434.182C1646.01 429.911 1688.02 405.033 1710.84 393.1Z" fill="url(#paint33_linear_133_679)"/>
</g>
<defs>
<linearGradient id="paint0_linear_133_679" x1="1261" y1="1310.4" x2="959.124" y2="-243.682" gradientUnits="userSpaceOnUse">
<stop stop-color="#FED1AA"/>
<stop offset="0.41" stop-color="#BB7582"/>
<stop offset="0.48" stop-color="#B0667B"/>
<stop offset="0.6" stop-color="#9B6381"/>
<stop offset="0.86" stop-color="#655B90"/>
<stop offset="1" stop-color="#43569A"/>
</linearGradient>
<linearGradient id="paint1_linear_133_679" x1="1032.4" y1="1513.35" x2="1032.4" y2="107.923" gradientUnits="userSpaceOnUse">
<stop offset="0.16" stop-color="#F29698"/>
<stop offset="0.52" stop-color="#F9C6A3"/>
<stop offset="0.94" stop-color="#FFEAAB"/>
</linearGradient>
<linearGradient id="paint2_linear_133_679" x1="1986.49" y1="938.053" x2="1986.49" y2="569.568" gradientUnits="userSpaceOnUse">
<stop offset="0.13" stop-color="#372045" stop-opacity="0"/>
<stop offset="0.86" stop-color="#7C4672"/>
</linearGradient>
<linearGradient id="paint3_linear_133_679" x1="449.408" y1="690.511" x2="563.322" y2="1081.31" gradientUnits="userSpaceOnUse">
<stop offset="0.19" stop-color="#E8D25F"/>
<stop offset="0.5" stop-color="#8E5482"/>
<stop offset="0.8" stop-color="#5C3573"/>
</linearGradient>
<linearGradient id="paint4_linear_133_679" x1="1077.3" y1="37.0546" x2="504.832" y2="760.824" gradientUnits="userSpaceOnUse">
<stop offset="0.37" stop-color="#E8D25F"/>
<stop offset="0.66" stop-color="#9E578F"/>
<stop offset="0.92" stop-color="#764C8F"/>
</linearGradient>
<linearGradient id="paint5_linear_133_679" x1="821.098" y1="-153.969" x2="-186.899" y2="1645.4" gradientUnits="userSpaceOnUse">
<stop offset="0.08" stop-color="#56316B"/>
<stop offset="0.51" stop-color="#3B124A"/>
</linearGradient>
<linearGradient id="paint6_linear_133_679" x1="854.438" y1="388.792" x2="568.518" y2="899.178" gradientUnits="userSpaceOnUse">
<stop offset="0.08" stop-color="#56316B"/>
<stop offset="0.51" stop-color="#3B124A"/>
</linearGradient>
<linearGradient id="paint7_linear_133_679" x1="558.437" y1="356.57" x2="494.029" y2="471.56" gradientUnits="userSpaceOnUse">
<stop offset="0.06" stop-color="#EBD93F"/>
<stop offset="0.68" stop-color="#EB86D4"/>
</linearGradient>
<linearGradient id="paint8_linear_133_679" x1="918.037" y1="399.545" x2="735.701" y2="725.042" gradientUnits="userSpaceOnUse">
<stop offset="0.06" stop-color="#EBD93F"/>
<stop offset="0.68" stop-color="#EB86D4"/>
</linearGradient>
<linearGradient id="paint9_linear_133_679" x1="854.119" y1="66.4659" x2="152.175" y2="998.545" gradientUnits="userSpaceOnUse">
<stop offset="0.19" stop-color="#E8D25F"/>
<stop offset="0.5" stop-color="#8E5482"/>
<stop offset="0.8" stop-color="#5C3573"/>
</linearGradient>
<linearGradient id="paint10_linear_133_679" x1="527.413" y1="-74.3339" x2="-443.138" y2="1658.2" gradientUnits="userSpaceOnUse">
<stop offset="0.08" stop-color="#56316B"/>
<stop offset="0.51" stop-color="#3B124A"/>
</linearGradient>
<linearGradient id="paint11_linear_133_679" x1="635.189" y1="225.474" x2="61.4619" y2="1249.63" gradientUnits="userSpaceOnUse">
<stop offset="0.08" stop-color="#56316B"/>
<stop offset="0.51" stop-color="#3B124A"/>
</linearGradient>
<linearGradient id="paint12_linear_133_679" x1="702.017" y1="396.21" x2="485.377" y2="782.937" gradientUnits="userSpaceOnUse">
<stop offset="0.08" stop-color="#56316B"/>
<stop offset="0.51" stop-color="#3B124A"/>
</linearGradient>
<linearGradient id="paint13_linear_133_679" x1="728.239" y1="320.546" x2="481.405" y2="761.157" gradientUnits="userSpaceOnUse">
<stop offset="0.06" stop-color="#EBD93F"/>
<stop offset="0.68" stop-color="#EB86D4"/>
</linearGradient>
<linearGradient id="paint14_linear_133_679" x1="811.833" y1="507.748" x2="621.255" y2="847.939" gradientUnits="userSpaceOnUse">
<stop offset="0.06" stop-color="#EBD93F"/>
<stop offset="0.68" stop-color="#EB86D4"/>
</linearGradient>
<linearGradient id="paint15_linear_133_679" x1="231.221" y1="295.35" x2="141.843" y2="454.897" gradientUnits="userSpaceOnUse">
<stop offset="0.06" stop-color="#EBD93F"/>
<stop offset="0.68" stop-color="#EB86D4"/>
</linearGradient>
<linearGradient id="paint16_linear_133_679" x1="717.679" y1="8.89837" x2="-213.284" y2="1272.57" gradientUnits="userSpaceOnUse">
<stop offset="0.09" stop-color="#E8D25F"/>
<stop offset="0.5" stop-color="#7C4672"/>
<stop offset="0.72" stop-color="#372045"/>
</linearGradient>
<linearGradient id="paint17_linear_133_679" x1="347.709" y1="383.228" x2="-226.423" y2="1408.12" gradientUnits="userSpaceOnUse">
<stop offset="0.08" stop-color="#56316B"/>
<stop offset="0.51" stop-color="#3B124A"/>
</linearGradient>
<linearGradient id="paint18_linear_133_679" x1="225.314" y1="558.647" x2="63.0589" y2="848.296" gradientUnits="userSpaceOnUse">
<stop offset="0.08" stop-color="#56316B"/>
<stop offset="0.51" stop-color="#3B124A"/>
</linearGradient>
<linearGradient id="paint19_linear_133_679" x1="10.0601" y1="369.14" x2="-138.588" y2="634.528" gradientUnits="userSpaceOnUse">
<stop offset="0.08" stop-color="#56316B"/>
<stop offset="0.51" stop-color="#3B124A"/>
</linearGradient>
<linearGradient id="paint20_linear_133_679" x1="82.9448" y1="634.479" x2="580.988" y2="397.99" gradientUnits="userSpaceOnUse">
<stop offset="0.06" stop-color="#EBD93F"/>
<stop offset="0.68" stop-color="#EB86D4"/>
</linearGradient>
<linearGradient id="paint21_linear_133_679" x1="222.382" y1="676.236" x2="352.398" y2="614.518" gradientUnits="userSpaceOnUse">
<stop offset="0.06" stop-color="#EBD93F"/>
<stop offset="0.68" stop-color="#EB86D4"/>
</linearGradient>
<linearGradient id="paint22_linear_133_679" x1="317.599" y1="598.324" x2="139.621" y2="916.036" gradientUnits="userSpaceOnUse">
<stop offset="0.06" stop-color="#EBD93F"/>
<stop offset="0.68" stop-color="#EB86D4"/>
</linearGradient>
<linearGradient id="paint23_linear_133_679" x1="1281.48" y1="113.936" x2="2176.84" y2="1125.89" gradientUnits="userSpaceOnUse">
<stop offset="0.07" stop-color="#E8D25F"/>
<stop offset="0.41" stop-color="#8E5482"/>
<stop offset="0.75" stop-color="#5C3573"/>
</linearGradient>
<linearGradient id="paint24_linear_133_679" x1="1738.55" y1="422.38" x2="2289.51" y2="1045.09" gradientUnits="userSpaceOnUse">
<stop offset="0.08" stop-color="#56316B"/>
<stop offset="0.51" stop-color="#3B124A"/>
</linearGradient>
<linearGradient id="paint25_linear_133_679" x1="1331.46" y1="432.684" x2="1704.77" y2="854.611" gradientUnits="userSpaceOnUse">
<stop offset="0.08" stop-color="#56316B"/>
<stop offset="0.51" stop-color="#3B124A"/>
</linearGradient>
<linearGradient id="paint26_linear_133_679" x1="1870" y1="309.606" x2="1993" y2="448.618" gradientUnits="userSpaceOnUse">
<stop offset="0.08" stop-color="#56316B"/>
<stop offset="0.51" stop-color="#3B124A"/>
</linearGradient>
<linearGradient id="paint27_linear_133_679" x1="1083.4" y1="417.416" x2="1490.08" y2="877.074" gradientUnits="userSpaceOnUse">
<stop offset="0.08" stop-color="#56316B"/>
<stop offset="0.51" stop-color="#3B124A"/>
</linearGradient>
<linearGradient id="paint28_linear_133_679" x1="1784.56" y1="567.882" x2="2091.02" y2="914.261" gradientUnits="userSpaceOnUse">
<stop offset="0.08" stop-color="#56316B"/>
<stop offset="0.51" stop-color="#3B124A"/>
</linearGradient>
<linearGradient id="paint29_linear_133_679" x1="1557.57" y1="556.905" x2="1763.39" y2="789.5" gradientUnits="userSpaceOnUse">
<stop offset="0.08" stop-color="#56316B"/>
<stop offset="0.51" stop-color="#3B124A" stop-opacity="0.46"/>
</linearGradient>
<linearGradient id="paint30_linear_133_679" x1="1310.74" y1="306.833" x2="1626.84" y2="664.095" gradientUnits="userSpaceOnUse">
<stop offset="0.06" stop-color="#EBD93F"/>
<stop offset="0.68" stop-color="#EB86D4"/>
</linearGradient>
<linearGradient id="paint31_linear_133_679" x1="1823.76" y1="112.737" x2="2110.22" y2="436.505" gradientUnits="userSpaceOnUse">
<stop offset="0.06" stop-color="#EBD93F"/>
<stop offset="0.68" stop-color="#EB86D4"/>
</linearGradient>
<linearGradient id="paint32_linear_133_679" x1="1136.95" y1="437.423" x2="1456.09" y2="798.124" gradientUnits="userSpaceOnUse">
<stop offset="0.06" stop-color="#EBD93F"/>
<stop offset="0.68" stop-color="#EB86D4"/>
</linearGradient>
<linearGradient id="paint33_linear_133_679" x1="1660.47" y1="288.287" x2="1856.6" y2="496.291" gradientUnits="userSpaceOnUse">
<stop offset="0.06" stop-color="#EBD93F"/>
<stop offset="0.68" stop-color="#EB86D4"/>
</linearGradient>
<clipPath id="clip0_133_679">
<rect width="2164" height="1124" fill="white"/>
</clipPath>
</defs>
</svg>
