<svg width="1199" height="881" viewBox="0 0 1199 881" fill="none" xmlns="http://www.w3.org/2000/svg">
<g clip-path="url(#clip0_133_750)">
<path d="M484.078 102.392C484.078 102.392 484.078 56.4414 569.956 38.0484C655.835 19.6553 655.835 59.5004 649.697 93.2017C643.559 126.903 594.482 148.355 585.282 148.355C576.081 148.355 484.078 102.392 484.078 102.392Z" fill="#48598B"/>
<path d="M595.517 338.301C595.517 338.301 620.055 395.493 579.158 430.214C538.26 464.935 466.698 479.237 401.262 430.214C335.826 381.192 495.32 221.889 595.517 338.301Z" fill="#273150"/>
<path d="M548.494 116.693C548.494 116.693 471.57 25.8637 378.778 47.2513C272.444 71.7625 234.622 132.014 216.221 223.928C216.221 223.928 157.943 196.358 139.543 282.14C121.142 367.923 231.559 407.755 295.962 404.696C360.365 401.624 548.494 116.693 548.494 116.693Z" fill="#48598B"/>
<path d="M568.937 129.975C568.937 129.975 492.013 39.1456 399.221 60.5332C292.887 85.0443 255.064 145.296 236.663 237.21C236.663 237.21 178.386 209.64 159.985 295.422C141.584 381.205 252.002 421.037 316.417 417.978C380.82 414.893 568.937 129.975 568.937 129.975Z" fill="#273150"/>
<path d="M623.118 240.269C623.118 240.269 669.119 270.911 687.533 224.948C705.947 178.984 635.393 139.165 607.792 142.224C580.178 145.296 589.379 200.437 623.118 240.269Z" fill="#273150"/>
<path d="M494.299 111.595C494.299 111.595 494.299 65.6444 580.178 47.2514C666.057 28.8583 666.057 68.7035 659.919 102.405C653.781 136.106 604.704 157.558 595.503 157.558C586.316 157.545 494.299 111.595 494.299 111.595Z" fill="#273150"/>
<path d="M511.68 475.158C511.68 475.158 571.999 537.449 605.738 577.281C636.789 613.925 706.955 645.703 717.176 694.726C727.397 743.748 620.055 759.069 587.337 726.387C554.619 693.706 446.243 562.993 429.884 528.272C413.538 493.538 456.477 422.044 511.68 475.158Z" fill="#CE6D3E"/>
<path d="M401.262 454.725C401.262 454.725 433.981 430.214 454.423 432.253C474.865 434.293 534.164 498.636 534.164 498.636C534.164 498.636 510.646 499.656 495.308 513.957C479.97 528.259 460.548 572.17 460.548 572.17C460.548 572.17 378.765 479.236 401.262 454.725Z" fill="#C93F37"/>
<path d="M468.74 728.427C468.74 728.427 535.197 679.753 594.147 665.787C645.356 653.667 670.141 651.486 696.721 665.787C723.301 680.089 743.756 721.96 720.239 731.15C696.734 740.34 468.74 728.427 468.74 728.427Z" fill="#F6874E"/>
<path d="M159.984 763.148C159.984 763.148 151.805 632.434 164.068 550.73C176.33 469.027 194.744 407.755 233.587 383.244C272.443 358.733 344.005 397.545 397.165 420.004C440.518 438.32 458.505 524.167 487.14 573.189C511.627 615.125 530.08 654.893 468.739 728.414C407.399 801.934 194.744 895.9 159.984 763.148Z" fill="#D09435"/>
<path d="M159.984 763.148C159.984 763.148 151.805 632.434 164.067 550.73C176.33 469.027 194.744 407.755 233.587 383.244C272.443 358.733 227.449 546.639 266.305 624.264C291.529 674.654 313.341 728.427 256.084 771.318C179.432 828.743 194.744 895.9 159.984 763.148Z" fill="#F6BE4A"/>
<path d="M489.195 370.982C417.996 454.131 399.22 487.407 399.22 487.407C399.22 487.407 325.605 485.367 327.659 436.345C329.714 387.323 355.725 379.281 386.958 334.221C423.759 281.12 512.972 343.218 489.195 370.982Z" fill="#F6874E"/>
<path d="M489.195 370.982C454.436 414.893 402.296 411.834 402.296 411.834C402.296 411.834 307.217 428.678 386.958 334.222C428.631 284.838 512.972 343.218 489.195 370.982Z" fill="#CE6D3E"/>
<path d="M542.859 108.019C542.859 108.019 614.976 101.682 632.317 212.698C654.814 356.693 620.055 411.847 478.961 396.526C337.867 381.205 334.804 290.311 344.005 225.98C353.205 161.624 460.056 86.5673 542.859 108.019Z" fill="#F6874E"/>
<path d="M542.859 108.019C542.859 108.019 614.976 101.682 632.317 212.699C654.814 356.694 620.055 411.847 478.961 396.526C478.961 396.526 543.376 327.084 552.577 262.741C561.777 198.397 446.243 106.148 542.859 108.019Z" fill="#CE6D3E"/>
<path d="M619.033 166.993C619.033 166.993 590.799 106.135 503.499 120.785C439.6 131.511 371.101 196.358 371.101 196.358L344.004 172.866C344.004 172.866 403.328 81.2623 525.996 95.7573C592.957 103.67 611.616 142.482 619.033 166.993Z" fill="#F6BE4A"/>
<path d="M619.033 166.993C619.033 166.993 590.799 106.135 503.499 120.785L525.996 95.7703C592.957 103.67 611.616 142.482 619.033 166.993Z" fill="#D09435"/>
<path d="M319.465 240.269C353.204 240.269 378.764 277.029 386.943 319.92C394.218 358.1 402.282 405.703 288.789 402.644C175.309 399.585 255.063 240.269 319.465 240.269Z" fill="#273150"/>
<path d="M370.598 283.16C349.987 283.16 333.279 259.496 333.279 230.304C333.279 201.113 349.987 177.448 370.598 177.448C391.208 177.448 407.916 201.113 407.916 230.304C407.916 259.496 391.208 283.16 370.598 283.16Z" fill="#F6874E"/>
<path d="M513.072 212.808C506.229 211.082 503.034 200.371 505.936 188.884C508.838 177.396 516.739 169.482 523.583 171.208C530.426 172.933 533.621 183.644 530.718 195.131C527.816 206.619 519.916 214.533 513.072 212.808Z" fill="#263052"/>
<path d="M588.659 233.533C587.972 223.841 592.094 215.653 597.868 215.244C603.641 214.836 608.879 222.361 609.566 232.053C610.254 241.745 606.131 249.933 600.358 250.342C594.585 250.751 589.347 243.225 588.659 233.533Z" fill="#263052"/>
<path d="M615.286 211.666L591.768 213.369" stroke="#273150" stroke-width="2.31111" stroke-miterlimit="10"/>
<path d="M557.345 173.886C557.345 173.886 550.871 158.565 539.28 157.881" stroke="#273150" stroke-width="2.31111" stroke-miterlimit="10"/>
<path d="M403.535 152.447C403.535 152.447 367.742 195.893 331.031 214.505C303.274 228.587 281.036 231.182 281.036 231.182L286.592 220.081L272.766 209.433C272.766 209.433 324.647 204.012 392.72 145.928L403.535 152.447Z" fill="#C93F37"/>
<path d="M407.166 147.374C407.166 147.374 388.429 200.436 360.324 230.485C339.068 253.202 319.065 263.257 319.065 263.257L320.473 250.93L303.843 245.664C303.843 245.664 350.723 222.818 394.774 144.96L407.166 147.374Z" fill="#C93F37"/>
<path d="M384.411 175.409C371.179 173.085 358.593 102.534 390.096 101.049C419.752 99.6424 453.375 103.424 447.793 125.754C442.197 148.084 397.63 177.732 384.411 175.409Z" fill="#C93F37"/>
<path d="M372.988 135.28C372.988 135.28 377.86 105.025 387.254 105.696C396.661 106.367 388.249 119.287 385.82 139.216C383.391 159.145 371.283 148.045 372.988 135.28Z" fill="#F7BC4B"/>
<path d="M395.394 160.785C395.394 160.785 397.384 146.858 377.071 133.382C356.757 119.907 341.303 112.563 328.381 120.565C315.459 128.568 310.988 163.766 318.367 181.514C325.745 199.249 370.946 185.774 382.33 179.1C393.714 172.427 395.394 160.785 395.394 160.785Z" fill="#C93F37"/>
<path d="M321.455 149C321.455 149 317.203 177.229 329.841 181.85C348.617 188.704 336.78 135.241 335.682 126.787C334.583 118.332 318.069 128.775 321.455 149Z" fill="#F7BC4B"/>
<path d="M725.872 457.797C725.872 457.797 713.61 413.37 719.735 390.395C725.872 367.419 728.935 359.752 750.411 347.503C771.887 335.254 794.888 336.777 791.813 312.266C788.75 287.755 782.612 300.017 753.474 304.612C724.335 309.207 724.8 327.174 699.796 336.777C679.858 344.431 653.794 356.693 639.981 388.859C626.18 421.024 587.841 447.071 621.58 470.046C655.332 493.021 722.81 482.295 725.872 457.797Z" fill="#F6874E"/>
<path d="M389 428.175C389 428.175 436.035 528.259 450.34 569.111C464.657 609.963 446.257 632.421 413.538 650.814C380.82 669.195 341.977 676.345 309.259 610.982C276.541 545.619 247.919 501.708 260.182 469.026C272.445 436.345 348.102 370.982 389 428.175Z" fill="#F6874E"/>
<path d="M389 428.175C389 428.175 436.035 528.259 450.34 569.111C464.657 609.962 446.257 632.421 413.538 650.814C380.82 669.195 380.82 642.644 348.102 577.281C315.384 511.918 247.906 501.708 260.182 469.026C272.457 436.345 348.102 370.982 389 428.175Z" fill="#CE6D3E"/>
<path d="M391.041 434.306C391.041 434.306 352.185 342.392 339.922 324.012C327.659 305.632 301.066 293.37 272.444 303.592C243.822 313.802 229.505 383.244 229.505 409.807C229.505 436.358 268.361 516.022 270.402 532.363C272.444 548.704 276.54 473.131 317.438 448.62C358.336 424.109 391.041 434.306 391.041 434.306Z" fill="#C93F37"/>
<path d="M339.922 324.012C327.659 305.632 301.066 293.37 272.444 303.592C243.822 313.802 229.505 383.244 229.505 409.807C229.505 436.358 268.36 516.022 270.402 532.363C272.444 548.704 258.139 381.217 274.485 358.746C297.719 326.826 339.922 324.012 339.922 324.012Z" fill="#EE5D4F"/>
<path d="M332.996 584.806C332.996 584.806 355.402 501.953 431.965 505.206C508.527 508.459 474.917 631.918 398.355 641.663C321.793 651.408 332.996 584.806 332.996 584.806Z" fill="#CE6D3E"/>
<path d="M331.742 599.74C331.742 599.74 356.281 501.024 440.118 505.103C523.955 509.181 570.978 473.105 605.75 460.843C632.538 451.395 678.85 491.485 637.952 522.115C597.054 552.757 487.154 658.959 403.316 671.221C319.479 683.483 331.742 599.74 331.742 599.74Z" fill="#F6874E"/>
<path d="M699.796 437.881C699.796 437.881 750.398 417.965 756.536 413.37C762.674 408.775 765.736 387.323 785.675 387.323C805.613 387.323 788.737 408.775 787.212 421.024C785.675 433.273 770.969 444.825 760.115 459.837C753.473 469.027 746.315 485.884 725.859 494.558C691.487 509.143 653.781 522.128 626.18 512.938C598.579 503.748 652.256 427.155 699.796 437.881Z" fill="#F6874E"/>
<path d="M671.174 386.639C671.174 386.639 666.057 448.594 656.856 453.189C647.656 457.784 624.655 460.843 624.655 460.843C624.655 460.843 653.794 479.223 667.594 460.843C681.395 442.476 671.174 386.639 671.174 386.639Z" fill="#CE6D3E"/>
<path d="M705.223 354.305C708.402 350.498 719.851 346.045 731.946 351.763C744.028 357.481 744.028 358.759 743.394 370.827C742.761 382.895 743.395 407.678 739.583 411.498C735.771 415.306 723.676 419.759 716.685 411.498C709.694 403.237 706.503 388.626 706.503 376.545C706.49 364.464 702.045 358.113 705.223 354.305Z" fill="#F6874E"/>
<path d="M691.113 346.819C694.524 342.741 706.787 337.965 719.734 344.096C732.682 350.227 732.682 351.582 731.997 364.515C731.312 377.449 731.997 403.999 727.914 408.091C723.831 412.169 710.87 416.945 703.375 408.091C695.881 399.236 692.469 383.58 692.469 370.646C692.469 357.713 687.701 350.898 691.113 346.819Z" fill="#CE6D3E"/>
<path d="M687.017 346.819C690.428 342.741 702.691 337.965 715.639 344.096C728.586 350.227 728.586 351.582 727.902 364.515C727.217 377.449 727.902 403.999 723.818 408.091C719.735 412.169 706.774 416.945 699.28 408.091C691.785 399.236 688.374 383.58 688.374 370.646C688.374 357.713 683.618 350.898 687.017 346.819Z" fill="#F6874E"/>
<path d="M696.566 350.562C707.304 353.621 718.042 387.323 718.042 396.513C718.042 405.703 709.178 415.409 690.273 415.912C672.88 416.377 680.388 388.678 680.388 388.678C680.388 388.678 685.828 347.49 696.566 350.562Z" fill="#CE6D3E"/>
<path d="M604.717 463.915C604.717 463.915 606.759 414.893 611.359 402.644C615.959 390.395 634.36 378.133 655.836 365.883C677.312 353.634 680.375 347.503 691.113 350.562C701.851 353.621 712.589 387.323 712.589 396.513C712.589 405.703 708.506 409.794 689.588 410.298C672.195 410.762 674.935 388.678 674.935 388.678C674.935 388.678 668.125 396.513 666.587 421.011C665.049 445.509 659.415 482.295 604.717 463.915Z" fill="#F6874E"/>
<path d="M1079.11 667.994L998.344 665.103L877.188 664.587L848.049 657.952L1014.7 648.762L1079.11 667.994Z" fill="#634874"/>
<path d="M1050.82 303.076L966.982 312.77L816.701 252.518L815.577 245.251L889.283 225.464L1050.82 303.076Z" fill="#634874"/>
<path d="M1182.38 118.487L1137.6 93.6663L1136.31 93.6404L1080.02 62.1335H1078.73L1022.88 30.0586L819.427 104.444V173.886L1020.83 110.394L1182.38 192.524V118.487Z" fill="#29ACE4"/>
<path d="M1020.83 109.71L1182.38 192.524V118.487L1137.59 93.6404H1136.31L1080.02 62.1335H1078.73L1022.88 30.0586" fill="#48598B"/>
<path d="M1182.38 192.524L951.308 231.582L819.427 173.886L1020.83 109.71L1078.64 139.333L1079.98 139.294L1136.28 168.671L1137.62 168.658L1182.38 192.524Z" fill="#634874"/>
<path d="M1127.16 517.003L1013.06 532.015L827.607 489.175L897.385 467.594L1127.16 517.003Z" fill="#634874"/>
<path d="M1008.56 321.456L1082.52 285.535L1029.01 248.942L816.352 307.503L1008.56 321.456Z" fill="#634874"/>
<path d="M1184.42 378.649V449.111L1009.92 462.896L831.69 423.063L873.092 382.224L820.448 369.962L934.949 297.965L1021.86 308.175L1184.42 378.649Z" fill="#634874"/>
<path d="M1182.38 196.358L1022.88 113.118L947.651 136.854L947.225 181.721L877.653 158.926L815.667 178.481V247.923L1020.83 192.782L1182.38 270.394V196.358Z" fill="#29ACE4"/>
<path d="M1020.83 192.782L1182.38 270.394V196.358L1022.88 113.118" fill="#48598B"/>
<path d="M947.173 181.721L877.692 159.081V231.582L947.225 245.715L947.173 181.721Z" fill="#48598B"/>
<path d="M1182.38 270.394L1110.12 273.621L947.134 212.569L1020.83 192.782L1182.38 270.394Z" fill="#634874"/>
<path d="M1082.52 227.503V285.535L1021.18 259.836V197.881L1082.52 227.503Z" fill="#48598B"/>
<path d="M816.352 249.291V307.503L1021.18 260.185V197.881L816.352 249.291Z" fill="#29ACE4"/>
<path d="M1184.42 329.627V381.876L1021.86 320.604V262.224L1184.42 329.627Z" fill="#48598B"/>
<path d="M1021.86 262.224V320.604L954.888 336.777V278.565L1021.86 262.224Z" fill="#29ACE4"/>
<path d="M885.704 294.557L887.241 354.809L820.448 369.962V310.227L885.704 294.557Z" fill="#29ACE4"/>
<path d="M1184.25 386.303V449.11L1125.97 423.063V363.328L1184.25 386.303Z" fill="#48598B"/>
<path d="M1081.5 349.027V407.239L1021.86 386.303V325.032L1081.5 349.027Z" fill="#48598B"/>
<path d="M1021.86 325.032L831.691 372.518V423.063L1021.86 386.303V325.032Z" fill="#29ACE4"/>
<path d="M1068.54 526.813V468.781L898.031 413.912V478.152L1068.54 526.813Z" fill="#48598B"/>
<path d="M898.251 413.938V478.023L827.607 489.265V427.865L898.251 413.938Z" fill="#29ACE4"/>
<path d="M1191.49 556.965L999.002 588.097L886.685 557.249L1067.73 514.835L1191.49 556.965Z" fill="#634874"/>
<path d="M1137.68 467.426L1139.05 543.154L1018.29 561.573L1017 485.574L1137.68 467.426Z" fill="#29ACE4"/>
<path d="M1134.35 540.83L1082.43 527.2L987.257 536.726L1054.02 550.498L1134.35 540.83Z" fill="#634874"/>
<path d="M1190.21 486.232L1191.49 556.965L1138.31 543.412L1136.94 467.361L1190.21 486.232Z" fill="#48598B"/>
<path d="M1132.74 467.775L1134.35 540.83L1082.41 527.484L1081.38 451.395L1132.74 467.775Z" fill="#48598B"/>
<path d="M1081.53 451.473L1082.7 528.013L886.298 557.249L885.238 492.802L1081.53 451.473Z" fill="#29ACE4"/>
<path d="M818.742 615.061L904.285 639.056L1036.58 631.234L880.599 606.039L818.742 615.061Z" fill="#634874"/>
<path d="M880.6 543.657L818.743 552.189V615.061L880.6 606.039V543.657Z" fill="#29ACE4"/>
<path d="M880.341 543.748V606.039L982.32 625.955V568.427L880.341 543.748Z" fill="#48598B"/>
<path d="M948.167 598.436L1104.66 631.066L1180.32 625.787L1039.67 584.212L948.167 598.436Z" fill="#634874"/>
<path d="M1017.43 525.096V587.684L1180.32 625.787V567.058L1017.43 525.096Z" fill="#48598B"/>
<path d="M1017.43 525.096V587.684L948.425 598.823V536.429L1017.43 525.096Z" fill="#29ACE4"/>
<path d="M828.279 674.293L963.92 702.212L1056.96 676.513L886.22 641.96L828.279 674.293Z" fill="#634874"/>
<path d="M1079.11 608.078V667.994L1014.41 653.022V590.898L1079.11 608.078Z" fill="#48598B"/>
<path d="M828.278 620.843V674.293L1023.55 656.081V593.957L828.278 620.843Z" fill="#29ACE4"/>
<path d="M1173.85 681.96V742.547H1017.43L940.57 728.246L940.919 669.698L1015.72 661.024L1173.85 681.96Z" fill="#48598B"/>
<path d="M1035.14 691.821V747.207H892.19L821.947 734.131L822.257 680.617L890.626 672.692L1035.14 691.821Z" fill="#48598B"/>
<path d="M889.231 672.538V735.539L821.637 734.351V678.604L889.231 672.538Z" fill="#29ACE4"/>
<path d="M1014.19 660.844V729.782L940.234 728.478V667.491L1014.19 660.844Z" fill="#29ACE4"/>
<path d="M1136.96 93.6405V168.645" stroke="#29ACE4" stroke-width="1.15556" stroke-miterlimit="10"/>
<path d="M1079.36 62.1334V139.294" stroke="#29ACE4" stroke-width="1.15556" stroke-miterlimit="10"/>
<path d="M885.703 294.557L954.719 311.066V341.63L898.909 355.661L887.241 354.809L885.703 294.557Z" fill="#48598B"/>
<path d="M0.489689 865.271C4.24995 858.869 147.709 724.335 489.195 720.256C765.904 716.952 1182.38 728.427 1274.39 759.069C1274.39 759.069 999.363 743.748 827.606 784.6C655.848 825.452 541.929 848.737 458.518 859.153C393.082 867.323 273.8 878.217 245.178 880.257C110.377 889.873 258.656 830.279 109.369 857.617C17.3526 874.461 -3.85206 872.667 0.489689 865.271Z" fill="#866694"/>
<path d="M861.346 797.869C861.346 797.869 953.362 763.148 1108.76 773.357C1294.24 785.542 1341.47 760.708 1341.47 760.708C1341.47 760.708 1290.35 835.468 1170.4 814.661C1007.63 786.446 861.346 797.869 861.346 797.869Z" fill="#866694"/>
</g>
<defs>
<clipPath id="clip0_133_750">
<rect width="1199" height="881" fill="white" transform="matrix(-1 0 0 1 1199 0)"/>
</clipPath>
</defs>
</svg>
